<svg xmlns="http://www.w3.org/2000/svg" viewBox="0 0 750 500"><g id="freepik--background-simple--inject-9"><path d="M707.44,156.75c-17.21-37.75-43.21-70.66-81.62-89-51.33-24.58-112.16-25.19-165.41-6.35C430,72.1,403.11,90.16,376.93,108.57c-23.26,16.36-49.81,41.35-78.57,46.63-38.95,7.15-131-50.85-200-34.85s-89,106-72,162,83,56,107,102,110,85,216,59,161-41,217-20,133,27,159-61a262.29,262.29,0,0,0,8.53-109C729.63,221.41,721.45,187.48,707.44,156.75Z" style="fill:#92E3A9"></path><path d="M707.44,156.75c-17.21-37.75-43.21-70.66-81.62-89-51.33-24.58-112.16-25.19-165.41-6.35C430,72.1,403.11,90.16,376.93,108.57c-23.26,16.36-49.81,41.35-78.57,46.63-38.95,7.15-131-50.85-200-34.85s-89,106-72,162,83,56,107,102,110,85,216,59,161-41,217-20,133,27,159-61a262.29,262.29,0,0,0,8.53-109C729.63,221.41,721.45,187.48,707.44,156.75Z" style="fill:#fff;opacity:0.7000000000000001"></path></g><g id="freepik--Furnitures--inject-9"><g style="opacity:0.30000000000000004"><rect x="336.05" y="108.07" width="273.12" height="74.03" style="fill:#fff;stroke:#000;stroke-miterlimit:10"></rect><rect x="307" y="108.07" width="273.12" height="74.03" style="fill:#fff;stroke:#000;stroke-miterlimit:10"></rect><line x1="363.17" y1="108.79" x2="363.17" y2="182.11" style="fill:none;stroke:#000;stroke-miterlimit:10"></line><line x1="440.65" y1="108.79" x2="440.65" y2="182.11" style="fill:none;stroke:#000;stroke-miterlimit:10"></line><line x1="518.13" y1="108.79" x2="518.13" y2="182.11" style="fill:none;stroke:#000;stroke-miterlimit:10"></line><rect x="520.87" y="140" width="3.54" height="10.63" style="fill:#fff;stroke:#000;stroke-miterlimit:10"></rect><rect x="511.31" y="140" width="3.54" height="10.63" style="fill:#fff;stroke:#000;stroke-miterlimit:10"></rect><rect x="433.74" y="140" width="3.54" height="10.63" style="fill:#fff;stroke:#000;stroke-miterlimit:10"></rect><rect x="356.88" y="140" width="3.54" height="10.63" style="fill:#fff;stroke:#000;stroke-miterlimit:10"></rect><rect x="366.09" y="140" width="3.54" height="10.63" style="fill:#fff;stroke:#000;stroke-miterlimit:10"></rect><rect x="444.72" y="140" width="3.54" height="10.63" style="fill:#fff;stroke:#000;stroke-miterlimit:10"></rect><rect x="333.35" y="288.76" width="275.06" height="137.26" style="fill:#fff;stroke:#000;stroke-miterlimit:10"></rect><rect x="304.3" y="288.76" width="275.06" height="137.26" style="fill:#fff;stroke:#000;stroke-miterlimit:10"></rect></g></g><g id="freepik--Device--inject-9"><rect x="604.86" y="254.61" width="58.97" height="53.38" style="fill:#fff;stroke:#263238;stroke-linecap:round;stroke-linejoin:round"></rect><rect x="609.89" y="259.38" width="46.17" height="43.83" style="fill:#263238;stroke:#263238;stroke-linecap:round;stroke-linejoin:round"></rect><path d="M661.15,269.9a1.37,1.37,0,1,1-1.37-1.37A1.37,1.37,0,0,1,661.15,269.9Z" style="fill:#fff;stroke:#263238;stroke-linecap:round;stroke-linejoin:round"></path><path d="M661.15,279.83a1.37,1.37,0,1,1-1.37-1.37A1.37,1.37,0,0,1,661.15,279.83Z" style="fill:#fff;stroke:#263238;stroke-linecap:round;stroke-linejoin:round"></path><path d="M661.15,289.77a1.37,1.37,0,1,1-1.37-1.37A1.37,1.37,0,0,1,661.15,289.77Z" style="fill:#fff;stroke:#263238;stroke-linecap:round;stroke-linejoin:round"></path><rect x="599.02" y="358.63" width="69.77" height="64.4" style="fill:#fff;stroke:#263238;stroke-linecap:round;stroke-linejoin:round"></rect><rect x="599.02" y="311.01" width="69.77" height="9.02" style="fill:#fff;stroke:#263238;stroke-linecap:round;stroke-linejoin:round"></rect><rect x="599.02" y="324.03" width="69.77" height="9.02" style="fill:#fff;stroke:#263238;stroke-linecap:round;stroke-linejoin:round"></rect><rect x="599.02" y="337.04" width="69.77" height="9.02" style="fill:#fff;stroke:#263238;stroke-linecap:round;stroke-linejoin:round"></rect><rect x="599.02" y="389.84" width="69.77" height="33.19" style="fill:#fff;stroke:#263238;stroke-linecap:round;stroke-linejoin:round"></rect><rect x="625" y="371.99" width="17.81" height="3.43" style="fill:#263238;stroke:#263238;stroke-linecap:round;stroke-linejoin:round"></rect><rect x="625" y="404.88" width="17.81" height="3.43" style="fill:#263238;stroke:#263238;stroke-linecap:round;stroke-linejoin:round"></rect><path d="M599.21,426a2.6,2.6,0,0,0,.17-.93V312.62h68.38V425.77a2,2,0,0,0,0,.25H673a1.9,1.9,0,0,0,0-.25V310a2.64,2.64,0,0,0-2.64-2.64H596.74A2.64,2.64,0,0,0,594.1,310V425.09a2.61,2.61,0,0,0,.18.93Z" style="fill:#fff;stroke:#263238;stroke-linecap:round;stroke-linejoin:round"></path></g><g id="freepik--ct-scan--inject-9"><path d="M251.49,107.26H154.28c-47.37,0-85.79,68.6-85.87,153.28h0V426H240.69V414.37h10.8Z" style="fill:#bfbfbf;stroke:#263238;stroke-miterlimit:10"></path><rect x="163.69" y="260.54" width="172.28" height="165.48" style="fill:#fff;stroke:#263238;stroke-miterlimit:10"></rect><path d="M335.75,260.54q0,6.06-.26,12a260.87,260.87,0,0,1-4.12,36.52c-6.15,33.14-18.45,61.28-34.47,80.11-.23.27-.45.53-.69.79-13.4,15.44-29.36,24.39-46.49,24.39-15.7,0-30.42-7.52-43.09-20.65-1.07-1.11-2.13-2.26-3.16-3.45-15.06-17.2-26.92-42.55-33.64-72.57A257.15,257.15,0,0,1,164,272.56q-.25-6-.26-12c0-40.72,8.85-77.75,23.29-105.27,15.7-29.9,38-48.57,62.74-48.57,25,0,47.42,19,63.12,49.33C327.06,183.47,335.75,220.19,335.75,260.54Z" style="fill:#fff;stroke:#263238;stroke-miterlimit:10"></path><path d="M182.42,200.52a2.19,2.19,0,1,1-2.19-2.19A2.19,2.19,0,0,1,182.42,200.52Z" style="fill:#263238"></path><path d="M191.7,200.52a2.19,2.19,0,1,1-2.19-2.19A2.19,2.19,0,0,1,191.7,200.52Z" style="fill:#263238"></path><path d="M201,200.52a2.19,2.19,0,1,1-2.19-2.19A2.19,2.19,0,0,1,201,200.52Z" style="fill:#263238"></path><path d="M182.42,211.43a2.19,2.19,0,1,1-2.19-2.18A2.19,2.19,0,0,1,182.42,211.43Z" style="fill:#263238"></path><circle cx="189.51" cy="211.43" r="2.18" style="fill:#263238"></circle><path d="M201,211.43a2.19,2.19,0,1,1-2.19-2.18A2.19,2.19,0,0,1,201,211.43Z" style="fill:#263238"></path><path d="M303.05,200.52a2.19,2.19,0,1,1-2.19-2.19A2.19,2.19,0,0,1,303.05,200.52Z" style="fill:#263238"></path><path d="M312.33,200.52a2.19,2.19,0,1,1-2.19-2.19A2.19,2.19,0,0,1,312.33,200.52Z" style="fill:#263238"></path><path d="M321.61,200.52a2.19,2.19,0,1,1-2.19-2.19A2.19,2.19,0,0,1,321.61,200.52Z" style="fill:#263238"></path><path d="M303.05,211.43a2.19,2.19,0,1,1-2.19-2.18A2.19,2.19,0,0,1,303.05,211.43Z" style="fill:#263238"></path><circle cx="310.14" cy="211.43" r="2.18" style="fill:#263238"></circle><path d="M321.61,211.43a2.19,2.19,0,1,1-2.19-2.18A2.19,2.19,0,0,1,321.61,211.43Z" style="fill:#263238"></path><path d="M254.47,267.11l-51,123.16c1,1.19,2.09,2.34,3.16,3.45,12.67,13.13,27.39,20.65,43.09,20.65,17.13,0,33.09-8.95,46.49-24.39ZM312.84,156l-57.28,96.35L187,155.27c-14.44,27.52-23.29,64.55-23.29,105.27q0,6.06.26,12a257.15,257.15,0,0,0,5.88,45.14l84-56.27,77.57,47.65a260.87,260.87,0,0,0,4.12-36.52q.25-6,.26-12C335.75,220.19,327.06,183.47,312.84,156Z" style="fill:none;stroke:#263238;stroke-miterlimit:10"></path><path d="M300.68,260.54c0,2.39-.05,4.77-.15,7.12-1.25,28.9-10,54-22.86,69.09-8,9.43-17.63,14.91-28,14.91-9.3,0-18-4.45-25.52-12.23-14.13-14.64-24-41.08-25.29-71.77-.1-2.35-.15-4.73-.15-7.12,0-24.13,5.24-46.06,13.8-62.36,9.3-17.72,22.51-28.78,37.16-28.78s28.09,11.25,37.39,29.23C295.54,214.88,300.68,236.63,300.68,260.54Z" style="fill:#fff;stroke:#263238;stroke-miterlimit:10"></path><ellipse cx="253.8" cy="261.43" rx="35.39" ry="63.28" style="fill:#fff;stroke:#263238;stroke-miterlimit:10"></ellipse><rect x="237.98" y="123.18" width="29.88" height="32.37" style="fill:#92E3A9;stroke:#263238;stroke-miterlimit:10"></rect><rect x="78.91" y="363.44" width="27.6" height="11.44" style="fill:gray;stroke:#263238;stroke-miterlimit:10"></rect><rect x="115.42" y="363.44" width="27.6" height="11.44" style="fill:gray;stroke:#263238;stroke-miterlimit:10"></rect><rect x="78.91" y="380.86" width="27.6" height="11.44" style="fill:gray;stroke:#263238;stroke-miterlimit:10"></rect><rect x="115.42" y="380.86" width="27.6" height="11.44" style="fill:gray;stroke:#263238;stroke-miterlimit:10"></rect><rect x="78.91" y="398.29" width="27.6" height="11.44" style="fill:gray;stroke:#263238;stroke-miterlimit:10"></rect><rect x="115.42" y="398.29" width="27.6" height="11.44" style="fill:gray;stroke:#263238;stroke-miterlimit:10"></rect><rect x="305.03" y="175.58" width="10.2" height="10.2" style="fill:#92E3A9"></rect><rect x="187.75" y="175.58" width="10.2" height="10.2" style="fill:#92E3A9"></rect><line x1="186.98" y1="155.27" x2="91.76" y2="155.27" style="fill:none;stroke:#263238;stroke-miterlimit:10"></line></g><g id="freepik--character-2--inject-9"><path d="M432.41,237l2,16.41s3.21,16,2.62,23.16-2.18,22.78-1.88,25.86,1.48,8.88.67,10.23-2.51,6.76-4.24,6.76-4.78-1.55-4.78-1.55a2.93,2.93,0,0,1-1.27-2.89c.43-1.74,1.25-3.28,1.29-4.63s-.72-1.93.14-5,2.32-6.95,2.32-6.95-6.22-32.81-7.11-35.51-3.83-21.43-3.83-21.43Z" style="fill:#fff;stroke:#263238;stroke-miterlimit:10"></path><path d="M426.85,317.82a2.93,2.93,0,0,1-1.27-2.89c.43-1.74,1.25-3.28,1.29-4.63s-.72-1.93.14-5,2.32-6.95,2.32-6.95l-.07-.33a50,50,0,0,0,6-.33,39,39,0,0,0-.1,4.71c.29,3.09,1.48,8.88.67,10.23s-2.51,6.76-4.24,6.76S426.85,317.82,426.85,317.82Z" style="fill:#92E3A9;stroke:#263238;stroke-miterlimit:10"></path><path d="M430.38,310.94a17.83,17.83,0,0,0-1.14,4.55c-.05,1.77-1.09,3.53-2.39,2.33" style="fill:none;stroke:#263238;stroke-miterlimit:10"></path><path d="M330.2,206.16s-6-1.14-5.19.12a3.82,3.82,0,0,0,2.87,1.27s-3.92.38-2.69,1.39a5.37,5.37,0,0,0,3.26.88s-3.31.76-1.43,1.65a34.7,34.7,0,0,0,6.52,1.64c.63.13.45-2.4-.37-4.68A3.31,3.31,0,0,0,330.2,206.16Z" style="fill:#92E3A9;stroke:#263238;stroke-miterlimit:10"></path><path d="M363,234.72,361,236.37,342,218s-7-11.12-7.63-12-5.46-3.29-5.46-3.29-4.12-1.89-4.54-.63.59,1.52,1.47,1.9,4.36,2.15,4.36,2.15,1.79,3.79,2.27,4.55-.67,1.26-1.42,1.14-5.25-2.15-5.42-.51,1.19,2.4,2.2,2.78a25.71,25.71,0,0,1,3.12,1.39,34,34,0,0,0,4.85,2.78c1,.25,20.94,32.74,21.66,34s3,2.78,4.12,1.9,14-16.69,14-16.69Z" style="fill:#fff;stroke:#263238;stroke-miterlimit:10"></path><path d="M328.91,202.74s4.86,2.41,5.46,3.29S342,218,342,218l.38.36-4.08,3.3a21.54,21.54,0,0,0-2.5-3.41,34,34,0,0,1-4.85-2.78,25.71,25.71,0,0,0-3.12-1.39c-1-.38-2.37-1.14-2.2-2.78s4.66.38,5.42.51,1.91-.38,1.42-1.14-2.27-4.55-2.27-4.55-3.49-1.77-4.36-2.15-1.88-.63-1.47-1.9S328.91,202.74,328.91,202.74Z" style="fill:#92E3A9;stroke:#263238;stroke-miterlimit:10"></path><path d="M408.55,408.93s-.72,4.74,2,7.48c4.66,4.68,5.51,7.6,4.79,8.42s-16.07,1.64-19,.35-1.47-6.08-.81-8.65a60.25,60.25,0,0,0,1-7.72Z" style="fill:#fff;stroke:#263238;stroke-miterlimit:10"></path><path d="M384.91,408a15.78,15.78,0,0,1-1.68,7.25c-1.85,3.51-7.79,6.9-6.13,9.94.52.94,15.7,1.29,18.66,0s1.81-6.08,1.3-8.65a60.57,60.57,0,0,1-.6-7.72Z" style="fill:#fff;stroke:#263238;stroke-miterlimit:10"></path><path d="M425.48,289.49s-4.88,29.15-7,37.85-3.2,23.56-3.2,23.56,1.16,14.8-1.36,24.13-5.69,26.29-5.69,26.29,1.64,1.81,1.43,2.64-1.06,6.2-1.06,6.2a14.94,14.94,0,0,1-6,1,28.9,28.9,0,0,1-6.59-1.08,28.49,28.49,0,0,1-5.57.33c-2.88-.14-6-2.54-6-2.54s-1-4.92-.59-6.57,2.69-1.51,1.26-5-7.22-39.58-9.64-51.88-5.52-52-5.52-52Z" style="fill:#92E3A9;stroke:#263238;stroke-miterlimit:10"></path><line x1="395.95" y1="402.26" x2="396.04" y2="410.05" style="fill:none;stroke:#263238;stroke-miterlimit:10"></line><polyline points="388.09 306.84 394.88 309.36 395.89 397.44" style="fill:none;stroke:#263238;stroke-miterlimit:10"></polyline><path d="M409,201.38a55.29,55.29,0,0,0,5.72,2.75c2.71,1.06,15.42,4.72,15.68,6.1S438.41,238,438.41,238a74.91,74.91,0,0,1-12.19,5.18l-5.38,1.53,2.87,17.23,4.84,33.7a144.88,144.88,0,0,1-23.88,3.21c-13.9.76-29.84-1.68-29.84-1.68l-8.14-3.36s3.17-14.94,5.45-25.62S375.79,247,375.79,247l-2.74-5.8-12.31-6.86,6.94-13.57s7.56-13.88,9.28-15.25,12-4,12-4Z" style="fill:#92E3A9;stroke:#263238;stroke-miterlimit:10"></path><line x1="420.84" y1="244.69" x2="423.09" y2="224.56" style="fill:none;stroke:#263238;stroke-miterlimit:10"></line><line x1="373.05" y1="241.18" x2="375.96" y2="224.56" style="fill:none;stroke:#263238;stroke-miterlimit:10"></line><path d="M406,193.3l0,7,3,1.07a20.94,20.94,0,0,1-3.6,3.2c-2,1.38-5.28,3.36-5.28,3.36s-3.25,12.35-4.56,15.55a20.68,20.68,0,0,1-2.26,4.43L391.71,207s-2-3.5-2.33-4,.83-2.44.83-2.44l-.65-9.3Z" style="fill:#fff;stroke:#263238;stroke-miterlimit:10"></path><path d="M401.08,155.71s2-2.06,4.17-2.16,1.42,1.48,2.89,1.57,2.72-1.17,4.51-.49,2.64,3,2.85,3.44,1.6,1.08,2,1.38,1.83,2.26,1.57,3.64,1,2.06,1.86,3,1.74,2.56,1.08,3.54-1.44,1.38-.71,2.65,1.16,3,.31,3.94-1.73,1.47-1.6,2.45.74,2.07.18,2.95-1.36.59-1.43,1.67,1.41,1.08.37,2.56-4.11.78-4.47,2,1.07,3.05-.59,3.54a4.42,4.42,0,0,1-2.25.3c-.49,0-1.06.88-1.06.88a1.73,1.73,0,0,1-.25-2.16c.64-1.48,1-1.38.82-2.36a2.48,2.48,0,0,0-1.23-1.47l1.21-2.46s2,.19.12-2.75-3.41-2.56-3.41-6,.6-10-1.95-13.17-4.82-3.83-5-4.72A3.67,3.67,0,0,1,401.08,155.71Z" style="fill:#263238;stroke:#263238;stroke-miterlimit:10"></path><path d="M396.75,155.22a16.8,16.8,0,0,0,1.78.59,15.55,15.55,0,0,1,2.55-.1c1.48.2,2,1.28,2.61,1.87s1,.69,2.59,1.18.89.3,2.51,2,.94,1.86,1.85,2.65a10,10,0,0,1,2.43,2.56c.62,1.08-.12,2.85-.36,4.62s.75,2.26.89,3.73a3.29,3.29,0,0,1-1.3,2.56,6.66,6.66,0,0,1,1.34,2.16,5.44,5.44,0,0,1-.06,4.91c-.74,1.77-3.47,2.66-3.47,2.66a10.43,10.43,0,0,1-1.56,3.73,66.16,66.16,0,0,1-7.52,8.55c-1.16.89-3,2.95-6.74,1.57s-7.43-5.5-9-8.55-2.85-17.39-3.06-17.79a9.21,9.21,0,0,1-.33-1.37c-.22-.69,0-.69,0-1.28s.18-.49.08-.88a6.38,6.38,0,0,1-.31-3.84c.54-1.67,1-2.45,1.1-2.95a6,6,0,0,1,.43-2.06,4.3,4.3,0,0,1,2.11-1.87,12,12,0,0,1,1.31-2.36c.85-1.18,1.66-.49,2.34-.68a19.37,19.37,0,0,0,2.71-1.58,2,2,0,0,1,1.81.07A5,5,0,0,1,396.75,155.22Z" style="fill:#fff;stroke:#263238;stroke-miterlimit:10"></path><path d="M413.6,174.29c-.14-1.47-1.14-2-.89-3.73s1-3.54.36-4.62a10,10,0,0,0-2.43-2.56c-.91-.79-.23-1-1.85-2.65s-.92-1.48-2.51-2-2-.59-2.59-1.18-1.13-1.67-2.61-1.87a15.55,15.55,0,0,0-2.55.1,16.8,16.8,0,0,1-1.78-.59,5,5,0,0,0-3.3.07,2,2,0,0,0-1.81-.07,19.37,19.37,0,0,1-2.71,1.58c-.68.19-1.49-.5-2.34.68a12,12,0,0,0-1.31,2.36,4.3,4.3,0,0,0-2.11,1.87,6,6,0,0,0-.43,2.06c-.09.5-.56,1.28-1.1,2.95a6.38,6.38,0,0,0,.31,3.84c.11.39-.09.29-.08.88s-.18.59,0,1.28a9.21,9.21,0,0,0,.33,1.37,21.51,21.51,0,0,1,.31,2.22l.15,0a21.81,21.81,0,0,0,1.12-5.5c-.05-2-.28-2.85.4-3.34a5.82,5.82,0,0,0,2.3-2.07c.84-1.37.14-2.06,2.2-2.16a27.63,27.63,0,0,0,3.13-.29s1.62-2.07,3.31-1.18,3.19,1.47,3.19,1.47-.84,1.48.25,2.07,3,.88,1.91,1.47-2,.69-1.33,1.38a3.81,3.81,0,0,0,1.69.88s-1.29-.69.16-1.28,1.63-1.67,1.12-2.26a.78.78,0,0,1,0-1.08,3.3,3.3,0,0,1,2.49,1.18c.82,1.18,1,1.87,1.72,1.87s2.49,1.18,2,2.06-1.14,1.48-.82,2.26,1.51,1.58,1.53,2.26-.67.4-.43,2.07.55,2.16.95,2.26,1.44-1.18,1.73-1.48,1-.09,1-.09A3.29,3.29,0,0,0,413.6,174.29Z" style="fill:#263238;stroke:#263238;stroke-miterlimit:10"></path><path d="M382.76,178.42s-.38-2.85-1.69-.69-.35,5,.58,6.78,2.31,1.57,2.31,1.57Z" style="fill:#fff;stroke:#263238;stroke-miterlimit:10"></path><path d="M392.8,179.11a9.92,9.92,0,0,1,0,4.81c-.61,3-1.17,3.93-.46,4.52a2.23,2.23,0,0,0,2.27.3" style="fill:none;stroke:#263238;stroke-linecap:round;stroke-linejoin:round"></path><path d="M391.8,192.28s2.78,1,4.42.09" style="fill:none;stroke:#263238;stroke-linecap:round;stroke-linejoin:round"></path><path d="M391.67,177.34s-3.61-2.56-5.8-.1" style="fill:none;stroke:#263238;stroke-linecap:round;stroke-linejoin:round"></path><path d="M397.58,177.63a5.84,5.84,0,0,1,6.43,1.48" style="fill:none;stroke:#263238;stroke-linecap:round;stroke-linejoin:round"></path><path d="M390.21,181.37c0,.86-.33,1.57-.79,1.57s-.85-.71-.88-1.57.33-1.58.79-1.58S390.19,180.5,390.21,181.37Z" style="fill:#263238"></path><path d="M401,182.45c0,.87-.33,1.57-.79,1.57s-.85-.7-.88-1.57.33-1.57.79-1.57S401,181.58,401,182.45Z" style="fill:#263238"></path></g><g id="freepik--character-1--inject-9"><path d="M250.53,278.76s-12.05,7.74-12.62,10,6.88,10,17.78,12.91,28.68-2.58,31.84-10,1.14-11.76-5.17-14.06S254.25,276.47,250.53,278.76Z" style="fill:#bfbfbf;stroke:#263238;stroke-miterlimit:10"></path><path d="M255.69,301.71c10.9,2.86,28.68-2.58,31.84-10a16,16,0,0,0,1.47-6.13c-5.15,0-14.84,4.18-20.4,4.41-7.17.28-18.36-3.16-22.38-4s-8.31,2.87-8.31,2.87C237.33,291.09,244.79,298.84,255.69,301.71Z" style="fill:#fff;stroke:#263238;stroke-miterlimit:10"></path><path d="M278.19,264.8a24.56,24.56,0,0,0,4.6,5.35c2.4,1.84,9.22,2.39,9.22,2.39L291.46,284s-19.36.55-22.49.92-5.4-4-4.64-7.79S272.66,263.88,278.19,264.8Z" style="fill:#fff;stroke:#263238;stroke-miterlimit:10"></path><path d="M249.85,261.25a10.68,10.68,0,0,0-3.24,5c-1,3.25-.38,10,1.37,12.73s6.12,4.75,10.49,5.87,12.48.25,13.1-2.37-2.24-5.37-2.74-6-5.75-5.5-7.24-5.75-1.88.25-3.87-2a60.29,60.29,0,0,1-5-6.37C252.35,261.62,250.72,260.5,249.85,261.25Z" style="fill:#263238;stroke:#263238;stroke-miterlimit:10"></path><path d="M264.33,277.1s-3.87-.37-3.49,1.62,5.62,2.88,7.36,2.25,1.63-3.12,1.63-3.12a26.52,26.52,0,0,0,4.86-3.12c1.63-1.5,5.75-12.36,5.12-14.86s-2.74-2.12-4.37-2.12a78.32,78.32,0,0,1-8-1.37s-1.12-3.5-2.87-2.87-3.74,3.37-3.74,3.37-4.87.62-7.74,2.24-4.62,3.25-3.75,5.37,3.5.88,3.87,3,1.13,6.49,2.5,6.87,5.87-1.63,7-.38A8.77,8.77,0,0,1,264.33,277.1Z" style="fill:#fff;stroke:#263238;stroke-miterlimit:10"></path><path d="M270.57,259.62a4.1,4.1,0,0,1-2,3.37" style="fill:none;stroke:#263238;stroke-miterlimit:10"></path><path d="M257.47,259.25s-2.87,1.12-.75,3.74" style="fill:none;stroke:#263238;stroke-miterlimit:10"></path><path d="M262.09,262.37c0,.41-.54.75-1.19.75s-1.19-.34-1.19-.75.53-.75,1.19-.75S262.09,262,262.09,262.37Z" style="fill:#263238"></path><rect x="297.75" y="318.91" width="147" height="15.41" style="fill:#fff;stroke:#263238;stroke-miterlimit:10"></rect><rect x="297.75" y="334.2" width="147" height="15.41" style="fill:#fff;stroke:#263238;stroke-miterlimit:10"></rect><rect x="297.75" y="349.48" width="147" height="15.41" style="fill:#fff;stroke:#263238;stroke-miterlimit:10"></rect><rect x="297.75" y="364.76" width="147" height="15.41" style="fill:#fff;stroke:#263238;stroke-miterlimit:10"></rect><rect x="297.75" y="380.04" width="147" height="15.41" style="fill:#fff;stroke:#263238;stroke-miterlimit:10"></rect><rect x="297.75" y="395.33" width="147" height="15.41" style="fill:#fff;stroke:#263238;stroke-miterlimit:10"></rect><rect x="444.75" y="318.91" width="16.01" height="15.41" style="fill:#fff;stroke:#263238;stroke-miterlimit:10"></rect><rect x="444.75" y="334.2" width="16.01" height="15.41" style="fill:#fff;stroke:#263238;stroke-miterlimit:10"></rect><rect x="444.75" y="349.48" width="16.01" height="15.41" style="fill:#fff;stroke:#263238;stroke-miterlimit:10"></rect><rect x="444.75" y="364.76" width="16.01" height="15.41" style="fill:#fff;stroke:#263238;stroke-miterlimit:10"></rect><rect x="444.75" y="380.04" width="16.01" height="15.41" style="fill:#fff;stroke:#263238;stroke-miterlimit:10"></rect><rect x="444.75" y="395.33" width="16.01" height="15.41" style="fill:#fff;stroke:#263238;stroke-miterlimit:10"></rect><polygon points="480.77 426.02 303.02 426.02 303.02 410.61 469.58 410.61 480.77 426.02" style="fill:#bfbfbf;stroke:#263238;stroke-miterlimit:10"></polygon><polygon points="471.72 426.02 293.97 426.02 293.97 410.61 460.53 410.61 471.72 426.02" style="fill:#bfbfbf;stroke:#263238;stroke-miterlimit:10"></polygon><path d="M298.47,271.7a53.45,53.45,0,0,0-11.84,7.48c-6.63,5.34-5,14.38-.55,17.33s13.64,5.34,25.43,6.45,26.36.55,27.1.18,156.48,0,156.48,0a8.05,8.05,0,0,0,.92-5.71c-.55-3.69,1.11-8.67,1.3-11.8s-.74-9.4-1.85-11.61-2.95.37-3.32,1.84a93.5,93.5,0,0,1-5.53,12.35,11.9,11.9,0,0,1-2.76,3.32s-12.9-.19-21-1.48-15.12-2.76-21.2-4.05-16.59-2.77-16.59-2.77-15.25.06-18.93-.49-2.51-1.61-4.17-2.16-24.86-5.87-34.81-6.24-9.36-1.8-12.5-2-6.63-.18-10.13-1.47-18.91.3-26.84-1.36S304.92,269.12,298.47,271.7Z" style="fill:#fff;stroke:#263238;stroke-miterlimit:10"></path><path d="M301,267s-12.35,6.82-19,12.17-5,14.38-.56,17.33,13.64,5.34,25.44,6.45,26.36.55,27.09.18,156.49,0,156.49,0a8.11,8.11,0,0,0,.92-5.71c-.55-3.69,1.11-8.67,1.29-11.8s-.74-9.4-1.84-11.61-2.95.37-3.32,1.84A96.2,96.2,0,0,1,482,288.21a11.9,11.9,0,0,1-2.76,3.32s-12.91-.19-21-1.48-15.11-2.76-21.19-4.05-16.59-2.77-16.59-2.77a24.79,24.79,0,0,0-6.64-2c-3.68-.56-7.92-.56-9.58-1.11s-25.25-7.19-35.21-7.56-15.85,0-19-.18-6.64-.18-10.14-1.47-12.72-2-20.64-3.69S307.49,264.43,301,267Z" style="fill:#fff;stroke:#263238;stroke-miterlimit:10"></path><path d="M417.73,282.15a23.89,23.89,0,0,0-3.89-.94c-3.68-.56-7.92-.56-9.58-1.11s-25.25-7.19-35.21-7.56-15.85,0-19-.18-6.64-.18-10.14-1.47-12.72-2-20.64-3.69-11.8-2.77-18.25-.19c0,0-12.35,6.82-19,12.17s-5,14.38-.56,17.33,13.64,5.34,25.44,6.45,26.36.55,27.09.18c.39-.19,43-.18,83.7-.13Z" style="fill:#92E3A9;stroke:#263238;stroke-miterlimit:10"></path><path d="M415.38,288.6a.72.72,0,0,0-.66.44.64.64,0,0,0-.06.28h1.44a.82.82,0,0,0-.05-.28A.73.73,0,0,0,415.38,288.6Z" style="fill:#263238"></path><path d="M408.18,282.84a.72.72,0,1,0-.72-.72A.72.72,0,0,0,408.18,282.84Z" style="fill:#263238"></path><path d="M401.7,289.32a.82.82,0,0,0-.05-.28.63.63,0,0,0-.16-.23.72.72,0,0,0-.51-.21v.72Z" style="fill:#263238"></path><path d="M415.38,303h0Z" style="fill:#263238"></path><path d="M407.46,296.52a.72.72,0,0,0,1.44,0,.72.72,0,0,0-1.44,0Z" style="fill:#263238"></path><path d="M415.38,290a.72.72,0,0,0,.72-.72h-1.44A.73.73,0,0,0,415.38,290Z" style="fill:#263238"></path><path d="M401,289.32V290a.72.72,0,0,0,.72-.72Z" style="fill:#263238"></path><path d="M401,289.32v-.72a.71.71,0,0,0-.66.44.64.64,0,0,0-.06.28Z" style="fill:#263238"></path><path d="M387.3,289.32a.82.82,0,0,0-.05-.28.72.72,0,0,0-1.33,0,.64.64,0,0,0-.06.28Z" style="fill:#263238"></path><path d="M386.58,275.64a.73.73,0,0,0,.3-.07l-.84-.19A.74.74,0,0,0,386.58,275.64Z" style="fill:#263238"></path><path d="M380.1,282.12a.72.72,0,1,0-1.44,0,.72.72,0,1,0,1.44,0Z" style="fill:#263238"></path><path d="M394.5,282.12a.72.72,0,1,0-.72.72A.72.72,0,0,0,394.5,282.12Z" style="fill:#263238"></path><path d="M372.18,288.6v.72h.72a.82.82,0,0,0,0-.28A.73.73,0,0,0,372.18,288.6Z" style="fill:#263238"></path><path d="M372.9,274.92a.72.72,0,0,0-.72-.72v1.44A.72.72,0,0,0,372.9,274.92Z" style="fill:#263238"></path><path d="M378.66,296.52a.72.72,0,1,0,1.44,0,.72.72,0,1,0-1.44,0Z" style="fill:#263238"></path><path d="M393.06,296.52a.72.72,0,1,0,.72-.72A.72.72,0,0,0,393.06,296.52Z" style="fill:#263238"></path><path d="M400.26,289.32a.73.73,0,0,0,.72.72v-.72Z" style="fill:#263238"></path><path d="M386.58,290a.72.72,0,0,0,.72-.72h-1.44A.73.73,0,0,0,386.58,290Z" style="fill:#263238"></path><path d="M372.18,290a.72.72,0,0,0,.72-.72h-.72Z" style="fill:#263238"></path><path d="M372.18,288.6a.87.87,0,0,0-.28,0,.73.73,0,0,0-.38.39.64.64,0,0,0-.06.28h.72Z" style="fill:#263238"></path><path d="M358.5,289.32a.82.82,0,0,0-.05-.28.73.73,0,0,0-.67-.44.71.71,0,0,0-.66.44.64.64,0,0,0-.06.28Z" style="fill:#263238"></path><path d="M371.9,275.58a.67.67,0,0,0,.28.06V274.2a.87.87,0,0,0-.28.05.73.73,0,0,0-.44.67A.71.71,0,0,0,371.9,275.58Z" style="fill:#263238"></path><path d="M357.78,274.2a.72.72,0,1,0,.72.72A.72.72,0,0,0,357.78,274.2Z" style="fill:#263238"></path><path d="M350.58,282.84a.72.72,0,1,0-.72-.72A.72.72,0,0,0,350.58,282.84Z" style="fill:#263238"></path><path d="M365,282.84a.72.72,0,1,0-.72-.72A.72.72,0,0,0,365,282.84Z" style="fill:#263238"></path><path d="M344.1,289.32a.82.82,0,0,0-.05-.28.73.73,0,0,0-.67-.44v.72Z" style="fill:#263238"></path><path d="M344.1,274.92a.72.72,0,0,0-.72-.72v1.44A.72.72,0,0,0,344.1,274.92Z" style="fill:#263238"></path><path d="M349.86,296.52a.72.72,0,1,0,1.44,0,.72.72,0,1,0-1.44,0Z" style="fill:#263238"></path><path d="M364.26,296.52a.72.72,0,1,0,.72-.72A.72.72,0,0,0,364.26,296.52Z" style="fill:#263238"></path><path d="M343.38,303h.13l-.13,0Z" style="fill:#263238"></path><path d="M371.46,289.32a.72.72,0,0,0,.44.66.67.67,0,0,0,.28.06v-.72Z" style="fill:#263238"></path><path d="M357.78,290a.72.72,0,0,0,.72-.72h-1.44A.73.73,0,0,0,357.78,290Z" style="fill:#263238"></path><path d="M343.38,290a.72.72,0,0,0,.72-.72h-.72Z" style="fill:#263238"></path><path d="M343.38,288.6a.87.87,0,0,0-.28,0,.73.73,0,0,0-.38.39.64.64,0,0,0-.06.28h.72Z" style="fill:#263238"></path><path d="M329.7,289.32a.82.82,0,0,0-.05-.28.73.73,0,0,0-.67-.44.71.71,0,0,0-.66.44.64.64,0,0,0-.06.28Z" style="fill:#263238"></path><path d="M343.1,275.58a.67.67,0,0,0,.28.06V274.2a.87.87,0,0,0-.28.05.73.73,0,0,0-.44.67A.71.71,0,0,0,343.1,275.58Z" style="fill:#263238"></path><path d="M329,274.2a.72.72,0,1,0,.72.72A.72.72,0,0,0,329,274.2Z" style="fill:#263238"></path><path d="M322.5,282.12a.72.72,0,1,0-.72.72A.72.72,0,0,0,322.5,282.12Z" style="fill:#263238"></path><path d="M336.9,282.12a.72.72,0,1,0-.72.72A.72.72,0,0,0,336.9,282.12Z" style="fill:#263238"></path><path d="M321.06,267.72a.72.72,0,0,0,.72.72.7.7,0,0,0,.7-.63l-1.38-.25A.42.42,0,0,0,321.06,267.72Z" style="fill:#263238"></path><path d="M315.3,289.32a.82.82,0,0,0-.05-.28.63.63,0,0,0-.16-.23.72.72,0,0,0-.51-.21v.72Z" style="fill:#263238"></path><path d="M315.09,274.41a.72.72,0,0,0-.51-.21v1.44a.72.72,0,0,0,.51-1.23Z" style="fill:#263238"></path><path d="M343.25,303h.13v0Z" style="fill:#263238"></path><path d="M329,303a.71.71,0,0,0-.68.53l1.36,0A.71.71,0,0,0,329,303Z" style="fill:#263238"></path><path d="M321.78,295.8a.72.72,0,1,0,.72.72A.72.72,0,0,0,321.78,295.8Z" style="fill:#263238"></path><path d="M335.46,296.52a.72.72,0,1,0,.72-.72A.72.72,0,0,0,335.46,296.52Z" style="fill:#263238"></path><path d="M315.25,303.48a.53.53,0,0,0-.16-.27.72.72,0,0,0-.51-.21v.45Z" style="fill:#263238"></path><path d="M343.38,289.32h-.72a.72.72,0,0,0,.44.66.67.67,0,0,0,.28.06Z" style="fill:#263238"></path><path d="M329,290a.72.72,0,0,0,.72-.72h-1.44A.73.73,0,0,0,329,290Z" style="fill:#263238"></path><path d="M314.58,289.32V290a.72.72,0,0,0,.72-.72Z" style="fill:#263238"></path><path d="M314.58,289.32v-.72a.71.71,0,0,0-.66.44.64.64,0,0,0-.06.28Z" style="fill:#263238"></path><path d="M300.9,289.32a.82.82,0,0,0,0-.28.73.73,0,0,0-.67-.44.71.71,0,0,0-.66.44.64.64,0,0,0-.06.28Z" style="fill:#263238"></path><path d="M313.86,274.92a.72.72,0,0,0,.72.72V274.2A.72.72,0,0,0,313.86,274.92Z" style="fill:#263238"></path><path d="M300.18,274.2a.72.72,0,1,0,.72.72A.72.72,0,0,0,300.18,274.2Z" style="fill:#263238"></path><path d="M293.7,282.12a.72.72,0,1,0-.72.72A.72.72,0,0,0,293.7,282.12Z" style="fill:#263238"></path><path d="M307.38,282.84a.72.72,0,1,0-.72-.72A.72.72,0,0,0,307.38,282.84Z" style="fill:#263238"></path><path d="M306.66,267.72a.72.72,0,1,0,.72-.72A.72.72,0,0,0,306.66,267.72Z" style="fill:#263238"></path><path d="M286.5,289.32a.82.82,0,0,0-.05-.28.73.73,0,0,0-.67-.44v.72Z" style="fill:#263238"></path><path d="M314.58,303a.71.71,0,0,0-.65.42l.65,0Z" style="fill:#263238"></path><path d="M292.26,296.52a.72.72,0,1,0,.72-.72A.72.72,0,0,0,292.26,296.52Z" style="fill:#263238"></path><path d="M306.66,296.52a.72.72,0,1,0,.72-.72A.72.72,0,0,0,306.66,296.52Z" style="fill:#263238"></path><path d="M313.86,289.32a.72.72,0,0,0,.72.72v-.72Z" style="fill:#263238"></path><path d="M300.18,290a.72.72,0,0,0,.72-.72h-1.44A.72.72,0,0,0,300.18,290Z" style="fill:#263238"></path><path d="M285.78,290a.72.72,0,0,0,.72-.72h-.72Z" style="fill:#263238"></path><path d="M285.78,288.6a.71.71,0,0,0-.66.44.64.64,0,0,0-.06.28h.72Z" style="fill:#263238"></path><path d="M279.15,282.55l.1-.17Z" style="fill:#263238"></path><path d="M285.78,290v-.72h-.72A.72.72,0,0,0,285.78,290Z" style="fill:#263238"></path><path d="M295.33,280.65l33.17,9.4s9.59-16.77,11.43-19.16,2.77-4.06,3.87-4.61,4.06-.19,6.09-.37,4.23,1.29,5.34,2S358,272,358,272l-10.14.19s-5.72,14.37-7.74,19.72S335,302.22,334,303.14s-21.38.55-27.09-.18-19.17-2.4-22.3-4.43-3.87-6.45-3.87-6.45" style="fill:#92E3A9;stroke:#263238;stroke-miterlimit:10"></path><path d="M358,272s-1.66-3.32-2.77-4.05-3.32-2.22-5.34-2-5-.19-6.09.37-2,2.21-3.87,4.61-11.43,19.16-11.43,19.16l-6.73-1.91a28.58,28.58,0,0,0-1.64,15.5c6.75.13,13.39,0,13.9-.5.93-.92,4.06-5.9,6.09-11.24s7.74-19.72,7.74-19.72Z" style="fill:#fff;stroke:#263238;stroke-miterlimit:10"></path><path d="M347.86,272.18a19.15,19.15,0,0,1,2.21-2.72c.49-.28,2.83.28,4.18.43s4,3.19,4.25,3.89-.92,1.14-.92,1.14a7.26,7.26,0,0,1-1.63.85,12.46,12.46,0,0,1-2.13.28s0-.07-1.13,0-2,.85-2.69.5-1.21-2-1.64-2.34A1.43,1.43,0,0,1,347.86,272.18Z" style="fill:#fff;stroke:#263238;stroke-miterlimit:10"></path><path d="M354.25,269.89s3.12,4.18,3.33,5" style="fill:none;stroke:#263238;stroke-miterlimit:10"></path><path d="M351.63,269.74s3.19,4.26,3.54,6" style="fill:none;stroke:#263238;stroke-miterlimit:10"></path><path d="M349.29,270.45a39.15,39.15,0,0,1,3.4,5.6" style="fill:none;stroke:#263238;stroke-miterlimit:10"></path><polygon points="514.87 302.21 519.91 296.48 539.18 296.48 544.39 302.03 539.01 302.03 536.06 298.91 523.73 298.91 521.47 302.38 514.87 302.21" style="fill:#263238;stroke:#263238;stroke-miterlimit:10"></polygon><path d="M563.85,324.27H303.54V308.89H271.48v-7.57H545.69a7.58,7.58,0,0,1,6.5,3.67Z" style="fill:#bfbfbf;stroke:#263238;stroke-miterlimit:10"></path><polygon points="522.76 324.27 563.85 324.27 560.19 318.23 520.13 318.23 522.76 324.27" style="fill:#fff;stroke:#263238;stroke-miterlimit:10"></polygon><path d="M528.35,324.27H268V308.89H236v-7.57H510.19a7.58,7.58,0,0,1,6.5,3.67Z" style="fill:#fff;stroke:#263238;stroke-miterlimit:10"></path><path d="M513.61,324.27H268V309.52H500.41a7.58,7.58,0,0,1,6.5,3.67Z" style="fill:#263238;stroke:#263238;stroke-miterlimit:10"></path><path d="M286.34,286.91a.73.73,0,0,1-.73.72.72.72,0,0,1-.72-.72.73.73,0,0,1,.72-.73A.73.73,0,0,1,286.34,286.91Z" style="fill:#263238"></path><circle cx="300.5" cy="286.91" r="0.73" style="fill:#263238"></circle><circle cx="315.03" cy="286.91" r="0.73" style="fill:#263238"></circle><path d="M301.23,300.16a.73.73,0,1,1-1.45,0,.73.73,0,0,1,1.45,0Z" style="fill:#263238"></path><circle cx="292.88" cy="294.53" r="0.73" style="fill:#263238"></circle><circle cx="307.77" cy="294.53" r="0.73" style="fill:#263238"></circle><circle cx="292.88" cy="282" r="0.73" style="fill:#263238"></circle></g><g id="freepik--Picture--inject-9"><g style="opacity:0.30000000000000004"><rect x="623.83" y="108.37" width="77.49" height="93.88" style="fill:none;stroke:#000;stroke-miterlimit:10"></rect><rect x="631.7" y="117.91" width="61.74" height="74.8" style="fill:none;stroke:#000;stroke-miterlimit:10"></rect><rect x="645.89" y="135.11" width="33.36" height="40.41" style="fill:none;stroke:#000;stroke-miterlimit:10"></rect></g></g><g id="freepik--Floor--inject-9"><line x1="18.45" y1="426.02" x2="722.92" y2="426.02" style="fill:#fff;stroke:#263238;stroke-miterlimit:10"></line></g></svg>