<svg xmlns="http://www.w3.org/2000/svg" viewBox="0 0 500 500"><g id="freepik--background-complete--inject-29"><path d="M92.5,204.13H79.92V190.56H66.35V178H79.92V164.4H92.5V178h13.57v12.58H92.5Zm-10.79-1.79h9V188.77h13.57v-9H90.71V166.19h-9v13.58H68.14v9H81.71Z" style="fill:#ebebeb"></path><path d="M424.45,126.85h-8.54v-9.2H406.7v-8.54h9.21V99.9h8.54v9.21h9.2v8.54h-9.2Zm-7.33-1.21h6.11v-9.21h9.21v-6.1h-9.21v-9.21h-6.11v9.21h-9.2v6.1h9.2Z" style="fill:#ebebeb"></path><polygon points="408.66 62.49 408.66 75.08 395.09 75.08 395.09 88.66 382.51 88.66 382.51 75.08 368.94 75.08 368.94 62.49 382.51 62.49 382.51 48.93 395.09 48.93 395.09 62.49 408.66 62.49" style="fill:#ebebeb"></polygon><rect x="375.74" y="296.88" width="70.62" height="105.93" transform="translate(822.09 699.69) rotate(180)" style="fill:#ebebeb"></rect><rect x="367.21" y="268.44" width="87.67" height="28.44" transform="translate(822.09 565.32) rotate(180)" style="fill:#dbdbdb"></rect><rect x="449.04" y="272.32" width="2.49" height="20.16" rx="0.56" transform="translate(900.56 564.8) rotate(180)" style="fill:#c7c7c7"></rect><rect x="444.42" y="272.32" width="2.49" height="20.16" rx="0.56" transform="translate(891.33 564.8) rotate(180)" style="fill:#c7c7c7"></rect><rect x="439.81" y="272.32" width="2.49" height="20.16" rx="0.56" transform="translate(882.1 564.8) rotate(180)" style="fill:#c7c7c7"></rect><rect x="435.19" y="272.32" width="2.49" height="20.16" rx="0.56" transform="translate(872.87 564.8) rotate(180)" style="fill:#c7c7c7"></rect><rect x="430.57" y="272.32" width="2.49" height="20.16" rx="0.56" transform="translate(863.63 564.8) rotate(180)" style="fill:#c7c7c7"></rect><path d="M426.51,272.32h1.38a.56.56,0,0,1,.56.56v19a.56.56,0,0,1-.56.56h-1.38a.55.55,0,0,1-.55-.55v-19A.56.56,0,0,1,426.51,272.32Z" transform="translate(854.4 564.8) rotate(180)" style="fill:#c7c7c7"></path><rect x="421.34" y="272.32" width="2.49" height="20.16" rx="0.56" transform="translate(845.17 564.8) rotate(180)" style="fill:#c7c7c7"></rect><rect x="416.72" y="272.32" width="2.49" height="20.16" rx="0.56" transform="translate(835.93 564.8) rotate(180)" style="fill:#c7c7c7"></rect><path d="M412.66,272.32H414a.56.56,0,0,1,.56.56v19a.56.56,0,0,1-.56.56h-1.38a.55.55,0,0,1-.55-.55v-19A.56.56,0,0,1,412.66,272.32Z" transform="translate(826.7 564.8) rotate(180)" style="fill:#c7c7c7"></path><rect x="407.49" y="272.32" width="2.49" height="20.16" rx="0.56" transform="translate(817.47 564.8) rotate(180)" style="fill:#c7c7c7"></rect><rect x="402.88" y="272.32" width="2.49" height="20.16" rx="0.56" transform="translate(808.24 564.8) rotate(180)" style="fill:#c7c7c7"></rect><rect x="398.26" y="272.32" width="2.49" height="20.16" rx="0.56" transform="translate(799 564.8) rotate(180)" style="fill:#c7c7c7"></rect><rect x="393.64" y="272.32" width="2.49" height="20.16" rx="0.56" transform="translate(789.77 564.8) rotate(180)" style="fill:#c7c7c7"></rect><rect x="389.03" y="272.32" width="2.49" height="20.16" rx="0.56" transform="translate(780.54 564.8) rotate(180)" style="fill:#c7c7c7"></rect><rect x="384.41" y="272.32" width="2.49" height="20.16" rx="0.56" transform="translate(771.31 564.8) rotate(180)" style="fill:#c7c7c7"></rect><rect x="379.79" y="272.32" width="2.49" height="20.16" rx="0.56" transform="translate(762.07 564.8) rotate(180)" style="fill:#c7c7c7"></rect><rect x="375.18" y="272.32" width="2.49" height="20.16" rx="0.56" transform="translate(752.84 564.8) rotate(180)" style="fill:#c7c7c7"></rect><rect x="370.56" y="272.32" width="2.49" height="20.16" rx="0.56" transform="translate(743.61 564.8) rotate(180)" style="fill:#c7c7c7"></rect><rect x="387.54" y="327.37" width="47.01" height="47.01" transform="translate(822.09 701.75) rotate(180)" style="fill:#fff"></rect><path d="M457.48,414.59v0a8.88,8.88,0,0,0-8.89-8.87H431a8.88,8.88,0,0,0-8.9,8.87v0a8.91,8.91,0,0,0,8.9,8.9h17.61A8.9,8.9,0,0,0,457.48,414.59Z" style="fill:#dbdbdb"></path><path d="M457.48,414.59v0a8.88,8.88,0,0,0-8.89-8.87h-8.82v17.79h8.82A8.9,8.9,0,0,0,457.48,414.59Z" style="fill:#ebebeb"></path><path d="M347.4,400.38v0a8.89,8.89,0,0,0,8.89,8.87H373.9a8.89,8.89,0,0,0,8.9-8.87v0a8.9,8.9,0,0,0-8.9-8.89H356.29A8.9,8.9,0,0,0,347.4,400.38Z" style="fill:#dbdbdb"></path><path d="M347.4,400.38v0a8.89,8.89,0,0,0,8.89,8.87h8.82V391.49h-8.82A8.9,8.9,0,0,0,347.4,400.38Z" style="fill:#ebebeb"></path><path d="M327.41,404h0A8.89,8.89,0,0,0,340,404l12.46-12.46a8.89,8.89,0,0,0,0-12.56v0a8.92,8.92,0,0,0-12.58,0l-12.46,12.46A8.92,8.92,0,0,0,327.41,404Z" style="fill:#dbdbdb"></path><path d="M327.41,404h0A8.89,8.89,0,0,0,340,404l6.24-6.24-12.58-12.58-6.24,6.24A8.92,8.92,0,0,0,327.41,404Z" style="fill:#ebebeb"></path><rect x="372.56" y="409.28" width="35.4" height="17.79" rx="8.89" style="fill:#dbdbdb"></rect><path d="M408,418.17v0a8.88,8.88,0,0,0-8.89-8.87h-8.82v17.79h8.82A8.9,8.9,0,0,0,408,418.17Z" style="fill:#ebebeb"></path><path d="M45.69,262.61h75.69a3.17,3.17,0,0,1,3.17,3.17v128.1a8.48,8.48,0,0,1-8.48,8.48H51a8.48,8.48,0,0,1-8.48-8.48V265.79A3.17,3.17,0,0,1,45.69,262.61Z" transform="translate(167.07 664.98) rotate(180)" style="fill:#ebebeb"></path><rect x="59.79" y="244.88" width="47.5" height="21.76" transform="translate(167.07 511.52) rotate(180)" style="fill:#ebebeb"></rect><rect x="42.52" y="308.14" width="82.03" height="55.31" transform="translate(167.07 671.58) rotate(180)" style="fill:#fff"></rect><rect x="42.52" y="352.13" width="82.03" height="5.01" transform="translate(167.07 709.27) rotate(180)" style="fill:#dbdbdb"></rect><rect x="42.52" y="314.44" width="82.03" height="5.01" transform="translate(167.07 633.89) rotate(180)" style="fill:#dbdbdb"></rect><rect x="56.48" y="229.64" width="54.12" height="20.15" transform="translate(167.07 479.43) rotate(180)" style="fill:#dbdbdb"></rect><rect x="53.64" y="249.79" width="59.8" height="5.97" transform="translate(167.07 505.55) rotate(180)" style="fill:#c7c7c7"></rect><rect x="105.37" y="232.45" width="2.49" height="14.52" rx="0.56" transform="translate(213.23 479.43) rotate(180)" style="fill:#c7c7c7"></rect><rect x="100.76" y="232.45" width="2.49" height="14.52" rx="0.56" transform="translate(204 479.43) rotate(180)" style="fill:#c7c7c7"></rect><path d="M96.7,232.45h1.38a.55.55,0,0,1,.55.55v13.41a.56.56,0,0,1-.56.56H96.7a.56.56,0,0,1-.56-.56V233A.56.56,0,0,1,96.7,232.45Z" transform="translate(194.77 479.43) rotate(180)" style="fill:#c7c7c7"></path><rect x="91.52" y="232.45" width="2.49" height="14.52" rx="0.56" transform="translate(185.54 479.43) rotate(180)" style="fill:#c7c7c7"></rect><rect x="86.91" y="232.45" width="2.49" height="14.52" rx="0.56" transform="translate(176.3 479.43) rotate(180)" style="fill:#c7c7c7"></rect><path d="M82.85,232.45h1.38a.56.56,0,0,1,.56.56v13.41a.56.56,0,0,1-.56.56H82.85a.55.55,0,0,1-.55-.55V233A.56.56,0,0,1,82.85,232.45Z" transform="translate(167.07 479.43) rotate(180)" style="fill:#c7c7c7"></path><rect x="77.68" y="232.45" width="2.49" height="14.52" rx="0.56" transform="translate(157.84 479.43) rotate(180)" style="fill:#c7c7c7"></rect><rect x="73.06" y="232.45" width="2.49" height="14.52" rx="0.56" transform="translate(148.61 479.43) rotate(180)" style="fill:#c7c7c7"></rect><path d="M69,232.45h1.38a.56.56,0,0,1,.56.56v13.41a.56.56,0,0,1-.56.56H69a.55.55,0,0,1-.55-.55V233A.56.56,0,0,1,69,232.45Z" transform="translate(139.37 479.43) rotate(180)" style="fill:#c7c7c7"></path><rect x="63.83" y="232.45" width="2.49" height="14.52" rx="0.56" transform="translate(130.14 479.43) rotate(180)" style="fill:#c7c7c7"></rect><rect x="59.21" y="232.45" width="2.49" height="14.52" rx="0.56" transform="translate(120.91 479.43) rotate(180)" style="fill:#c7c7c7"></rect></g><g id="freepik--Shadow--inject-29"><ellipse cx="250" cy="447.62" rx="203" ry="19.68" style="fill:#ebebeb"></ellipse></g><g id="freepik--Floor--inject-29"><polygon points="36.47 402.48 89.85 402.24 143.23 402.15 250 401.98 356.77 402.15 410.15 402.23 463.53 402.48 410.15 402.72 356.77 402.81 250 402.98 143.23 402.81 89.85 402.72 36.47 402.48" style="fill:#263238"></polygon></g><g id="freepik--Clipboard--inject-29"><rect x="112.43" y="83.79" width="267.86" height="355.79" style="fill:#FFC727"></rect><g style="opacity:0.1"><rect x="112.43" y="83.79" width="267.86" height="355.79"></rect></g><rect x="119.71" y="83.79" width="267.86" height="355.79" style="fill:#FFC727"></rect><rect x="135.41" y="99.48" width="236.47" height="320.55" transform="translate(-3.29 3.25) rotate(-0.73)" style="fill:#ebebeb"></rect><rect x="89.73" y="141.52" width="320.55" height="236.47" transform="translate(-15.09 504.1) rotate(-88.76)" style="fill:#dbdbdb"></rect><rect x="131.77" y="99.48" width="236.47" height="320.55" style="fill:#fff"></rect><rect x="158.77" y="284.12" width="20.08" height="20.08" style="fill:#ebebeb"></rect><rect x="189.69" y="284.12" width="65.05" height="2.94" style="fill:#455a64"></rect><rect x="189.69" y="289.84" width="151.55" height="2.94" style="fill:#ebebeb"></rect><rect x="189.69" y="295.55" width="151.55" height="2.94" style="fill:#ebebeb"></rect><rect x="189.69" y="301.26" width="151.55" height="2.94" style="fill:#ebebeb"></rect><path d="M160.25,293.12c.74.62,1.44,1.26,2.14,1.92s1.37,1.32,2.06,2c1.35,1.33,2.65,2.71,3.94,4.1l-2.3.15a89.92,89.92,0,0,1,6.25-11c1.16-1.75,2.39-3.47,3.71-5.13a48,48,0,0,1,4.28-4.78,46.48,46.48,0,0,1-2.23,6q-1.29,2.91-2.81,5.67a91.3,91.3,0,0,1-6.8,10.64l-1.26,1.69-1-1.54c-1.07-1.57-2.11-3.15-3.1-4.77-.49-.82-1-1.62-1.47-2.45S160.68,294,160.25,293.12Z" style="fill:#FFC727"></path><rect x="158.77" y="317.35" width="20.08" height="20.08" style="fill:#ebebeb"></rect><rect x="189.69" y="317.35" width="65.05" height="2.94" style="fill:#455a64"></rect><rect x="189.69" y="323.06" width="151.55" height="2.94" style="fill:#ebebeb"></rect><rect x="189.69" y="328.77" width="151.55" height="2.94" style="fill:#ebebeb"></rect><rect x="189.69" y="334.48" width="151.55" height="2.94" style="fill:#ebebeb"></rect><rect x="158.77" y="350.57" width="20.08" height="20.08" style="fill:#ebebeb"></rect><rect x="189.69" y="350.57" width="65.05" height="2.94" style="fill:#455a64"></rect><rect x="189.69" y="356.28" width="151.55" height="2.94" style="fill:#ebebeb"></rect><rect x="189.69" y="361.99" width="151.55" height="2.94" style="fill:#ebebeb"></rect><rect x="189.69" y="367.7" width="151.55" height="2.94" style="fill:#ebebeb"></rect><rect x="239.69" y="390.09" width="101.55" height="2.94" style="fill:#ebebeb"></rect><rect x="221.69" y="179.98" width="55.05" height="2.94" style="fill:#455a64"></rect><rect x="221.69" y="185.69" width="119.55" height="2.94" style="fill:#ebebeb"></rect><rect x="221.69" y="191.41" width="119.55" height="2.94" style="fill:#ebebeb"></rect><rect x="221.69" y="202.83" width="119.55" height="2.94" style="fill:#ebebeb"></rect><rect x="221.69" y="208.54" width="51.99" height="2.94" style="fill:#ebebeb"></rect><rect x="158.77" y="130.16" width="182.47" height="27.95" style="fill:#FFC727"></rect><path d="M171.34,152.79V136.46h3.17v16.33Z" style="fill:#fff"></path><path d="M184.54,142.32v10.47h-3.17V136.46h2.46l8.51,10.72v-10.7h3.17v16.31h-2.57Z" style="fill:#fff"></path><path d="M212.1,140.74a3.85,3.85,0,0,0-.59-.44,7.61,7.61,0,0,0-1-.54,7.86,7.86,0,0,0-1.32-.45,5.88,5.88,0,0,0-1.45-.18,3.26,3.26,0,0,0-1.95.48,1.59,1.59,0,0,0-.65,1.36,1.37,1.37,0,0,0,.25.84,2.07,2.07,0,0,0,.7.58,5.7,5.7,0,0,0,1.16.46c.47.14,1,.29,1.62.44A20.66,20.66,0,0,1,211,144a5.73,5.73,0,0,1,1.66.92,3.94,3.94,0,0,1,1.05,1.32,4.5,4.5,0,0,1,.36,1.9,4.72,4.72,0,0,1-.49,2.24,4.24,4.24,0,0,1-1.34,1.51,5.83,5.83,0,0,1-1.93.84A10,10,0,0,1,208,153a12.25,12.25,0,0,1-3.63-.55,11.33,11.33,0,0,1-3.22-1.56l1.4-2.74a4.34,4.34,0,0,0,.75.54,13.49,13.49,0,0,0,1.28.67,9.72,9.72,0,0,0,1.63.56,7.54,7.54,0,0,0,1.84.23c1.75,0,2.62-.56,2.62-1.68a1.4,1.4,0,0,0-.3-.9,2.53,2.53,0,0,0-.85-.64,9.31,9.31,0,0,0-1.33-.51l-1.75-.5a15.82,15.82,0,0,1-2-.7,5.54,5.54,0,0,1-1.44-.9,3.25,3.25,0,0,1-.86-1.2,4,4,0,0,1-.29-1.62,5.05,5.05,0,0,1,.46-2.21,4.46,4.46,0,0,1,1.27-1.61,6,6,0,0,1,1.9-1,7.61,7.61,0,0,1,2.32-.34,9.07,9.07,0,0,1,3.18.54,12,12,0,0,1,2.53,1.28Z" style="fill:#fff"></path><path d="M226.81,150.1a3.5,3.5,0,0,0,3.14-1.66,4.79,4.79,0,0,0,.67-1.69,9.82,9.82,0,0,0,.2-2v-8.32H234v8.32a12.38,12.38,0,0,1-.4,3.16,7.2,7.2,0,0,1-1.27,2.57,6,6,0,0,1-2.22,1.75,7.46,7.46,0,0,1-3.24.64,7.28,7.28,0,0,1-3.32-.68,6.08,6.08,0,0,1-2.22-1.79,7.24,7.24,0,0,1-1.24-2.59,12.33,12.33,0,0,1-.37-3.06v-8.32h3.17v8.32a9.2,9.2,0,0,0,.2,2,5,5,0,0,0,.66,1.69,3.68,3.68,0,0,0,1.23,1.19A3.61,3.61,0,0,0,226.81,150.1Z" style="fill:#fff"></path><path d="M240.62,152.79V136.46h7.22a4.7,4.7,0,0,1,2.08.47,5.31,5.31,0,0,1,1.64,1.24,6.2,6.2,0,0,1,1.09,1.75,5.28,5.28,0,0,1,.39,2,5.41,5.41,0,0,1-.8,2.88,4.56,4.56,0,0,1-2.15,1.88l3.73,6.14h-3.57l-3.33-5.48h-3.13v5.48Zm3.17-8.26h4a1.7,1.7,0,0,0,.82-.21,1.93,1.93,0,0,0,.65-.56,3,3,0,0,0,.44-.84,3.47,3.47,0,0,0,.16-1,2.78,2.78,0,0,0-.19-1.06,2.69,2.69,0,0,0-.49-.84,2.2,2.2,0,0,0-.71-.55,1.87,1.87,0,0,0-.82-.2h-3.84Z" style="fill:#fff"></path><path d="M263.75,136.46h2.81l6.21,16.33H269.5L268,148.72h-5.71l-1.49,4.07h-3.27Zm3.66,10-2.25-6.42-2.35,6.42Z" style="fill:#fff"></path><path d="M281.19,142.32v10.47H278V136.46h2.47L289,147.18v-10.7h3.17v16.31h-2.58Z" style="fill:#fff"></path><path d="M298,144.51a8.5,8.5,0,0,1,.54-3,8.11,8.11,0,0,1,1.58-2.61,8,8,0,0,1,2.53-1.86,7.75,7.75,0,0,1,3.4-.71,7.48,7.48,0,0,1,3.9,1,6.32,6.32,0,0,1,2.45,2.58L310,141.61a3.93,3.93,0,0,0-.78-1.16,3.87,3.87,0,0,0-1-.75,4.4,4.4,0,0,0-1.1-.4,5,5,0,0,0-1.13-.13,4.18,4.18,0,0,0-2.08.49,4.58,4.58,0,0,0-1.47,1.25,5.46,5.46,0,0,0-.89,1.75,6.58,6.58,0,0,0-.3,1.94,6.35,6.35,0,0,0,.35,2.08,5.3,5.3,0,0,0,1,1.76,4.84,4.84,0,0,0,1.51,1.22,4.12,4.12,0,0,0,1.95.46,5.23,5.23,0,0,0,1.15-.14,4.28,4.28,0,0,0,1.14-.44,4,4,0,0,0,1-.77,3.55,3.55,0,0,0,.73-1.13l2.6,1.49a4.88,4.88,0,0,1-1.11,1.62,7.17,7.17,0,0,1-1.64,1.19,8.35,8.35,0,0,1-1.94.73,8.48,8.48,0,0,1-2,.26,7,7,0,0,1-3.2-.74,8.31,8.31,0,0,1-2.5-1.92,8.89,8.89,0,0,1-1.63-2.69A8.45,8.45,0,0,1,298,144.51Z" style="fill:#fff"></path><path d="M329.58,150v2.79H318.24V136.46h11.13v2.78h-8v3.93h6.88v2.58h-6.88V150Z" style="fill:#fff"></path><path d="M341.73,269.5H158.27V230.26H341.73Zm-182.46-1H340.73V231.26H159.27Z" style="fill:#ebebeb"></path><rect x="158.77" y="253.39" width="182.47" height="1" style="fill:#ebebeb"></rect><rect x="158.77" y="238.3" width="182.47" height="1" style="fill:#ebebeb"></rect><rect x="217.83" y="230.76" width="1" height="38.25" style="fill:#ebebeb"></rect><rect x="281.17" y="230.76" width="1" height="38.25" style="fill:#ebebeb"></rect><path d="M169.19,234.85c3.22-.2,6.45-.3,9.68-.38s6.45-.1,9.68-.12,6.45,0,9.68.12l4.84.14c1.61.08,3.22.13,4.84.24-1.62.12-3.23.17-4.84.25l-4.84.14c-3.23.09-6.46.1-9.68.11s-6.46,0-9.68-.11S172.41,235.06,169.19,234.85Z" style="fill:#455a64"></path><path d="M230.64,234.85c3.23-.2,6.45-.3,9.68-.38s6.45-.1,9.68-.12,6.45,0,9.68.12l4.84.14c1.61.08,3.23.13,4.84.24-1.61.12-3.23.17-4.84.25l-4.84.14c-3.23.09-6.45.1-9.68.11s-6.45,0-9.68-.11S233.87,235.06,230.64,234.85Z" style="fill:#455a64"></path><path d="M292.47,234.85c3.23-.2,6.46-.3,9.68-.38s6.46-.1,9.68-.12,6.46,0,9.68.12l4.84.14c1.62.08,3.23.13,4.84.24-1.61.12-3.22.17-4.84.25l-4.84.14c-3.22.09-6.45.1-9.68.11s-6.45,0-9.68-.11S295.7,235.06,292.47,234.85Z" style="fill:#455a64"></path><path d="M169.19,244.5c3.22-.2,6.45-.3,9.68-.38s6.45-.1,9.68-.12,6.45,0,9.68.12l4.84.14c1.61.08,3.22.13,4.84.24-1.62.12-3.23.16-4.84.25l-4.84.14c-3.23.09-6.46.1-9.68.11s-6.46,0-9.68-.11S172.41,244.71,169.19,244.5Z" style="fill:#ebebeb"></path><path d="M230.64,244.5c3.23-.2,6.45-.3,9.68-.38s6.45-.1,9.68-.12,6.45,0,9.68.12l4.84.14c1.61.08,3.23.13,4.84.24-1.61.12-3.23.16-4.84.25l-4.84.14c-3.23.09-6.45.1-9.68.11s-6.45,0-9.68-.11S233.87,244.71,230.64,244.5Z" style="fill:#ebebeb"></path><path d="M292.47,244.5c3.23-.2,6.46-.3,9.68-.38s6.46-.1,9.68-.12,6.46,0,9.68.12l4.84.14c1.62.08,3.23.13,4.84.24-1.61.12-3.22.16-4.84.25l-4.84.14c-3.22.09-6.45.1-9.68.11s-6.45,0-9.68-.11S295.7,244.71,292.47,244.5Z" style="fill:#ebebeb"></path><path d="M169.19,248.38c3.22-.2,6.45-.3,9.68-.38s6.45-.11,9.68-.12,6.45,0,9.68.12l4.84.14c1.61.08,3.22.13,4.84.24-1.62.12-3.23.16-4.84.25l-4.84.14c-3.23.09-6.46.1-9.68.11s-6.46,0-9.68-.12S172.41,248.59,169.19,248.38Z" style="fill:#ebebeb"></path><path d="M230.64,248.38c3.23-.2,6.45-.3,9.68-.38s6.45-.11,9.68-.12,6.45,0,9.68.12l4.84.14c1.61.08,3.23.13,4.84.24-1.61.12-3.23.16-4.84.25l-4.84.14c-3.23.09-6.45.1-9.68.11s-6.45,0-9.68-.12S233.87,248.59,230.64,248.38Z" style="fill:#ebebeb"></path><path d="M292.47,248.38c3.23-.2,6.46-.3,9.68-.38s6.46-.11,9.68-.12,6.46,0,9.68.12l4.84.14c1.62.08,3.23.13,4.84.24-1.61.12-3.22.16-4.84.25l-4.84.14c-3.22.09-6.45.1-9.68.11s-6.45,0-9.68-.12S295.7,248.59,292.47,248.38Z" style="fill:#ebebeb"></path><path d="M169.19,258.74c3.22-.2,6.45-.3,9.68-.38s6.45-.1,9.68-.12,6.45,0,9.68.12l4.84.14c1.61.08,3.22.13,4.84.24-1.62.12-3.23.16-4.84.25l-4.84.14c-3.23.09-6.46.1-9.68.11s-6.46,0-9.68-.11S172.41,259,169.19,258.74Z" style="fill:#ebebeb"></path><path d="M230.64,258.74c3.23-.2,6.45-.3,9.68-.38s6.45-.1,9.68-.12,6.45,0,9.68.12l4.84.14c1.61.08,3.23.13,4.84.24-1.61.12-3.23.16-4.84.25l-4.84.14c-3.23.09-6.45.1-9.68.11s-6.45,0-9.68-.11S233.87,259,230.64,258.74Z" style="fill:#ebebeb"></path><path d="M292.47,258.74c3.23-.2,6.46-.3,9.68-.38s6.46-.1,9.68-.12,6.46,0,9.68.12l4.84.14c1.62.08,3.23.13,4.84.24-1.61.12-3.22.16-4.84.25l-4.84.14c-3.22.09-6.45.1-9.68.11s-6.45,0-9.68-.11S295.7,259,292.47,258.74Z" style="fill:#ebebeb"></path><path d="M169.19,262.62c3.22-.2,6.45-.3,9.68-.38s6.45-.11,9.68-.12,6.45,0,9.68.12l4.84.14c1.61.08,3.22.13,4.84.24-1.62.12-3.23.16-4.84.25l-4.84.14c-3.23.09-6.46.1-9.68.11s-6.46,0-9.68-.12S172.41,262.83,169.19,262.62Z" style="fill:#ebebeb"></path><path d="M230.64,262.62c3.23-.2,6.45-.3,9.68-.38s6.45-.11,9.68-.12,6.45,0,9.68.12l4.84.14c1.61.08,3.23.13,4.84.24-1.61.12-3.23.16-4.84.25l-4.84.14c-3.23.09-6.45.1-9.68.11s-6.45,0-9.68-.12S233.87,262.83,230.64,262.62Z" style="fill:#ebebeb"></path><path d="M292.47,262.62c3.23-.2,6.46-.3,9.68-.38s6.46-.11,9.68-.12,6.46,0,9.68.12l4.84.14c1.62.08,3.23.13,4.84.24-1.61.12-3.22.16-4.84.25l-4.84.14c-3.22.09-6.45.1-9.68.11s-6.45,0-9.68-.12S295.7,262.83,292.47,262.62Z" style="fill:#ebebeb"></path><path d="M202.53,200.68a60.53,60.53,0,0,1-19.39,16.83,60.53,60.53,0,0,1-19.39-16.83c-6.82-9-6.48-23.17,3.28-26.23,10.8-3.38,16.11,12.87,16.11,12.87s5.38-16.36,16.11-12.87C209,177.61,209.35,191.65,202.53,200.68Z" style="fill:#FFC727"></path><polygon points="175.52 210.37 172.58 198.11 170.66 202.43 158.77 202.43 158.77 201.05 169.76 201.05 172.97 193.82 175.26 203.38 178.51 183.58 181.37 199.24 183.64 192.7 187.21 203.41 188 201.04 207.53 201.04 207.53 202.43 188.99 202.43 187.21 207.78 183.61 197 180.96 204.67 178.58 191.68 175.52 210.37" style="fill:#fff"></polygon><rect x="191.93" y="77.29" width="116.15" height="35.41" style="fill:#c7c7c7"></rect><path d="M285.51,57.93H213.43l-3.19,19.36h79.53ZM250,71.86a4.25,4.25,0,1,1,4.25-4.25A4.25,4.25,0,0,1,250,71.86Z" style="fill:#c7c7c7"></path><polygon points="289.77 77.29 210.24 77.29 210.95 72.96 288.81 72.96 289.77 77.29" style="fill:#a6a6a6"></polygon></g><g id="freepik--Plant--inject-29"><path d="M77.73,341a49.46,49.46,0,0,0-1.59,9c.08.15.07.7,0,.55,0,.5-.77.41-.78-.08,0-.32,0-.64,0-1-1.76-2.18-4.32-3.56-6.38-5.46a11.94,11.94,0,0,1-3.5-5.57c-1.71-5.9-.11-12.16-2.17-18-1.77-5.08-5-9.49-7.66-14.09-2.84-4.87-4.94-10-5.15-15.68-.17-4.36.35-10.17,3.68-13.44,3.52-3.47,7.88-.87,10.58,2.22,7.82,9,11.44,20.32,12.9,31.91.81,6.42,1.65,12.88,1.45,19.35A52.13,52.13,0,0,1,77.73,341Z" style="fill:#FFC727"></path><path d="M76.17,352.36A110.35,110.35,0,0,0,76,334.18s0,0,0-.06c.1-4.92.49-9.81.3-14.73a87.58,87.58,0,0,0-2.17-15.8c0-.06-.11,0-.09,0a104.19,104.19,0,0,1,1.71,15.45q.15,4.17-.07,8.33c0,.9-.13,1.81-.19,2.72h0a97.36,97.36,0,0,0-14.62-38.7c-.11-.16-.39,0-.29.18a100.81,100.81,0,0,1,11.9,28.69c-3.76-7-9.44-12.7-13.65-19.39,0,0-.08,0-.07,0,3.79,7.45,10,13.33,14,20.67.69,3,1.26,6,1.68,9.05a101.78,101.78,0,0,1,.91,12.58c-2.29-4.28-4.67-8.38-6.55-12.91,0-.12-.22,0-.18.08a50.61,50.61,0,0,0,6.74,13.79c0,3-.07,5.95-.25,8.92-.47,7.94-1.82,15.77-2.45,23.68a.18.18,0,0,0,.36,0A181.18,181.18,0,0,0,76.17,352.36Z" style="fill:#263238"></path><path d="M67.75,291.15a0,0,0,0,0-.09,0A126,126,0,0,1,71,303.37a.15.15,0,0,0,.3-.05A43.56,43.56,0,0,0,67.75,291.15Z" style="fill:#263238"></path><path d="M104.56,308a61,61,0,0,1-3.33,6.85c-2.61,4.74-5.34,9.09-5.83,14.61a33.93,33.93,0,0,1-1.05,7.31,21.68,21.68,0,0,1-2.92,5.73c-2.83,4.12-6.36,7.67-9,11.95a50.64,50.64,0,0,0-6,14.4c-.06.28-.5.2-.43-.07a.17.17,0,0,0,0-.07.06.06,0,0,1,0-.05c-.42-11.84.53-23.77,4.14-35.11a121.11,121.11,0,0,1,5.73-14.6,34.71,34.71,0,0,1,7.74-11.14c2.21-2,7-5.74,10.12-3.75C105.27,305,105.15,306.47,104.56,308Z" style="fill:#FFC727"></path><path d="M92.66,334.79a96.22,96.22,0,0,1-6.87,9.88c-1.15,1.5-2.31,3-3.46,4.48-.54.71-1.14,1.41-1.64,2.17.31-1.24.62-2.49.94-3.73a144.22,144.22,0,0,1,5.27-17.76,120.33,120.33,0,0,1,8.21-16.12c.08-.13-.14-.23-.22-.1-2.5,4.11-5,8.22-7.14,12.56a66.79,66.79,0,0,0-3,7.45,115.26,115.26,0,0,1,4-15.92,0,0,0,1,0-.07,0,54.53,54.53,0,0,0-4.19,16.56v0q-.77,2.31-1.42,4.66c-1.87,6.62-3.5,13.31-5,20a71,71,0,0,1,1.14-13.16c0-.1-.13-.12-.15,0a41.88,41.88,0,0,0-1.15,13.88q-.86,3.83-1.68,7.67c-1.16,5.45-2.59,11-3.27,16.55a.11.11,0,0,0,.22,0c.81-3,1.3-6.08,2-9.1s1.35-6.06,2-9.09c1-4.4,2.11-8.79,3.21-13.18a23.56,23.56,0,0,1,3.21-4.39c1.16-1.48,2.33-3,3.46-4.46a65.4,65.4,0,0,0,5.7-8.82C92.8,334.77,92.7,334.72,92.66,334.79Z" style="fill:#263238"></path><path d="M93.17,329.72a61.67,61.67,0,0,0-6.73,10.7c0,.05,0,.1.08.05,2.26-3.55,4.49-7.13,6.75-10.68C93.31,329.73,93.21,329.67,93.17,329.72Z" style="fill:#263238"></path><path d="M42.78,319.17c1.54,2.65,3.29,5.82,2.63,9-.42,2-1.89,3.64-2.15,5.69-.6,4.52,3.91,7.51,7.17,9.64,8.12,5.34,19.27,10.09,20.75,21,.06.39.72.29.67-.09a.17.17,0,0,0,0-.07s0,0,0-.06a41.81,41.81,0,0,0-.15-16.64A53.23,53.23,0,0,0,65.17,332c-4.89-8.34-10.07-16.89-17.47-23.28-2-1.77-6.24-4.95-7.87-.95S40.9,316,42.78,319.17Z" style="fill:#FFC727"></path><path d="M50.22,336.87c5.39,5.83,14,9.1,18.6,15.63a65.38,65.38,0,0,0-14.3-26.84.21.21,0,0,1,.3-.3A53,53,0,0,1,66.5,342.28a74.7,74.7,0,0,0-5-12.86c-.08-.16.15-.3.24-.14a49,49,0,0,1,5.42,14.45c6.11,14.8,6.68,32.15,5.4,47.75,0,.22-.36.23-.35,0,.35-12.29.15-24.8-2.8-36.8-.06-.25-.13-.5-.19-.75-5-7-13.58-10.29-19.06-17C50.07,336.89,50.16,336.8,50.22,336.87Z" style="fill:#263238"></path><path d="M49,331.86c2.83,2.59,5.61,5.25,8.45,7.84,0,0,0,.08,0,.05A41,41,0,0,1,48.8,332C48.71,331.91,48.86,331.75,49,331.86Z" style="fill:#263238"></path><path d="M48.52,320.61A88.7,88.7,0,0,0,57,332.25c0,.05,0,.12-.07.07a40.89,40.89,0,0,1-8.55-11.62C48.32,320.6,48.46,320.51,48.52,320.61Z" style="fill:#263238"></path><polygon points="61.26 402.48 86.04 402.48 82.7 369.14 65.08 369.14 61.26 402.48" style="fill:#455a64"></polygon><polygon points="64.45 374.56 83.25 374.56 82.7 369.14 65.08 369.14 64.45 374.56" style="fill:#263238"></polygon><rect x="62.04" y="365.45" width="23.23" height="5.32" transform="translate(147.3 736.22) rotate(180)" style="fill:#455a64"></rect></g><g id="freepik--Shield--inject-29"><path d="M171.85,374.82s-6,48-15.84,58.76c-11.82,12.95-20.4,11.05-25.17,17.73h0c-4.77-6.69-13.35-4.78-25.18-17.74-9.84-10.79-15.82-58.76-15.82-58.76,25.94-12.59,41-26.71,41-26.71h0C131.31,348.56,146.31,362.43,171.85,374.82Z" style="fill:#37474f"></path><path d="M130.84,348.12V451.31h0c-4.77-6.69-13.35-4.78-25.18-17.74-9.84-10.79-15.82-58.76-15.82-58.76,25.94-12.59,41-26.71,41-26.71Z" style="fill:#263238"></path><path d="M165.48,378.69s-5.06,40.51-13.37,49.63c-10,11-17.25,9.35-21.28,15-4-5.64-11.28-4-21.27-15-8.32-9.12-13.37-49.63-13.37-49.63,21.92-10.65,34.64-22.57,34.64-22.57S143.57,368,165.48,378.69Z" style="fill:#455a64"></path><path d="M96.2,378.69s5.06,40.51,13.38,49.64c10,10.94,17.23,9.34,21.26,15V356.13C130.45,356.5,117.78,368.21,96.2,378.69Z" style="fill:#37474f"></path><circle cx="130.84" cy="399.72" r="16.07" style="fill:#FFC727"></circle><polygon points="129.01 410.15 121.85 402.71 124.51 400.16 128.45 404.26 136.95 391.22 140.04 393.23 129.01 410.15" style="fill:#fff"></polygon></g><g id="freepik--Icon--inject-29"><path d="M118.42,128.5a37,37,0,1,1,37-37A37,37,0,0,1,118.42,128.5Zm0-72.28a35.32,35.32,0,1,0,35.32,35.32A35.35,35.35,0,0,0,118.42,56.22Z" style="fill:#37474f"></path><path d="M116.56,133.73c-.56,0-1.12-.06-1.68-.11L115,132c.53.05,1.07.08,1.61.11Zm5.89-.15-.16-1.64c.54-.05,1.08-.11,1.61-.18l.22,1.63C123.57,133.46,123,133.53,122.45,133.58Zm-13.39-.85c-.55-.12-1.09-.26-1.63-.41l.43-1.58c.51.14,1,.27,1.57.38Zm20.83-.54-.45-1.58c.52-.15,1-.3,1.55-.47l.51,1.56C131,131.88,130.43,132,129.89,132.19Zm-28-1.79c-.52-.22-1-.45-1.54-.7l.7-1.48c.49.23,1,.45,1.48.66Zm35.1-.91-.72-1.48c.48-.23,1-.48,1.43-.73l.78,1.44C138,129,137.46,129.25,137,129.49Zm-41.77-2.68c-.47-.31-.93-.63-1.39-1l1-1.34c.44.31.88.62,1.33.92Zm48.23-1.24-1-1.32c.43-.32.86-.65,1.28-1l1,1.29C144.32,124.9,143.88,125.24,143.42,125.57ZM89.27,122.1c-.41-.39-.81-.79-1.2-1.19l1.19-1.15c.37.39.75.77,1.14,1.15Zm59.82-1.54-1.19-1.13c.37-.39.73-.79,1.09-1.19l1.24,1.08C149.86,119.74,149.48,120.16,149.09,120.56Zm-64.81-4.15q-.5-.69-1-1.38l1.36-.92c.3.45.61.89.93,1.33Zm69.51-1.78-1.38-.91c.29-.45.58-.9.86-1.37l1.41.85C154.39,113.68,154.09,114.16,153.79,114.63Zm-73.4-4.71c-.25-.5-.48-1-.7-1.52l1.5-.66c.22.49.44,1,.68,1.46Zm77-2-1.51-.64c.21-.49.41-1,.6-1.5l1.54.57C157.77,106.9,157.56,107.43,157.34,107.94Zm-79.62-5.09c-.15-.54-.29-1.09-.42-1.64l1.6-.37c.12.52.26,1,.4,1.57Zm81.93-2.13-1.61-.35c.12-.53.23-1.06.32-1.59l1.62.29Q159.83,99.91,159.65,100.72ZM76.36,95.4q-.08-.84-.12-1.68l1.65-.08c0,.54.06,1.08.11,1.61Zm84.26-2.18L159,93.16c0-.54,0-1.08,0-1.62v-.17h1.65v.16C160.65,92.1,160.64,92.66,160.62,93.22ZM78,88l-1.63-.15c.05-.56.1-1.11.18-1.67l1.63.21C78.09,86.9,78,87.44,78,88Zm80.61-2.25c-.07-.54-.16-1.07-.26-1.6l1.62-.3c.1.55.19,1.11.27,1.66ZM79.26,80.82l-1.59-.43q.22-.83.48-1.62l1.57.5C79.56,79.78,79.4,80.3,79.26,80.82Zm77.66-2.17c-.17-.51-.35-1-.55-1.52l1.54-.59q.3.79.57,1.59ZM81.8,74l-1.48-.71c.24-.51.5-1,.76-1.51l1.45.78C82.28,73,82,73.51,81.8,74ZM154,72c-.26-.48-.53-.94-.81-1.4l1.41-.85c.29.48.57,1,.84,1.45ZM85.53,67.75l-1.33-1c.33-.46.66-.91,1-1.35l1.29,1C86.17,66.88,85.84,67.31,85.53,67.75ZM149.94,66c-.34-.42-.69-.83-1.05-1.24l1.24-1.08c.37.42.73.84,1.09,1.28ZM90.3,62.26l-1.13-1.18q.6-.59,1.23-1.14l1.09,1.23C91.09,61.52,90.69,61.89,90.3,62.26Zm54.57-1.51c-.41-.35-.83-.69-1.25-1l1-1.29c.44.35.88.71,1.3,1.07ZM96,57.71l-.91-1.37c.46-.31.94-.61,1.42-.9l.85,1.41C96.88,57.13,96.43,57.41,96,57.71Zm43-1.19c-.46-.27-.93-.54-1.41-.79l.78-1.45c.49.26,1,.54,1.47.82Zm-36.58-2.27-.66-1.51,1.56-.64.59,1.54C103.36,53.83,102.86,54,102.37,54.25Zm30-.84-1.53-.53.5-1.56c.54.17,1.07.35,1.6.55ZM109.27,52l-.37-1.6c.55-.12,1.1-.24,1.65-.34l.3,1.61C110.32,51.75,109.79,51.86,109.27,52Zm16.07-.44c-.53-.09-1.06-.17-1.6-.24l.22-1.64c.55.08,1.11.16,1.66.26ZM116.47,51l-.07-1.65c.56,0,1.12,0,1.68,0V51C117.55,51,117,51,116.47,51Z" style="fill:#37474f"></path><polygon points="112.75 114.39 124.14 114.39 124.14 97.21 141.32 97.21 141.32 85.82 124.14 85.82 124.14 68.64 112.75 68.64 112.75 85.82 95.57 85.82 95.57 97.21 112.75 97.21 112.75 114.39" style="fill:#37474f"></polygon></g><g id="freepik--Character--inject-29"><path d="M324.42,452.92c2,.63,58.32-.1,60.45-1.49.81-.51,1.18-8.73,1.35-18.67,0-.11.93-36.72.93-36.72l-36.06.37-1.2,36.72s-21.45,9.93-23.63,11.7S322.44,452.29,324.42,452.92Z" style="fill:#d3766a"></path><path d="M386.08,439c-.22,6.93-.58,12-1.21,12.4-2.13,1.39-58.48,2.12-60.45,1.49s-.32-6.32,1.84-8.09c1.15-.93,7.66-4.14,13.55-6.95C333.34,442.19,326.39,448.53,386.08,439Z" style="fill:#263238"></path><path d="M342.35,437c.14,0,.22-.08.23-.13Z" style="fill:#FFC727"></path><path d="M398.72,233.72s-9.19,95.44-10.57,102.71c-.32,1.65-.86,93.34-.86,93.34l-38.46-.58s1.74-78.88,3.5-93.39,12-102.08,12-102.08Z" style="fill:#37474f"></path><path d="M386.11,421.76a28.63,28.63,0,0,0-3.47-.26l-3.47-.16-6.83-.26-13.9-.49c-2.61-.1-5.22-.1-7.83-.07a.08.08,0,0,0,0,.15c9.22.93,18.53,1.13,27.79,1.35l4,.07a27.88,27.88,0,0,0,3.77-.06C386.31,422,386.25,421.78,386.11,421.76Z" style="fill:#263238"></path><path d="M393.52,237.93c-2.8,23.27-5.61,46.55-7.93,69.87-1.15,11.57-2.23,23.15-2.95,34.76s-1,23.4-1.18,35.12c-.18,13.24-.49,26.49-.28,39.74,0,.12.19.12.2,0,1.15-23.4.82-46.86,2.06-70.26s3.78-46.73,6.36-70c1.44-13,2.79-26.09,4.14-39.14C394,237.74,393.55,237.69,393.52,237.93Z" style="fill:#263238"></path><path d="M402.57,457.07c2.07.15,56.64-13.93,58.37-15.79.67-.69-.92-8.76-3.11-18.46L446.35,388.1,411.41,397l11.21,34.78s-18.48,14.73-20.17,17S400.5,456.93,402.57,457.07Z" style="fill:#d3766a"></path><path d="M459.18,428.94c1.43,6.79,2.28,11.8,1.77,12.34-1.74,1.85-56.31,15.94-58.37,15.79s-1.81-6.06-.14-8.29c.9-1.18,6.46-5.84,11.52-10C408.7,444.53,403.45,452.34,459.18,428.94Z" style="fill:#263238"></path><path d="M420.31,428.81l39.18-10.89s-29.39-74.42-31-79.52c-1.19-3.7-10.86-48.84-14.26-68.57,0,0,5.08-14.39-6.29-36.14H364.33s1.63,22.55,6.87,35.67a40.12,40.12,0,0,1,8.51,1.65s13.49,71.73,15.54,78.17C399.69,363.11,420.31,428.81,420.31,428.81Z" style="fill:#37474f"></path><path d="M387.65,309.93,383,285c-.44-2.35-.93-4.69-1.42-7s-.9-4.7-1.57-7a.14.14,0,0,0-.27,0c.12,2.12.52,4.24.8,6.35s.58,4.1.93,6.14c.72,4.19,1.5,8.38,2.29,12.55,1.59,8.34,3.17,16.71,5.11,25,1.09,4.65,2.11,9.32,3.27,14,0,.1.16.05.15,0C390.8,326.59,389.23,318.26,387.65,309.93Z" style="fill:#263238"></path><path d="M378.48,261.75c.58-1.45.11-3.12-.15-4.6-.34-1.87-.67-3.74-1-5.61-.78-4.22-1.64-8.42-2.54-12.62,0,0-.08,0-.08,0q.62,5,1.35,10c.49,3.36,1.14,6.72,1.55,10.09.14,1.09,0,3.24-1.54,3.25-1.33,0-2.14-2-2.56-3a47.29,47.29,0,0,1-2.44-9.24c-.77-3.71-1.4-7.45-2.05-11.18,0-.13-.23-.09-.22,0A108,108,0,0,0,370.1,250c.56,3.49,1.11,7.16,2.58,10.4.55,1.22,1.32,2.72,2.73,3.1a2.52,2.52,0,0,0,.6.07c.13,1.12.29,2.22.52,3.32a23.49,23.49,0,0,0,.89,3.39.13.13,0,0,0,.26,0h0a24.59,24.59,0,0,0-.5-3.41,33.49,33.49,0,0,0-.83-3.28A2.86,2.86,0,0,0,378.48,261.75Z" style="fill:#263238"></path><path d="M385.78,272.64a34.79,34.79,0,0,0-6.91-2.29,47,47,0,0,0-7-1c-.09,0-.11.14,0,.15,2.33.36,11.54,2.63,13.85,3.2C385.8,272.76,385.84,272.67,385.78,272.64Z" style="fill:#263238"></path><path d="M442.6,391.78q-3.12-8.31-6.26-16.62c-4.14-11-8.41-21.91-12.53-32.89s-5.82-22.39-8-33.74c-1.14-5.78-2.26-11.57-3.4-17.35s-2.5-11.47-3.17-17.27.19-11.37-.31-17.05a42.42,42.42,0,0,0-4-14.62,38.33,38.33,0,0,0-1.84-3.4.12.12,0,0,0-.2.12,45.56,45.56,0,0,1,5.46,23.24c-.08,2.87-.28,5.73-.14,8.6.27,5.73,1.6,11.38,2.7,17s2.25,11.45,3.38,17.18,2.28,11.56,3.41,17.35A130.54,130.54,0,0,0,421.72,339c1.83,5.46,4,10.82,6,16.21s4.19,11.07,6.31,16.59c4.21,11,8.34,22.05,12.74,33,.52,1.28,1,2.54,1.59,3.79.08.17.34,0,.29-.13C446.87,402.82,444.68,397.31,442.6,391.78Z" style="fill:#263238"></path><path d="M454.8,411.26a28.72,28.72,0,0,0-3.4.76l-3.37.86c-2.2.58-4.41,1.14-6.61,1.73L428,418.18c-2.53.67-5,1.42-7.52,2.2a.08.08,0,0,0,0,.15c9.09-1.78,18.06-4.3,27-6.78,1.28-.35,2.55-.72,3.82-1.09a29.38,29.38,0,0,0,3.59-1.14C455.06,411.45,454.94,411.24,454.8,411.26Z" style="fill:#263238"></path><path d="M350.07,205.87l6,1.48a18.87,18.87,0,0,0,4.38-10.64c.09-.89,1,4.56-1.33,11.4,6.33,1.56,14.94,3.68,22.48,5.47.8-2.92,1.68-5.59,1.68-5.59a34.3,34.3,0,0,0,0,6l3,.71a118.51,118.51,0,0,1,3.35-12.45,41.25,41.25,0,0,0,.94,13.44c4.8,1.08,8,1.7,7.83,1.43-5.42-9.94,1-13.56.52-21.35-.53-9.34-7.8-12.42-6.11-19,1.36-5.33,4.19-14.93-2.13-18.52a13.39,13.39,0,0,0-13.59-5.86c-11.63,1.73-11.06,19.24-12.54,22.44-2.11,4.58-4.77,5.77-7.7,10.88S355.54,195.14,355,199,348.87,205.59,350.07,205.87Z" style="fill:#263238"></path><path d="M398.83,216a19.35,19.35,0,0,1-1.28-5.22,10,10,0,0,1,1.13-5,52.92,52.92,0,0,0,2.07-5.11,14.33,14.33,0,0,0,.69-5.65,12.66,12.66,0,0,0-1.83-5.41,33.85,33.85,0,0,0-3.35-4.41,20.42,20.42,0,0,1-3-4.38,9.8,9.8,0,0,1-.86-5.23,9.25,9.25,0,0,0,.24,5.48,18.47,18.47,0,0,0,2.8,4.79,41.54,41.54,0,0,1,3,4.42,12,12,0,0,1,1.55,4.87,14.18,14.18,0,0,1-.61,5.11c-.48,1.7-1.18,3.36-1.81,5.09a18.27,18.27,0,0,0-.78,2.7,8.08,8.08,0,0,0,0,2.86A15.81,15.81,0,0,0,398.83,216Z" style="fill:#263238"></path><path d="M369.62,157.21a28.3,28.3,0,0,0-2.88,6.09c-.75,2.12-1.4,4.27-2,6.42l-.95,3.2a16.87,16.87,0,0,1-1.18,3,18.16,18.16,0,0,1-4.16,4.9A24.48,24.48,0,0,0,356,183.3a15.44,15.44,0,0,0-1.91,2.94,24,24,0,0,0-1.21,3.25,14.22,14.22,0,0,0-.57,3.43c0,1.16,0,2.29.07,3.39a17.74,17.74,0,0,1-.2,3.26,6.84,6.84,0,0,1-3.87,5,7,7,0,0,0,4.55-4.81,17.06,17.06,0,0,0,.46-3.4c0-1.14,0-2.25.12-3.32a17.82,17.82,0,0,1,1.89-6.14,15.11,15.11,0,0,1,1.77-2.65,25,25,0,0,1,2.28-2.33c.81-.76,1.65-1.54,2.42-2.42a14.5,14.5,0,0,0,2-2.91,18.84,18.84,0,0,0,1.17-3.27c.31-1.09.57-2.18.83-3.27.53-2.17,1-4.35,1.62-6.5A32.88,32.88,0,0,1,369.62,157.21Z" style="fill:#263238"></path><path d="M380.42,197.12c-6.47,8.9-20.77,31.71-31.74,32.53-8.85.66-27.62-17.38-32.52-22.24-3.19-3.17,12.39-22.73,15.85-19.56,4.45,4.1,15.41,18.67,17.76,18.67,1.3,0,9.14-4.72,24.34-14.91C380,187.65,384.28,191.81,380.42,197.12Z" style="fill:#d3766a"></path><path d="M304.32,198.55c3.12,4.35,13,10.74,16,11.36s14.4-15.8,13.46-18.77-12.6-16.8-17.86-18.27S301.08,194.05,304.32,198.55Z" style="fill:#d3766a"></path><rect x="326.03" y="88.11" width="3.64" height="141.96" transform="translate(595.9 405.94) rotate(-163.24)" style="fill:#a6a6a6"></rect><polygon points="347.96 83.11 353.01 84.64 356.08 70.78 353.06 69.87 347.96 83.11" style="fill:#dbdbdb"></polygon><path d="M289.9,242.78c9.34,2.81,16.41-3,18.57-10.16l2.77-9.2-5.07-1.53-2.77,9.2c-1,3.48-4.75,8.79-12,6.61-6.4-1.92-6.55-8.91-5.62-12l2.61-8.69-5.07-1.53-2.62,8.7a17.21,17.21,0,0,0,.25,10A13.08,13.08,0,0,0,289.9,242.78Z" style="fill:#263238"></path><path d="M261.81,104.69s13-1.72,20,.6,18.44,11,18.44,11,13.06-1.05,20.36.94,16.78,10.24,16.78,10.24,12.48-1.66,19.65.73,17.48,10.45,17.48,10.45,14.3-.88,21.44,1,17,10.53,17,10.53c-4.69-27-25.39-58.94-61.41-69.78S280.59,84.79,261.81,104.69Z" style="fill:#455a64"></path><path d="M261.81,104.69c3.35-2.18,6.74-4.3,10.19-6.33s6.89-4,10.4-6a145.67,145.67,0,0,1,21.73-9.93,47.53,47.53,0,0,1,11.54-2.67c4-.4,8-.54,11.94-.64s8,0,12,.22,8,.52,11.94,1a139.79,139.79,0,0,0-23.92-2.06c-4,0-8,.14-12,.5a48,48,0,0,0-11.79,2.63,107.33,107.33,0,0,0-11.12,4.65c-3.62,1.73-7.19,3.57-10.66,5.58A218.79,218.79,0,0,0,261.81,104.69Z" style="fill:#37474f"></path><path d="M300.24,116.26c1.44-2.31,2.94-4.57,4.55-6.75s3.23-4.36,5-6.43a62.93,62.93,0,0,1,11.6-11.18,63.91,63.91,0,0,1,14.55-7c2.54-.92,5.13-1.74,7.74-2.48s5.23-1.43,7.88-2a100.21,100.21,0,0,0-15.89,3.75A60.8,60.8,0,0,0,320.77,91a28.81,28.81,0,0,0-3.25,2.56c-1,.9-2,1.86-3,2.82a75.18,75.18,0,0,0-5.42,6.15A88.9,88.9,0,0,0,300.24,116.26Z" style="fill:#37474f"></path><path d="M337.37,127.44c1.39-3.86,2.67-7.75,3.93-11.64s2.44-7.82,3.66-11.72,2.32-7.85,3.42-11.79L350,86.36c.51-2,1.05-4,1.52-6-.7,1.92-1.34,3.87-2,5.8l-1.91,5.84c-1.26,3.89-2.43,7.82-3.65,11.72s-2.33,7.85-3.43,11.8S338.34,123.46,337.37,127.44Z" style="fill:#37474f"></path><path d="M412.94,150.19a219.07,219.07,0,0,0-9.68-22c-1.79-3.58-3.74-7.09-5.8-10.53a106.51,106.51,0,0,0-6.71-10A47.66,47.66,0,0,0,382.37,99q-4.71-3.76-9.75-7.06a140.73,140.73,0,0,0-21.09-11.49q5.39,2.66,10.53,5.74t10.1,6.43c3.27,2.28,6.52,4.6,9.6,7.13a47.47,47.47,0,0,1,8.15,8.6,143.85,143.85,0,0,1,12.63,20.28c1.89,3.52,3.68,7.09,5.4,10.7S411.34,146.52,412.94,150.19Z" style="fill:#37474f"></path><path d="M374.5,138.62a88.08,88.08,0,0,0,.16-16.32,71.71,71.71,0,0,0-1.12-8.12c-.27-1.34-.56-2.68-.93-4a28.66,28.66,0,0,0-1.29-3.93,61.06,61.06,0,0,0-8.61-13.94,99.91,99.91,0,0,0-11.18-11.9c1.88,2,3.7,4,5.45,6.06s3.47,4.16,5.09,6.33a64.11,64.11,0,0,1,8.27,13.85,62.86,62.86,0,0,1,3.51,15.73c.31,2.68.49,5.39.59,8.1S374.58,135.9,374.5,138.62Z" style="fill:#37474f"></path><path d="M320.58,175.81c.93,2.68-2.76,2.23-2.76,2.23s5.16,1.93,5,5.06-4.56,2.33-4.88,2.28c.27.1,5,2,4.53,5.13s-4.8,1.8-5.08,1.7c.23.18,3.17,2.6,2.3,4.9-1.51,4-9.22-2-12.61-1.42,0,0,.32,5.85.3,6,0,0-7.45-5.53-8-10.14a3,3,0,0,1,1.93-3.17s-2.6-1.51-2.33-4c.14-1.28,2.31-2.18,2.31-2.18a3.74,3.74,0,0,1-1.66-3.5c.3-1.75,2.42-2.39,2.42-2.39s-1.37-2.15-.48-3.84C303.41,169.09,318.6,170.07,320.58,175.81Z" style="fill:#d3766a"></path><path d="M302.44,176.19a0,0,0,0,1,0-.08A26.41,26.41,0,0,1,318,178.05c.15.07.1.35-.09.3A54.07,54.07,0,0,0,302.44,176.19Z" style="fill:#263238"></path><path d="M301.28,182.19c-.06,0-.06-.1,0-.11a24.79,24.79,0,0,1,16.88,3.17c.17.11.22.38,0,.27C314.63,183.62,306.2,182.09,301.28,182.19Z" style="fill:#263238"></path><path d="M317.71,192.56c-5-2.92-10.4-3.95-16.11-4.21-.08,0-.07-.11,0-.12,2.83-.64,6.45-.09,9.24.57a15.28,15.28,0,0,1,7,3.59C317.89,192.46,317.81,192.62,317.71,192.56Z" style="fill:#263238"></path><path d="M317.82,178a17.86,17.86,0,0,1,2.72,1.64,5.74,5.74,0,0,1,2,2.29,2,2,0,0,1,0,1.37,2.75,2.75,0,0,1-.8,1.15,3.39,3.39,0,0,1-2.7.58l-2.3-.39,2,1.16a9.57,9.57,0,0,1,2.4,1.93,3.38,3.38,0,0,1,1,2.6,2,2,0,0,1-1.66,1.8,6,6,0,0,1-2.93-.38l-2.59-.95,2.13,1.73a8.88,8.88,0,0,1,1.58,1.66,3.64,3.64,0,0,1,.79,2,1.74,1.74,0,0,1-.9,1.61,3.79,3.79,0,0,1-2.16.16,29.79,29.79,0,0,1-4.6-1.29c-.77-.25-1.54-.5-2.32-.72a5.81,5.81,0,0,0-2.41-.27,6.13,6.13,0,0,1,2.34.49c.76.27,1.5.58,2.24.89a26.63,26.63,0,0,0,4.64,1.56,4.55,4.55,0,0,0,2.6-.11,2.5,2.5,0,0,0,1.42-2.33,4.49,4.49,0,0,0-.92-2.47,9.59,9.59,0,0,0-1.73-1.87l-.46.79a6.72,6.72,0,0,0,3.45.48,2.8,2.8,0,0,0,1.68-.9,3.25,3.25,0,0,0,.74-1.74,4.32,4.32,0,0,0-1.26-3.29,10.39,10.39,0,0,0-2.68-2.08l-.27.77a4.07,4.07,0,0,0,3.3-.88,3.56,3.56,0,0,0,.92-1.49,2.48,2.48,0,0,0-.13-1.74,6,6,0,0,0-2.3-2.33A15,15,0,0,0,317.82,178Z" style="fill:#263238"></path><path d="M333.08,190.09s-11.53-25.38-17.46-17.47c-1.77,2.35-6.2,14.11-3.86,15,3,1.21,5.8-3.35,7.08-6.49,0,0,2.54,7.38,8.21,7.14A10,10,0,0,1,333.08,190.09Z" style="fill:#d3766a"></path><path d="M316.15,172a12.22,12.22,0,0,0-2,2.82,26.56,26.56,0,0,0-1.44,3.17,40.71,40.71,0,0,0-2,6.67,6.61,6.61,0,0,0-.11,1.85,2.6,2.6,0,0,0,.32,1,1.57,1.57,0,0,0,.38.45,2,2,0,0,0,.49.3,3,3,0,0,0,2,0,5.52,5.52,0,0,0,1.63-1,10.67,10.67,0,0,0,2.23-2.81,23,23,0,0,0,1.52-3.17l-.75,0a13.32,13.32,0,0,0,1.19,2.39,12.53,12.53,0,0,0,1.6,2.1,8.83,8.83,0,0,0,2.08,1.62,6.69,6.69,0,0,0,2.47.83,7.67,7.67,0,0,1-2.32-1.07,9.45,9.45,0,0,1-1.85-1.72,13.49,13.49,0,0,1-1.42-2.09,14.6,14.6,0,0,1-1-2.31l-.31-1-.44,1a25.2,25.2,0,0,1-1.56,3,10.28,10.28,0,0,1-2.07,2.54,2.85,2.85,0,0,1-2.67.8c-.75-.24-.71-1.5-.55-2.56a32.24,32.24,0,0,1,.72-3.32c.29-1.11.58-2.22.94-3.3A22,22,0,0,1,316.15,172Z" style="fill:#263238"></path><path d="M334.18,189l-15.61,23s21.86,18.89,30.76,18.82,22-20.13,28.72-28.77c7.09-9.15,5.4-17-6.09-10s-21.44,13.3-21.9,13.38S334.18,189,334.18,189Z" style="fill:#FFC727"></path><path d="M377.91,190.08a.67.67,0,0,1-1.33,0,.59.59,0,0,1,.07-.29,9.88,9.88,0,0,1,1-.26A.67.67,0,0,1,377.91,190.08Zm-52,14.2a.66.66,0,1,0,0,1.32.66.66,0,1,0,0-1.32Zm10.26,0a.66.66,0,1,0,.66.66A.66.66,0,0,0,336.21,204.28Zm10.26,0a.66.66,0,1,0,.66.66A.66.66,0,0,0,346.47,204.28Zm10.26,0a.66.66,0,1,0,.66.66A.66.66,0,0,0,356.73,204.28Zm10.25,0a.66.66,0,0,0,0,1.32.66.66,0,1,0,0-1.32Zm-35.9-7.68a.67.67,0,1,0,.66.67A.66.66,0,0,0,331.08,196.6Zm10.3,0h0a.67.67,0,1,0,.66.67h0Zm30.73,0a.67.67,0,1,0,.67.67A.67.67,0,0,0,372.11,196.6Zm-51.29,14.86a.66.66,0,1,0,.66.66A.66.66,0,0,0,320.82,211.46Zm15.39,7.67a.67.67,0,1,0,.66.66A.67.67,0,0,0,336.21,219.13Zm10.26,0a.67.67,0,1,0,.66.66A.67.67,0,0,0,346.47,219.13Zm10.26,0a.67.67,0,1,0,.66.66A.67.67,0,0,0,356.73,219.13Zm-25.65-7.67a.66.66,0,1,0,.66.66A.66.66,0,0,0,331.08,211.46Zm10.26,0a.66.66,0,1,0,0,1.32.66.66,0,1,0,0-1.32Zm10.26,0a.66.66,0,1,0,0,1.32.66.66,0,0,0,0-1.32Zm10.25,0a.66.66,0,1,0,.67.66A.67.67,0,0,0,361.85,211.46Zm-20.51,14.86a.66.66,0,1,0,.66.66A.66.66,0,0,0,341.34,226.32Zm10.26,0a.66.66,0,1,0,.66.66A.66.66,0,0,0,351.6,226.32Z" style="fill:#fff"></path><path d="M331.79,205.07c1.19-1.71,5.83-8.61,6.78-10.43,0-.06-.06-.1-.1-.06-1.38,1.55-6.22,8.36-7.41,10.08-2.36,3.43-4.8,6.86-6.85,10.5,0,.08.07.16.12.1C327,212,329.4,208.52,331.79,205.07Z" style="fill:#263238"></path><path d="M378.05,202c-6.7,8.64-19.83,28.71-28.72,28.77a17.3,17.3,0,0,1-6.95-2.09l35.14-39.16C383.78,188.12,383.77,194.64,378.05,202Z" style="opacity:0.1"></path><path d="M362.09,242.73l51.63,1.8s-12.81-43.11-23.57-54.6c-4.89-5.23-9.67-4.43-13.73-1.07-1,.84-13.55,16.76-14.61,22.31-.94,4.9,3,10.34,3,10.34Z" style="fill:#FFC727"></path><path d="M380.09,221.19a44.06,44.06,0,0,0-6.6-.11c-1.09.08-2.17.21-3.26.36l-1.62.18a6.53,6.53,0,0,1-1.71,0,0,0,0,0,0,0,.08,12.4,12.4,0,0,0,1.6.26,11.6,11.6,0,0,0,1.56,0c1.11-.07,2.22-.19,3.32-.27,2.24-.16,4.47-.32,6.72-.32C380.19,221.37,380.19,221.2,380.09,221.19Z" style="fill:#263238"></path><path d="M385.08,224.07a48.61,48.61,0,0,0-5.31-1.23c-.9-.15-1.79-.25-2.7-.32-.43,0-.87-.07-1.3-.09s-1,0-1.43,0c0,0-.07.07,0,.08.45,0,.89.16,1.34.23l1.34.21c.9.14,1.79.29,2.69.42,1.79.26,3.58.54,5.36.87C385.15,224.24,385.17,224.1,385.08,224.07Z" style="fill:#263238"></path><path d="M377.91,190.08a.67.67,0,1,1-.67-.66A.66.66,0,0,1,377.91,190.08Zm9.59-.66a.66.66,0,0,0,0,1.32.66.66,0,0,0,0-1.32ZM367,204.28a.66.66,0,0,0,0,1.32.66.66,0,1,0,0-1.32Zm10.26,0a.66.66,0,0,0,0,1.32.66.66,0,1,0,0-1.32Zm10.26,0a.66.66,0,1,0,.66.66A.66.66,0,0,0,387.5,204.28Zm10.26,0a.66.66,0,1,0,.66.66A.65.65,0,0,0,397.76,204.28Zm-25.65-7.68a.67.67,0,1,0,.67.67A.67.67,0,0,0,372.11,196.6Zm10.26,0a.67.67,0,0,0,0,1.33.67.67,0,0,0,0-1.33Zm10.26,0a.67.67,0,0,0,0,1.33.67.67,0,0,0,0-1.33ZM367,219.13a.67.67,0,1,0,.67.66A.67.67,0,0,0,367,219.13Zm10.26,0a.67.67,0,1,0,.67.66A.67.67,0,0,0,377.24,219.13Zm10.26,0a.67.67,0,1,0,.66.66A.67.67,0,0,0,387.5,219.13Zm10.26,0a.67.67,0,1,0,.66.66A.66.66,0,0,0,397.76,219.13Zm-35.91-7.67h-.09a8,8,0,0,0-.09,1.28.52.52,0,0,0,.18,0,.66.66,0,1,0,0-1.32Zm10.26,0a.66.66,0,1,0,.67.66A.67.67,0,0,0,372.11,211.46Zm10.26,0a.66.66,0,0,0,0,1.32.66.66,0,0,0,0-1.32Zm10.26,0a.66.66,0,1,0,0,1.32.66.66,0,1,0,0-1.32Zm9.61.55a.37.37,0,0,0,0,.11.65.65,0,0,0,.28.54C402.41,212.45,402.33,212.23,402.24,212ZM367,234a.66.66,0,1,0,.67.66A.67.67,0,0,0,367,234Zm10.26,0a.66.66,0,1,0,.67.66A.67.67,0,0,0,377.24,234Zm10.26,0a.66.66,0,0,0,0,1.32.66.66,0,1,0,0-1.32Zm10.26,0a.66.66,0,1,0,.66.66A.66.66,0,0,0,397.76,234ZM408,234a.66.66,0,1,0,.66.66A.66.66,0,0,0,408,234Zm-35.91-7.67a.66.66,0,0,0,0,1.32.66.66,0,1,0,0-1.32Zm10.26,0a.66.66,0,1,0,.66.66A.66.66,0,0,0,382.37,226.32Zm10.26,0a.66.66,0,1,0,.66.66A.66.66,0,0,0,392.63,226.32Zm10.26,0a.66.66,0,1,0,.66.66A.65.65,0,0,0,402.89,226.32Zm-40.62,15-.14,1.12a.68.68,0,0,0,.39-.61A.65.65,0,0,0,362.27,241.32Zm9.84-.15a.67.67,0,1,0,.67.66A.67.67,0,0,0,372.11,241.17Zm10.26,0a.67.67,0,1,0,.66.66A.67.67,0,0,0,382.37,241.17Zm10.26,0a.67.67,0,1,0,.66.66A.67.67,0,0,0,392.63,241.17Zm10.26,0a.67.67,0,1,0,.66.66A.66.66,0,0,0,402.89,241.17Zm9.84.15a.66.66,0,0,0-.24.51.67.67,0,0,0,.61.67C413,242.15,412.87,241.75,412.73,241.32Z" style="fill:#fff"></path><path d="M368.35,199.43a53.87,53.87,0,0,0-3.05,4.6c.39-.9.75-1.8,1.06-2.72,0,0,0-.06-.06,0-.33.66-.66,1.31-.94,2s-.49,1.22-.71,1.83l0,0A24.49,24.49,0,0,0,361.8,211a11.28,11.28,0,0,0,.12,5.74A13.91,13.91,0,0,0,363,219.5a8.81,8.81,0,0,0,1.47,2.2c-.34,2-.57,4-.83,5.94a47.23,47.23,0,0,0-.6,5.82c0,.12.17.13.21,0l.12-.42s0,0,0-.06c.43-1.79.61-3.65.86-5.46s.73-5.8.73-5.82-.9-1.65-1.25-2.39a17,17,0,0,1-1-2.84,10.66,10.66,0,0,1-.11-5.63,26.61,26.61,0,0,1,2.65-5.67c1.06-1.9,2.15-3.79,3.25-5.67C368.51,199.45,368.4,199.36,368.35,199.43Z" style="fill:#263238"></path><rect x="356.1" y="224.76" width="33.33" height="43.39" transform="matrix(0.86, -0.52, 0.52, 0.86, -73.76, 228.85)" style="fill:#263238"></rect><rect x="353.59" y="225.72" width="15.8" height="4.79" transform="translate(788.87 235.39) rotate(148.72)" style="fill:#a6a6a6"></rect><polygon points="356.56 228.31 358.22 227.3 357.07 225.41 361.12 222.96 362.26 224.84 363.92 223.84 361.83 220.4 354.45 224.89 356.56 228.31" style="fill:#a6a6a6"></polygon><path d="M390.9,190.45c11.56,9.57,35,33.19,30.92,40.67-6.63,12.3-26.36,26.38-32.76,29.72-2.79,1.45-18-17.52-15.64-19.9,2.86-2.85,24.57-15.85,24-17.84-.32-1.12-5.12-10-10.16-21.72C381.43,187.81,385.39,185.9,390.9,190.45Z" style="fill:#d3766a"></path><path d="M350.87,252a3.85,3.85,0,0,0,2.94,3.27,5.72,5.72,0,0,0-.48,3.86c.63,2.26,4.46,2.27,4.46,2.27a7,7,0,0,0,.14,4.14c.82,2.11,4.69,2.67,4.69,2.67a6.16,6.16,0,0,0,2.42,3.56c3.32,2.17,8.81-.38,12.32-2s12-9.37,13.73-10.69l-10-22.6s-17.75,2.64-21.61,5.09C356.25,243.61,350.61,249,350.87,252Z" style="fill:#d3766a"></path><path d="M353.8,254.79c2.93-3,6.6-5,10.14-7.21.08-.05.16.07.08.12-3.55,2.14-6.63,5-10.09,7.25A.1.1,0,0,1,353.8,254.79Z" style="fill:#263238"></path><path d="M357.73,261a11.06,11.06,0,0,1,2.41-1.56c.89-.49,1.79-1,2.7-1.43q2.71-1.39,5.51-2.64c.08,0,.15.08.07.12-1.81.93-3.6,1.88-5.36,2.88-.89.51-1.77,1-2.64,1.53a13.42,13.42,0,0,1-2.54,1.34A.15.15,0,0,1,357.73,261Z" style="fill:#263238"></path><path d="M362.69,268.12a7.71,7.71,0,0,1,2.25-1.29c.83-.4,1.67-.81,2.5-1.23,1.66-.83,3.32-1.65,4.95-2.54.08,0,.16.08.07.12-1.65.91-3.29,1.84-4.95,2.74l-2.45,1.3a7.23,7.23,0,0,1-2.33,1S362.66,268.15,362.69,268.12Z" style="fill:#263238"></path><path d="M380.39,235.42l16.35,22.22s23.8-18.31,26.15-27.69c2.11-8.42-24.37-34-30.23-38.86s-10.49-4.74-7.56,5,11.48,26.69,11.55,27S380.39,235.42,380.39,235.42Z" style="fill:#FFC727"></path><path d="M388.16,190.08a.66.66,0,1,1-1.32,0,.66.66,0,0,1,1.32,0Zm9.6,14.2a.66.66,0,1,0,.66.66A.65.65,0,0,0,397.76,204.28Zm-5.13-7.68a.67.67,0,0,0,0,1.33.67.67,0,0,0,0-1.33Zm5.13,22.53a.67.67,0,1,0,.66.66A.66.66,0,0,0,397.76,219.13Zm10.26,0a.67.67,0,1,0,.66.66A.66.66,0,0,0,408,219.13Zm10.26,0a.67.67,0,0,0,0,1.33.67.67,0,0,0,0-1.33Zm-25.65-7.67a.66.66,0,1,0,0,1.32.66.66,0,1,0,0-1.32Zm10.26,0a.66.66,0,1,0,.66.66A.66.66,0,0,0,402.89,211.46Zm10.76,1.09a.66.66,0,0,1-1.16-.43.65.65,0,0,1,.33-.57ZM387.5,234a.66.66,0,0,0,0,1.32.66.66,0,1,0,0-1.32Zm10.26,0a.66.66,0,1,0,.66.66A.66.66,0,0,0,397.76,234ZM408,234a.66.66,0,1,0,.66.66A.66.66,0,0,0,408,234Zm10.26,0a.66.66,0,1,0,.66.66A.66.66,0,0,0,418.28,234Zm-25.65-7.67a.66.66,0,1,0,.66.66A.66.66,0,0,0,392.63,226.32Zm10.26,0a.66.66,0,1,0,.66.66A.65.65,0,0,0,402.89,226.32Zm10.26,0a.66.66,0,1,0,0,1.32.66.66,0,1,0,0-1.32Zm-15.39,22.52a.67.67,0,1,0,.66.67A.66.66,0,0,0,397.76,248.84Zm-5.13-7.67a.67.67,0,1,0,.66.66A.67.67,0,0,0,392.63,241.17Zm10.26,0a.67.67,0,1,0,.66.66A.66.66,0,0,0,402.89,241.17Zm10.26,0a.67.67,0,0,0,0,1.33.67.67,0,0,0,0-1.33Z" style="fill:#fff"></path><path d="M393.88,242c-1.21-1.71-6.12-8.41-7.51-9.93-.05,0-.12,0-.09.07,1,1.83,5.75,8.7,7,10.4,2.43,3.4,4.82,6.85,7.55,10,.06.06.18,0,.14-.09C398.82,248.8,396.31,245.38,393.88,242Z" style="fill:#263238"></path><path d="M392,212.58c-1.64-3.58-3.21-7.2-4.79-10.81,0-.07-.15,0-.12,0q1.06,3.13,2.31,6.19c-.62-1-1.21-2-1.78-3.06,0-.08-.15,0-.11.06a22.37,22.37,0,0,0,2.29,4c.51,1.23,1,2.47,1.58,3.69.8,1.79,4.51,9.59,5,10.45-2.9,1.87-5.36,3.91-8.14,5.94-1.36,1-2.72,2-4.06,3a40.82,40.82,0,0,0-4.11,3.14c-.07.07.31.39.45.56s.21,0,.16-.06l-.15-.25c.7-.38,3.39-2.4,4.09-2.9l4.07-3c2.76-2,8.49-6.23,8.47-6.27C396.82,222.46,392.81,214.4,392,212.58Z" style="fill:#263238"></path><path d="M385.73,188.56c-.21.92-4.53,6.94-8.73,6.79-1.37,0-1.42-7.54-1.42-7.54l-.14-.55-1.81-7.72,9-5.94,1.3-.79s.36,2.15.78,4.82l.06.39a3.49,3.49,0,0,1,.07.43c.07.4.14.81.2,1.21s.09.62.13.94l.12,1A50.5,50.5,0,0,1,385.73,188.56Z" style="fill:#d3766a"></path><path d="M384.74,177.63a15.9,15.9,0,0,1-9.3,9.63l-1.81-7.72,9-5.94,1.3-.79S384.32,175,384.74,177.63Z" style="fill:#263238"></path><path d="M362.16,165.24c-4,13.34,3.57,17.23,6.45,18.08,2.62.78,11.61,3.08,16.94-9.78s.38-18.94-5.5-21S366.13,151.89,362.16,165.24Z" style="fill:#d3766a"></path><path d="M364.73,163.49c.32,0,.63,0,1,.06a1.53,1.53,0,0,0,1-.13.51.51,0,0,0,.16-.58,1.23,1.23,0,0,0-1.1-.6,1.82,1.82,0,0,0-1.26.32A.53.53,0,0,0,364.73,163.49Z" style="fill:#263238"></path><path d="M374,166a7,7,0,0,1-.86-.44,1.55,1.55,0,0,1-.79-.61.51.51,0,0,1,.16-.58,1.22,1.22,0,0,1,1.25,0,1.81,1.81,0,0,1,.92.91A.52.52,0,0,1,374,166Z" style="fill:#263238"></path><path d="M370.91,168.7s.06.06,0,.1c-.3.9-.49,2,.24,2.53,0,0,0,.06,0,0C370.22,170.93,370.49,169.5,370.91,168.7Z" style="fill:#263238"></path><path d="M372,168c1.49.33.73,3.29-.65,3S370.76,167.72,372,168Z" style="fill:#263238"></path><path d="M372.55,168.3c.22.23.39.59.7.7s.7-.11,1-.35c0,0,.05,0,0,0-.14.57-.51,1.1-1.14,1s-.84-.67-.84-1.28C372.33,168.34,372.46,168.2,372.55,168.3Z" style="fill:#263238"></path><path d="M365.86,167.19s-.08,0-.09.07c-.2.92-.59,2-1.49,2.05,0,0,0,.05,0,.05C365.32,169.47,365.82,168.1,365.86,167.19Z" style="fill:#263238"></path><path d="M365.28,166c-1.46-.48-2.31,2.46-1,2.9S366.49,166.43,365.28,166Z" style="fill:#263238"></path><path d="M364.61,166c-.28.09-.59.31-.88.25s-.47-.46-.59-.83c0,0,0,0-.05,0-.18.56-.16,1.2.35,1.46s1-.13,1.26-.66C364.75,166.19,364.72,166,364.61,166Z" style="fill:#263238"></path><path d="M369.08,176.26c-.26.17-.55.43-.89.39a2.45,2.45,0,0,1-.95-.45s-.06,0-.05,0a1.27,1.27,0,0,0,1.07.75,1,1,0,0,0,.9-.67S369.12,176.24,369.08,176.26Z" style="fill:#263238"></path><path d="M365.94,173.82a3.89,3.89,0,0,0,1.09,1.63,1.73,1.73,0,0,0,1,.4c.79.05,1-.61,1.09-1.22a4.21,4.21,0,0,0,0-1A5.08,5.08,0,0,1,365.94,173.82Z" style="fill:#263238"></path><path d="M367,175.45a1.73,1.73,0,0,0,1,.4c.79.05,1-.61,1.09-1.22A1.8,1.8,0,0,0,367,175.45Z" style="fill:#ff97b8"></path><path d="M366.15,171.92s-.56,1.32-.73,2c0,.06.13.14.34.21h0a3.18,3.18,0,0,0,3.29-.35c.06-.05,0-.14-.08-.11a4.77,4.77,0,0,1-3,0c0-.19,1-2.22.93-2.25a5.65,5.65,0,0,0-1.56-.07c1.08-2.77,2.6-5.35,3.64-8.13a.09.09,0,0,0-.16-.09,48.26,48.26,0,0,0-4.29,8.6C364.4,172.09,365.86,172,366.15,171.92Z" style="fill:#263238"></path><path d="M384.72,173.21c-3.2-.65-2.1-5.69-2.1-5.69s-3.55-1.1-2.57-7a9.06,9.06,0,0,1-7.56,2.83c-1.08-.08,3-2,3-2s-5,2.88-12.43-.21c-.53-.22,2.39-8.15,9.07-9.64s11.82,1.28,14.76,5.92c0,0,4,3,3.62,7.33S386,173.47,384.72,173.21Z" style="fill:#263238"></path><path d="M384.11,178.46a3.07,3.07,0,0,1-.66,0,2.15,2.15,0,0,1-.65-.12,1.91,1.91,0,0,1-.73-.41,2.92,2.92,0,0,1-.44-.51,2.84,2.84,0,0,1-.36-.87l1.51-3.49s3.85-3.64,5.56-2.18S386.56,178.09,384.11,178.46Z" style="fill:#d3766a"></path><path d="M387.3,172.53s0,.05,0,.06a6,6,0,0,0-3.76,3,1.3,1.3,0,0,1,2,0s0,.1-.06.08a1.43,1.43,0,0,0-1.66.17,7.08,7.08,0,0,0-1,1.11c-.1.13-.34,0-.25-.15l0,0C382.92,174.8,385.08,172.28,387.3,172.53Z" style="fill:#263238"></path><path d="M384,177.85a.64.64,0,0,1-.84.34.64.64,0,1,1,.5-1.18A.63.63,0,0,1,384,177.85Z" style="fill:#fff"></path><path d="M385.54,177.16a.46.46,0,0,1-.6.25.46.46,0,1,1,.36-.84A.44.44,0,0,1,385.54,177.16Z" style="fill:#fff"></path><polygon points="375.63 189.46 371.09 197.19 376.68 195.25 381.11 199.85 385.73 188.56 376.75 195.05 375.63 189.46" style="fill:#fff"></polygon></g></svg>