<svg xmlns="http://www.w3.org/2000/svg" viewBox="0 0 500 500"><g id="freepik--background-complete--inject-6"><rect y="382.4" width="500" height="0.25" style="fill:#ebebeb"></rect><rect x="416.78" y="398.49" width="33.12" height="0.25" style="fill:#ebebeb"></rect><rect x="322.53" y="401.21" width="8.69" height="0.25" style="fill:#ebebeb"></rect><rect x="396.59" y="389.21" width="19.19" height="0.25" style="fill:#ebebeb"></rect><rect x="52.46" y="390.89" width="43.19" height="0.25" style="fill:#ebebeb"></rect><rect x="104.56" y="390.89" width="6.33" height="0.25" style="fill:#ebebeb"></rect><rect x="131.47" y="395.11" width="93.68" height="0.25" style="fill:#ebebeb"></rect><path d="M237,337.8H43.91a5.71,5.71,0,0,1-5.7-5.71V60.66A5.71,5.71,0,0,1,43.91,55H237a5.71,5.71,0,0,1,5.71,5.71V332.09A5.71,5.71,0,0,1,237,337.8ZM43.91,55.2a5.46,5.46,0,0,0-5.45,5.46V332.09a5.46,5.46,0,0,0,5.45,5.46H237a5.47,5.47,0,0,0,5.46-5.46V60.66A5.47,5.47,0,0,0,237,55.2Z" style="fill:#ebebeb"></path><path d="M453.31,337.8H260.21a5.72,5.72,0,0,1-5.71-5.71V60.66A5.72,5.72,0,0,1,260.21,55h193.1A5.71,5.71,0,0,1,459,60.66V332.09A5.71,5.71,0,0,1,453.31,337.8ZM260.21,55.2a5.47,5.47,0,0,0-5.46,5.46V332.09a5.47,5.47,0,0,0,5.46,5.46h193.1a5.47,5.47,0,0,0,5.46-5.46V60.66a5.47,5.47,0,0,0-5.46-5.46Z" style="fill:#ebebeb"></path><rect x="66.79" y="153.1" width="130.44" height="6.7" style="fill:#e0e0e0"></rect><rect x="72.79" y="128.39" width="5.75" height="24.7" style="fill:#ebebeb"></rect><rect x="100.58" y="128.39" width="5.75" height="24.7" style="fill:#ebebeb"></rect><rect x="134.26" y="128.09" width="5.75" height="24.7" transform="translate(-21.86 25.33) rotate(-9.78)" style="fill:#ebebeb"></rect><rect x="79.91" y="131.65" width="5.75" height="21.45" style="fill:#ebebeb"></rect><rect x="93.12" y="131.65" width="5.75" height="21.45" style="fill:#ebebeb"></rect><rect x="126.46" y="131.65" width="5.75" height="21.45" style="fill:#ebebeb"></rect><rect x="110.52" y="131.28" width="5.75" height="21.45" transform="translate(-28.1 27.97) rotate(-12.53)" style="fill:#ebebeb"></rect><rect x="87.75" y="127.17" width="2.87" height="25.93" style="fill:#ebebeb"></rect><rect x="121.93" y="127.17" width="2.87" height="25.93" style="fill:#ebebeb"></rect><rect x="156.71" y="133.55" width="28" height="19.33" style="fill:#ebebeb"></rect><rect x="66.79" y="203.13" width="130.44" height="6.7" transform="translate(264.01 412.96) rotate(180)" style="fill:#e0e0e0"></rect><rect x="185.48" y="178.43" width="5.75" height="24.7" transform="translate(376.7 381.56) rotate(180)" style="fill:#ebebeb"></rect><rect x="157.69" y="178.43" width="5.75" height="24.7" transform="translate(321.12 381.56) rotate(180)" style="fill:#ebebeb"></rect><rect x="124" y="178.12" width="5.75" height="24.7" transform="translate(219.56 399.72) rotate(-170.22)" style="fill:#ebebeb"></rect><rect x="178.36" y="181.68" width="5.75" height="21.45" transform="translate(362.46 384.81) rotate(180)" style="fill:#ebebeb"></rect><rect x="165.15" y="181.68" width="5.75" height="21.45" transform="translate(336.04 384.81) rotate(180)" style="fill:#ebebeb"></rect><rect x="131.81" y="181.68" width="5.75" height="21.45" transform="translate(269.36 384.81) rotate(180)" style="fill:#ebebeb"></rect><rect x="147.75" y="181.31" width="5.75" height="21.45" transform="translate(256 412.17) rotate(-167.47)" style="fill:#ebebeb"></rect><rect x="173.39" y="177.2" width="2.87" height="25.93" transform="translate(349.65 380.33) rotate(180)" style="fill:#ebebeb"></rect><rect x="139.21" y="177.2" width="2.87" height="25.93" transform="translate(281.28 380.33) rotate(180)" style="fill:#ebebeb"></rect><rect x="79.3" y="183.58" width="28" height="19.33" transform="translate(186.61 386.49) rotate(180)" style="fill:#ebebeb"></rect><rect x="268.54" y="95.7" width="163.56" height="6.51" rx="2.12" style="fill:#e0e0e0"></rect><rect x="278.25" y="100.88" width="144.13" height="127.9" style="fill:#e6e6e6"></rect><rect x="281.86" y="104.39" width="136.73" height="120.95" style="fill:#f0f0f0"></rect><polygon points="313.95 104.39 281.86 225.07 281.86 168.36 298.8 104.39 313.95 104.39" style="fill:#fff"></polygon><polygon points="325.31 104.39 292.94 225.34 287.78 225.34 320.15 104.39 325.31 104.39" style="fill:#fff"></polygon><polygon points="418.59 180.71 418.59 200.03 412.04 225.34 406.87 225.34 418.59 180.71" style="fill:#fff"></polygon><rect x="327.25" y="102.21" width="2.3" height="125.83" style="fill:#e6e6e6"></rect><rect x="371.88" y="102.21" width="2.3" height="125.83" style="fill:#e6e6e6"></rect><path d="M398.89,97.78s3.32,43.27,22.39,65.32c0,0-13.89,55.69-13.88,75.11l25.81-4.77-9.3-70,4.45-65.65Z" style="fill:#e0e0e0"></path><path d="M301.74,97.78s-3.31,43.27-22.38,65.32c0,0,13.89,55.69,13.88,75.11l-25.82-4.77,9.31-70-4.45-65.65Z" style="fill:#e0e0e0"></path><circle cx="132.01" cy="83.5" r="22.18" transform="translate(-15.65 32.56) rotate(-13.28)" style="fill:#e0e0e0"></circle><circle cx="132.01" cy="83.5" r="18.86" transform="translate(-11.67 22.22) rotate(-9.22)" style="fill:#f0f0f0"></circle><polyline points="132.9 70.56 132.9 83.74 141.63 78.8" style="fill:#f0f0f0;stroke:#e0e0e0;stroke-linecap:round;stroke-linejoin:round;stroke-width:2px"></polyline></g><g id="freepik--Shadow--inject-6"><ellipse id="freepik--path--inject-6" cx="250" cy="416.24" rx="193.89" ry="11.32" style="fill:#f5f5f5"></ellipse></g><g id="freepik--Plant--inject-6"><path d="M81.16,384.85c-.15-1-3.65-25.17,3.36-33.51a7.59,7.59,0,0,1,5.82-2.87c14.16-.33,16.09,11,16.11,11.15l-1.67.26c-.06-.41-1.74-10-14.4-9.72a5.93,5.93,0,0,0-4.57,2.27c-6.52,7.76-3,31.93-3,32.17Z" style="fill:#407BFF"></path><path d="M80.31,383.75l-1.69-.05c0-.23.56-22.25-10.29-26.81-10.64-4.45-15.43,4.71-15.62,5.1l-1.51-.76c0-.11,5.67-11,17.78-5.89C80.9,360.34,80.34,382.79,80.31,383.75Z" style="fill:#407BFF"></path><path d="M80.36,385.48c0-.35-.11-35.19-6.9-45.38-6.52-9.78-17-5.18-17.49-5l-.69-1.53c.12-.06,12.26-5.42,19.59,5.57C81.94,349.77,82,384,82,385.48Z" style="fill:#407BFF"></path><path d="M92.37,349.31S86.19,351.59,88,357,109.4,371.2,109.4,371.2s8.19-7.51.67-19.7S92.54,345.46,92.37,349.31Z" style="fill:#407BFF"></path><path d="M73.16,338.26s4.38-.47,4-3.14-17.06-9.55-26.91,1.57c0,0,6.31,10.84,15.43,11S73.16,338.26,73.16,338.26Z" style="fill:#407BFF"></path><path d="M68.65,356.12s3-2.45-.24-3.64-19.3-.86-19.46,15c0,0,18.67,3.1,21-2.95S68.65,356.12,68.65,356.12Z" style="fill:#407BFF"></path><path d="M92.37,349.31S86.19,351.59,88,357,109.4,371.2,109.4,371.2s8.19-7.51.67-19.7S92.54,345.46,92.37,349.31Z" style="fill:#fff;opacity:0.2;isolation:isolate"></path><path d="M73.16,338.26s4.38-.47,4-3.14-17.06-9.55-26.91,1.57c0,0,6.31,10.84,15.43,11S73.16,338.26,73.16,338.26Z" style="fill:#fff;opacity:0.2;isolation:isolate"></path><path d="M68.65,356.12s3-2.45-.24-3.64-19.3-.86-19.46,15c0,0,18.67,3.1,21-2.95S68.65,356.12,68.65,356.12Z" style="fill:#fff;opacity:0.2;isolation:isolate"></path><polygon points="95.69 417.2 66.71 417.2 63.59 385.48 98.81 385.48 95.69 417.2" style="fill:#407BFF"></polygon><polygon points="95.69 417.2 66.71 417.2 63.59 385.48 98.81 385.48 95.69 417.2" style="fill:#fff;opacity:0.5;isolation:isolate"></polygon><rect x="62.04" y="381.98" width="38.32" height="7" style="fill:#407BFF"></rect><rect x="62.04" y="381.98" width="38.32" height="7" style="fill:#fff;opacity:0.2;isolation:isolate"></rect></g><g id="freepik--Armchair--inject-6"><path d="M392.56,261H294.1a8.83,8.83,0,0,0-8.84,8.83l-12,76.47H389.38l12-76.47A8.83,8.83,0,0,0,392.56,261Z" style="fill:#407BFF"></path><path d="M392.56,261H294.1a8.83,8.83,0,0,0-8.84,8.83l-12,76.47H389.38l12-76.47A8.83,8.83,0,0,0,392.56,261Z" style="fill:#fff;opacity:0.4;isolation:isolate"></path><path d="M371.72,347.46h17.66l12-77.6a8.83,8.83,0,0,0-8.83-8.83h0a8.83,8.83,0,0,0-8.83,8.83Z" style="opacity:0.2;isolation:isolate"></path><path d="M269.58,310.6H227.72l-.45,0a10.78,10.78,0,0,0-10.78,10.77V417.2h63.23V321.35A10.61,10.61,0,0,0,269.58,310.6Z" style="fill:#407BFF"></path><path d="M269.58,310.6H227.72l-.45,0a10.78,10.78,0,0,0-10.78,10.77V417.2h63.23V321.35A10.61,10.61,0,0,0,269.58,310.6Z" style="fill:#fff;opacity:0.5;isolation:isolate"></path><path d="M227.27,310.58h0a10.78,10.78,0,0,0-10.78,10.77V417.2h21.56V321.35A10.78,10.78,0,0,0,227.27,310.58Z" style="fill:#fff;opacity:0.6000000000000001;isolation:isolate"></path><rect x="245.09" y="337.7" width="82.41" height="79.5" style="fill:#407BFF"></rect><rect x="245.09" y="337.7" width="82.41" height="79.5" style="fill:#fff;opacity:0.4;isolation:isolate"></rect><path d="M251.1,331h94a0,0,0,0,1,0,0V353.7a0,0,0,0,1,0,0h-94a11.36,11.36,0,0,1-11.36-11.36v0A11.36,11.36,0,0,1,251.1,331Z" style="fill:#407BFF"></path><path d="M251.1,331h94a0,0,0,0,1,0,0V353.7a0,0,0,0,1,0,0h-94a11.36,11.36,0,0,1-11.36-11.36v0A11.36,11.36,0,0,1,251.1,331Z" style="fill:#fff;opacity:0.6000000000000001;isolation:isolate"></path><path d="M380.58,310.6H338.72l-.45,0a10.78,10.78,0,0,0-10.78,10.77V417.2h63.23V321.35A10.61,10.61,0,0,0,380.58,310.6Z" style="fill:#407BFF"></path><path d="M380.58,310.6H338.72l-.45,0a10.78,10.78,0,0,0-10.78,10.77V417.2h63.23V321.35A10.61,10.61,0,0,0,380.58,310.6Z" style="fill:#fff;opacity:0.5;isolation:isolate"></path><path d="M338.27,310.58h0a10.78,10.78,0,0,0-10.78,10.77V417.2h21.56V321.35A10.78,10.78,0,0,0,338.27,310.58Z" style="fill:#fff;opacity:0.6000000000000001;isolation:isolate"></path></g><g id="freepik--Table--inject-6"><rect x="364.27" y="314.23" width="74.3" height="102.97" style="fill:#407BFF"></rect><rect x="415.78" y="314.23" width="22.8" height="102.97" style="opacity:0.2;isolation:isolate"></rect><rect x="367.97" y="317.91" width="42.73" height="16.07" style="fill:#fff;opacity:0.2"></rect><rect x="367.97" y="337.91" width="42.73" height="16.07" style="fill:#fff;opacity:0.2"></rect><rect x="367.97" y="357.91" width="42.73" height="42.73" style="fill:#fff;opacity:0.2"></rect><circle cx="388.24" cy="321.01" r="1.69" style="opacity:0.2;isolation:isolate"></circle><circle cx="388.24" cy="340.3" r="1.69" style="opacity:0.2;isolation:isolate"></circle><path d="M371.72,379.27a1.69,1.69,0,1,1-3.37,0,1.69,1.69,0,0,1,3.37,0Z" style="opacity:0.2;isolation:isolate"></path><rect x="407.22" y="250.16" width="4.8" height="64.06" style="fill:#263238"></rect><polygon points="383.98 272.18 435.27 272.18 431.12 235.88 388.13 235.88 383.98 272.18" style="fill:#407BFF"></polygon><g style="opacity:0.6000000000000001;isolation:isolate"><polygon points="383.98 272.18 435.27 272.18 431.12 235.88 388.13 235.88 383.98 272.18" style="fill:#fff"></polygon></g><polygon points="407.22 286.79 407.22 314.23 412.03 314.23 412.03 283.79 407.22 286.79" style="fill:#fff;opacity:0.2"></polygon><polygon points="418.03 311.41 401.22 311.41 398.22 314.23 421.03 314.23 418.03 311.41" style="fill:#407BFF"></polygon><polygon points="418.03 311.41 401.22 311.41 398.22 314.23 421.03 314.23 418.03 311.41" style="fill:#fff;opacity:0.2"></polygon></g><g id="freepik--character-1--inject-6"><path d="M139,162.18a6.15,6.15,0,0,0-4.38-.81c-4.28.81-5.3,5-4.73,8.11a7.16,7.16,0,0,0,4.86,5.45c3.37.85,6.34-2.27,7.21-4.61A6.69,6.69,0,0,0,139,162.18Z" style="fill:#263238"></path><path d="M214.45,208.16l16.91-4.74s0-1,2.63-2.87,9.67-3.34,9.67-3.34,3.24,9.37,2.19,9.63-10.54,3.43-11.07,2.38l-18,5.09Z" style="fill:#b97964"></path><path d="M162.93,188.62c9.87,3.19,25.24,20.6,28.24,21.65s31.72-5.16,31.72-5.16l4,7.39s-26.36,9.54-35.75,8.8-21.64-14.66-30.42-16.67Z" style="fill:#407BFF"></path><path d="M226.92,212.5s-26.36,9.54-35.75,8.8c-6.07-.48-13.32-6.45-20-11.16-3.71-2.58-7.26-4.79-10.37-5.51l1.14-8.38,1-7.63c9.87,3.19,25.24,20.59,28.24,21.65s31.72-5.16,31.72-5.16Z" style="fill:#fff;opacity:0.5;isolation:isolate"></path><path d="M171.12,210.14c-3.71-2.58-7.26-4.79-10.37-5.51l1.14-8.38C164.72,199,169.08,204,171.12,210.14Z" style="opacity:0.2;isolation:isolate"></path><polygon points="177.47 403.35 170.8 404.52 168.07 395.44 165.58 387.11 173.26 384.43 175.49 394.44 177.47 403.35" style="fill:#e4897b"></polygon><path d="M169.3,404.35c-.11-.74,9-1.75,9-1.75s6.55,4.66,12.17,5,3.17,4.08-2.86,5.15l-14.9,2.63C168.43,416.11,170.47,412,169.3,404.35Z" style="fill:#263238"></path><path d="M182.8,404.12a14.12,14.12,0,0,1-3.27-.54.19.19,0,0,1-.08,0h0a.13.13,0,0,1-.06-.07h0s0,0,0-.06h0a.41.41,0,0,1,0-.11c0-.1.41-2.34,1.54-3.06a1.38,1.38,0,0,1,1.17-.17c.45.12.69.34.73.65.06.48-.5,1.07-1.17,1.59a3.75,3.75,0,0,1,2.06-.14,1,1,0,0,1,.59.53.9.9,0,0,1,0,1A1.94,1.94,0,0,1,182.8,404.12Zm-2.47-.83c1.42.33,3.16.53,3.53.11,0,0,.13-.15,0-.49a.47.47,0,0,0-.31-.27C182.81,402.38,181.3,402.88,180.33,403.29Zm1.33-2.79a.88.88,0,0,0-.51.16,4,4,0,0,0-1.21,2.21c1.25-.74,2.42-1.67,2.37-2.08,0-.13-.24-.21-.38-.25A1.26,1.26,0,0,0,181.66,400.5Z" style="fill:#407BFF"></path><polygon points="175.53 394.65 168.1 395.63 165.6 387.2 173.27 384.47 175.53 394.65" style="opacity:0.2;isolation:isolate"></polygon><polygon points="133 406.2 126.23 406.2 125.12 396.79 124.12 388.14 132.15 386.84 132.6 397.09 133 406.2" style="fill:#e4897b"></polygon><path d="M124.78,405.77c0-.75,9.18-.16,9.18-.16s5.64,5.73,11.11,7,2.42,4.57-3.7,4.57H126.23C121.88,417.2,124.6,413.5,124.78,405.77Z" style="fill:#263238"></path><path d="M138.78,408a11.42,11.42,0,0,1-3.79-1.16.18.18,0,0,1-.09-.06h0l0-.05a.25.25,0,0,1,0-.19c0-.09.8-2.23,2-2.74a1.39,1.39,0,0,1,1.18,0c.42.2.62.46.6.77,0,.48-.68,1-1.42,1.36a3.77,3.77,0,0,1,2,.23.94.94,0,0,1,.49.62.86.86,0,0,1-.22,1A1.24,1.24,0,0,1,138.78,408Zm-3-1.31c1.35.57,3,1.08,3.46.72,0,0,.16-.12.06-.48a.46.46,0,0,0-.26-.32C138.42,406.18,136.85,406.41,135.82,406.64Zm1.64-2.52a1,1,0,0,0-.37.07,4.08,4.08,0,0,0-1.57,2c1.36-.51,2.67-1.23,2.69-1.64,0-.12-.2-.24-.33-.3A.92.92,0,0,0,137.46,404.12Z" style="fill:#407BFF"></path><polygon points="132.6 397.3 125.12 396.97 124.12 388.24 132.15 386.88 132.6 397.3" style="opacity:0.2;isolation:isolate"></polygon><path d="M176.15,389.36l-11,1.93c-11-27.53-18.91-50.51-24.46-69.58-3-10.29-5.32-19.44-7.11-27.56l.5,30V392.2H123c-27.05-129-7.88-158.48-7.88-158.48l32.36-5.53a146.33,146.33,0,0,1,2.71,18.11l1.46,10.7,12.65,65.32Z" style="fill:#407BFF"></path><path d="M176.15,389.36l-11,1.93c-11-27.53-18.91-50.51-24.46-69.58-3-10.29-5.32-19.44-7.11-27.56l.5,30V392.2H123c-27.05-129-7.88-158.48-7.88-158.48l32.36-5.53a146.33,146.33,0,0,1,2.71,18.11l1.46,10.7,12.65,65.32Z" style="fill:#fff;opacity:0.5;isolation:isolate"></path><polygon points="163.49 389.94 177.07 385.44 176.88 391.21 165.65 394.8 163.49 389.94" style="fill:#407BFF"></polygon><polygon points="121.56 390.57 135.72 388.5 134.53 394.15 122.85 395.73 121.56 390.57" style="fill:#407BFF"></polygon><path d="M140.74,321.71c-3-10.29-5.32-19.44-7.11-27.56a253.89,253.89,0,0,1,2.09-28.74S140.46,302.48,140.74,321.71Z" style="opacity:0.2;isolation:isolate"></path><path d="M152.82,253,139,257.68l-2.56-8.41-2.8,7.75-25.09-5.84c2.15-15.4,10.74-27.69,12.09-32.35,1.86-6.44,3.32-18.76,2.05-26.73V192a5.92,5.92,0,0,1,5.36-6.82c2.42-.19,4.86-.28,7.3-.29a103,103,0,0,1,14.47.85c6.16,1,13.13,2.84,13.13,2.84s1,.41.52,7c-.41,5.79-1.52,23.78-13.36,39Z" style="fill:#407BFF"></path><path d="M152.82,253,139,257.68l-2.56-8.41-2.8,7.75-25.09-5.84c2.15-15.4,10.74-27.69,12.09-32.35,1.86-6.44,3.32-18.76,2.05-26.73V192a5.92,5.92,0,0,1,5.36-6.82c2.42-.19,4.86-.28,7.3-.29a103,103,0,0,1,14.47.85c6.16,1,13.13,2.84,13.13,2.84s1,.41.52,7c-.41,5.79-1.52,23.78-13.36,39Z" style="fill:#fff;opacity:0.6000000000000001;isolation:isolate"></path><path d="M138.75,197.21s5.52,4.79,7.13,17.1l6.23-17.21,4.28,1.31s-3.3-15.61-14-15.9-9.9,15.9-9.9,15.9Z" style="fill:#407BFF"></path><path d="M138.75,197.21s5.52,4.79,7.13,17.1l6.23-17.21,4.28,1.31s-3.3-15.61-14-15.9-9.9,15.9-9.9,15.9Z" style="fill:#fff;opacity:0.5;isolation:isolate"></path><path d="M154.27,179.66s-3.92,2.53-4.6,4.21a2,2,0,0,0-.1.32,24.53,24.53,0,0,0-.39,2.89c3,6.45-2.75,17.55-2.75,17.55a69.44,69.44,0,0,0-9.83-18.3c6.29-2.46,7.49-14.52,7.49-14.52l3,2.35Z" style="fill:#b97964"></path><path d="M154.27,179.66s-3.92,2.53-4.6,4.21a2,2,0,0,0-.1.32,12.77,12.77,0,0,1-5-10.89l2.55.86Z" style="opacity:0.2;isolation:isolate"></path><path d="M158.62,151.39s7.93-2.22,11.77,4.18.77,11.25-1.9,13.56" style="fill:none;stroke:#263238;stroke-linecap:round;stroke-linejoin:round;stroke-width:0.488465px"></path><path d="M161.78,151s6.46.2,8.25,5.66.46,11.59-9.13,18.19c-4.69,3.23-16.34-3.08-16.34-3.08l-.93,2.82a23.68,23.68,0,0,1-4.21-3.91c-3.77-4.42-2.8-19.06,7.66-21.93C158,145.8,161.78,151,161.78,151Z" style="fill:#263238"></path><path d="M155.62,152.87c8.21,1.11,10.26,5.87,9.71,14.42-.69,10.67-4.06,17.87-14,14.21C137.78,176.53,142,151,155.62,152.87Z" style="fill:#b97964"></path><path d="M160.08,166.1a17.6,17.6,0,0,0,1.93,3.73,2.28,2.28,0,0,1-2.3.64Z" style="fill:#a24e3f"></path><path d="M155.15,164.75c-.08.67-.51,1.18-1,1.13s-.75-.64-.68-1.32.51-1.18,1-1.13S155.22,164.07,155.15,164.75Z" style="fill:#263238"></path><path d="M154.28,163.44l1.53-.41S154.94,164.19,154.28,163.44Z" style="fill:#263238"></path><path d="M163.57,165.55c-.07.68-.5,1.19-.95,1.14s-.76-.64-.68-1.32.5-1.19,1-1.13S163.65,164.88,163.57,165.55Z" style="fill:#263238"></path><path d="M162.7,164.25l1.54-.41S163.37,165,162.7,164.25Z" style="fill:#263238"></path><path d="M155.84,159.07a4.3,4.3,0,0,0-3.73.75" style="fill:none;stroke:#263238;stroke-linecap:round;stroke-linejoin:round;stroke-width:0.707962px"></path><path d="M161.85,159.53a3.86,3.86,0,0,1,3.18,1.12" style="fill:none;stroke:#263238;stroke-linecap:round;stroke-linejoin:round;stroke-width:0.707962px"></path><path d="M144.76,165.48s4.76-6.22,4.89-11.51c0,0,17.18-4.43,15.73,12.2,0,0,3.59-14.45-10.48-16.7S137.58,166.6,144,173.75C144,173.75,141.81,169.38,144.76,165.48Z" style="fill:#263238"></path><path d="M145.87,167.4a3.65,3.65,0,0,0-3.43-3.82c-2.58-.07-4.51,5,1.65,7.11C145,171,145.61,170.17,145.87,167.4Z" style="fill:#b97964"></path><path d="M159.27,172.92a21.68,21.68,0,0,0-.82,3l-.55,0c-2.48-.12-3.59-1-4.07-1.92a3.15,3.15,0,0,1-.33-1.48,3.24,3.24,0,0,1,.11-.86,11.78,11.78,0,0,0,4.82,1.23C159,172.92,159.27,172.92,159.27,172.92Z" style="fill:#263238"></path><path d="M158.43,172.87l-.27.88c-2.33-.12-4-.51-4.66-1.25a3.24,3.24,0,0,1,.11-.86A11.78,11.78,0,0,0,158.43,172.87Z" style="fill:#fff"></path><path d="M157.9,175.9c-2.48-.12-3.59-1-4.07-1.92a7.92,7.92,0,0,1,2.72.67A3,3,0,0,1,157.9,175.9Z" style="fill:#de5753"></path><path d="M137.4,160.65l.6-12.78-2.25-3.53A33.31,33.31,0,0,1,154,143l7.81,8S146.71,147.29,137.4,160.65Z" style="fill:#407BFF"></path><path d="M161.78,151a24.82,24.82,0,0,0-16.7,2.51,23.09,23.09,0,0,0-7.68,7.1l.6-12.78-2.25-3.53A33.31,33.31,0,0,1,154,143Z" style="fill:#fff;opacity:0.6000000000000001;isolation:isolate"></path><path d="M145.08,153.55a23.09,23.09,0,0,0-7.68,7.1l.6-12.78-2.25-3.53Z" style="opacity:0.1;isolation:isolate"></path><path d="M176,243.18,187,245.72a37.83,37.83,0,0,1,8.11,1.38c4.16,1.22,8.66,3,8,4.08s-7.86,6.87-10.16,6.5-8.77-4-8-5.8l-10.74-2.61Z" style="fill:#b97964"></path><path d="M125.7,185.9c3.94-1.15,11.59,36,17.23,42.29s39.64,15.55,39.64,15.55l-1.72,7.44s-41.68-5.07-47.22-13S120.38,209,119.4,198.41,123.38,186.59,125.7,185.9Z" style="fill:#407BFF"></path><path d="M125.7,185.9c3.94-1.15,11.59,36,17.23,42.29s39.64,15.55,39.64,15.55l-1.72,7.44s-41.68-5.07-47.22-13S120.38,209,119.4,198.41,123.38,186.59,125.7,185.9Z" style="fill:#fff;opacity:0.5;isolation:isolate"></path><polygon points="161.36 217.3 150.38 216.56 151.16 210.43 162.15 211.17 161.36 217.3" style="fill:#407BFF"></polygon><polygon points="160.78 216.82 151.32 216.18 152 210.91 161.45 211.55 160.78 216.82" style="fill:#fff;opacity:0.5;isolation:isolate"></polygon><polygon points="156.98 208.76 155.92 211.72 157.69 211.72 157.69 208.76 156.98 208.76" style="fill:#263238"></polygon></g><g id="freepik--character-2--inject-6"><g id="freepik--group--inject-6"><path d="M190.24,251.87,180,253.8s-10.71-2.34-12.57-1.93-6.68,9.86-6.68,9.86,16.45,3.59,18.55,2.89,3.84-3.43,3.84-3.43l8-1.48Z" style="fill:#e4897b"></path><path d="M211.14,203.4c-4.84,7.27,2.19,36.76,2.63,38.63s-28.84,9.79-28.84,9.79l4.22,12.91s36.49-4.21,40.54-8.56-.51-40.11-.51-40.11l-18-12.66Z" style="fill:#407BFF"></path><path d="M229.69,256.17c-3.45,3.71-30.49,7.32-38.38,8.3l-2.16.26-4.22-12.91,1.92-.53c6.51-1.8,27.29-7.68,26.92-9.26-.44-1.87-7.47-31.36-2.63-38.63l3.13,1.32,10.36,7.88,4.55,3.46S231,230,231.3,241.47h0C231.51,248.44,231.21,254.53,229.69,256.17Z" style="opacity:0.4;isolation:isolate"></path><path d="M191.31,264.47l-2.16.26-4.22-12.91,1.92-.53Z" style="opacity:0.1;isolation:isolate"></path><path d="M231.3,241.47c-6-9.61-6.59-20.14-6.67-28.87l4.55,3.46S231,230,231.3,241.47Z" style="opacity:0.2;isolation:isolate"></path><path d="M199,263.05h-36.2a8.28,8.28,0,0,0-8.25,7.74l-1.68,27.26h56.05l-1.68-27.27A8.28,8.28,0,0,0,199,263.05Z" style="fill:none"></path><path d="M145.47,417.18l7-114.13h56.67l7,114.13h5l-9.06-146.71A13.29,13.29,0,0,0,199,258.05h-36.2a13.3,13.3,0,0,0-13.24,12.43l-9,146.7Zm9-146.39a8.28,8.28,0,0,1,8.25-7.74H199a8.28,8.28,0,0,1,8.24,7.73l1.68,27.27H152.82Z" style="fill:#407BFF"></path><polygon points="250.1 409.61 242.28 411.89 237.67 394.96 245.49 392.67 250.1 409.61" style="fill:#b97964"></polygon><path d="M241.43,408.26H251a.69.69,0,0,1,.67.54l1.55,7a1.17,1.17,0,0,1-.89,1.38,1.14,1.14,0,0,1-.26,0c-3.09-.05-5.33-.24-9.21-.24-2.39,0-9.59.25-12.89.25s-3.73-3.25-2.38-3.55c6.06-1.32,10.61-3.15,12.55-4.89A1.89,1.89,0,0,1,241.43,408.26Z" style="fill:#263238"></path><polygon points="245.49 392.67 237.67 394.96 240.05 403.69 247.88 401.41 245.49 392.67" style="opacity:0.2;isolation:isolate"></polygon><path d="M275.53,247.57a143.31,143.31,0,0,1,2.65,32.74c-.7,17.61-40.5,39.47-41.26,45.62s12.25,70.46,12.25,70.46l-13.73,4.88S208.31,343.05,208,328.8s29.68-48.49,37.86-57.93c3.18-3.67.05-18.44.05-18.44Z" style="fill:#263238"></path><path d="M278.18,280.31c-.25,6.37-5.62,13.29-12.41,19.83C255,310.56,240.53,320,237.49,324.62a3.2,3.2,0,0,0-.57,1.31c-.75,6.16,12.25,70.46,12.25,70.46l-13.73,4.87S208.31,343.05,208,328.8s29.68-48.49,37.86-57.93c3.18-3.67.05-18.44.05-18.44l29.63-4.87A143.44,143.44,0,0,1,278.18,280.31Z" style="fill:#fff;opacity:0.30000000000000004;isolation:isolate"></path><polygon points="234.59 403.67 251.31 398 249.93 393.34 232.47 398.92 234.59 403.67" style="fill:#407BFF"></polygon><polygon points="234.59 403.67 251.31 398 249.93 393.34 232.47 398.92 234.59 403.67" style="fill:#fff;opacity:0.6000000000000001;isolation:isolate"></polygon><path d="M265.77,300.14C255,310.56,240.53,320,237.49,324.62c.58-20.71,25.58-42.75,25.58-42.75Z" style="opacity:0.2;isolation:isolate"></path><polygon points="287.97 409.61 280.15 411.89 275.53 394.96 283.36 392.67 287.97 409.61" style="fill:#b97964"></polygon><path d="M279.3,408.26h9.54a.69.69,0,0,1,.67.54l1.55,7a1.17,1.17,0,0,1-.9,1.38,1.06,1.06,0,0,1-.25,0c-3.09-.05-5.34-.24-9.21-.24-2.39,0-9.6.25-12.89.25s-3.73-3.25-2.38-3.55c6.05-1.32,10.61-3.15,12.55-4.89A1.89,1.89,0,0,1,279.3,408.26Z" style="fill:#263238"></path><polygon points="283.36 392.67 275.53 394.96 277.92 403.69 285.74 401.41 283.36 392.67" style="opacity:0.2;isolation:isolate"></polygon><path d="M291.08,244a75,75,0,0,1,6.31,32.11c-.7,17.6-21.84,43.66-22.6,49.81S287,396.39,287,396.39l-13.74,4.88s-27.13-58.22-27.45-72.47,17.22-46.93,17.22-46.93l-3.65-32.4Z" style="fill:#263238"></path><path d="M291.08,244a75,75,0,0,1,6.31,32.11c-.7,17.6-21.84,43.66-22.6,49.81S287,396.39,287,396.39l-13.74,4.88s-27.13-58.22-27.45-72.47,17.22-46.93,17.22-46.93l-3.65-32.4Z" style="fill:#fff;opacity:0.30000000000000004;isolation:isolate"></path><polygon points="272.45 403.67 289.18 398 287.79 393.34 270.34 398.92 272.45 403.67" style="fill:#407BFF"></polygon><polygon points="272.45 403.67 289.18 398 287.79 393.34 270.34 398.92 272.45 403.67" style="fill:#fff;opacity:0.6000000000000001;isolation:isolate"></polygon><path d="M297.44,264.71s-47.72,7.2-52.46,3.37c-7-5.64-14.73-52.82-33.84-64.68a40.59,40.59,0,0,1,7.1-8.52,51.7,51.7,0,0,1,20.9-12,59.35,59.35,0,0,1,18.31-2.31S294.91,207.19,297.44,264.71Z" style="fill:#407BFF"></path><path d="M297.44,264.71s-47.72,7.2-52.46,3.37a6.71,6.71,0,0,1-1.32-1.53c-6.68-9.87-14.6-52-32.52-63.15a40.59,40.59,0,0,1,7.1-8.52l.8-.74a51.73,51.73,0,0,1,20.1-11.23c.39-.12.79-.23,1.19-.33a59.19,59.19,0,0,1,17.12-2s8.35,5.93,17.43,18.24a113.62,113.62,0,0,1,13.47,23.9,121.74,121.74,0,0,1,8.81,37.51C297.28,261.72,297.37,263.2,297.44,264.71Z" style="opacity:0.30000000000000004;isolation:isolate"></path><path d="M240.33,182.58a117.89,117.89,0,0,1-6.8,22.55s-9.79-3.62-14.49-11a51.73,51.73,0,0,1,20.1-11.23C239.53,182.79,239.93,182.68,240.33,182.58Z" style="opacity:0.1;isolation:isolate"></path><path d="M297.44,264.71s-47.72,7.2-52.46,3.37a6.71,6.71,0,0,1-1.32-1.53,189.65,189.65,0,0,0,53.5-6.3C297.28,261.72,297.37,263.2,297.44,264.71Z" style="opacity:0.1;isolation:isolate"></path><path d="M288.35,222.74c-16.73-4.41-25.43-23.23-25.43-23.23l12-.67A113.62,113.62,0,0,1,288.35,222.74Z" style="opacity:0.2;isolation:isolate"></path><path d="M238,183.61c-2.9,10.58-7.11,12.4-10.41,11.78a10.55,10.55,0,0,1-5.11-3,3.86,3.86,0,0,0,.46-2.06,5.27,5.27,0,0,0-2.29-3.92,17.05,17.05,0,0,0-2-1.33l.21-2.72,1-12.91a68.75,68.75,0,0,0,6.11,8c.75.82,1.54,1.62,2.35,2.35C231.35,182.57,234.73,184.42,238,183.61Z" style="fill:#e4897b"></path><path d="M227.58,195.39a10.55,10.55,0,0,1-5.11-3,3.86,3.86,0,0,0,.46-2.06,5.27,5.27,0,0,0-2.29-3.92,17.05,17.05,0,0,0-2-1.33l.21-2.72,9.47-2.58S230.69,189.26,227.58,195.39Z" style="opacity:0.2;isolation:isolate"></path><path d="M203.92,168.93s-2.83-.3-3.29,3.38.79,3.75.79,3.75-1,3.08.24,3.95,2.26,4.55,2.26,4.55l2.8-5.14Z" style="fill:#263238"></path><path d="M203.92,168.93s-2.83-.3-3.29,3.38.79,3.75.79,3.75-1,3.08.24,3.95,2.26,4.55,2.26,4.55l2.8-5.14Z" style="fill:#fff;opacity:0.6000000000000001"></path><path d="M225.78,187.83a11,11,0,0,1-.67,1.2,10.64,10.64,0,0,1-12,4.84,11.85,11.85,0,0,1-7.1-5.13,9.74,9.74,0,0,1-.64-1.09c-.37-.76-.74-1.59-1.07-2.48-2.68-7.17-5.46-17,3.21-22.18,5.46-3.29,14.63-3.7,17.9,1.79a17,17,0,0,1,1.74,13.45C227.65,181.05,228.14,183.09,225.78,187.83Z" style="fill:#e4897b"></path><path d="M229.37,171.51s1.45-.07.86-2-3.07-3.19-3.07-3.19,2-1.32-.62-2.57a5.93,5.93,0,0,0-4.26-.26c-.87-.73-8.51-6.86-13.7-3.21a.25.25,0,0,0,.28.41c4.53-3.18,11.36,1.81,12.86,3l-.38.18c-1.56-.7-13.05-5.63-16.91.16a.25.25,0,0,0,.07.35.24.24,0,0,0,.34-.07c3.39-5.08,13.58-1.14,15.95-.13a5.51,5.51,0,0,0-.73.54c-2.38-.65-9.92-2.43-14.44,0a6.18,6.18,0,0,0-3.13,3.95.24.24,0,0,0,.17.3h.07a.25.25,0,0,0,.24-.18,5.73,5.73,0,0,1,2.89-3.64c4.13-2.25,11.18-.74,13.78-.06a5.83,5.83,0,0,0-1,1.59c-1.37,3.3.85,4.55,2.3,6.21s.78,4.4.76,4.49a11.6,11.6,0,0,1-3.06,4.2,3.83,3.83,0,0,0-2.89,0,5.71,5.71,0,0,0-2.83,2.84c-4.39-.46-5.1,3.13-5.1,3.13a14,14,0,0,1-4.45-5.44c-.44,4,1,8.18,2.41,9.89s2.11,0,2.11,0,.33,3.36,2.21,4.62,2.54-.27,2.54-.27,1,2.11,4.55,3,4.68-4.22,4.68-4.22c3.89,3,3.56-4.09,3.56-4.09s1.91.53,1.73-2.93c-.15-2.7-2.55-7.92-3.61-10.11,1.58-.25,4,3.36,4,3.36C234.38,182,229.37,171.51,229.37,171.51Z" style="fill:#263238"></path><path d="M229.37,171.51s1.45-.07.86-2-3.07-3.19-3.07-3.19,2-1.32-.62-2.57a5.93,5.93,0,0,0-4.26-.26c-.87-.73-8.51-6.86-13.7-3.21a.25.25,0,0,0,.28.41c4.53-3.18,11.36,1.81,12.86,3l-.38.18c-1.56-.7-13.05-5.63-16.91.16a.25.25,0,0,0,.07.35.24.24,0,0,0,.34-.07c3.39-5.08,13.58-1.14,15.95-.13a5.51,5.51,0,0,0-.73.54c-2.38-.65-9.92-2.43-14.44,0a6.18,6.18,0,0,0-3.13,3.95.24.24,0,0,0,.17.3h.07a.25.25,0,0,0,.24-.18,5.73,5.73,0,0,1,2.89-3.64c4.13-2.25,11.18-.74,13.78-.06a5.83,5.83,0,0,0-1,1.59c-1.37,3.3.85,4.55,2.3,6.21s.78,4.4.76,4.49a11.6,11.6,0,0,1-3.06,4.2,3.83,3.83,0,0,0-2.89,0,5.71,5.71,0,0,0-2.83,2.84c-4.39-.46-5.1,3.13-5.1,3.13a14,14,0,0,1-4.45-5.44c-.44,4,1,8.18,2.41,9.89s2.11,0,2.11,0,.33,3.36,2.21,4.62,2.54-.27,2.54-.27,1,2.11,4.55,3,4.68-4.22,4.68-4.22c3.89,3,3.56-4.09,3.56-4.09s1.91.53,1.73-2.93c-.15-2.7-2.55-7.92-3.61-10.11,1.58-.25,4,3.36,4,3.36C234.38,182,229.37,171.51,229.37,171.51Z" style="fill:#fff;opacity:0.6000000000000001"></path><path d="M213.7,175.88c.2.65-.07,1.29-.51,1.39s-.92-.36-1.08-1,.08-1.3.52-1.4S213.54,175.2,213.7,175.88Z" style="fill:#263238"></path><path d="M206.12,177.63a1.07,1.07,0,0,1-.52,1.39c-.44.1-.92-.36-1.08-1s.08-1.3.52-1.4S206,177,206.12,177.63Z" style="fill:#263238"></path><path d="M208.6,177.4a24.34,24.34,0,0,1-1.88,6.48,4,4,0,0,0,3.37-.14Z" style="fill:#de5753"></path><path d="M215.49,172.88a.43.43,0,0,1-.42-.07,3.27,3.27,0,0,0-2.83-.74.4.4,0,0,1-.5-.26.41.41,0,0,1,.27-.5h0a4,4,0,0,1,3.58.89.4.4,0,0,1,.06.56h0A.61.61,0,0,1,215.49,172.88Z" style="fill:#263238"></path><path d="M202.25,175.76a.33.33,0,0,1-.23.07.41.41,0,0,1-.31-.47h0a4,4,0,0,1,2.32-2.87.4.4,0,0,1,.52.24h0a.43.43,0,0,1-.24.52h0a3.26,3.26,0,0,0-1.81,2.3A.38.38,0,0,1,202.25,175.76Z" style="fill:#263238"></path><path d="M215.49,172.88a.43.43,0,0,1-.42-.07,3.27,3.27,0,0,0-2.83-.74.4.4,0,0,1-.5-.26.41.41,0,0,1,.27-.5h0a4,4,0,0,1,3.58.89.4.4,0,0,1,.06.56h0A.61.61,0,0,1,215.49,172.88Z" style="fill:#fff;opacity:0.6000000000000001"></path><path d="M202.25,175.76a.33.33,0,0,1-.23.07.41.41,0,0,1-.31-.47h0a4,4,0,0,1,2.32-2.87.4.4,0,0,1,.52.24h0a.43.43,0,0,1-.24.52h0a3.26,3.26,0,0,0-1.81,2.3A.38.38,0,0,1,202.25,175.76Z" style="fill:#fff;opacity:0.6000000000000001"></path><path d="M208.67,188.71s.73.73,1.71-.39c0,0,1.39,2.17,2.84-2.64,0,0,3.88.78,4.94,0,.73-.53,0-1.49,0-1.49s1.59-.16,2-1.34c0,0,1.26,4.71-6,3.82C214.14,186.67,211.81,191.75,208.67,188.71Z" style="opacity:0.2;isolation:isolate"></path><path d="M230.84,176.61a8,8,0,0,1-3.58,5c-2.4,1.48-4.38-.49-4.37-3.16,0-2.38,1.3-6.09,4-6.45S231.4,174.06,230.84,176.61Z" style="fill:#e4897b"></path><path d="M212.06,177s.38,1.92,2.68,1.32" style="fill:none;stroke:#000;stroke-linecap:round;stroke-linejoin:round;stroke-width:0.5px;opacity:0.2;isolation:isolate"></path><path d="M206.47,178.48s-.05,2.28-1.63,2.1" style="fill:none;stroke:#000;stroke-linecap:round;stroke-linejoin:round;stroke-width:0.5px;opacity:0.2;isolation:isolate"></path><path d="M203.62,171.19a13.68,13.68,0,0,1,7.52-1.7" style="fill:none;stroke:#000;stroke-linecap:round;stroke-linejoin:round;stroke-width:0.5px;opacity:0.2;isolation:isolate"></path><path d="M203.62,170a7.8,7.8,0,0,1,7.52-1.78" style="fill:none;stroke:#000;stroke-linecap:round;stroke-linejoin:round;stroke-width:0.5px;opacity:0.2;isolation:isolate"></path><path d="M204.58,167.88a7.38,7.38,0,0,1,6.86-1.06" style="fill:none;stroke:#000;stroke-linecap:round;stroke-linejoin:round;stroke-width:0.5px;opacity:0.2;isolation:isolate"></path><path d="M300.48,236.5l-5,5.53s-3.54,2.14-3.75,3.36,4.4,17.05,4.4,17.05,6.27-4.82,6.07-6.27-3.16-8.61-3.16-8.61l5.51-5.13Z" style="fill:#e4897b"></path><path d="M257.45,180.6s43.92,3,60.14,21.75-15.43,45.21-15.43,45.21l-5.71-9.71s12.84-13,8.09-21.79-29-8.05-29-8.05S251.91,198.27,257.45,180.6Z" style="fill:#407BFF"></path><path d="M304.51,245.44c-1.44,1.36-2.35,2.12-2.35,2.12l-5.71-9.71s.49-.49,1.24-1.35c3.09-3.54,10.68-13.33,6.85-20.44-4.75-8.82-29-8.05-29-8.05s-23.62-9.74-18.08-27.41c0,0,43.92,3,60.14,21.74C331.06,217.91,311.52,238.8,304.51,245.44Z" style="opacity:0.4;isolation:isolate"></path><path d="M304.51,245.44c-1.44,1.36-2.35,2.12-2.35,2.12l-5.71-9.71s.49-.49,1.24-1.35Z" style="opacity:0.1;isolation:isolate"></path><path d="M210.14,282.42H152.59a2.5,2.5,0,1,1,0-5h57.55a2.5,2.5,0,0,1,0,5Z" style="fill:#407BFF"></path><g style="opacity:0.2"><path d="M210.14,282.42H152.59a2.5,2.5,0,1,1,0-5h57.55a2.5,2.5,0,0,1,0,5Z" style="fill:#fff"></path></g><path d="M205.14,358.37H147.59a2.5,2.5,0,0,1,0-5h57.55a2.5,2.5,0,0,1,0,5Z" style="fill:#407BFF"></path><g style="opacity:0.2"><path d="M205.14,358.37H147.59a2.5,2.5,0,0,1,0-5h57.55a2.5,2.5,0,0,1,0,5Z" style="fill:#fff"></path></g><path d="M258,263.05h-36.2a8.28,8.28,0,0,0-8.25,7.74l-1.68,27.26h56.05l-1.68-27.27A8.28,8.28,0,0,0,258,263.05Z" style="fill:none"></path><path d="M204.47,417.18l7-114.13h56.67l7.05,114.13h5l-9.06-146.71A13.29,13.29,0,0,0,258,258.05h-36.2a13.3,13.3,0,0,0-13.24,12.43l-9,146.7Zm9-146.39a8.28,8.28,0,0,1,8.25-7.74H258a8.28,8.28,0,0,1,8.24,7.73l1.68,27.27H211.82Z" style="fill:#407BFF"></path><path d="M204.47,417.18l7-114.13h56.67l7.05,114.13h5l-9.06-146.71A13.29,13.29,0,0,0,258,258.05h-36.2a13.3,13.3,0,0,0-13.24,12.43l-9,146.7Zm9-146.39a8.28,8.28,0,0,1,8.25-7.74H258a8.28,8.28,0,0,1,8.24,7.73l1.68,27.27H211.82Z" style="fill:#fff;opacity:0.2"></path></g></g></svg>