<svg xmlns="http://www.w3.org/2000/svg" viewBox="0 0 500 500"><g id="freepik--background-complete--inject-232"><rect y="382.4" width="500" height="0.25" style="fill:#ebebeb"></rect><rect x="416.78" y="398.49" width="33.12" height="0.25" style="fill:#ebebeb"></rect><rect x="322.53" y="401.21" width="8.69" height="0.25" style="fill:#ebebeb"></rect><rect x="396.59" y="389.21" width="19.19" height="0.25" style="fill:#ebebeb"></rect><rect x="52.46" y="390.89" width="43.19" height="0.25" style="fill:#ebebeb"></rect><rect x="104.56" y="390.89" width="6.33" height="0.25" style="fill:#ebebeb"></rect><rect x="131.47" y="395.11" width="93.68" height="0.25" style="fill:#ebebeb"></rect><path d="M237,337.8H43.91a5.71,5.71,0,0,1-5.7-5.71V60.66A5.71,5.71,0,0,1,43.91,55H237a5.71,5.71,0,0,1,5.71,5.71V332.09A5.71,5.71,0,0,1,237,337.8ZM43.91,55.2a5.46,5.46,0,0,0-5.45,5.46V332.09a5.46,5.46,0,0,0,5.45,5.46H237a5.47,5.47,0,0,0,5.46-5.46V60.66A5.47,5.47,0,0,0,237,55.2Z" style="fill:#ebebeb"></path><path d="M453.31,337.8H260.21a5.72,5.72,0,0,1-5.71-5.71V60.66A5.72,5.72,0,0,1,260.21,55h193.1A5.71,5.71,0,0,1,459,60.66V332.09A5.71,5.71,0,0,1,453.31,337.8ZM260.21,55.2a5.47,5.47,0,0,0-5.46,5.46V332.09a5.47,5.47,0,0,0,5.46,5.46h193.1a5.47,5.47,0,0,0,5.46-5.46V60.66a5.47,5.47,0,0,0-5.46-5.46Z" style="fill:#ebebeb"></path><path d="M296.76,75.34l-.85,1.71a.68.68,0,0,1-.51.37l-1.89.28a.68.68,0,0,0-.38,1.16l1.37,1.34a.7.7,0,0,1,.2.6l-.33,1.88a.68.68,0,0,0,1,.72l1.69-.89a.72.72,0,0,1,.64,0l1.69.89a.68.68,0,0,0,1-.72l-.32-1.88a.64.64,0,0,1,.2-.6l1.36-1.34a.68.68,0,0,0-.38-1.16l-1.89-.28a.68.68,0,0,1-.51-.37L298,75.34A.68.68,0,0,0,296.76,75.34Z" style="fill:#f5f5f5"></path><path d="M275.3,358.19l-.84,1.72a.69.69,0,0,1-.52.37l-1.89.28a.68.68,0,0,0-.38,1.16l1.37,1.33a.7.7,0,0,1,.2.61l-.33,1.88a.69.69,0,0,0,1,.72l1.69-.89a.7.7,0,0,1,.63,0l1.69.89a.68.68,0,0,0,1-.72l-.32-1.88a.7.7,0,0,1,.2-.61l1.37-1.33a.68.68,0,0,0-.38-1.16l-1.89-.28a.67.67,0,0,1-.52-.37l-.84-1.72A.69.69,0,0,0,275.3,358.19Z" style="fill:#f0f0f0"></path><path d="M424.34,250.38l-.85,1.71a.69.69,0,0,1-.51.38l-1.89.27a.69.69,0,0,0-.38,1.17l1.37,1.33a.68.68,0,0,1,.19.61l-.32,1.88a.68.68,0,0,0,1,.72l1.69-.89a.66.66,0,0,1,.64,0l1.69.89a.68.68,0,0,0,1-.72l-.32-1.88a.68.68,0,0,1,.19-.61l1.37-1.33a.69.69,0,0,0-.38-1.17l-1.89-.27a.69.69,0,0,1-.51-.38l-.85-1.71A.68.68,0,0,0,424.34,250.38Z" style="fill:#f0f0f0"></path><path d="M215.24,306.67l-.51,1a.4.4,0,0,1-.3.22l-1.13.16a.41.41,0,0,0-.23.7l.82.8a.4.4,0,0,1,.11.36l-.19,1.12a.4.4,0,0,0,.59.43l1-.53a.42.42,0,0,1,.38,0l1,.53a.41.41,0,0,0,.6-.43l-.2-1.12a.43.43,0,0,1,.12-.36l.82-.8a.41.41,0,0,0-.23-.7l-1.13-.16a.4.4,0,0,1-.3-.22l-.51-1A.41.41,0,0,0,215.24,306.67Z" style="fill:#f0f0f0"></path><path d="M329.68,306.67l-.51,1a.4.4,0,0,1-.3.22l-1.13.16a.41.41,0,0,0-.23.7l.82.8a.43.43,0,0,1,.12.36l-.2,1.12a.41.41,0,0,0,.59.43l1-.53a.42.42,0,0,1,.38,0l1,.53a.4.4,0,0,0,.59-.43l-.19-1.12a.4.4,0,0,1,.11-.36l.82-.8a.41.41,0,0,0-.23-.7l-1.13-.16a.4.4,0,0,1-.3-.22l-.51-1A.41.41,0,0,0,329.68,306.67Z" style="fill:#f5f5f5"></path><path d="M77.73,76.9l-.51,1a.38.38,0,0,1-.31.22l-1.13.17a.41.41,0,0,0-.22.7l.81.79a.41.41,0,0,1,.12.36l-.19,1.13a.41.41,0,0,0,.59.43l1-.53a.42.42,0,0,1,.38,0l1,.53a.41.41,0,0,0,.59-.43l-.19-1.13a.41.41,0,0,1,.12-.36l.82-.79a.41.41,0,0,0-.23-.7l-1.13-.17a.39.39,0,0,1-.31-.22l-.5-1A.4.4,0,0,0,77.73,76.9Z" style="fill:#f5f5f5"></path><path d="M86.42,265.63l-.88,1.77a.68.68,0,0,1-.53.38l-2,.29a.7.7,0,0,0-.39,1.2l1.41,1.38a.7.7,0,0,1,.2.63l-.33,2a.71.71,0,0,0,1,.74l1.74-.92a.7.7,0,0,1,.66,0l1.75.92a.71.71,0,0,0,1-.74l-.34-2a.71.71,0,0,1,.21-.63l1.41-1.38a.7.7,0,0,0-.39-1.2l-2-.29a.68.68,0,0,1-.53-.38l-.87-1.77A.71.71,0,0,0,86.42,265.63Z" style="fill:#f0f0f0"></path><path d="M193.54,99.89a1.33,1.33,0,1,0,1.32-1.33A1.32,1.32,0,0,0,193.54,99.89Z" style="fill:#f0f0f0"></path><circle cx="156.69" cy="357.67" r="1.33" style="fill:#f5f5f5"></circle><path d="M107.05,133.14A125.3,125.3,0,0,1,86.59,125a25.61,25.61,0,0,0,42,12.75A125.27,125.27,0,0,1,107.05,133.14Z" style="fill:#f5f5f5"></path><path d="M111.42,116.83c9.08,2.76,19.34,1,25.48,4.52a25.61,25.61,0,0,0-48.07-14.62C95.87,107.26,102.34,114.07,111.42,116.83Z" style="fill:#f5f5f5"></path><path d="M72.86,107.07c-1.15,3.77,15.19,12.07,36.49,18.54s39.49,8.67,40.63,4.91S134.79,118.45,113.49,112,74,103.31,72.86,107.07Z" style="fill:#f5f5f5"></path><path d="M392.12,206.43a68.11,68.11,0,0,1-118,26.83v0a68.14,68.14,0,0,1-15.93-40.13,66.91,66.91,0,0,1,.67-13.88,69.08,69.08,0,0,1,1.42-6.95,68.11,68.11,0,0,1,132.48,31.56C392.55,204.71,392.34,205.57,392.12,206.43Z" style="fill:#ebebeb"></path><path d="M429.3,147.27a11.14,11.14,0,0,1-19.3,4.39h0a11.16,11.16,0,0,1-2.6-6.56,10.84,10.84,0,0,1,.11-2.27,11.5,11.5,0,0,1,.23-1.14,11.14,11.14,0,0,1,21.67,5.16C429.37,147,429.34,147.13,429.3,147.27Z" style="fill:#ebebeb"></path><path d="M392.73,203.84l-3.11-3.93L385,212l-6.62-9.15-3.55-13.81-15.2-9.21,1.87,4.1,8.43,3.84,4,8-12.64-.47L348,183l8.2,13.58,6.44,5.08L357.1,205l-9.75,13.39.81,5.77s-8,5.77-8.87,6-17.8,11.31-17.8,11.31L328,218.93l-.17-17.13-16,.88L298.8,191.59l8.76-18.47,6.55-3.45,6.67,1.73,22.28,8.19-.1-4.05-12.6-12-8.1-1.47L315.75,165,312,164l6.5-8.16,6-2.66,13.59-3.56,10.15,3.67L363.71,156s12.7-3.31,18.82-4.93A67.86,67.86,0,0,1,392.73,203.84Z" style="fill:#fafafa"></path><path d="M345,254.84a68.15,68.15,0,0,1-70.88-21.58l9.66,5.11,8.78,7.3,23.17,6,19.66.07Z" style="fill:#fafafa"></path><polygon points="309.3 127.48 302.24 128.99 306.05 134.86 302.76 147.56 331.35 142.74 332.59 137.95 323.32 135.11 309.3 127.48" style="fill:#fafafa"></polygon><path d="M299.24,140.61l-4.67,9.88L284,155.91l-11.49,4.77L267,166.39l-4.52-1.17a67.86,67.86,0,0,1,32.35-36.33Z" style="fill:#fafafa"></path><path d="M286.58,206.43l-8.26,6-.34,6.19-.92,3.53-.49,5.95-2.49-1.69-4.75-9.19-4-14.53-5.41-8.21-1.78-1.4a66.91,66.91,0,0,1,.67-13.88l2.1,2.55,9.29-1.1,8.24,2.13,1.8,7.62,3.26,6.83L291,201.4Z" style="fill:#fafafa"></path></g><g id="freepik--Shadow--inject-232"><ellipse id="freepik--path--inject-232" cx="250" cy="416.24" rx="193.89" ry="11.32" style="fill:#f5f5f5"></ellipse></g><g id="freepik--Character--inject-232"><path d="M229.86,169c3.79-2.42,6-7.34,9-10.62,6-6.51,15.27-17.14,16.67-23.18l-23.28-8L224.54,146c-1.63,4.36-8.89,10.73-12.92,12.8-2.36,1.23-4.94,2.32-7.56,3.41-5.26,2.12-10.91,4-16.38,5.89l1.38,9.93a93.76,93.76,0,0,0,9.54-.4c3.15-.3,6.31-.7,9.47-1.3a80.78,80.78,0,0,0,9.6-2.35C220.91,173,226.52,171.12,229.86,169Z" style="fill:#407BFF"></path><path d="M229.86,169c3.79-2.42,6-7.34,9-10.62,6-6.51,15.27-17.14,16.67-23.18l-23.28-8L224.54,146c-1.63,4.36-8.89,10.73-12.92,12.8-2.36,1.23-4.94,2.32-7.56,3.41-5.26,2.12-10.91,4-16.38,5.89l1.38,9.93a93.76,93.76,0,0,0,9.54-.4c3.15-.3,6.31-.7,9.47-1.3a80.78,80.78,0,0,0,9.6-2.35C220.91,173,226.52,171.12,229.86,169Z" style="fill:#fff;opacity:0.8"></path><path d="M205.56,178.14l-4.22-15.91s-24.45,4.46-25.23,11.23C175.31,180.46,192.33,180.29,205.56,178.14Z" style="fill:#263238"></path><path d="M188,169.85l3.54-5s-12.42-1.57-12.75.42C178.38,168,182.07,169.86,188,169.85Z" style="fill:#263238"></path><path d="M300.65,276.35a1.12,1.12,0,0,1-.71-.25c-4.83-3.86-20.16-17.53-15-31.2,4.22-11.22,14.46-20.67,26.7-24.68a94.43,94.43,0,0,1,14.37-3.1c3.29-.53,6.69-1.08,9.94-1.86,14.95-3.59,22.48-13.46,19.65-25.76-1.29-5.57-4.74-10.07-8.4-14.84-2.91-3.78-5.9-7.69-7.71-12.17,0,0,0-.08,0-.12-1.71-6.11.72-12,3.08-17.66.55-1.33,1.07-2.59,1.55-3.86,2-5.43,3.85-11.27,3.54-17.17-.37-7-5.06-14.56-11.94-19.15-10.75-7.19-30.59-13.61-39-4.58a27.68,27.68,0,0,0-2,2.56,25.84,25.84,0,0,1-2.82,3.37A15.46,15.46,0,0,1,279,109.72a15.75,15.75,0,0,1-11.3-8.2,1.13,1.13,0,0,1,.52-1.52,1.14,1.14,0,0,1,1.53.52,13.14,13.14,0,0,0,20.51,3.7,24.22,24.22,0,0,0,2.56-3.07A30.94,30.94,0,0,1,295,98.4c10.34-11.08,32.73-1.93,42,4.23,7.45,5,12.54,13.2,12.95,20.93.33,6.32-1.57,12.43-3.69,18.09-.48,1.31-1,2.64-1.57,3.94-2.2,5.3-4.48,10.77-3,16.11,1.69,4.17,4.58,7.93,7.38,11.57,3.64,4.75,7.41,9.66,8.81,15.72,3.09,13.45-5.28,24.63-21.34,28.49-3.33.8-6.77,1.36-10.1,1.89a92.43,92.43,0,0,0-14,3c-11.6,3.79-21.29,12.73-25.28,23.31-4.61,12.24,9.78,25,14.3,28.62a1.14,1.14,0,0,1-.71,2Z" style="fill:#407BFF"></path><path d="M300.65,276.35a1.12,1.12,0,0,1-.71-.25c-4.83-3.86-20.16-17.53-15-31.2,4.22-11.22,14.46-20.67,26.7-24.68a94.43,94.43,0,0,1,14.37-3.1c3.29-.53,6.69-1.08,9.94-1.86,14.95-3.59,22.48-13.46,19.65-25.76-1.29-5.57-4.74-10.07-8.4-14.84-2.91-3.78-5.9-7.69-7.71-12.17,0,0,0-.08,0-.12-1.71-6.11.72-12,3.08-17.66.55-1.33,1.07-2.59,1.55-3.86,2-5.43,3.85-11.27,3.54-17.17-.37-7-5.06-14.56-11.94-19.15-10.75-7.19-30.59-13.61-39-4.58a27.68,27.68,0,0,0-2,2.56,25.84,25.84,0,0,1-2.82,3.37A15.46,15.46,0,0,1,279,109.72a15.75,15.75,0,0,1-11.3-8.2,1.13,1.13,0,0,1,.52-1.52,1.14,1.14,0,0,1,1.53.52,13.14,13.14,0,0,0,20.51,3.7,24.22,24.22,0,0,0,2.56-3.07A30.94,30.94,0,0,1,295,98.4c10.34-11.08,32.73-1.93,42,4.23,7.45,5,12.54,13.2,12.95,20.93.33,6.32-1.57,12.43-3.69,18.09-.48,1.31-1,2.64-1.57,3.94-2.2,5.3-4.48,10.77-3,16.11,1.69,4.17,4.58,7.93,7.38,11.57,3.64,4.75,7.41,9.66,8.81,15.72,3.09,13.45-5.28,24.63-21.34,28.49-3.33.8-6.77,1.36-10.1,1.89a92.43,92.43,0,0,0-14,3c-11.6,3.79-21.29,12.73-25.28,23.31-4.61,12.24,9.78,25,14.3,28.62a1.14,1.14,0,0,1-.71,2Z" style="fill:#fff;opacity:0.7000000000000001"></path><path d="M233,151.68c-1.29,2.15-1.58,9-.92,15.48,2.56-2.58,4.42-6.21,6.8-8.81l.5-.54C236.74,154.09,233.74,150.36,233,151.68Z" style="opacity:0.2"></path><path d="M232.23,127.12s-6,24.49,11.06,65L289,184c-.78-6.23-10.6-34.5-9-64.78a68.8,68.8,0,0,0-15.54,0A194.91,194.91,0,0,0,245,122.69,98,98,0,0,0,232.23,127.12Z" style="fill:#407BFF"></path><path d="M232.23,127.12s-6,24.49,11.06,65L289,184c-.78-6.23-10.6-34.5-9-64.78a68.8,68.8,0,0,0-15.54,0A194.91,194.91,0,0,0,245,122.69,98,98,0,0,0,232.23,127.12Z" style="fill:#fff;opacity:0.8"></path><path d="M274.71,142.09a40.7,40.7,0,0,0,6.8,6.72c-.3-2.09-.58-4.23-.81-6.41Z" style="opacity:0.2"></path><path d="M243.29,192.17s-23.16,26.9-21.27,50.12c2,24.16,27.14,63.75,27.14,63.75l15.28-7.66s-10-41.61-17.76-53.7c8.46-14.09,19.63-30.91,27.34-56.7C259.9,190.5,243.29,192.17,243.29,192.17Z" style="fill:#407BFF"></path><path d="M243.29,192.17s-23.16,26.9-21.27,50.12c2,24.16,27.14,63.75,27.14,63.75l15.28-7.66s-10-41.61-17.76-53.7c8.46-14.09,19.63-30.91,27.34-56.7C259.9,190.5,243.29,192.17,243.29,192.17Z" style="fill:#fff;opacity:0.8"></path><path d="M265,206.25c-4.2,3.17-6.76,12.49-6.83,19a193.6,193.6,0,0,0,9.55-19.62A3.38,3.38,0,0,0,265,206.25Z" style="opacity:0.2"></path><path d="M249.57,304.6l13-7.93a1,1,0,0,1,1.23.29l5.55,9.58a1.77,1.77,0,0,1-.35,2.71c-3.83,2-4.12,1.82-8.89,4.44-2.93,1.62-8.79,5.29-12.84,7.52s-6.83-1.76-5.63-3.32c4.45-5.75,5.68-8,6.73-11.76A2.51,2.51,0,0,1,249.57,304.6Z" style="fill:#407BFF"></path><path d="M249.57,304.6l13-7.93a1,1,0,0,1,1.23.29l5.55,9.58a1.77,1.77,0,0,1-.35,2.71c-3.83,2-4.12,1.82-8.89,4.44-2.93,1.62-8.79,5.29-12.84,7.52s-6.83-1.76-5.63-3.32c4.45-5.75,5.68-8,6.73-11.76A2.51,2.51,0,0,1,249.57,304.6Z" style="fill:#fff;opacity:0.8"></path><polygon points="351.33 319.64 275.15 397.65 262.04 371.07 324.45 307.16 351.33 319.64" style="fill:#407BFF"></polygon><polygon points="351.33 319.64 275.15 397.65 262.04 371.07 324.45 307.16 351.33 319.64" style="opacity:0.4"></polygon><polygon points="342.41 337.56 292.86 388.31 270.67 357.68 311.27 316.11 342.41 337.56" style="fill:#407BFF"></polygon><polygon points="342.41 337.56 292.86 388.31 270.67 357.68 311.27 316.11 342.41 337.56" style="opacity:0.30000000000000004"></polygon><path d="M202.41,321.37s19.5,20.77,36.25,38.84a19.92,19.92,0,0,1,4.21,19.38c-3.87,13,1.8,35.93,1.8,35.93C226.14,399.72,176.38,385.9,202.41,321.37Z" style="fill:#407BFF"></path><path d="M202.41,321.37s19.5,20.77,36.25,38.84a19.92,19.92,0,0,1,4.21,19.38c-3.87,13,1.8,35.93,1.8,35.93C226.14,399.72,176.38,385.9,202.41,321.37Z" style="opacity:0.30000000000000004"></path><path d="M273.35,248.73s21.23,19,39.69,35.32a19.93,19.93,0,0,0,19.47,3.75c12.86-4.18,36,.95,36,.95C352.24,270.6,337.25,221.18,273.35,248.73Z" style="fill:#407BFF"></path><path d="M273.35,248.73s21.23,19,39.69,35.32a19.93,19.93,0,0,0,19.47,3.75c12.86-4.18,36,.95,36,.95C352.24,270.6,337.25,221.18,273.35,248.73Z" style="opacity:0.30000000000000004"></path><path d="M224.7,198.66c-41.75-36.35-86.82-47.65-105-29s-5.81,63.42,31.51,104.29l92.6,101.4a19.82,19.82,0,0,0,28.8.48l56.83-58.19a19.81,19.81,0,0,0-1.17-28.78Z" style="fill:#407BFF"></path><path d="M273.79,360.51a3.65,3.65,0,0,1,1,5.8h0c-6.1,6.3-17.65,4.7-25.26-3.51l-91.87-99c-18.46-19.89-31.59-40-38.39-56.89-2-5,4.94-8.51,7.83-4,9.21,14.39,22.94,31.57,40.13,49.48L263.93,353A37.72,37.72,0,0,0,273.79,360.51Z" style="fill:#fff;opacity:0.1"></path><path d="M158.1,162.29c-9.34-.34-21.07,5-30.71,14.86s-14.68,21.72-14.13,31.06c-3.77-16.35-1.8-30.14,6.43-38.58S141.67,158.9,158.1,162.29Z" style="opacity:0.1"></path><circle cx="189.7" cy="238" r="35.47" transform="translate(-4.72 3.84) rotate(-1.14)" style="opacity:0.30000000000000004"></circle><circle cx="188.51" cy="236.84" r="35.47" transform="translate(-114.18 239.15) rotate(-51.92)" style="fill:#fff"></circle><circle cx="188.51" cy="236.84" r="32.09" transform="translate(-113.89 223.33) rotate(-48.92)" style="fill:#407BFF;opacity:0.7000000000000001"></circle><g style="opacity:0.2"><path d="M165.56,214.41a31.67,31.67,0,0,0-7,10.87h0l15.36,40.14a32.13,32.13,0,0,0,20.12,3L171.54,209.6A32,32,0,0,0,165.56,214.41Z" style="fill:#fff"></path><path d="M173.9,208.27l22.79,59.59a32.15,32.15,0,0,0,9.84-4.45L184.23,205A31.37,31.37,0,0,0,173.9,208.27Z" style="fill:#fff"></path></g><path d="M308.89,307.4l6.79-13.55a1,1,0,0,1,1.19-.4l9.6,4.5a1.77,1.77,0,0,1,1.14,2.48c-2.16,3.72-2.33,4.38-5,9.11-1.62,2.91-4.63,9.1-6.87,13.12s-6.71,2.11-6.52.16c.71-7.21.53-9.79-.56-13.49A2.48,2.48,0,0,1,308.89,307.4Z" style="fill:#407BFF"></path><path d="M308.89,307.4l6.79-13.55a1,1,0,0,1,1.19-.4l9.6,4.5a1.77,1.77,0,0,1,1.14,2.48c-2.16,3.72-2.33,4.38-5,9.11-1.62,2.91-4.63,9.1-6.87,13.12s-6.71,2.11-6.52.16c.71-7.21.53-9.79-.56-13.49A2.48,2.48,0,0,1,308.89,307.4Z" style="fill:#fff;opacity:0.8"></path><path d="M259.49,189.29s.09,42.56,9.24,63.13C278.75,275,309.51,310,309.51,310l11.6-11.65s-14.63-32-28.21-49.11c-.28-21.08,2-44.08-3.6-63.19A201,201,0,0,1,259.49,189.29Z" style="fill:#407BFF"></path><path d="M259.49,189.29s.09,42.56,9.24,63.13C278.75,275,309.51,310,309.51,310l11.6-11.65s-14.63-32-28.21-49.11c-.28-21.08,2-44.08-3.6-63.19A201,201,0,0,1,259.49,189.29Z" style="fill:#fff;opacity:0.8"></path><path d="M287.82,189.31c-21.21,4.9-37.18,5.4-43.69,5.35a3,3,0,0,1-3-3.21h0a3,3,0,0,1,3.05-2.86,189.74,189.74,0,0,0,42.29-5.19,3,3,0,0,1,3.62,2.23h0A3,3,0,0,1,287.82,189.31Z" style="fill:#263238"></path><path d="M311.34,144.94c-1.8-4.13-4.3-6.87-7.67-9.77C297,129.4,286,120.46,280,119.26l-7.29,23.53,19.16,7.07c3.79,2.7,4.64,4.48,5.76,8.87.67,2.58,1.16,5.33,1.64,8.13.89,5.59,1.51,11.54,2.1,17.28l10,.86a93,93,0,0,0,1.73-9.39c.41-3.13.72-6.3.84-9.52a78,78,0,0,0-.16-9.88A35.81,35.81,0,0,0,311.34,144.94Z" style="fill:#407BFF"></path><path d="M311.34,144.94c-1.8-4.13-4.3-6.87-7.67-9.77C297,129.4,286,120.46,280,119.26l-7.29,23.53,19.16,7.07c3.79,2.7,4.64,4.48,5.76,8.87.67,2.58,1.16,5.33,1.64,8.13.89,5.59,1.51,11.54,2.1,17.28l10,.86a93,93,0,0,0,1.73-9.39c.41-3.13.72-6.3.84-9.52a78,78,0,0,0-.16-9.88A35.81,35.81,0,0,0,311.34,144.94Z" style="fill:#fff;opacity:0.8"></path><path d="M314.38,169.47l-15.78,0s-1.09,24.84,5.33,27.1C310.57,198.94,313.53,182.85,314.38,169.47Z" style="fill:#263238"></path><path d="M303.06,184.18,299,179.62s-3.79,10.37-1.48,11.65S301.75,190,303.06,184.18Z" style="fill:#263238"></path><path d="M264.41,119.24A194.91,194.91,0,0,0,245,122.69c-2.45.64-4.81,1.41-6.84,2.12a27.49,27.49,0,0,0,13.65,1.34,20.85,20.85,0,0,0,4.77-1.39,32.61,32.61,0,0,0,12.1-5.9C267.27,118.93,265.83,119.05,264.41,119.24Z" style="opacity:0.2"></path><path d="M256.65,100.77c-.1,5.69.62,16,5.12,18.94,0,0,.06,2.49-9.24,4.12-7.59,1.33-7.85-1.08-7.85-1.08,5.87-2.56,4.9-7.08,3.07-11.16Z" style="fill:#ffb573"></path><path d="M253,105.18l-5.26,6.41a18.41,18.41,0,0,1,1.06,2.93c2.29-.75,5.05-3.89,4.86-6.39A8.54,8.54,0,0,0,253,105.18Z" style="opacity:0.2"></path><path d="M239.26,100.15c-2.69-3.65-5.73-8.94-4.42-11.56s6.77-4.15,9.25-2.23C247.2,88.79,244.93,96.34,239.26,100.15Z" style="fill:#263238"></path><path d="M257,93c.23,7.57.75,12-2.7,16.21-5.19,6.34-14.8,3.74-17.29-3.61C234.78,99,234.79,87.68,241.88,84A10.34,10.34,0,0,1,257,93Z" style="fill:#ffb573"></path><path d="M256.74,100.07c-3.36-3-7.39-7.63-6.62-10.46s5.81-5.41,8.62-4C262.27,87.35,261.54,95.21,256.74,100.07Z" style="fill:#263238"></path><path d="M253,89.14c-5.17,1.43-19.79,4.31-17.74-1.85s10.09-7.33,13-6,5.21-2.19,5.21-2.19c.42,1-1.81,3.75-5,4.2s13.78-2.5,9.33,3.54S253,89.14,253,89.14Z" style="fill:#263238"></path><path d="M261.17,101a7.16,7.16,0,0,1-4.18,3.57c-2.4.77-3.69-1.36-3.1-3.68.53-2.09,2.43-5,4.88-4.75A3.23,3.23,0,0,1,261.17,101Z" style="fill:#ffb573"></path><path d="M245.78,96.12c.06.61-.22,1.14-.62,1.18s-.77-.43-.83-1,.22-1.14.62-1.17S245.72,95.51,245.78,96.12Z" style="fill:#263238"></path><path d="M238.85,96.76c.06.61-.22,1.14-.62,1.17s-.78-.43-.83-1,.22-1.14.62-1.18S238.79,96.14,238.85,96.76Z" style="fill:#263238"></path><path d="M241.08,96.86a21.89,21.89,0,0,1-2.45,5.51,3.52,3.52,0,0,0,3,.28Z" style="fill:#ed893e"></path><path d="M246.6,102.94a5.36,5.36,0,0,1-3,1.24.18.18,0,0,1,0-.36,4.87,4.87,0,0,0,3.79-2.26.17.17,0,0,1,.24-.07.18.18,0,0,1,.08.24A4.69,4.69,0,0,1,246.6,102.94Z" style="fill:#263238"></path><path d="M247.86,93.61a.36.36,0,0,1-.5,0,2.88,2.88,0,0,0-2.41-1,.36.36,0,0,1-.42-.3.37.37,0,0,1,.3-.42,3.6,3.6,0,0,1,3.07,1.22.36.36,0,0,1,0,.51Z" style="fill:#263238"></path><path d="M235.8,94.57a.36.36,0,0,1-.36.06.35.35,0,0,1-.21-.46,3.61,3.61,0,0,1,2.4-2.27.36.36,0,1,1,.15.71,2.86,2.86,0,0,0-1.88,1.81A.4.4,0,0,1,235.8,94.57Z" style="fill:#263238"></path><path d="M273.51,97.88c2.34,12.37-4.91,24.07-16.34,26.81-.44.1-.89.19-1.34.27A21.92,21.92,0,0,1,240,121.61a19.47,19.47,0,1,0-6.47-34.84,21.56,21.56,0,0,1,8.66-6.88h0A21.41,21.41,0,0,1,247,78.46C259.21,76.34,271.07,85,273.51,97.88Z" style="fill:#407BFF"></path><path d="M273.51,97.88c2.34,12.37-4.91,24.07-16.34,26.81-.44.1-.89.19-1.34.27A21.92,21.92,0,0,1,240,121.61a19.47,19.47,0,1,0-6.47-34.84,21.56,21.56,0,0,1,8.66-6.88h0A21.41,21.41,0,0,1,247,78.46C259.21,76.34,271.07,85,273.51,97.88Z" style="fill:#fff;opacity:0.8"></path><path d="M269,99.38c2.19,11.06-2.93,21.45-11.78,25.31a19.47,19.47,0,0,1-4.46,1.31c-7.22,1.18-14.38-1.85-19.33-7.44a19.47,19.47,0,1,0,.16-31.79,19,19,0,0,0-4.84,4.86,19.77,19.77,0,0,1,13.5-11.74h0c.43-.1.86-.18,1.29-.26C255,77.72,266.42,86.58,269,99.38Z" style="fill:#407BFF"></path><path d="M269,99.38c2.19,11.06-2.93,21.45-11.78,25.31a19.47,19.47,0,0,1-4.46,1.31c-7.22,1.18-14.38-1.85-19.33-7.44a19.47,19.47,0,1,0,.16-31.79,19,19,0,0,0-4.84,4.86,19.77,19.77,0,0,1,13.5-11.74h0c.43-.1.86-.18,1.29-.26C255,77.72,266.42,86.58,269,99.38Z" style="fill:#fff;opacity:0.6000000000000001"></path><path d="M264.16,101.79a19.47,19.47,0,1,1-20.38-18.52A19.47,19.47,0,0,1,264.16,101.79Z" style="fill:#407BFF;opacity:0.2"></path><path d="M225.26,103.65a19.47,19.47,0,1,0,38.9-1.86C255.42,99.82,234.28,98.44,225.26,103.65Z" style="fill:#407BFF;opacity:0.2"></path><path d="M267.1,149.07a183.46,183.46,0,0,0-26.54,3.55l-.49-.45,26.08-17.85.48.45S266.84,144.33,267.1,149.07Z" style="opacity:0.2"></path><path d="M266.62,148.62a183.78,183.78,0,0,0-26.55,3.55c-.49-4.79-.87-9.61-1.11-14.47a197.59,197.59,0,0,1,27.19-3.38Q266.23,141.51,266.62,148.62Z" style="fill:#fff"></path><path d="M260.93,138.94a1.84,1.84,0,1,1-2.11-1.83A2,2,0,0,1,260.93,138.94Z" style="fill:#407BFF;opacity:0.30000000000000004"></path><path d="M261.09,144.63a1.84,1.84,0,1,1-2.1-1.83A2,2,0,0,1,261.09,144.63Z" style="fill:#407BFF;opacity:0.30000000000000004"></path><path d="M243.35,148.08a95.24,95.24,0,0,1,9.77-1.23c-2.17-3-5.42-8.13-5.42-8.13A92.75,92.75,0,0,0,243.35,148.08Z" style="fill:#407BFF"></path></g></svg>