<svg xmlns="http://www.w3.org/2000/svg" version="1.1" xmlns:xlink="http://www.w3.org/1999/xlink" xmlns:svgjs="http://svgjs.com/svgjs" width="1440" height="560" preserveAspectRatio="none" viewBox="0 0 1440 560"><g mask="url(&quot;#SvgjsMask1014&quot;)" fill="none"><rect width="1440" height="560" x="0" y="0" fill="#0e2a47"></rect><path d="M1223.810252818634 397.0430342267489L1253.351305214741 466.63739240304056 1342.972316281125 387.5286347207344z" fill="rgba(28, 83, 142, 0.4)" class="triangle-float2"></path><path d="M675.1288585528173 438.37472656362957L718.4947251941545 527.2879295317787 807.4079281623036 483.92206289044157 764.0420615209664 395.0088599222924z" fill="rgba(28, 83, 142, 0.4)" class="triangle-float3"></path><path d="M204.293,501.498C229.996,502.217,246.012,476.849,258.872,454.583C271.738,432.307,285.04,406.156,272.255,383.833C259.425,361.431,230.032,357.289,204.293,359.281C182.227,360.989,162.856,373.605,152.398,393.11C142.504,411.564,145.714,432.785,154.756,451.671C165.596,474.312,179.201,500.796,204.293,501.498" fill="rgba(28, 83, 142, 0.4)" class="triangle-float3"></path><path d="M428.082,337.159C483.119,336.308,523.94,292.305,551.136,244.449C577.931,197.299,594.092,140.178,566.585,93.439C539.37,47.196,481.659,32.44,428.082,35.36C379.823,37.991,338.63,65.967,313.476,107.236C287.083,150.537,275.632,202.975,298.254,248.36C323.323,298.653,371.894,338.028,428.082,337.159" fill="rgba(28, 83, 142, 0.4)" class="triangle-float2"></path><path d="M1085.4640236182977 194.8500588299933L1087.0684480293721 286.7674717798911 1178.9858609792698 285.16304736881676 1177.3814365681956 193.24563441891894z" fill="rgba(28, 83, 142, 0.4)" class="triangle-float2"></path><path d="M129.7784948326752 442.04953907231106L241.01946025905914 405.9051583773151 93.63411413767926 330.8085736459271z" fill="rgba(28, 83, 142, 0.4)" class="triangle-float2"></path><path d="M195.34918535843434 81.6950466527279L68.31288987491348 40.41845211366858 154.07259081937502 208.73134213624877z" fill="rgba(28, 83, 142, 0.4)" class="triangle-float1"></path><path d="M394.8877677213683 629.3961452722011L527.511512743162 613.1119969744014 511.22736444536235 480.4882519526077 378.6036194235686 496.7724002504074z" fill="rgba(28, 83, 142, 0.4)" class="triangle-float2"></path><path d="M373.11169808335916 447.7786994800329L463.42068924366697 508.6928831651079 524.334872928742 418.38389200480003 434.02588176843415 357.4697083197251z" fill="rgba(28, 83, 142, 0.4)" class="triangle-float2"></path><path d="M55.52221518411124 230.43536644466988L-34.04522247484884 174.34865960092506-38.88002020777455 266.60209600039946z" fill="rgba(28, 83, 142, 0.4)" class="triangle-float2"></path><path d="M669.88555922016 172.0914044364982L663.3014470227174 77.93421330412666 569.1442558903459 84.5183255015692 575.7283680877885 178.67551663394073z" fill="rgba(28, 83, 142, 0.4)" class="triangle-float3"></path><path d="M982.273,396.696C1037.391,396.851,1093.213,378.638,1122.226,331.774C1152.665,282.606,1154.515,218.184,1122.672,169.913C1093.333,125.437,1035.523,117.786,982.273,119.617C932.981,121.312,884.701,137.78,857.657,179.025C827.761,224.619,816.585,283.675,843.674,330.992C870.9,378.549,927.474,396.542,982.273,396.696" fill="rgba(28, 83, 142, 0.4)" class="triangle-float1"></path><path d="M244.95769142116075 487.05926522177873L190.95235418986226 570.0469371821521 277.2942561162649 576.0845511210047z" fill="rgba(28, 83, 142, 0.4)" class="triangle-float3"></path><path d="M1336.107394716244-83.68435741982648L1258.8788442703606 35.23718161797642 1377.8003833081636 112.46573206385978 1455.0289337540469-6.455806973943112z" fill="rgba(28, 83, 142, 0.4)" class="triangle-float1"></path><path d="M1364.355149818703 312.5816508326222L1377.6941072171603 160.11667010395018 1225.2291264884882 146.77771270549295 1211.8901690900311 299.24269343416495z" fill="rgba(28, 83, 142, 0.4)" class="triangle-float1"></path><path d="M1058.5418227292514 352.7974545007606L1169.6751327510801 339.151999828044 1156.0296780783635 228.01868980621532 1044.8963680565348 241.66414447893186z" fill="rgba(28, 83, 142, 0.4)" class="triangle-float2"></path><path d="M204.392,204.78C222.246,204.38,239.658,197.428,248.986,182.2C258.729,166.296,260.12,145.8,250.194,130.01C240.784,115.041,222.071,111.009,204.392,111.261C187.254,111.505,170.236,116.978,160.794,131.283C150.324,147.145,146.496,167.935,156.193,184.281C165.74,200.375,185.685,205.2,204.392,204.78" fill="rgba(28, 83, 142, 0.4)" class="triangle-float1"></path><path d="M274.8573683619339 534.7038817157063L405.5093426266608 541.5510615458657 412.3565224568202 410.8990872811388 281.7045481920933 404.0519074509794z" fill="rgba(28, 83, 142, 0.4)" class="triangle-float1"></path></g><defs><mask id="SvgjsMask1014"><rect width="1440" height="560" fill="#ffffff"></rect></mask><style>
            @keyframes float1 {
                0%{transform: translate(0, 0)}
                50%{transform: translate(-10px, 0)}
                100%{transform: translate(0, 0)}
            }

            .triangle-float1 {
                animation: float1 5s infinite;
            }

            @keyframes float2 {
                0%{transform: translate(0, 0)}
                50%{transform: translate(-5px, -5px)}
                100%{transform: translate(0, 0)}
            }

            .triangle-float2 {
                animation: float2 4s infinite;
            }

            @keyframes float3 {
                0%{transform: translate(0, 0)}
                50%{transform: translate(0, -10px)}
                100%{transform: translate(0, 0)}
            }

            .triangle-float3 {
                animation: float3 6s infinite;
            }
        </style></defs></svg>