<svg xmlns="http://www.w3.org/2000/svg" viewBox="0 0 500 500"><g id="freepik--Clouds--inject-8"><path id="freepik--Cloud--inject-8" d="M359.36,135.51c0-3.14-3.44-5.31-7.33-5.68-4.58-.43-7.83,1.61-7.94,5.22-3-1.23-6.16-.44-5.92,2.85-.78-.89-3.7-.87-4.75-.62a4.14,4.14,0,0,0-2.61,2.23,3.05,3.05,0,0,0-.27,1.68c-1.75-.57-5.72-.92-6.71.68-1.77,2.86,5.29,2.95,6.72,2.08.3,2.22,7.9,2.59,9.74.54,1.43,1.45,3.5,1.77,5.72,1.9,3.76.22,6.07-1,9-2.55,3.19,2.7,8.7,2.75,11.57-.34.74.69,2.75.91,4.37.52,1.06-.25,1.31-.7,1.31-.7a9.51,9.51,0,0,0,1.95.58c2.08.44,6,0,4.33-1.9a4.92,4.92,0,0,0-3.44-.85c-.91-1.78-4.56-3.48-6.65-2-.08-2.16-2.06-3.86-4.85-4.29C362.67,134.75,360.43,134.62,359.36,135.51Z" style="fill:#f0f0f0"></path><path id="freepik--cloud--inject-8" d="M450.08,114.06a8.63,8.63,0,0,0-2.87-.53c-.93-.07-1.23-.26-1.41-.46a6.86,6.86,0,0,0-8.24-2.43,5.28,5.28,0,0,0-6.22-3.52c.1-2.9-3.6-6-6.92-6.72s-6-.39-7.79,1.71c-1.95-3.81-9.58-4.88-13.71-2.87-2.38,1.16-4.39,2.35-5.38,4.52a9.08,9.08,0,0,0-.89,4.33c-1.61-1.42-4.83-1.8-7-1-2.31.9-2.49,2.64-2.6,4.42a8,8,0,0,0-4.22-.07c-1.46.43-2.31,1.58-2.11,2.5-1.15-.06-3.9.87-3.59,2.09.36,1.37,3.5,1.23,4.68,1.19a22.26,22.26,0,0,0,3.28-.52,5.14,5.14,0,0,0,1.71.33c2,0,2.85-.87,3.17-1.62,1,2.06,4.46,3.63,6.91,4.25,4.63,1.19,11.18.47,14-3a5.22,5.22,0,0,0,1.38,1.68,8,8,0,0,0,4.28,1.73c1.9.18,7,.42,8.44-2.6,1,2,5.56,2.93,9,2.44a14.54,14.54,0,0,0,3.86-1.17,22.64,22.64,0,0,0,2.23-1.33,1.82,1.82,0,0,1,1.89-.13,11.34,11.34,0,0,0,7.54,0C451.49,116.5,451.89,114.88,450.08,114.06Z" style="fill:#f0f0f0"></path></g><g id="freepik--Sun--inject-8"><g id="freepik--sun--inject-8"><circle cx="78.38" cy="62.36" r="23.41" transform="translate(-0.32 124.32) rotate(-76.72)" style="fill:#BA68C8"></circle><circle cx="78.38" cy="62.36" r="23.41" transform="translate(-0.32 124.32) rotate(-76.72)" style="fill:#fff;opacity:0.45"></circle></g></g><g id="freepik--Plants--inject-8"><g id="freepik--plants--inject-8"><path d="M40.27,346.79a13.56,13.56,0,0,0-12.07-8c-7.06-.41-14.07,2.48-14.38,3.27s4.75,6.37,12.9,7.87C34.7,351.36,38.56,347.9,40.27,346.79Z" style="fill:#455a64"></path><path d="M53.14,358.74a13.58,13.58,0,0,0-14.41-1.63c-6.47,2.86-11.38,8.62-11.3,9.47s7.14,3.5,15.07,1.11C50.27,365.35,52.12,360.51,53.14,358.74Z" style="fill:#455a64"></path><path d="M65.33,352.94a13.6,13.6,0,0,0-.89-14.48c-3.94-5.87-9.69-9.74-10.5-9.52s-2.51,8.43.36,15.29C57.43,351.71,63.41,352.24,65.33,352.94Z" style="fill:#455a64"></path><path d="M107.05,396.29c-2.43-5.88-6.74-10.92-11-15.57A106.9,106.9,0,0,0,83,368.7,139,139,0,0,0,51.15,350c-7.22-3-15-5.93-22.9-6.47-.17,0-.28.39-.12.44a109.18,109.18,0,0,1,20.3,7.35,129.73,129.73,0,0,1,17.2,8.8,134.22,134.22,0,0,1,25.6,20.5c5.12,5.19,9.27,11.08,13.74,16.8A1.19,1.19,0,0,0,107.05,396.29Z" style="fill:#37474f"></path><path d="M67.52,358.24A42.55,42.55,0,0,0,64.89,349a24.46,24.46,0,0,0-4.69-7.87c-.3-.3-.23.34-.11.58a70.73,70.73,0,0,1,3.22,7.55A30.69,30.69,0,0,1,65,357.8a2,2,0,0,0,1.42,1.7A1,1,0,0,0,67.52,358.24Z" style="fill:#37474f"></path><path d="M66.38,357.88C62,356.79,58.24,357,53,357.64a39.47,39.47,0,0,0-6,1.2,23.7,23.7,0,0,0-6.66,2.89c-.07.06-.4.55-.23.49a66.19,66.19,0,0,1,6.83-2,36.83,36.83,0,0,1,6.4-1,58.44,58.44,0,0,1,12.89.36C67.14,359.78,67.14,358.07,66.38,357.88Z" style="fill:#37474f"></path><path d="M75.47,372.46a13.57,13.57,0,0,0-13.75-4.6c-6.92,1.44-12.93,6.06-13,6.9s6.25,4.92,14.51,4.23C71.28,378.32,74.11,374,75.47,372.46Z" style="fill:#455a64"></path><path d="M88.6,374.38c-4-2-7.78-2.52-13-3a40.46,40.46,0,0,0-6.13-.09,24.23,24.23,0,0,0-7.11,1.44c-.08.05-.51.46-.33.44a61.66,61.66,0,0,1,7.09-.49,37,37,0,0,1,6.46.39,58.37,58.37,0,0,1,12.53,3C88.94,376.4,89.3,374.72,88.6,374.38Z" style="fill:#37474f"></path><g id="freepik--Flower--inject-8"><path d="M34.85,311.56a3,3,0,0,0-1.36-1.42,3.65,3.65,0,0,0-3.6-.18c-1.88,1.28.12,3.32,1.43,4a2.29,2.29,0,0,0-1.81.87,2.44,2.44,0,0,0-.19,2.84c1.27,1.45,4.35.65,5.27-.77-.52,2.6.77,3.86,2.59,3.46,1.5-.34,1.87-2.76.86-4,1.22,1.1,3.76.68,4.23-.84.6-1.93-2.32-3-3.31-2.84a2.34,2.34,0,0,0,.69-1,3.87,3.87,0,0,0,.18-2.18A2.46,2.46,0,0,0,37.06,308C35.08,308.11,34.83,310.6,34.85,311.56Z" style="fill:#BA68C8"></path><path d="M34.85,311.56a3,3,0,0,0-1.36-1.42,3.65,3.65,0,0,0-3.6-.18c-1.88,1.28.12,3.32,1.43,4a2.29,2.29,0,0,0-1.81.87,2.44,2.44,0,0,0-.19,2.84c1.27,1.45,4.35.65,5.27-.77-.52,2.6.77,3.86,2.59,3.46,1.5-.34,1.87-2.76.86-4,1.22,1.1,3.76.68,4.23-.84.6-1.93-2.32-3-3.31-2.84a2.34,2.34,0,0,0,.69-1,3.87,3.87,0,0,0,.18-2.18A2.46,2.46,0,0,0,37.06,308C35.08,308.11,34.83,310.6,34.85,311.56Z" style="fill:#fff;opacity:0.45"></path><path d="M35.39,314.66c.81.09,3,.26,2-1.17-.68-1-3.23-1.34-4-.28S34.74,314.6,35.39,314.66Z" style="fill:#fafafa"></path></g><g id="freepik--flower--inject-8"><path d="M23.24,388.16A3,3,0,0,0,21.66,387a3.67,3.67,0,0,0-3.58.42c-1.65,1.57.66,3.26,2.05,3.65a2.36,2.36,0,0,0-1.64,1.16,2.43,2.43,0,0,0,.28,2.83c1.49,1.23,4.4-.07,5.07-1.61-.09,2.65,1.39,3.67,3.12,3,1.43-.57,1.4-3,.2-4.05,1.38.89,3.82.05,4-1.53.27-2-2.78-2.54-3.73-2.26A2.29,2.29,0,0,0,28,387.5a3.87,3.87,0,0,0-.18-2.18,2.45,2.45,0,0,0-3-1.06C22.89,384.72,23.06,387.22,23.24,388.16Z" style="fill:#BA68C8"></path><path d="M23.24,388.16A3,3,0,0,0,21.66,387a3.67,3.67,0,0,0-3.58.42c-1.65,1.57.66,3.26,2.05,3.65a2.36,2.36,0,0,0-1.64,1.16,2.43,2.43,0,0,0,.28,2.83c1.49,1.23,4.4-.07,5.07-1.61-.09,2.65,1.39,3.67,3.12,3,1.43-.57,1.4-3,.2-4.05,1.38.89,3.82.05,4-1.53.27-2-2.78-2.54-3.73-2.26A2.29,2.29,0,0,0,28,387.5a3.87,3.87,0,0,0-.18-2.18,2.45,2.45,0,0,0-3-1.06C22.89,384.72,23.06,387.22,23.24,388.16Z" style="fill:#fff;opacity:0.45"></path><path d="M24.3,391.42c.82.08,3,.26,2.05-1.17-.68-1.05-3.23-1.35-4-.29S23.66,391.35,24.3,391.42Z" style="fill:#fafafa"></path></g><g id="freepik--flower--inject-8"><path d="M57.37,424a2.91,2.91,0,0,1,1.77-.86,3.69,3.69,0,0,1,3.44,1.09c1.31,1.85-1.27,3.07-2.72,3.2a2.37,2.37,0,0,1,1.4,1.44,2.45,2.45,0,0,1-.81,2.73c-1.7.92-4.31-.91-4.68-2.55-.41,2.62-2.07,3.34-3.63,2.33-1.29-.83-.79-3.23.58-4-1.53.61-3.77-.68-3.68-2.27.11-2,3.21-2,4.09-1.51a2.39,2.39,0,0,1-.31-1.15,3.89,3.89,0,0,1,.6-2.1,2.44,2.44,0,0,1,3.13-.47C58.36,420.68,57.72,423.1,57.37,424Z" style="fill:#BA68C8"></path><path d="M57.37,424a2.91,2.91,0,0,1,1.77-.86,3.69,3.69,0,0,1,3.44,1.09c1.31,1.85-1.27,3.07-2.72,3.2a2.37,2.37,0,0,1,1.4,1.44,2.45,2.45,0,0,1-.81,2.73c-1.7.92-4.31-.91-4.68-2.55-.41,2.62-2.07,3.34-3.63,2.33-1.29-.83-.79-3.23.58-4-1.53.61-3.77-.68-3.68-2.27.11-2,3.21-2,4.09-1.51a2.39,2.39,0,0,1-.31-1.15,3.89,3.89,0,0,1,.6-2.1,2.44,2.44,0,0,1,3.13-.47C58.36,420.68,57.72,423.1,57.37,424Z" style="fill:#fff;opacity:0.45"></path><path d="M56,426.89c.8-.12,2.94-.5,1.68-1.65-.92-.84-3.46-.49-4,.74S55.31,427,56,426.89Z" style="fill:#fafafa"></path></g><g id="freepik--flower--inject-8"><path d="M172.67,467.2a2.91,2.91,0,0,1,.6-1.87,3.67,3.67,0,0,1,3.15-1.76c2.25.32,1.36,3,.46,4.17a2.39,2.39,0,0,1,2,0,2.45,2.45,0,0,1,1.43,2.46c-.5,1.87-3.62,2.51-5.06,1.65,1.61,2.1,1,3.8-.8,4.24-1.5.37-2.9-1.64-2.53-3.17-.6,1.53-3.07,2.27-4.17,1.11-1.38-1.46.77-3.69,1.71-4a2.27,2.27,0,0,1-1-.56,4,4,0,0,1-1.13-1.88,2.45,2.45,0,0,1,1.81-2.6C171,464.21,172.27,466.33,172.67,467.2Z" style="fill:#BA68C8"></path><path d="M172.67,467.2a2.91,2.91,0,0,1,.6-1.87,3.67,3.67,0,0,1,3.15-1.76c2.25.32,1.36,3,.46,4.17a2.39,2.39,0,0,1,2,0,2.45,2.45,0,0,1,1.43,2.46c-.5,1.87-3.62,2.51-5.06,1.65,1.61,2.1,1,3.8-.8,4.24-1.5.37-2.9-1.64-2.53-3.17-.6,1.53-3.07,2.27-4.17,1.11-1.38-1.46.77-3.69,1.71-4a2.27,2.27,0,0,1-1-.56,4,4,0,0,1-1.13-1.88,2.45,2.45,0,0,1,1.81-2.6C171,464.21,172.27,466.33,172.67,467.2Z" style="fill:#fff;opacity:0.45"></path><path d="M173.51,470.5c.78-.23,2.85-.89,1.45-1.86-1-.71-3.5,0-3.84,1.28S172.89,470.69,173.51,470.5Z" style="fill:#fafafa"></path></g><path d="M128.23,406.16c-3.5-8.85-12.16-22-30.43-23.81s-34.3,9.07-38.88,16.12c-1.77,3,1.12,2.4,4.81,4.89,1.84,1.24,8,6.09,16.78,13C91.13,424.83,118.22,432.31,128.23,406.16Z" style="fill:#BA68C8"></path><path d="M128.23,406.16c-3.5-8.85-12.16-22-30.43-23.81s-34.3,9.07-38.88,16.12c-1.77,3,1.12,2.4,4.81,4.89,1.84,1.24,8,6.09,16.78,13C91.13,424.83,118.22,432.31,128.23,406.16Z" style="opacity:0.2"></path><path d="M125.09,406.34c-4.67-5.83-12.43-9.36-19.45-11.47a57.59,57.59,0,0,0-21.71-2.35,31.67,31.67,0,0,0-5.63,1.1A27.59,27.59,0,0,0,73,395.85c-.18.09-.39.68-.05.66,9.18-.56,18.36-1.18,27.43.76a58.72,58.72,0,0,1,12.24,4.1c1.86.86,3.68,1.8,5.48,2.78,2.18,1.19,4.22,2.61,6.49,3.64C125.37,408.14,125.38,406.7,125.09,406.34Z" style="opacity:0.2"></path><path d="M160.82,424.89c-7.45-3.43-32.76-6.69-46,5.73-13.4,12.55-9.55,34.17-5.79,41.68,1.71,3.06,2.64.26,6.66-1.67,2-.95,5.36-4.39,19.74-7.87C148.6,459.58,175.06,450.17,160.82,424.89Z" style="fill:#BA68C8"></path><path d="M160.82,424.89c-7.45-3.43-32.76-6.69-46,5.73-13.4,12.55-9.55,34.17-5.79,41.68,1.71,3.06,2.64.26,6.66-1.67,2-.95,5.36-4.39,19.74-7.87C148.6,459.58,175.06,450.17,160.82,424.89Z" style="fill:#fff;opacity:0.30000000000000004"></path><path d="M156.77,425.19c-7.47-.4-15.27,3-21.52,6.85A57.65,57.65,0,0,0,119,446.66a31.46,31.46,0,0,0-2.94,4.93,27.88,27.88,0,0,0-1.87,5.43c0,.19.25.74.47.47,5.69-7.21,11.36-14.46,18.85-19.93a58.14,58.14,0,0,1,11.22-6.39c1.87-.81,3.79-1.55,5.72-2.23,2.34-.83,4.76-1.41,7-2.41C158.29,426.19,157.23,425.22,156.77,425.19Z" style="fill:#BA68C8;opacity:0.7000000000000001"></path><path d="M85.35,442.54a12.89,12.89,0,0,0-13,4.57c-4.33,5.11-6.13,12.06-5.71,12.74s7.53,0,13.3-5.28S85.21,444.47,85.35,442.54Z" style="fill:#455a64"></path><path d="M101.72,439.61a12.86,12.86,0,0,0-9.44,10c-1.52,6.52,0,13.53.73,13.94s6.72-3.4,9.43-10.76C105.09,445.56,102.48,441.39,101.72,439.61Z" style="fill:#455a64"></path><path d="M105.81,426.55a12.89,12.89,0,0,0-12.11-6.48c-6.69.25-12.67,3-12.89,3.74s5.54,6.21,12.51,7.3C100.9,432.3,104.3,427.75,105.81,426.55Z" style="fill:#455a64"></path><path d="M160.85,420.21c-5.83-1.5-12.11-1.11-18-.54a102,102,0,0,0-16.54,3A131.47,131.47,0,0,0,94,436.17c-6.39,3.75-13.05,8-17.94,13.64-.11.12.13.44.26.34A104.51,104.51,0,0,1,93.45,439a123.39,123.39,0,0,1,16.46-8,126.64,126.64,0,0,1,30.1-7.7c6.84-.92,13.67-.7,20.54-.83A1.13,1.13,0,0,0,160.85,420.21Z" style="fill:#37474f"></path><path d="M111.18,427.42a40.18,40.18,0,0,0-8.76-2.47,23,23,0,0,0-8.67-.13c-.4.09.15.35.41.37a67,67,0,0,1,7.69,1.16,29.39,29.39,0,0,1,7.73,2.87,1.8,1.8,0,0,0,2.07-.3A1,1,0,0,0,111.18,427.42Z" style="fill:#37474f"></path><path d="M108.61,429.1c-3.31,2.69-5.27,5.68-7.79,10a38.71,38.71,0,0,0-2.52,5.23A23.12,23.12,0,0,0,96.7,451c0,.09.19.63.24.46a60,60,0,0,1,2.41-6.28,34.51,34.51,0,0,1,2.92-5.39,54.84,54.84,0,0,1,7.61-9.55C110.49,429.62,109.19,428.64,108.61,429.1Z" style="fill:#37474f"></path><path d="M124.82,430.53a12.87,12.87,0,0,0-11.31,7.79c-2.85,6.06-2.78,13.24-2.2,13.79s7.28-1.93,11.47-8.57S125.2,432.43,124.82,430.53Z" style="fill:#455a64"></path><path d="M133.76,421.69c-3.8,1.94-6.34,4.46-9.7,8.13a37.55,37.55,0,0,0-3.56,4.59,22.84,22.84,0,0,0-3,6.2c0,.09,0,.65.14.5a58.68,58.68,0,0,1,3.67-5.64,34.3,34.3,0,0,1,4-4.66,54.43,54.43,0,0,1,9.44-7.76C135.48,422.58,134.42,421.36,133.76,421.69Z" style="fill:#37474f"></path></g><g id="freepik--plants--inject-8"><path d="M458.68,297.23a13.59,13.59,0,0,1,10.81-9.67c6.93-1.41,14.27.45,14.69,1.18s-3.79,7-11.64,9.63C464.85,301,460.53,298.08,458.68,297.23Z" style="fill:#455a64"></path><path d="M447.65,310.9a13.59,13.59,0,0,1,14-3.68c6.81,1.91,12.5,6.92,12.53,7.77s-6.56,4.48-14.75,3.25C451.44,317,448.91,312.5,447.65,310.9Z" style="fill:#455a64"></path><path d="M434.76,306.89a13.6,13.6,0,0,1-1.19-14.45c3.06-6.38,8.2-11,9-10.92s3.69,8,1.82,15.19C442.4,304.56,436.56,305.93,434.76,306.89Z" style="fill:#455a64"></path><path d="M399.65,355.76c1.57-6.16,5.12-11.77,8.67-17A106.55,106.55,0,0,1,419.53,325a138.69,138.69,0,0,1,28.85-23c6.72-4,14-8,21.74-9.68.16,0,.34.35.18.42a109.54,109.54,0,0,0-19,10.17,129.69,129.69,0,0,0-15.77,11.17,133.85,133.85,0,0,0-22.41,24c-4.33,5.86-7.6,12.28-11.2,18.58A1.2,1.2,0,0,1,399.65,355.76Z" style="fill:#37474f"></path><path d="M433.34,312.46a43.64,43.64,0,0,1,1.29-9.52,24.36,24.36,0,0,1,3.52-8.46c.25-.35.28.3.19.56a69.61,69.61,0,0,0-2.11,7.93,30.89,30.89,0,0,0-.47,8.69,1.93,1.93,0,0,1-1.15,1.89A1,1,0,0,1,433.34,312.46Z" style="fill:#37474f"></path><path d="M434.42,311.94c4.17-1.7,7.94-2,13.19-2.14a37.93,37.93,0,0,1,6.12.32,23.8,23.8,0,0,1,7,1.91c.08.05.49.49.31.45a65.69,65.69,0,0,0-7-1,37,37,0,0,0-6.48,0,57.71,57.71,0,0,0-12.71,2.19C434,313.93,433.7,312.23,434.42,311.94Z" style="fill:#37474f"></path><path d="M427.5,327.66a13.59,13.59,0,0,1,13-6.51c7.06.44,13.67,4.15,13.88,5s-5.49,5.76-13.76,6.26C432.49,332.87,429.07,329,427.5,327.66Z" style="fill:#455a64"></path><path d="M414.78,331.44c3.73-2.53,7.35-3.61,12.46-4.84a38.7,38.7,0,0,1,6.05-1,24.27,24.27,0,0,1,7.25.41c.09,0,.57.38.39.38a65.69,65.69,0,0,0-7.09.53,37.15,37.15,0,0,0-6.34,1.32,58.25,58.25,0,0,0-12,4.79C414.74,333.49,414.14,331.88,414.78,331.44Z" style="fill:#37474f"></path><g id="freepik--flower--inject-8"><path d="M449.17,255.75a2.92,2.92,0,0,1,1.06-1.65,3.66,3.66,0,0,1,3.5-.86c2.09.89.52,3.28-.65,4.14a2.35,2.35,0,0,1,1.95.51,2.44,2.44,0,0,1,.72,2.75c-1,1.67-4.15,1.47-5.31.26,1,2.45,0,3.93-1.89,3.88-1.54,0-2.36-2.35-1.6-3.73-1,1.31-3.56,1.38-4.32,0-.95-1.78,1.72-3.36,2.71-3.42a2.31,2.31,0,0,1-.86-.82,3.87,3.87,0,0,1-.59-2.11c.09-1.3,1.3-1.89,2.42-2C448.29,252.41,449,254.8,449.17,255.75Z" style="fill:#BA68C8"></path><path d="M449.17,255.75a2.92,2.92,0,0,1,1.06-1.65,3.66,3.66,0,0,1,3.5-.86c2.09.89.52,3.28-.65,4.14a2.35,2.35,0,0,1,1.95.51,2.44,2.44,0,0,1,.72,2.75c-1,1.67-4.15,1.47-5.31.26,1,2.45,0,3.93-1.89,3.88-1.54,0-2.36-2.35-1.6-3.73-1,1.31-3.56,1.38-4.32,0-.95-1.78,1.72-3.36,2.71-3.42a2.31,2.31,0,0,1-.86-.82,3.87,3.87,0,0,1-.59-2.11c.09-1.3,1.3-1.89,2.42-2C448.29,252.41,449,254.8,449.17,255.75Z" style="fill:#fff;opacity:0.45"></path><path d="M449,259c.81.08,3,.26,2-1.17-.68-1.05-3.23-1.35-4-.28S448.32,258.89,449,259Z" style="fill:#fafafa"></path></g><g id="freepik--flower--inject-8"><path d="M482.05,332a2.93,2.93,0,0,1,1.2-1.55,3.69,3.69,0,0,1,3.57-.55c2,1.08.22,3.32-1,4.07a2.38,2.38,0,0,1,1.89.68,2.44,2.44,0,0,1,.48,2.81c-1.12,1.58-4.26,1.09-5.32-.22.79,2.53-.38,3.91-2.22,3.7-1.53-.18-2.15-2.55-1.26-3.86-1.1,1.22-3.68,1.06-4.3-.41-.79-1.85,2-3.18,3-3.16a2.28,2.28,0,0,1-.78-.89,3.84,3.84,0,0,1-.4-2.15,2.43,2.43,0,0,1,2.59-1.81C481.47,328.59,482,331.05,482.05,332Z" style="fill:#BA68C8"></path><path d="M482.05,332a2.93,2.93,0,0,1,1.2-1.55,3.69,3.69,0,0,1,3.57-.55c2,1.08.22,3.32-1,4.07a2.38,2.38,0,0,1,1.89.68,2.44,2.44,0,0,1,.48,2.81c-1.12,1.58-4.26,1.09-5.32-.22.79,2.53-.38,3.91-2.22,3.7-1.53-.18-2.15-2.55-1.26-3.86-1.1,1.22-3.68,1.06-4.3-.41-.79-1.85,2-3.18,3-3.16a2.28,2.28,0,0,1-.78-.89,3.84,3.84,0,0,1-.4-2.15,2.43,2.43,0,0,1,2.59-1.81C481.47,328.59,482,331.05,482.05,332Z" style="fill:#fff;opacity:0.45"></path><path d="M481.62,335.51c.82.09,3,.26,2.05-1.17-.68-1-3.23-1.35-4-.28S481,335.44,481.62,335.51Z" style="fill:#fafafa"></path></g><g id="freepik--flower--inject-8"><path d="M463.73,389.53a3,3,0,0,0-2-.25,3.69,3.69,0,0,0-2.91,2.13c-.66,2.18,2.18,2.51,3.59,2.17a2.35,2.35,0,0,0-.86,1.82,2.43,2.43,0,0,0,1.64,2.32c1.9.33,3.8-2.23,3.62-3.91,1.23,2.35,3,2.51,4.18,1.06,1-1.21-.28-3.32-1.82-3.63,1.64.09,3.35-1.84,2.76-3.32-.75-1.87-3.68-.84-4.36-.12a2.34,2.34,0,0,0-.08-1.19,3.84,3.84,0,0,0-1.23-1.8,2.44,2.44,0,0,0-3.12.54C461.74,386.71,463.11,388.8,463.73,389.53Z" style="fill:#BA68C8"></path><path d="M463.73,389.53a3,3,0,0,0-2-.25,3.69,3.69,0,0,0-2.91,2.13c-.66,2.18,2.18,2.51,3.59,2.17a2.35,2.35,0,0,0-.86,1.82,2.43,2.43,0,0,0,1.64,2.32c1.9.33,3.8-2.23,3.62-3.91,1.23,2.35,3,2.51,4.18,1.06,1-1.21-.28-3.32-1.82-3.63,1.64.09,3.35-1.84,2.76-3.32-.75-1.87-3.68-.84-4.36-.12a2.34,2.34,0,0,0-.08-1.19,3.84,3.84,0,0,0-1.23-1.8,2.44,2.44,0,0,0-3.12.54C461.74,386.71,463.11,388.8,463.73,389.53Z" style="fill:#fff;opacity:0.45"></path><path d="M466.12,392.05c.78-.23,2.85-.9,1.44-1.87-1-.7-3.5,0-3.84,1.28S465.49,392.23,466.12,392.05Z" style="fill:#fafafa"></path></g><g id="freepik--flower--inject-8"><path d="M369.4,443.75a2.92,2.92,0,0,0-1.16-1.58,3.66,3.66,0,0,0-3.54-.66c-2,1-.33,3.31.89,4.1a2.33,2.33,0,0,0-1.91.62,2.43,2.43,0,0,0-.57,2.79c1.07,1.61,4.23,1.22,5.32,0-.86,2.5.26,3.92,2.11,3.76,1.54-.13,2.22-2.48,1.38-3.81,1.06,1.25,3.64,1.17,4.31-.28.85-1.82-1.91-3.25-2.9-3.25a2.36,2.36,0,0,0,.81-.87,4,4,0,0,0,.47-2.14,2.45,2.45,0,0,0-2.54-1.89C370.08,440.36,369.51,442.8,369.4,443.75Z" style="fill:#BA68C8"></path><path d="M369.4,443.75a2.92,2.92,0,0,0-1.16-1.58,3.66,3.66,0,0,0-3.54-.66c-2,1-.33,3.31.89,4.1a2.33,2.33,0,0,0-1.91.62,2.43,2.43,0,0,0-.57,2.79c1.07,1.61,4.23,1.22,5.32,0-.86,2.5.26,3.92,2.11,3.76,1.54-.13,2.22-2.48,1.38-3.81,1.06,1.25,3.64,1.17,4.31-.28.85-1.82-1.91-3.25-2.9-3.25a2.36,2.36,0,0,0,.81-.87,4,4,0,0,0,.47-2.14,2.45,2.45,0,0,0-2.54-1.89C370.08,440.36,369.51,442.8,369.4,443.75Z" style="fill:#fff;opacity:0.45"></path><path d="M369.38,447.1c-.78-.23-2.85-.9-1.45-1.86,1-.71,3.5,0,3.84,1.28S370,447.28,369.38,447.1Z" style="fill:#fafafa"></path></g><path d="M391,367.32c2-9.31,8.33-23.7,26.05-28.54s35.33,3.24,41,9.42c2.24,2.69-.71,2.56-3.93,5.63-1.61,1.53-6.92,7.34-14.39,15.65C430.64,379.56,405.17,391.44,391,367.32Z" style="fill:#BA68C8"></path><path d="M391,367.32c2-9.31,8.33-23.7,26.05-28.54s35.33,3.24,41,9.42c2.24,2.69-.71,2.56-3.93,5.63-1.61,1.53-6.92,7.34-14.39,15.65C430.64,379.56,405.17,391.44,391,367.32Z" style="opacity:0.2"></path><path d="M394.07,367c3.64-6.53,10.71-11.3,17.27-14.54a57.76,57.76,0,0,1,21-5.93,31.37,31.37,0,0,1,5.73.15,28.38,28.38,0,0,1,5.59,1.31c.19.06.49.62.15.65-9.14,1-18.29,1.89-26.91,5.31a58.57,58.57,0,0,0-11.4,6.08c-1.68,1.15-3.33,2.39-4.93,3.65-2,1.54-3.74,3.28-5.8,4.67C394.1,368.79,393.85,367.38,394.07,367Z" style="opacity:0.2"></path><path d="M377.47,378c6-5.62,28.92-16.79,45.43-9.25,16.71,7.63,20,29.35,18.79,37.66-.65,3.45-2.42,1.09-6.84.55-2.2-.27-6.48-2.46-21.22-1.17C400.12,407,372,406.49,377.47,378Z" style="fill:#BA68C8"></path><path d="M377.47,378c6-5.62,28.92-16.79,45.43-9.25,16.71,7.63,20,29.35,18.79,37.66-.65,3.45-2.42,1.09-6.84.55-2.2-.27-6.48-2.46-21.22-1.17C400.12,407,372,406.49,377.47,378Z" style="fill:#fff;opacity:0.30000000000000004"></path><path d="M381.41,377c6.94-2.77,15.44-2,22.57-.37a57.9,57.9,0,0,1,20,8.67,33,33,0,0,1,4.36,3.74,27.61,27.61,0,0,1,3.49,4.55c.12.16,0,.78-.28.6-7.71-5-15.38-10.09-24.23-12.88a58.23,58.23,0,0,0-12.67-2.48c-2-.17-4.09-.25-6.13-.29-2.49,0-5,.19-7.44,0C380.28,378.42,381,377.16,381.41,377Z" style="fill:#BA68C8;opacity:0.7000000000000001"></path><path d="M416.44,411.28a12.88,12.88,0,0,1,13.64,1.62c5.34,4,8.62,10.43,8.36,11.19s-7.34,1.68-14.13-2.24S417,413.14,416.44,411.28Z" style="fill:#455a64"></path><path d="M399.82,412a12.85,12.85,0,0,1,11.4,7.67c2.91,6,2.91,13.21,2.34,13.76s-7.3-1.85-11.56-8.44S399.47,413.91,399.82,412Z" style="fill:#455a64"></path><path d="M394.59,400.34a12.87,12.87,0,0,1,9.52-9.89c6.45-1.82,13-1.09,13.42-.42s-3.36,7.62-9.65,10.8C401,404.31,396.4,401,394.59,400.34Z" style="fill:#455a64"></path><path d="M337.88,406c5.36-2.74,11.57-3.74,17.49-4.48a101.44,101.44,0,0,1,16.8-.65A131.64,131.64,0,0,1,406.59,407c7.06,2.26,14.49,5,20.49,9.38.13.1,0,.46-.18.39a104.21,104.21,0,0,0-19.15-7.15,122.93,122.93,0,0,0-17.81-4.21,126.78,126.78,0,0,0-31.06-.92c-6.87.6-13.48,2.3-20.22,3.68A1.13,1.13,0,0,1,337.88,406Z" style="fill:#37474f"></path><path d="M389.75,402.82a40.37,40.37,0,0,1,7.57-5,23,23,0,0,1,8.22-2.8c.4,0-.05.38-.28.48a67.34,67.34,0,0,0-7,3.47,29.57,29.57,0,0,0-6.47,5.11,1.84,1.84,0,0,1-2.07.36A1,1,0,0,1,389.75,402.82Z" style="fill:#37474f"></path><path d="M390.79,403.26c3.83,1.9,6.39,4.39,9.79,8a37.78,37.78,0,0,1,3.6,4.56,22.86,22.86,0,0,1,3,6.16c0,.09,0,.66-.13.5a63.27,63.27,0,0,0-3.73-5.6,34.63,34.63,0,0,0-4-4.62,54.76,54.76,0,0,0-9.52-7.66C389.08,404.17,390.13,402.94,390.79,403.26Z" style="fill:#37474f"></path><path d="M375.29,408.2A12.87,12.87,0,0,1,388,413.32c4.11,5.29,5.61,12.31,5.16,13s-7.52-.29-13.06-5.85S375.34,410.13,375.29,408.2Z" style="fill:#455a64"></path><path d="M364.64,401.53c4.13,1.06,7.16,3,11.24,5.81a38.6,38.6,0,0,1,4.48,3.7,22.8,22.8,0,0,1,4.24,5.4c0,.09.09.65,0,.52a58.27,58.27,0,0,0-4.82-4.7,34.21,34.21,0,0,0-4.9-3.68,54.22,54.22,0,0,0-10.91-5.5C363.15,402.78,363.92,401.35,364.64,401.53Z" style="fill:#37474f"></path></g></g><g id="freepik--Character--inject-8"><g id="freepik--Chest--inject-8"><path d="M175.06,138.09a233.58,233.58,0,0,1-38.31,9.77c-12.39,2.06-18.06,7.32-29,21.84S67,234.05,59.73,248.41s-7.82,18.07-5.73,33l40.34.78h311.9s-3.91-55.55-15.29-67.05c-13.68-13.82-39.86-33.69-56.58-44.65s-43.09-22.29-77.3-24.39S175.06,138.09,175.06,138.09Z" style="fill:#b16668"></path><path d="M226.45,174c0-.11-.14-.15-.28-.08s-.46.79-.59,1a3.35,3.35,0,0,1-1,1.17,2.3,2.3,0,0,1-1.54.47,4.76,4.76,0,0,1-2.73-1.23,11.91,11.91,0,0,1-1.74-1.75c-.21-.24-.75-1-1.13-.87s-.25.74-.2,1a5.83,5.83,0,0,0,.81,2,7.32,7.32,0,0,0,4.68,3.3c2.13.24,3.23-1.67,3.59-3.49A3.56,3.56,0,0,0,226.45,174Z" style="fill:#9a4a4d"></path><path d="M209.35,165.49c-3.11-3.36-7.79-4.9-11.88-6.74-5.26-2.06-10.49-4.31-15.88-6-2.51-.39,2.2,2.31,2.69,2.46,5.85,3.21,12,5.77,17.79,9.1,1.21.72,2.49,1.25,3.66,2,2,1.32,3,3.59,4.12,5.56a13.31,13.31,0,0,0,1.09,1.84c.07.07.87.65.89.25a11.69,11.69,0,0,0-.55-3.41C210.87,168.82,210.67,166.9,209.35,165.49Z" style="fill:#9a4a4d"></path></g><g id="freepik--Earth--inject-8"><path d="M409.33,303.78v.2a159.53,159.53,0,1,1-319-.3c0-1.12,0-2.24.06-3.36,1.07-22.7,16.64-45.23,46.66-62.56,62.31-36,163.32-36,225.62,0,30,17.33,45.58,39.87,46.66,62.57C409.31,301.49,409.33,302.63,409.33,303.78Z" style="fill:#BA68C8"></path><path d="M409.33,303.78v.2a159.53,159.53,0,1,1-319-.3c0-1.12,0-2.24.06-3.36,1.07-22.7,16.64-45.23,46.66-62.56,62.31-36,163.32-36,225.62,0,30,17.33,45.58,39.87,46.66,62.57C409.31,301.49,409.33,302.63,409.33,303.78Z" style="opacity:0.30000000000000004"></path><path d="M98.45,347.82c.8.49,2.53,2.47,3.37,2.21,1.47-.45-1-3-1.52-3.34s-4.27-4.22-4.24-4.28a.59.59,0,0,0,.1-.64c-.1-.17-1-.54-1.75-1,.44,1.91.92,3.8,1.43,5.69C96.65,347,97.84,347.45,98.45,347.82Z" style="fill:#BA68C8"></path><path d="M336.55,388.31c-.21,3-1.24,12.5-4.86,7.56-1.1-1.52-.82-4.34-1.26-6.27-.5-2.26-1.37-4.43-1.25-6.79q3.75-1.24,7.4-2.62A54.93,54.93,0,0,1,336.55,388.31Z" style="fill:#BA68C8"></path><path d="M315.57,397.16c-.09-1.12-.29-2.24-.3-3.37,0-1.72-.14-3.59-.07-5.3,0-.54,0-1.08.05-1.59a240.36,240.36,0,0,1-28,5.52l.07.18A69.23,69.23,0,0,0,293.74,403c1.09,1.58,2.12,3.25,3.19,4.82.53.8,1,1.69,1.61,2.45a13.25,13.25,0,0,1,1.4,2.79c.95,1.93,2,3,3.73,3a7.59,7.59,0,0,0,4-1.74,17.94,17.94,0,0,0,6.15-7.46,23,23,0,0,0,1.58-6.49A14.17,14.17,0,0,0,315.57,397.16Z" style="fill:#BA68C8"></path><path d="M90.28,304.11A161.33,161.33,0,0,0,94,339a1.34,1.34,0,0,1,1.36.07c1.66.92,3.18,4,4.84,4.89,2.78,1.54,6.05,3.51,8,6.16,1.28,1.73,3.15,4.32,5.07,5a25.89,25.89,0,0,0,7,1.55C100.73,341,90.71,322.62,90.28,304.11Zm132.88,90.8a4.18,4.18,0,0,1-.37-1.24c-24.22-2.4-47.66-8-68.24-16.91-.05.32-.07.65-.09,1-.19,2.81-.1,5.58,1.83,7.87s4.44,3.59,6.33,5.77,2.09,5.48,4.08,7.88c2.51,3,5.24,3.05,8.86,3.7a11.78,11.78,0,0,1,7.14,3.88c5.58,5.92,9.63,12.49,14.74,18.75,3,3.66,10,11.55,14.44,5.34.93-1.29,1-3.31,1.91-4.7a12.29,12.29,0,0,1,3-2.89c1.78-1.53,2.57-5.05,3.25-7.21,1-3.15-2.32-5-1.77-7.94.29-1.51,2-3.41,3.4-4.47,1.07-.84,1.86-1.09,2.29-2.81A10.51,10.51,0,0,0,223.16,394.91Z" style="fill:#BA68C8"></path><path d="M402.91,349.54A159.54,159.54,0,0,1,90.29,304.45c.62,21.26,13.91,42.4,39.86,59.35,6.6,23.88,31.34,57,70.95,71.48,45.05,16.44,93,11.05,131.84-9.87C368.42,406.32,395.65,375.17,402.91,349.54Z" style="opacity:0.15"></path><g id="freepik--Mountains--inject-8"><path d="M408.77,292.34c-1.68-20.32-17.83-82.28-27.33-105.45s-17.37-22.69-27.4,0c-14.24,32.21-26.07,87.62-28.23,105Z" style="fill:#37474f"></path><path d="M372.46,188c1.91,3.45,1.55,8,4.93,10.62a5,5,0,0,0,5.58.52,4.68,4.68,0,0,0,2-2.61c-1.26-3.65-2.47-6.9-3.58-9.61-9-21.91-16.51-22.66-25.78-3.5a7.45,7.45,0,0,0,4.42,2.82C364.76,187.13,369.22,182.09,372.46,188Z" style="fill:#263238"></path><path d="M99.46,272.47c6.16-36.65,26.72-82.51,30.72-91,9.35-19.9,16.37-16.94,24.42,0,11.42,24.05,26.84,62.68,30.72,91Z" style="fill:#455a64"></path><path d="M120,212.08a24.25,24.25,0,0,0,5.43-7.37c1.06-2.29,1.49-6.25,3.57-8,5.39-4.43,7,4.11,12.13,2.57,3.13-.93,4-4.93,4.22-7.59.34-3.33,1.05-4.3,4.38-4.19s5.62.92,7.24-.95q-1.23-2.67-2.4-5.15c-8-16.94-15.07-19.9-24.42,0-1.91,4.07-7.59,16.66-13.69,32.69A10.13,10.13,0,0,0,120,212.08Z" style="fill:#37474f"></path><path d="M362.87,238.12c-4.1-23-30.82-89.77-41.61-110.93s-19.62-26.58-32.54,0c-9.29,19.12-32.8,87.06-37,110.93Z" style="fill:#455a64"></path><path d="M288.72,127.19c-1.29,2.64-2.84,6.22-4.58,10.48,3.57.81,7.5-1.95,11.07-3.54,5-2.2,8.29,2.67,9.17,7,.93,4.58,3.45,13,10.33,9.84,3-1.37,3.78-7,7.12-7,3.81,0,5.78,5.08,9.58,5.46-4-9.27-7.52-17.12-10.15-22.27C310.47,106,301.64,100.61,288.72,127.19Z" style="fill:#37474f"></path></g><g id="freepik--Shrubbery--inject-8"><path d="M403.5,269.55c2.89-3.21,2.08-8.39-.95-11.1-2.77-2.47-5.85-3-9.3-2.57,1.41-4.46.95-10.2-2.05-13.82s-9.09-5.52-12.88-2.28c-.08-3.5-1.3-5.38-3.92-7.51-2.93-2.39-9.34-1.81-11.31,2.52-.14-4.45-2-9.06-6.76-10.59-3.91-1.26-7.3-1.6-10.87,2.33,2.08-5.71-4.11-9.08-7.18-6.34-.1-3.45-.65-6.82-5.41-8.45-5.58-1.91-10.59.24-10.5,6.43,1.88-2.7-2.41-8.71-6.25-5.85,1.09-2.85.45-7.51-3.53-9.52-2.27-1.15-5.22-1.12-7,1.11-2,2.46-2.43,4.8-.7,6.77-.54-2.28-1.18-4.32-3.21-5.68-2.69-1.79-7.21-1.74-8.89.56,4.76-13-19.17-17.28-20.65-4.18a5.27,5.27,0,0,0-3.48-4.45,4.77,4.77,0,0,0-6,2.62c-.3-3.25-4.56-5.68-8.16-6-4.22-.33-8.63.78-10.46,4.7-.83-2.82-3.21-4.34-6.25-4.55-1.33-.09-4.76.83-5.1,3.8-.77-2.76-2.13-5.38-5.07-5.65-5.28-.47-7.26,5.08-6.12,9.73-1.41-3.64-8.3-2.14-8,1.83-1.47-9.34-15.1-5.73-15.33,2.5-2.14-3.82-7.93-3.52-8.25,1.77-4.69-7.3-15.76-1.33-16.42,6.35-1.06-5.71-8.66-4.66-8.52,1.17a3.82,3.82,0,0,0-4.5-2.34c-3.84,1-4.78,6.28-3.79,9.64a3.1,3.1,0,0,0-3.1-2.17,3.21,3.21,0,0,0-3.47,3.75c-.67-3.35-2.71-4.6-6.32-4.52-5,.1-6.06,6.7-4.53,9.45-3.43-5-9.52-.48-9.45,4.62-2.29-2.68-5.65-3.9-8.75-1.38-3.29,2.69-2.76,8.45.7,10.72a2.76,2.76,0,0,0-3.46,3.31,3.82,3.82,0,0,0-5.2-1.33,4.78,4.78,0,0,0-1.41,6.82,11.29,11.29,0,0,0-16.13-.27c-3.61,3.75-4.09,13.53,0,16.82-6.72.71-7,13,1.12,14.12H405.18C413.57,283.25,410.3,268.24,403.5,269.55Z" style="fill:#BA68C8"></path><path d="M403.5,269.55c2.89-3.21,2.08-8.39-.95-11.1-2.77-2.47-5.85-3-9.3-2.57,1.41-4.46.95-10.2-2.05-13.82s-9.09-5.52-12.88-2.28c-.08-3.5-1.3-5.38-3.92-7.51-2.93-2.39-9.34-1.81-11.31,2.52-.14-4.45-2-9.06-6.76-10.59-3.91-1.26-7.3-1.6-10.87,2.33,2.08-5.71-4.11-9.08-7.18-6.34-.1-3.45-.65-6.82-5.41-8.45-5.58-1.91-10.59.24-10.5,6.43,1.88-2.7-2.41-8.71-6.25-5.85,1.09-2.85.45-7.51-3.53-9.52-2.27-1.15-5.22-1.12-7,1.11-2,2.46-2.43,4.8-.7,6.77-.54-2.28-1.18-4.32-3.21-5.68-2.69-1.79-7.21-1.74-8.89.56,4.76-13-19.17-17.28-20.65-4.18a5.27,5.27,0,0,0-3.48-4.45,4.77,4.77,0,0,0-6,2.62c-.3-3.25-4.56-5.68-8.16-6-4.22-.33-8.63.78-10.46,4.7-.83-2.82-3.21-4.34-6.25-4.55-1.33-.09-4.76.83-5.1,3.8-.77-2.76-2.13-5.38-5.07-5.65-5.28-.47-7.26,5.08-6.12,9.73-1.41-3.64-8.3-2.14-8,1.83-1.47-9.34-15.1-5.73-15.33,2.5-2.14-3.82-7.93-3.52-8.25,1.77-4.69-7.3-15.76-1.33-16.42,6.35-1.06-5.71-8.66-4.66-8.52,1.17a3.82,3.82,0,0,0-4.5-2.34c-3.84,1-4.78,6.28-3.79,9.64a3.1,3.1,0,0,0-3.1-2.17,3.21,3.21,0,0,0-3.47,3.75c-.67-3.35-2.71-4.6-6.32-4.52-5,.1-6.06,6.7-4.53,9.45-3.43-5-9.52-.48-9.45,4.62-2.29-2.68-5.65-3.9-8.75-1.38-3.29,2.69-2.76,8.45.7,10.72a2.76,2.76,0,0,0-3.46,3.31,3.82,3.82,0,0,0-5.2-1.33,4.78,4.78,0,0,0-1.41,6.82,11.29,11.29,0,0,0-16.13-.27c-3.61,3.75-4.09,13.53,0,16.82-6.72.71-7,13,1.12,14.12H405.18C413.57,283.25,410.3,268.24,403.5,269.55Z" style="opacity:0.30000000000000004"></path></g><ellipse cx="249.81" cy="302.88" rx="159.53" ry="92.11" style="fill:#BA68C8"></ellipse><ellipse cx="249.81" cy="302.88" rx="159.53" ry="92.11" style="fill:#fff;opacity:0.45"></ellipse><path d="M276.7,393.65c-.27-.61-.54-1.19-.8-1.72-2.46-5.08-3.4-8.05.24-12.82,3.1-4.05,8.25-4.78,12.27-7.54s6.58-6.92,10.39-9.81c3.6-2.71,3.42,1.56,6.78,1.35,4.79-.29,8.67-5.55,10.38-9.6.89-2.1,1.66-8.69,5-8.45,1.31.09,1.06,1,1.89,1.56,1.53,1.08,2.57.82,4.21-.26,3.94-2.58,5.22-9.29,6.88-13.46a17.09,17.09,0,0,0,.69-11c-1.83-6.11-6.39-11.16-7.55-17.51-.62-3.4.63-5.57,1.29-8.68.7-3.3-1-7-2.95-9.56-2.1-2.81-4.61-3.07-7.86-4.21-2.58-.91-2.47-1.2-3.64-3.2-2.63-4.49-7.09-5.28-12.54-6.63a125,125,0,0,1-17.49-5.41c-4.63-1.9-9.35-5.15-14.28-6.08l-43.32,1.31c-2.7-1.07-10-1.86-11.73,1.24-1.05,1.89-.13,6.12-.72,8.31-.8,3-1.6,6.12-.22,9.09a22.12,22.12,0,0,0,7.15,8c1.74,1.2,3.92,1.69,5.59,2.93,2.12,1.58,3.47,4.79,3.91,7.37.26,1.51.44,6.1-1.5,6.73-1.72.56-.06-2.43-2.32-2.24s-5,4.21-6.11,5.82c-1.6,2.35-1.19,2.73,1.08,3.3,1.76.44,2.11,1.24.27,2.49a13.59,13.59,0,0,1-6,1.95c-1.64.13-2.74-.42-4.25-.87a24.21,24.21,0,0,0-2.7-.49,9.17,9.17,0,0,0-4.79.25c-1.79.64-2.65,2.3-3.92,3.55a15,15,0,0,1-5.41,3.77c-4,1.26-8.67,1-12.78,1-4.6,0-9.25-.77-13.82-.56-2.55.11-4.7.66-5.24,3.34-.49,2.38-5,1.83-6.78,1.83-2.58,0-5.17-.43-7.73,0-3.26.57-3.17,4.09-6,5.45-2.61,1.28-5.9.78-8.71,1-6.19.5-11.19,1.64-12.27,8.38a36.63,36.63,0,0,0,.27,10.66c.2,1.24,1.44,3.46,1.6,4.75A136.78,136.78,0,0,0,137,368C175,390,227.44,398.49,276.7,393.65Z" style="fill:#BA68C8;opacity:0.2"></path><path d="M406.53,285.64s0-.08,0-.12,0,0,0-.12h0c-5.81-17.45-20.41-34.12-43.82-47.63-36.69-21.19-86.79-29.86-134.52-26.12l-2.73.25L224,212c-1.31.12-2.62.25-3.93.4l-1.16.13c-30,3.41-58.63,11.79-81.87,25.21-53.43,30.85-61,78.14-22.8,113.67a40.84,40.84,0,0,1-2.36-6,64.57,64.57,0,0,1-1.33-10.35c-.27-3.23-1.6-8.41,2-10.37,1.86-1,4-.73,6.07-.73,4.43,0,11.88-1.46,12.82-7,1-6.18-9.53-5-12.61-6.3-5.67-2.32,2.23-10,3.87-11.8-.74,3.95,4.39,4.82,7.13,4.31,3.61-.68,6.75-1.63,9.48-4.12,1.27-1.17,3.58-3.41,3.88-5.5a2.59,2.59,0,0,0-.37-1.83c-1.31-2-4.89-1.14-6.94-1.26,1-3.34,4.84-5.57,5.66-9,1-4,2.62-5.72,6.39-7.7,3.06-1.6,7.9-2.57,9.35-6.11,1-2.56-1.21-5.5-2.51-7.6-1-1.59-1.53-3-.42-4.85.93-1.53,5.27-4.71,7.26-3.85.9.38.82,1.8,1.66,2.63,1.51,1.49,3.88,1.37,5.83,1.21,3.74-.32,9.07-2.36,11.17-5.66,3.79-6-4.68-6.54-8.29-6.72-.36-3.74,7.87-6.2,10.14-7,5.47-1.82,11.17-2.57,16.81-3.75,3.23-.68,6.42-1.86,9.71-2.21,2.42-.25,4.91.16,7.31-.34,5-1,7.38-3.92,9.64-7.31l2.11,1.25c4.57,2.64,9,4.82,14.39,5,3.25.14,6.16-1.05,9.38-1.29s8.48-.14,10.67,2.46c-.92,1.24-2.42,2.37-2.72,4-.69,3.68,3.09,5.54,5.89,6.55,3.75,1.36,13.36,2.72,13.76-3.43a17.59,17.59,0,0,1,10.33,2.94,37.75,37.75,0,0,0,4.18,2.62c1.75.79,3.57,1.49,5.33,2.25,1.39.6,3,1.19,2.35,2.83-1,2.63-5.7,3.2-1.26,6.19,4.75,3.21,11.08,2.7,16.13,5.56-1.43.23-8.62-.26-9.09,1.91-.61,2.83,6.07,5,7.92,5.64,4.61,1.69,10.56,3.48,15.48,3.25,4.25-.21,7.11-3.21,3.33-6.81,6.24.44,13,5,18.85,7.34,0,2.29-2.26,1.52-2.85,3.08-1.12,2.95,1.88,4.43,4,5.8s11.63,6,11.79.77c0,1.63,2.47,1.86,3.49,2.53a10.62,10.62,0,0,1,1.12.85H370l.26.15a8.61,8.61,0,0,1,2.83,5.1,32.15,32.15,0,0,1-.39,10.31c-1.11,6.29-5.44,9.72-11.22,11.79-5.43,1.95-12.09,3.76-14.54,9.72-2.38,5.78,7.51,7.64,11.34,8.07,5.3.6,16.44,1.46,16.58-6.27,0-1.62-1.76-3.63-.74-4.71,1.3-1.35,6.13-.4,7.73-.27,3.28.28,6.48-.44,7.86-3.85.77-1.9-.32-4.27.38-6,.5-1.24,2.36-2.11,3.42-3a12.79,12.79,0,0,0,4.34-6.11c1.64-4.25,4.24-1.18,6.29-3.77a10.93,10.93,0,0,0,2.61-7.26A5.14,5.14,0,0,0,406.53,285.64Z" style="fill:#BA68C8;opacity:0.2"></path></g><g id="freepik--Mother--inject-8"><g id="freepik--Hair--inject-8"><path d="M318.88,343.59c-20.22,15.18-42.54,26.25-48.85,33.18-3.93,4.3-4.7,11.24-3,17.67C220.7,397.35,172.55,388.54,137,368a134.78,134.78,0,0,1-16-10.74c4.65-17.72,30.46-26.71,54.6-29.21,28.77-3,44.82-7.62,52.77-16,14.06-14.91-2.57-25.57-15.62-33.11s-26.33-19.38-23.15-34.82c3.22-15.75,23.75-26.08,36.88-32.34h0c8.41-4.16,9.73-6.43,8.41-12.64-1.14-5.43-2.23-19.06-2.23-27.91V137.64a56.48,56.48,0,0,1-21.54-3,35.11,35.11,0,0,1-17.48-12.58c-7-10.63-15.35-28.76-17-39.65s-.6-17.09,8.61-32.34c9.66-16,19.53-25.3,26.8-29.85s20.6-5,37.82,5,31.65,18.7,31.65,45.68v85.56c0,12.44-.53,31.33,2.55,38,2.41,5.24,4.74,12.71-2.66,18.14-2.4,1.75-7.63,3.48-12.61,4.75-8.75,2.23-15.22,3.78-20.34,6.61-6.93,3.84-9.84,11.59-2.46,20.51a37.32,37.32,0,0,0,9.52,7.84c17.09,10.37,46.16,18.62,64.7,34.82S339.09,328.4,318.88,343.59Z" style="fill:#BA68C8"></path><path d="M318.88,343.59c-20.22,15.18-42.54,26.25-48.85,33.18-3.93,4.3-4.7,11.24-3,17.67C220.7,397.35,172.55,388.54,137,368a134.78,134.78,0,0,1-16-10.74c4.65-17.72,30.46-26.71,54.6-29.21,28.77-3,44.82-7.62,52.77-16,14.06-14.91-2.57-25.57-15.62-33.11s-26.33-19.38-23.15-34.82c3.22-15.75,23.75-26.08,36.88-32.34h0c8.41-4.16,9.73-6.43,8.41-12.64-1.14-5.43-2.23-19.06-2.23-27.91V137.64a56.48,56.48,0,0,1-21.54-3,35.11,35.11,0,0,1-17.48-12.58c-7-10.63-15.35-28.76-17-39.65s-.6-17.09,8.61-32.34c9.66-16,19.53-25.3,26.8-29.85s20.6-5,37.82,5,31.65,18.7,31.65,45.68v85.56c0,12.44-.53,31.33,2.55,38,2.41,5.24,4.74,12.71-2.66,18.14-2.4,1.75-7.63,3.48-12.61,4.75-8.75,2.23-15.22,3.78-20.34,6.61-6.93,3.84-9.84,11.59-2.46,20.51a37.32,37.32,0,0,0,9.52,7.84c17.09,10.37,46.16,18.62,64.7,34.82S339.09,328.4,318.88,343.59Z" style="fill:#fff;opacity:0.75"></path><g style="opacity:0.4"><path d="M298.17,357.69a71.45,71.45,0,0,1-11,3.23c-2,.36-4,.62-6,.86,3.9-2.92,9.92-5.57,7.48-11.44-1.55-3.74-4.76-6.85-6.95-10.2-5.49-8.38,5.05-13.77,10.73-18.19,3.75-2.91,6.05-7,5.13-11.77-.78-4-3.78-6.71-6.81-9.17-7.81-6.37-16.61-10.38-26.19-13.48-6.95-2.25-14.24-2.71-21.37-4.12-4.28-.85-8.68-1.22-12.87-2.53-9-2.79-13.66-11.54-23.2-12.55-1.88-.19-7.3.86-8-1.21-.45-1.42,1.78-2.67,1.79-4,0-2-1.33-1.46-2.46-2.42-4.74-4,12.39-8,4.28-11.59-2.71-1.2-8.39-.45-9.33-3.69-1-3.52,3.3-5.18,5.75-6.07.49-.18,1.08-.4,1.72-.66H201c8.74.21,14.77,7,23,9.32,6.35,1.78,12.91.65,19.36,1.47a82.76,82.76,0,0,1,8.51,1.48c1.13.27,2.28.8,3.43,1.18a47.61,47.61,0,0,1-4.74-3.33c-.81-.24-1.6-.45-2.32-.64C240.81,246.21,233,247,225.55,246c-4.86-.65-7.64-3.08-11.17-6.21a28.92,28.92,0,0,0-7.41-4.7c1-1.23.64-2.49-2.68-3.5-.16-2.9,5.84-2.41,7-4.5,1.35-2.45-4.4-2.86-.31-5.73,2.49-1.75,8.18-1.62,9.84-4.19.89-1.38.65-2.13-.11-2.53C208,221,192.41,230.53,189.64,244.1c-3.18,15.44,10.09,27.28,23.15,34.82s29.68,18.2,15.62,33.11c-7.95,8.42-24,13.07-52.77,16-24.14,2.5-49.95,11.49-54.6,29.21,1.49,1.18,3.06,2.33,4.66,3.47,1.78-2.93,3.78-5.65,6.87-7.49,8.83-5.25,20.29-6.1,30.3-6.67,3-.17,6.1,0,9.13-.34,1.12-.15,5.07-.27,5.8-1.23,2.78-3.66-4.38-5.37-6.47-5.7-2.94-.48-6.07-1.28-2.24-3.75,3.61-2.32,9.87-2.05,14-2.42,11.38-1,22.75-.58,34.14-1.07,2.49-.1,23.46-2.19,16-7.72-2.33-1.73-15.48-2.62-8-7.42,5.28-3.41,11.9-5,17.14-8.39,6.44-4.16-4-9.24-5.37-13.31-2.5-7.36,8.4-7.1,12.54-6.75,9.81.83,19.35,3.74,28.49,7.27,7,2.72,14.08,7.23,15.24,15.41.92,6.55-3.35,9.65-8,13.09-4.87,3.59-7.9,6.39-7.15,13.05.86,7.66,13.28,15.92,3.26,22.23a19.15,19.15,0,0,0-3.25,2.58c-5.52.61-11,1.26-16.31,3.37-1.9.75-5.46,1.66-5.17,4.3.24,2.11,3,2.34,3.84,4,3.14,6.39-8,6.24-11.25,6.08-4.64-.22-13.32-2.61-15.76,2.48-.73,1.52.38,2.72-1.25,4.22-2,1.83-6.59,1-9,1-6.79,0-14.14-.25-20.48,2.65l-.92.46a272.69,272.69,0,0,0,65.2,3.69c-1.74-6.43-1-13.37,3-17.67C274.18,372.2,285.3,365.84,298.17,357.69Z" style="fill:#fff"></path><path d="M263.49,75.43c-2.21,1.66-1.66,5.17-2.16,7.65s-2.82,9-1,11.33c3,3.93,12.29-5.24,13.77-7.77a14.18,14.18,0,0,0,1.75-7.87c-.15-1.62-1-4.54.9-5.49a3.55,3.55,0,0,1,1.91-.1c4.42.23.83-9,.71-11.2a17.11,17.11,0,0,1,.65-5,38,38,0,0,0-5-11.63,7,7,0,0,0-1.13,3.44c-.16,3.13,1.64,5.73,1.94,8.74.11,1.12,1.28,5-.5,5.26-.61.08-.87-.36-1.47,0-2,1.09.35,4.67.26,6.22C273.63,76,267,72.78,263.49,75.43Z" style="fill:#fff"></path><path d="M243.42,157.53c-5.68,1.07-8.89,5.4-10.7,10.76v2.91a205.39,205.39,0,0,0,1.72,24.88c1.42-3.6,4.13-9.44,5.36-12,2.3-4.79,5.14-5.47,10-4.64,3.65.62,7.78,3.21,11.45,1.33,5.76-2.95,7.77-12.06,8.53-17.78.68-5.16.9-10,5.32-13.37,2.22-1.68,4.57-2.64,6.46-4.7V103c-2.35,3.58-2.82,7.48-2.82,12,0,6.61,2.74,17.36-5.09,19.91-3.43,1.12-6.45,1.73-8.68,4.89-2.65,3.77-1.68,8.56-1.8,12.89-.13,4.78-3.42,9.71-8.91,7.73C250.48,159,247.91,156.68,243.42,157.53Z" style="fill:#fff"></path><path d="M276.58,91.87c-.09-.11-.17.15-.17.2.31,3,.79,5.63-.14,8.56a23,23,0,0,1-4.29,7.22,11.45,11.45,0,0,0-2.38,8c.15,2.78,1.13,5.79.78,8.57-.33,2.59-3.84,3.44-5.84,4.43a21.62,21.62,0,0,0-6.36,4.42,12.27,12.27,0,0,0-3.16,7.35c-.21,2.91.78,5.47,1.69,8.18,1.06,3.11,1,6.31-1.5,8.75-2.17,2.09-4.82.84-7.64,0-.93-.28-1.52,3.31-.9,3.63a9.06,9.06,0,0,0,12.78-5.84c.88-3.06-.12-5.93-1.1-8.83-1.06-3.11-1.13-6.31.68-9.18,1.57-2.49,4.11-4.06,6.68-5.36,2.24-1.13,5.49-2,6.79-4.29,1.43-2.57.44-6.12.12-8.86-.39-3.32-.26-6.32,1.71-9.12a18.38,18.38,0,0,0,3.7-8.65C278.35,98.26,278.39,94.23,276.58,91.87Z" style="fill:#fff"></path><path d="M211.18,134.66a56.48,56.48,0,0,0,21.54,3V171.2c0,8.85,1.09,22.48,2.23,27.91,1.24,5.84.15,8.2-7,11.92-.44.24-.91.48-1.42.72h0l-1.78.86a29.58,29.58,0,0,0,9.09-3.09c3.76-2.11,7.13-5.1,6.83-9.64-.25-3.85-1.63-7.71.37-11.35s5.12-4.43,3.55-9.18c-1-3-3.73-5.15-5-8.1-2.72-6.46,0-10.28,2.46-11.95,7.65-5.22,23.68-3,17.57-16.58-2.54-5.62-3.58-6.79.29-12.26a59.24,59.24,0,0,0,5.92-10c4.26-10,2.92-20.88,3.89-30,.8-7.52,1.2-12.95.47-16.89-.66-3.54-.83-3.69-4.13-2-4.05,2.09-7.78,3.78-9.62,8.24-2.3,5.59-3.48,11.31-6.45,16.68-5.87,10.57-19.76,23.33-30.22,10.48-2-2.49-3.07-5.29-4.46-8.11-1.57-3.19-4.42-4.76-7.44-6.5-6.4-3.69-11.06-4-18.21-3.5-5.33.4-8.62-.47-11.29-5.4a23.92,23.92,0,0,1-2.21-5.73c0,.72.12,1.46.2,2.21a.25.25,0,0,1,0,.08c.09.77.19,1.55.32,2.37,1.64,10.89,10,29,17,39.65A35.11,35.11,0,0,0,211.18,134.66Z" style="fill:#BA68C8;opacity:0.30000000000000004"></path><path d="M202.32,36.47c2.22-.55,8.41-2.62,10.47-.68s-2.14,7.47-2.64,9.44c-1.28,5,1.23,6.72,5.62,6.91,1.55.07,4.48-.27,5.77.82,1.11.95.73,1.71.82,3.17.21,3.78,2.18,2.32,5.39,2.79a6.58,6.58,0,0,1,5.64,6.56c2.4-2.77,3.46-9,3.22-12.65s-1.34-6.68-4.42-8.65c-2.2-1.42-7.87-1-8-4.14S229.14,36,229.4,33c.51-5.74-12-4.32-14.78-7.43-1.62-1.81-1-4.39.62-6.82a18.12,18.12,0,0,0-3.12,1.54c-4.89,3.07-11,8.29-17.37,16.26C197,37.41,200.13,37,202.32,36.47Z" style="fill:#fff"></path><path d="M306.94,311.63c-1-4.72-4.18-8.51-8-11.29a80.69,80.69,0,0,0-7.29-4.55,50.08,50.08,0,0,0-8.7-3.67c-.9-.33-.65.16-.51.22a91.08,91.08,0,0,1,14.87,8.43c4.1,2.89,7.77,7.06,8,12.39.19,4.46-2.49,8.26-5.86,10.8s-7.87,3.64-11.16,6.42a8,8,0,0,0-3,5.46,9.15,9.15,0,0,0,3.21,7.28c.79.65,1-1.07.7-1.49-1.26-2.1-1.72-4.62-.33-6.8a12,12,0,0,1,4.46-3.69c3.95-2.22,7.74-4.22,10.6-7.85A14.33,14.33,0,0,0,306.94,311.63Z" style="fill:#fff"></path><path d="M318.88,343.59c20.21-15.19,19.95-40.24,1.41-56.44-15.76-13.77-39.12-21.79-56.27-30.26-.82-.11-1.63-.22-2.42-.35-3.24-.52-6.47-1.06-9.8-1.33-6.08-.49-12.13,1-18.18,1.31a26.15,26.15,0,0,1-9.07-.88,16.56,16.56,0,0,1-3.58-1.57c-1.11-.68-2.33-1.89-3.74-1.76-.2,1.82,4.81,4.16,6.12,4.76a27,27,0,0,0,8.49,2.06c6,.58,12.11-.1,18.15.5a85.86,85.86,0,0,1,18.25,3.8c1.91.62,5.46,1.52,2.29,2.81-1.62.66-11.22-.09-11.34,1.87-.1,1.66,4.51,3.35,5.64,3.71,4,1.28,8.53,1.07,12.69,1.8a78.31,78.31,0,0,1,12,2.95c1.62.55,4.24,1,5,2.7-1,.41-2.21.65-2.89,1.54,1.66,1.74,5.13,1.49,7.36,1.75,3.94.46,7.9,2,11.56,3.54,3,1.21,6.56,2.48,9.12,4.5,2.13,1.69,2.75,2.87.23,3.7-2.31.77-9.83,1.11-10.35,4.2s8.09,5.43,10.09,6.55c2.38,1.33,5.27,2.62,4,5.54-1.32,3.08-3.31,4.33,0,7.16,2.32,2,5.74,3.25,6.9,6.35,1.22,3.28-3.12,4.22-5.77,5.43-2.41,1.11-8.14,1.71-8.64,4.8-.37,2.28,2,4.3,2,6.74,0,1.67-.78,2.79-1.36,4.1Z" style="fill:#fff"></path></g><path d="M255.4,56a23.53,23.53,0,0,0-.32-4.75c-.22-1.56-.53-3.11-.88-4.64a50.21,50.21,0,0,0-2.86-8.9,36.72,36.72,0,0,0-4.74-8,65.92,65.92,0,0,0-6.45-7,30.27,30.27,0,0,1,7.7,5.89,28.33,28.33,0,0,1,5.44,8.2,36,36,0,0,1,2.54,9.45,34.42,34.42,0,0,1,.29,4.87A15.67,15.67,0,0,1,255.4,56Z" style="fill:#BA68C8;opacity:0.2"></path><g style="opacity:0.15"><path d="M136.15,367.5c.76-1.49,1.57-3,2.46-4.39a48.22,48.22,0,0,1,9.77-11.2,59.84,59.84,0,0,1,12.56-8.08,124.53,124.53,0,0,1,14.12-5.52,66.16,66.16,0,0,0-14.79,4,50.11,50.11,0,0,0-13.26,8,42.13,42.13,0,0,0-9.82,12,46.34,46.34,0,0,0-2.17,4.56Z" style="fill:#BA68C8"></path><path d="M305.33,336.34A83.5,83.5,0,0,1,291,343.53c-5,2-10.09,3.75-15.23,5.38l-15.46,4.91-3.87,1.28-3.86,1.45c-1.26.55-2.5,1.15-3.75,1.73s-2.41,1.34-3.62,2a37.32,37.32,0,0,0-11.94,11.35A36.25,36.25,0,0,0,227.61,387a47.26,47.26,0,0,0-.3,7l.63.05a43.4,43.4,0,0,1,.7-6.92,36.55,36.55,0,0,1,6-14.62,15.18,15.18,0,0,1,1.19-1.58l1.26-1.52c.89-1,1.86-1.88,2.78-2.81s2-1.7,3.09-2.48,2.16-1.52,3.31-2.18,2.29-1.32,3.48-1.9,2.41-1.12,3.63-1.64l3.74-1.38,3.85-1.26c10.26-3.35,20.68-6.43,30.67-10.78a76.4,76.4,0,0,0,14.32-7.86c4.38-3.21,8.4-7.2,10.66-12.17A33.26,33.26,0,0,1,305.33,336.34Z" style="fill:#BA68C8"></path><path d="M235.59,214.37a41.8,41.8,0,0,0-4.59,4,14.54,14.54,0,0,0-3.42,5,16,16,0,0,1,3.81-4.59,42.06,42.06,0,0,1,4.8-3.57,93.06,93.06,0,0,1,10.44-5.88c1.81-.85,3.63-1.67,5.47-2.44a30.92,30.92,0,0,0,5.54-2.85,10.78,10.78,0,0,0,4.22-5,15.56,15.56,0,0,0,.72-6.39,81.26,81.26,0,0,0-2.05-12.05,51.18,51.18,0,0,1-.93-5.85c-.09-1-.13-2-.15-2.95l-.07-3q-.21-12.09-.82-24.18-.62,12.09-.82,24.18l-.07,3c0,1,0,2.06.08,3.09a53.55,53.55,0,0,0,.81,6.1c.76,4,1.73,7.86,1.9,11.78a13.4,13.4,0,0,1-.54,5.53,8.91,8.91,0,0,1-3.43,4.1,29.65,29.65,0,0,1-5.12,2.79c-1.87.82-3.69,1.72-5.49,2.68A78.54,78.54,0,0,0,235.59,214.37Z" style="fill:#BA68C8"></path><path d="M199,370.53a61.46,61.46,0,0,1,15.09-11.24,49.08,49.08,0,0,0-16.25,10.07A45.65,45.65,0,0,0,187,385.28c-.28.69-.54,1.39-.79,2.09l2.06.51c.23-.61.45-1.2.7-1.8A49.07,49.07,0,0,1,199,370.53Z" style="fill:#BA68C8"></path><path d="M188.48,349.47A85.29,85.29,0,0,1,202.83,345c9.78-2.32,19.71-4,29.6-6,5-1,9.87-2,14.83-3.17a49.73,49.73,0,0,0,14.23-5.76,25.38,25.38,0,0,0,5.95-5.1,18.3,18.3,0,0,0,3.69-7,19.61,19.61,0,0,0,.37-7.92,27.49,27.49,0,0,0-2.32-7.47,45.43,45.43,0,0,0-9-12.52,92.43,92.43,0,0,0-11.79-9.71c-8.3-5.86-17.17-10.72-25.57-16.18A80,80,0,0,1,211,255a25.69,25.69,0,0,1-4.72-5.64,12.89,12.89,0,0,1-1.7-6.95,17.28,17.28,0,0,1,2-7,30.54,30.54,0,0,1,4.21-6.16,46.73,46.73,0,0,1,5.37-5.25,47.53,47.53,0,0,1,6.13-4.4,47,47,0,0,0-11.91,9.29,30.83,30.83,0,0,0-4.5,6.16,18.21,18.21,0,0,0-2.28,7.34,13.78,13.78,0,0,0,1.69,7.57,16.53,16.53,0,0,0,1,1.67c.39.52.79,1,1.2,1.54.83,1,1.69,1.91,2.6,2.81A81.1,81.1,0,0,0,222,265.47c8.36,5.74,17.23,10.56,25.36,16.41a91.61,91.61,0,0,1,11.46,9.56,43.33,43.33,0,0,1,8.49,12,26.32,26.32,0,0,1,2.18,6.91,17.57,17.57,0,0,1-.28,7.08,16.29,16.29,0,0,1-3.25,6.27,23.61,23.61,0,0,1-5.46,4.73A48,48,0,0,1,246.8,334c-4.84,1.2-9.81,2.21-14.71,3.31-9.83,2.18-19.74,4.08-29.53,6.61a85.56,85.56,0,0,0-14.32,5,35.41,35.41,0,0,0-6.48,3.95,22.89,22.89,0,0,0-5,5.62C179.58,354.32,183.92,351.46,188.48,349.47Z" style="fill:#BA68C8"></path><path d="M273.62,208.68c-3.95,2.84-8.67,4.63-13.09,6.85,2.33-.88,4.65-1.73,7-2.68a42.45,42.45,0,0,0,6.73-3.32,12.47,12.47,0,0,0,5-5.8,10.7,10.7,0,0,0,.77-3.89,12.55,12.55,0,0,0-.66-3.89c-.81-2.45-1.82-4.66-2.5-7a34.23,34.23,0,0,1-1.34-7.1c-.23-2.4-.18-9.37-.17-11.87l0-7.43c0-9.91-.07-19.83-.24-29.74s-.41-19.82-.82-29.74q-.62,14.88-.82,29.74c-.17,9.91-.22,19.83-.24,29.74l0,7.43c0,2.46,0,9.54.25,12.07a36.45,36.45,0,0,0,1.57,7.45c.75,2.43,1.87,4.72,2.7,6.95a11,11,0,0,1,.7,3.38,9.64,9.64,0,0,1-.55,3.39A11.28,11.28,0,0,1,273.62,208.68Z" style="fill:#BA68C8"></path><path d="M307.16,317.59a23.42,23.42,0,0,1-4.88,6.47,21.1,21.1,0,0,0,8-14.08,25.28,25.28,0,0,0-.42-8.36,27.13,27.13,0,0,0-3.1-7.8,24.82,24.82,0,0,0-5.31-6.55l-.79-.72-.83-.63-1.68-1.27c-1.15-.76-2.3-1.55-3.48-2.27-4.72-2.87-9.62-5.35-14.54-7.77l-14.84-7c-4.93-2.32-9.87-4.67-14.52-7.39a37.64,37.64,0,0,1-11.6-11,24.44,24.44,0,0,1-3.3-7.32c-.2-.65-.27-1.32-.41-2s-.17-1.35-.17-2a17.31,17.31,0,0,1,.32-4.06,17.4,17.4,0,0,0-.29,8.18,25.06,25.06,0,0,0,3,7.75,37.19,37.19,0,0,0,11.6,11.82,153,153,0,0,0,14.53,7.81l14.77,7.1c4.91,2.38,9.78,4.83,14.43,7.59,1.17.68,2.29,1.43,3.43,2.14l1.61,1.18.82.59.74.65a24.81,24.81,0,0,1,5.11,6,25.13,25.13,0,0,1,3.9,15.2A19.72,19.72,0,0,1,307.16,317.59Z" style="fill:#BA68C8"></path></g></g><g id="freepik--Face--inject-8"><path d="M205.74,84.26c-3.12.22-3.18-2.38-3.18-6.81s-3.6-8.52-10-7.46-9.88,7.22-9.76,15.5,3.06,13.13,6.82,15.14,7.91,1.74,9.54-.26c0,0-4.38,22.85-7.6,28.19s-16.51,9.53-16.51,9.53a51.06,51.06,0,0,0,31.8,23.24c22.26,5.25,25.85,4,25.85,4V137.64c2.3.66,9.36,1,14-1.59,9.89-5.57,14.6-15.67,18.18-24.11,3.79-8.94,3.22-18.4,3.79-20.84,1.23-5.24,3.71-8.29,4.37-13.93.93-8-1.7-15.72-5.9-18.51a8.68,8.68,0,0,0-10.47.82c-2,1.7-3.29,1.2-5-1.93a17.28,17.28,0,0,0-19.58-7.11c-10.79,3-16.36,11.56-18.54,17.9C210.23,78,210.27,83.94,205.74,84.26Z" style="fill:#b16668"></path><path d="M230.79,86.77c-1.7-.82-2-3.27-4.23-3.28s-4.92,1.12-6-1.36c-.49,2.94,2.08,3.76,3.67,3.68s1.34,2.37,4.16,3.81a7.61,7.61,0,0,0,8.32-.85c.61-.57.53-1.24-1.08-1.2A10.71,10.71,0,0,1,230.79,86.77Z" style="fill:#37474f"></path><path d="M237.38,81.41a5.1,5.1,0,0,0-1.67-2.28,6.52,6.52,0,0,0-2.76-1.4,9.14,9.14,0,0,0-3.17-.23,6.73,6.73,0,0,0-1.25.24,4.3,4.3,0,0,0-.74.31,2.26,2.26,0,0,0-.88.6c-.36.57.45.69.86.71,1.26.07,2.17,0,3.42.06a9.17,9.17,0,0,1,3.44.82c.77.38,1.75,1.1,2.52,1.5C237.3,81.81,237.41,81.51,237.38,81.41Z" style="fill:#9a4a4d"></path><path d="M264.86,90.17a5.14,5.14,0,0,0-.95-2.42A4.68,4.68,0,0,0,262,86.11a5.52,5.52,0,0,0-2.4-.52,4.34,4.34,0,0,0-1,.12,3.79,3.79,0,0,0-.61.23,2.06,2.06,0,0,0-.77.52c-.36.53.25.72.56.78,1,.18,1.67.19,2.62.38a5.7,5.7,0,0,1,2.52,1.13c.54.45,1.18,1.26,1.71,1.72C264.74,90.56,264.86,90.27,264.86,90.17Z" style="fill:#9a4a4d"></path><path d="M254.69,91.94c-1.44,0-1.8,1-.39,1.7s3,3.09,5.58,3.1c3.1,0,4.24-1.5,4.57-1.3a3.4,3.4,0,0,0,4.21,0,2.54,2.54,0,0,1-2.8-1.62c-.83-1.46-2.12-1.44-4.21-.56-2.31,1-3.4,0-4.52-.77A3.6,3.6,0,0,0,254.69,91.94Z" style="fill:#37474f"></path><path d="M223.86,72.64c1.61-2.74,7-3.75,11-3.2s7,3,7.28,5.07-.91,3.23-2.3,2.39-3.44-3.17-6.6-3.7a19,19,0,0,0-8,.19C224,73.69,223.17,73.82,223.86,72.64Z" style="fill:#BA68C8"></path><path d="M223.86,72.64c1.61-2.74,7-3.75,11-3.2s7,3,7.28,5.07-.91,3.23-2.3,2.39-3.44-3.17-6.6-3.7a19,19,0,0,0-8,.19C224,73.69,223.17,73.82,223.86,72.64Z" style="fill:#fff;opacity:0.65"></path><path d="M268.66,84.43a6.93,6.93,0,0,0-3.2-5.61c-2.3-1.51-6.2-1.74-7.42-1.18-2,.92-1.56,2.9,0,3.28s4.53.55,6.42,1.21a4.48,4.48,0,0,1,3.08,2.55C268.1,85.72,268.72,85.79,268.66,84.43Z" style="fill:#BA68C8"></path><path d="M268.66,84.43a6.93,6.93,0,0,0-3.2-5.61c-2.3-1.51-6.2-1.74-7.42-1.18-2,.92-1.56,2.9,0,3.28s4.53.55,6.42,1.21a4.48,4.48,0,0,1,3.08,2.55C268.1,85.72,268.72,85.79,268.66,84.43Z" style="fill:#fff;opacity:0.65"></path><path d="M243.2,85.49c-.89,2.75-5.1,15.74-6.17,19.76s-1.66,5,1.39,6.21,7.66,1.54,8.81-1.68.85-13,0-18.33S244.52,81.4,243.2,85.49Z" style="fill:#9a4a4d"></path><path d="M248.23,118.45c-2.12.42-3.33-.54-5.31-.91a6.77,6.77,0,0,0-4.26.64c-.72-2-3.27-2.56-5.33-2.94-1.21-.23-2.45-.3-3.64-.63a8.35,8.35,0,0,1-2.95-1.18c-.07-.06-.13.12-.1.17,1.21,2,2.88,2.81,5.13,3.36s4.89.62,5.93,3.05c.21.49.72.39,1,.17,1.23-.9,3.18-.83,4.61-.78,1.6.07,3.29.63,4.72-.1C248.84,118.91,248.74,118.35,248.23,118.45Z" style="fill:#9a4a4d"></path><path d="M243,122.68a7,7,0,0,1-3.54,1.12,10.1,10.1,0,0,1-3.69-.32,9.23,9.23,0,0,1-3.59-2.21,6.2,6.2,0,0,1-.8-1,2.56,2.56,0,0,0-.58-.77c-.05,0-.11,0-.12.07a4,4,0,0,0,.94,3.15,7.1,7.1,0,0,0,3.61,2.64,7.91,7.91,0,0,0,4.72,0,5.24,5.24,0,0,0,3.15-2.26C243.19,123,243.24,122.52,243,122.68Z" style="fill:#9a4a4d"></path><path d="M232.71,137.64c-7.44-2.18-15.08-5.59-21.58-12.93-4.85-5.48-6.25-11.59-7.15-18.23-.92,4.48-.89,11.88,4.42,20.17s16.86,16.06,24.31,17.34Z" style="fill:#9a4a4d"></path><path d="M192.57,74.88c-3.16.62-4.29,4.28-3.82,7.09.12.76.32,1.5.44,2.26a12.22,12.22,0,0,1-.07,3.08,10.25,10.25,0,0,0,.29,4.16,4.72,4.72,0,0,0,2.19,2.71,3.36,3.36,0,0,0,2.51-.11,4,4,0,0,0,1.16-.63c.09-.08.7-.9.32-1-.59-.1-1.23.31-1.84.34a2.73,2.73,0,0,1-2.85-2.69c-.27-2.21.61-4.38.38-6.57-.2-1.8,0-4.1,1.67-5.21a3.29,3.29,0,0,1,2.76-.53,3.17,3.17,0,0,1,1.84,2.5c.18.87,1.14.68,1.19-.14A5.25,5.25,0,0,0,192.57,74.88Z" style="fill:#9a4a4d"></path><path d="M223,99.24c-1.71,3-6,3.69-9.62,1.61s-5.12-6.17-3.41-9.13,6-3.7,9.62-1.62S224.75,96.27,223,99.24Z" style="fill:#f28f8f"></path><ellipse cx="263.46" cy="106.48" rx="7.52" ry="6.21" style="fill:#f28f8f"></ellipse></g><g id="freepik--flower--inject-8"><path d="M200.88,65.4c-2.73-3.71-2.53-9.87.25-13.48a17.6,17.6,0,0,1,9-6.31,16,16,0,0,1,5.4-.63,9.94,9.94,0,0,0-.93,5.47c.17,3.06,0,7-2.29,10.42C209.83,64.47,206,66.34,200.88,65.4Z" style="fill:#455a64"></path><path d="M208.8,48.16a11,11,0,0,1,2-1.29c.48-.24.13.24,0,.33a17.75,17.75,0,0,0-3,3.6A29.31,29.31,0,0,0,205.68,55c-1.09,2.59-1.49,5-2.13,6.84-.05.15-.41.32-.44.07a13.72,13.72,0,0,1,.15-3.87,17.9,17.9,0,0,1,1.26-4.56A15.8,15.8,0,0,1,207,49.75,14,14,0,0,1,208.8,48.16Z" style="fill:#37474f"></path><path d="M199.43,65.06c2.59-3.81,2.14-10-.79-13.45a17.47,17.47,0,0,0-9.19-5.94,15.84,15.84,0,0,0-5.42-.42,10,10,0,0,1,1.15,5.43c-.05,3.07.29,7,2.7,10.32C190.46,64.5,194.37,66.21,199.43,65.06Z" style="fill:#37474f"></path><path d="M190.83,48.15a12.15,12.15,0,0,0-2.09-1.2c-.49-.22-.12.25,0,.33a17.54,17.54,0,0,1,3.12,3.48,29.11,29.11,0,0,1,2.38,4.05c1.2,2.55,1.69,4.94,2.41,6.75.05.15.41.31.43,0a13.14,13.14,0,0,0-.3-3.85,17.67,17.67,0,0,0-1.44-4.5,15.69,15.69,0,0,0-2.67-3.58A13.29,13.29,0,0,0,190.83,48.15Z" style="fill:#263238"></path><path d="M189.79,59.92s-5.76-.25-6.53,7.94,4.35,10,4.35,10a7.91,7.91,0,0,0,3.07,3.2c2.31,1.41,5.76.64,5.76.64a8.77,8.77,0,0,0,6.14-1.79c3.2-2.3,2.69-3.33,2.69-3.33s3.46-2.17,3.84-7.93a10,10,0,0,0-4.35-8.71,6.83,6.83,0,0,0-6.14-4C193.88,55.7,189.79,59.92,189.79,59.92Z" style="fill:#BA68C8"></path><g style="opacity:0.2"><path d="M187.18,73.45a7.29,7.29,0,0,0,.72,3.13,6.25,6.25,0,0,0,2.58,2.36,5.39,5.39,0,0,0,3.19.49c.79-.12,2.57-.47,2.78-1.41.05-.24-.15-.6-.43-.53-1,.21-1.8.82-2.87.76a5.32,5.32,0,0,1-2.55-.86,7.18,7.18,0,0,1-3-4c-.07-.28-.41-.26-.38,0Z"></path></g><g style="opacity:0.2"><path d="M202.58,60.61c.54.44,1.24.66,1.8,1.07a4.3,4.3,0,0,1,1.2,1.45,8.8,8.8,0,0,1,1.24,4.62c0,.15.08.15.15,0a4.33,4.33,0,0,0,.6-3.36,4.18,4.18,0,0,0-1.14-2.2,6.22,6.22,0,0,0-1.84-1.38c-.62-.29-1.32-.25-1.93-.55-.16-.08-.16.26-.08.33Z"></path></g><path d="M192.19,59.71a10.61,10.61,0,0,0,1.28-.29,14.75,14.75,0,0,1,2.4-.19,9,9,0,0,1,4.17.84,7,7,0,0,1,2.57,2.28,13.42,13.42,0,0,1,1.16,1.92,12.43,12.43,0,0,1,.57,2.45s0,0,0,0a8.73,8.73,0,0,0,0-4.33,7.12,7.12,0,0,0-3-3.53,8.7,8.7,0,0,0-9.19.67c-.05,0-.09.18,0,.2Z" style="fill:#BA68C8"></path><g style="opacity:0.2"><path d="M192.19,59.71a10.61,10.61,0,0,0,1.28-.29,14.75,14.75,0,0,1,2.4-.19,9,9,0,0,1,4.17.84,7,7,0,0,1,2.57,2.28,13.42,13.42,0,0,1,1.16,1.92,12.43,12.43,0,0,1,.57,2.45s0,0,0,0a8.73,8.73,0,0,0,0-4.33,7.12,7.12,0,0,0-3-3.53,8.7,8.7,0,0,0-9.19.67c-.05,0-.09.18,0,.2Z" style="fill:#fff"></path></g><path d="M199.44,74.31a5.17,5.17,0,0,0,2-2,6.29,6.29,0,0,0,1.06-3.21,7.55,7.55,0,0,0-.45-3.23,4.82,4.82,0,0,0-3-2.68c-.13,0-.86-.06-.77,0,.28.29.89.71,1.21,1.1a6.09,6.09,0,0,1,1,1.61,8.44,8.44,0,0,1,.54,3,10.41,10.41,0,0,1-.39,2.77A7.61,7.61,0,0,1,199.44,74c-.06.1-.2.38,0,.3Z" style="fill:#BA68C8"></path><g style="opacity:0.2"><path d="M199.44,74.31a5.17,5.17,0,0,0,2-2,6.29,6.29,0,0,0,1.06-3.21,7.55,7.55,0,0,0-.45-3.23,4.82,4.82,0,0,0-3-2.68c-.13,0-.86-.06-.77,0,.28.29.89.71,1.21,1.1a6.09,6.09,0,0,1,1,1.61,8.44,8.44,0,0,1,.54,3,10.41,10.41,0,0,1-.39,2.77A7.61,7.61,0,0,1,199.44,74c-.06.1-.2.38,0,.3Z" style="fill:#fff"></path></g><path d="M206.14,67.12c0,.6,0,.93,0,1.53a13.3,13.3,0,0,1-.42,2.65A10.88,10.88,0,0,1,204.52,74c-.21.36-.4.73-.64,1.08a5.5,5.5,0,0,0-.76,1c-.05.13-.35.43-.16.39a5.91,5.91,0,0,0,2.65-1.91,9.63,9.63,0,0,0,1.27-2.74,7.18,7.18,0,0,0-.8-6.18c-.15-.21-.1.17-.06.36A6.67,6.67,0,0,1,206.14,67.12Z" style="fill:#BA68C8"></path><g style="opacity:0.2"><path d="M206.14,67.12c0,.6,0,.93,0,1.53a13.3,13.3,0,0,1-.42,2.65A10.88,10.88,0,0,1,204.52,74c-.21.36-.4.73-.64,1.08a5.5,5.5,0,0,0-.76,1c-.05.13-.35.43-.16.39a5.91,5.91,0,0,0,2.65-1.91,9.63,9.63,0,0,0,1.27-2.74,7.18,7.18,0,0,0-.8-6.18c-.15-.21-.1.17-.06.36A6.67,6.67,0,0,1,206.14,67.12Z" style="fill:#fff"></path></g><path d="M202.9,72.79a8.59,8.59,0,0,1-2.06,2.14,12.29,12.29,0,0,1-3.06,1.67,8.63,8.63,0,0,1-2.62.5,11.06,11.06,0,0,1-3.81-.48c-.24-.07,0,.27.08.39a3.94,3.94,0,0,0,2.15,1.37,7.12,7.12,0,0,0,3.46-.1,8.74,8.74,0,0,0,3.31-1.75,5.92,5.92,0,0,0,1.35-1.34,8.6,8.6,0,0,0,1.18-1.78c.06-.14.42-1,.22-.91Z" style="fill:#BA68C8"></path><g style="opacity:0.2"><path d="M202.9,72.79a8.59,8.59,0,0,1-2.06,2.14,12.29,12.29,0,0,1-3.06,1.67,8.63,8.63,0,0,1-2.62.5,11.06,11.06,0,0,1-3.81-.48c-.24-.07,0,.27.08.39a3.94,3.94,0,0,0,2.15,1.37,7.12,7.12,0,0,0,3.46-.1,8.74,8.74,0,0,0,3.31-1.75,5.92,5.92,0,0,0,1.35-1.34,8.6,8.6,0,0,0,1.18-1.78c.06-.14.42-1,.22-.91Z" style="fill:#fff"></path></g><path d="M194.23,62.35c-2.23-.17-4.6,2.81-4.5,4.91S191,72,193.1,72.62c.31.1.24-.37.11-.5a5.9,5.9,0,0,1-1.85-3.46,4.82,4.82,0,0,1,0-2.07,7.45,7.45,0,0,1,2.21-3.47c.18-.14.58-.39.76-.53s.09-.22-.1-.24Z" style="fill:#BA68C8"></path><g style="opacity:0.2"><path d="M194.23,62.35c-2.23-.17-4.6,2.81-4.5,4.91S191,72,193.1,72.62c.31.1.24-.37.11-.5a5.9,5.9,0,0,1-1.85-3.46,4.82,4.82,0,0,1,0-2.07,7.45,7.45,0,0,1,2.21-3.47c.18-.14.58-.39.76-.53s.09-.22-.1-.24Z" style="fill:#fff"></path></g><path d="M188.5,61.94a5.36,5.36,0,0,0-1.58,1.53A8.51,8.51,0,0,0,185.64,66a8.19,8.19,0,0,0-.14,4.17,8.89,8.89,0,0,0,1.71,3.57,5.21,5.21,0,0,0,3.68,2.07c.36.06.31-.13.06-.22-2.51-.88-3.71-3.93-4-6.41a9.54,9.54,0,0,1,.24-3.84,17.34,17.34,0,0,1,1.9-3.61c0-.07-.43.14-.58.23Z" style="fill:#BA68C8"></path><g style="opacity:0.30000000000000004"><path d="M188.5,61.94a5.36,5.36,0,0,0-1.58,1.53A8.51,8.51,0,0,0,185.64,66a8.19,8.19,0,0,0-.14,4.17,8.89,8.89,0,0,0,1.71,3.57,5.21,5.21,0,0,0,3.68,2.07c.36.06.31-.13.06-.22-2.51-.88-3.71-3.93-4-6.41a9.54,9.54,0,0,1,.24-3.84,17.34,17.34,0,0,1,1.9-3.61c0-.07-.43.14-.58.23Z" style="fill:#fff"></path></g><g style="opacity:0.2"><path d="M191.21,60.89a6.83,6.83,0,0,0-3.8,5.4,6.23,6.23,0,0,0,1.09,3.79,4.93,4.93,0,0,0,3.09,2c.1,0,0-.07,0-.13a10.15,10.15,0,0,1-1.17-1.15,5,5,0,0,1-.64-1.23,8.37,8.37,0,0,1-.7-3.46c.06-2,1.39-3.29,2.31-4.92,0-.1,0-.41-.16-.32Z"></path></g><g style="opacity:0.2"><path d="M195.62,60.75a6,6,0,0,1,2.85.33,7.72,7.72,0,0,1,2.13,1.38,9.79,9.79,0,0,1,1.93,2.24,9.1,9.1,0,0,1,.92,3.25c0,.11.14.1.2,0a4.47,4.47,0,0,0,.22-3.22,6.67,6.67,0,0,0-1.58-2.89,5.94,5.94,0,0,0-2.59-1.68,5.13,5.13,0,0,0-4.06.3c-.15.07-.19.24,0,.27Z"></path></g><g style="opacity:0.2"><path d="M191.64,75.1a4.83,4.83,0,0,0,4.94.8A5.65,5.65,0,0,0,199,74.33a3.5,3.5,0,0,0,.95-3.16c-.05-.26-.14-.5-.29-.14a6.3,6.3,0,0,1-3.23,3.41c-1.27.57-3.79.83-5,0-.26-.18,0,.5.16.64Z"></path></g><g style="opacity:0.2"><path d="M205.07,66.91a7.45,7.45,0,0,1-.11,1.68c-.16.74-.27,1.5-.49,2.22A14.16,14.16,0,0,1,203,74.5a10,10,0,0,1-2.73,2.62,8.37,8.37,0,0,1-3.65,1.25c-.23,0,0,.14.19.18,2.86.6,5.92-1.42,7.46-3.7a9.08,9.08,0,0,0,1.43-3.68,9.79,9.79,0,0,0-.43-4.54c-.14-.4-.18-.37-.17.28Z"></path></g><path d="M196.08,65.36c-2.43-.34-3.89,1.41-4,3.84s.64,5.06,4.23,3.39S199.64,65.88,196.08,65.36Z" style="fill:#37474f"></path></g></g><g id="freepik--Hand--inject-8"><path d="M395.47,231c.95,3.52-1.19,11.84-6.11,18.95a40.55,40.55,0,0,0-7.31,26.46c.79,10.32.55,19.38-.12,24s3.72,4.06,8.09.9,5.88-13.67,5.88-17.71,2.44-8.43,4.83-6,3.78,11.58,2.64,21.53c-1,8.92-3.07,21.83-3.07,26.81s3.9,8.19,6.83,6.5c1.35-.78,3.06-7.93,3.06-7.93a4.73,4.73,0,0,0,4.31,1.68c2.79-.39,2.77-6.29,4.33-9.45A120,120,0,0,0,424,304.8c1.23-3.59,1.05-13.77,0-18.42s-3-19.3-4-24.87c-2.05-11.82-1.29-15.42-3.32-18.94-2.57-4.45-25.74-27.44-25.74-27.44Z" style="fill:#b16668"></path><path d="M420.29,280.84a66.45,66.45,0,0,1-.51,11.28c-.42,3.75-1,7.47-1.79,11.17A87.94,87.94,0,0,1,414.34,314l-4.15,10.48c.94-3.65,2.17-7.21,3.38-10.76l1.81-5.33a55.17,55.17,0,0,0,1.57-5.35c.81-3.64,1.42-7.35,2-11.05.3-1.85.57-3.7.79-5.56S420.19,282.72,420.29,280.84Z" style="fill:#9a4a4d"></path></g><g id="freepik--hand--inject-8"><path d="M54,281.4c2.08,14.93,5.75,27,12,45.55s20.3,41.57,23.17,48.2,10,30.62,14.26,35.59,12.93,8.91,12.93,8.91a67.11,67.11,0,0,0,11.24,8.5c7.38,3.5,13.33,5.85,16.89,7.6,2.78,1.36,6.93-.14,5.14-5.8A5.12,5.12,0,0,0,152,425c-.58-3-1.86-4.91-6.69-9.31-3.2-2.92-10.82-9.25-13.16-12.44s-6.42-12.83-8.26-16.74-1.52-6.3.21-6.2,7.43,4.11,11,7.54a12.75,12.75,0,0,0,10.76,3.6c2.78-.53,4.49-3.43,3.32-4.59s-5.64-6.16-7.53-8.48-9.4-15.21-13.6-19.12-12.67-9.69-16.75-14.12-8.68-14.3-11.34-25.73-5.42-37.74-5.42-37.74Z" style="fill:#b16668"></path><path d="M149.67,430a3.32,3.32,0,0,1-3.12-.12,13.59,13.59,0,0,1-2.74-1.72l-5-4c-1.68-1.3-3.33-2.65-5-3.91s-3.52-2.36-5.22-3.72A32,32,0,0,1,123.9,412a37.24,37.24,0,0,1-3.58-5.38c-2.13-3.7-4.18-7.44-6.1-11.25l6.8,10.83a45.58,45.58,0,0,0,3.62,5.18,32.23,32.23,0,0,0,4.56,4.33c1.61,1.33,3.43,2.45,5.14,3.77s3.37,2.65,5,4.05l4.82,4.21a13.56,13.56,0,0,0,2.53,1.87A3.31,3.31,0,0,0,149.67,430Z" style="fill:#9a4a4d"></path><path d="M116.4,419.65a56.3,56.3,0,0,1-6.15-8.65,43.67,43.67,0,0,1-4.3-9.71c1.74,3.09,3.45,6.14,5.22,9.17S114.74,416.51,116.4,419.65Z" style="fill:#9a4a4d"></path></g><g id="freepik--Pines--inject-8"><g id="freepik--Pine--inject-8"><path d="M119.43,260.13a1.7,1.7,0,0,0-3.2,0c-4.42,12.25-10.51,43.66-9.3,48.93,3.4,2.1,18.5,2.44,21.8,0C129.94,303.79,123.85,272.38,119.43,260.13Z" style="fill:#BA68C8"></path><path d="M118.63,295l4.6-8.66-4.68,5.73-.72-26.86-.56,16.35L114,276.86l3.18,7.69-.57,16.56-6.24-5.76,6.15,8.17L116,318.71c0,1,3.28,1,3.28,0L118.63,295Z" style="fill:#BA68C8"></path><path d="M118.63,295l4.6-8.66-4.68,5.73-.72-26.86-.56,16.35L114,276.86l3.18,7.69-.57,16.56-6.24-5.76,6.15,8.17L116,318.71c0,1,3.28,1,3.28,0L118.63,295Z" style="fill:#fff;opacity:0.8"></path></g><g id="freepik--pine--inject-8"><path d="M136.81,205.78a1.95,1.95,0,0,0-3.66,0c-5.07,14-12,50-10.66,56.07,3.9,2.41,21.2,2.79,25,0C148.85,255.81,141.88,219.82,136.81,205.78Z" style="fill:#BA68C8"></path><path d="M136.81,205.78a1.95,1.95,0,0,0-3.66,0c-5.07,14-12,50-10.66,56.07,3.9,2.41,21.2,2.79,25,0C148.85,255.81,141.88,219.82,136.81,205.78Z" style="opacity:0.15"></path><path d="M135.89,245.78l5.27-9.92-5.36,6.57L135,211.65l-.65,18.73L130.58,225l3.64,8.8-.65,19-7.15-6.6,7,9.36-.6,17.41c0,1.11,3.75,1.11,3.75,0l-.73-27.13Z" style="fill:#BA68C8"></path><path d="M135.89,245.78l5.27-9.92-5.36,6.57L135,211.65l-.65,18.73L130.58,225l3.64,8.8-.65,19-7.15-6.6,7,9.36-.6,17.41c0,1.11,3.75,1.11,3.75,0l-.73-27.13Z" style="fill:#fff;opacity:0.6000000000000001"></path></g><g id="freepik--pine--inject-8"><path d="M355.7,199.46a1.94,1.94,0,0,0-3.66,0c-5.07,14-12,50-10.66,56.07,3.9,2.4,21.21,2.78,25,0C367.74,249.48,360.77,213.49,355.7,199.46Z" style="fill:#BA68C8"></path><path d="M355.7,199.46a1.94,1.94,0,0,0-3.66,0c-5.07,14-12,50-10.66,56.07,3.9,2.4,21.21,2.78,25,0C367.74,249.48,360.77,213.49,355.7,199.46Z" style="opacity:0.15"></path><path d="M354.79,239.45l5.27-9.92-5.36,6.57-.83-30.78-.64,18.73-3.75-5.42,3.63,8.81-.65,19-7.15-6.59,7.06,9.35-.6,17.41c0,1.11,3.75,1.11,3.75,0l-.73-27.13Z" style="fill:#BA68C8"></path><path d="M354.79,239.45l5.27-9.92-5.36,6.57-.83-30.78-.64,18.73-3.75-5.42,3.63,8.81-.65,19-7.15-6.59,7.06,9.35-.6,17.41c0,1.11,3.75,1.11,3.75,0l-.73-27.13Z" style="fill:#fff;opacity:0.6000000000000001"></path></g><g id="freepik--pine--inject-8"><path d="M198.31,166.54a1.69,1.69,0,0,0-3.18,0c-4.4,12.19-10.46,43.47-9.26,48.72,3.39,2.08,18.42,2.42,21.7,0C208.77,210,202.72,178.73,198.31,166.54Z" style="fill:#BA68C8"></path><path d="M198.31,166.54a1.69,1.69,0,0,0-3.18,0c-4.4,12.19-10.46,43.47-9.26,48.72,3.39,2.08,18.42,2.42,21.7,0C208.77,210,202.72,178.73,198.31,166.54Z" style="opacity:0.15"></path><path d="M197.52,201.29l4.58-8.62-4.66,5.71-.72-26.74-.56,16.27-3.26-4.71,3.16,7.65-.57,16.48-6.21-5.72,6.13,8.12-.52,15.13c0,1,3.26,1,3.26,0l-.63-23.57Z" style="fill:#BA68C8"></path><path d="M197.52,201.29l4.58-8.62-4.66,5.71-.72-26.74-.56,16.27-3.26-4.71,3.16,7.65-.57,16.48-6.21-5.72,6.13,8.12-.52,15.13c0,1,3.26,1,3.26,0l-.63-23.57Z" style="fill:#fff;opacity:0.6000000000000001"></path></g><g id="freepik--pine--inject-8"><path d="M176.85,182.56a1.7,1.7,0,0,1,3.19,0c4.43,12.24,10.51,43.66,9.3,48.93-3.4,2.1-18.5,2.43-21.8,0C166.34,226.22,172.42,194.8,176.85,182.56Z" style="fill:#BA68C8"></path><path d="M184.11,212.81l-4.58,6.48-.48-14,2.47-8.36L179,202.66l-.52-15-.58,21.61-2.57-3.07,2.5,5.91-.33,12.27-5.32-5.29,5.22,8.88L177,241.14c0,1,3.27,1,3.27,0l-.61-17.68Z" style="fill:#BA68C8"></path><path d="M184.11,212.81l-4.58,6.48-.48-14,2.47-8.36L179,202.66l-.52-15-.58,21.61-2.57-3.07,2.5,5.91-.33,12.27-5.32-5.29,5.22,8.88L177,241.14c0,1,3.27,1,3.27,0l-.61-17.68Z" style="fill:#fff;opacity:0.8"></path></g><g id="freepik--pine--inject-8"><path d="M364.57,247a2.14,2.14,0,0,1,4,0c5.56,15.39,13.2,54.85,11.69,61.47-4.28,2.64-23.25,3.06-27.39,0C351.37,301.87,359,262.41,364.57,247Z" style="fill:#BA68C8"></path><path d="M373.69,285l-5.75,8.13-.61-17.56,3.11-10.5-3.22,7.17-.65-18.82-.73,27.16-3.22-3.86,3.13,7.42-.42,15.41-6.67-6.64,6.55,11.16-.44,16.51c0,1.22,4.11,1.22,4.11,0l-.76-22.2Z" style="fill:#BA68C8"></path><path d="M373.69,285l-5.75,8.13-.61-17.56,3.11-10.5-3.22,7.17-.65-18.82-.73,27.16-3.22-3.86,3.13,7.42-.42,15.41-6.67-6.64,6.55,11.16-.44,16.51c0,1.22,4.11,1.22,4.11,0l-.76-22.2Z" style="fill:#fff;opacity:0.8"></path></g><g id="freepik--pine--inject-8"><path d="M289.56,162.26a2,2,0,0,1,3.86,0c5.36,14.81,12.72,52.82,11.26,59.2-4.12,2.54-22.39,2.94-26.38,0C276.84,215.08,284.2,177.07,289.56,162.26Z" style="fill:#BA68C8"></path><path d="M289.56,162.26a2,2,0,0,1,3.86,0c5.36,14.81,12.72,52.82,11.26,59.2-4.12,2.54-22.39,2.94-26.38,0C276.84,215.08,284.2,177.07,289.56,162.26Z" style="opacity:0.15"></path><path d="M298.34,198.86l-5.53,7.84-.59-16.92,3-10.11-3.1,6.9-.62-18.12-.7,26.15-3.11-3.71,3,7.14-.4,14.85-6.43-6.4,6.31,10.74-.43,15.91c0,1.17,4,1.17,4,0L293,211.74Z" style="fill:#BA68C8"></path><path d="M298.34,198.86l-5.53,7.84-.59-16.92,3-10.11-3.1,6.9-.62-18.12-.7,26.15-3.11-3.71,3,7.14-.4,14.85-6.43-6.4,6.31,10.74-.43,15.91c0,1.17,4,1.17,4,0L293,211.74Z" style="fill:#fff;opacity:0.6000000000000001"></path></g><g id="freepik--pine--inject-8"><path d="M147.83,217.49a1.7,1.7,0,0,1,3.19,0c4.43,12.25,10.51,43.66,9.3,48.93-3.4,2.1-18.5,2.44-21.8,0C137.32,261.15,143.4,229.74,147.83,217.49Z" style="fill:#BA68C8"></path><path d="M148.62,252.4l-4.6-8.66,4.68,5.73.72-26.86L150,239l3.28-4.74-3.17,7.69.57,16.56,6.24-5.76-6.16,8.17.52,18c0,1-3.27,1-3.27,0l.63-26.52Z" style="fill:#BA68C8"></path><path d="M148.62,252.4l-4.6-8.66,4.68,5.73.72-26.86L150,239l3.28-4.74-3.17,7.69.57,16.56,6.24-5.76-6.16,8.17.52,18c0,1-3.27,1-3.27,0l.63-26.52Z" style="fill:#fff;opacity:0.8"></path></g><g id="freepik--pine--inject-8"><path d="M312,184.81a1.9,1.9,0,0,1,3.57,0c5,13.71,11.76,48.86,10.41,54.76-3.81,2.34-20.71,2.72-24.4,0C300.2,233.67,307,198.52,312,184.81Z" style="fill:#BA68C8"></path><path d="M312.85,223.87l-5.15-9.68,5.24,6.41.8-30.06.63,18.29,3.67-5.29-3.56,8.6.64,18.52,7-6.43-6.89,9.13.59,17c0,1.08-3.66,1.08-3.66,0l.71-26.5Z" style="fill:#BA68C8"></path><path d="M312.85,223.87l-5.15-9.68,5.24,6.41.8-30.06.63,18.29,3.67-5.29-3.56,8.6.64,18.52,7-6.43-6.89,9.13.59,17c0,1.08-3.66,1.08-3.66,0l.71-26.5Z" style="fill:#fff;opacity:0.8"></path></g></g></g><g id="freepik--Deer--inject-8"><g id="freepik--deer--inject-8"><path id="freepik--Shadow--inject-8" d="M346.11,355.48a32.37,32.37,0,0,1,4.55-1.61,15.28,15.28,0,0,1,6.09-.41c2.66.44,5.35,2.25,3.36,5.17-1.31,1.91-4.37,2.06-6.41,2.56a20.46,20.46,0,0,0-4.36,1.64c-.64.32-1.31.58-1.92.93-1.49.84-3.21,1.91-5,2.06a10.65,10.65,0,0,1-8.1-2.43c-1.18-.94-.65-2.21.35-3.09a12.68,12.68,0,0,1,4.15-2.13c.84-.31,1.69-.57,2.55-.84C343,356.82,344.56,356.13,346.11,355.48Z" style="fill:#BA68C8;opacity:0.2"></path><g id="freepik--deer--inject-8"><path d="M350.9,355.59a2.89,2.89,0,0,1-.08.94,1.61,1.61,0,0,1-1.69.55l0-.32-.33.13a4.17,4.17,0,0,1,.61-1.5Z" style="fill:#263238"></path><path d="M353.2,340.29c-.34.67-.43,3.1.45,4s1.13,1.39.91,1.84-2.29,4.53-2.69,5.89a21.1,21.1,0,0,0-.89,3.83s-1.25.55-1.85-.33c0,0,.51.21,2-3.68s1.47-4.8,1.2-5.43-1.88-1.49-2.72-3.51c0,0-.33-2.55,1.3-3.42S353.43,339.29,353.2,340.29Z" style="fill:#37474f"></path><path d="M340.39,359.58a3,3,0,0,1,.65.74,1.7,1.7,0,0,1-.82,1.68l-.26-.22-.14.35a4.29,4.29,0,0,1-.69-1.56Z" style="fill:#263238"></path><path d="M341.34,345.15c-.48.68-1.46,2.31-2.08,3.14a16.35,16.35,0,0,0-1.34,2.68,1.59,1.59,0,0,0-.09,1c.4,1.77,1.39,6.47,2.74,7.38a1.88,1.88,0,0,1-1.55,1.87s-.54-2.72-.86-4.09a41.71,41.71,0,0,0-1.44-5.06c-.42-1-.32-1.25.41-2.54s.9-5.08,1.07-5.72a2.1,2.1,0,0,1,2-.11A1.65,1.65,0,0,1,341.34,345.15Z" style="fill:#37474f"></path><path d="M335.41,328.81c0-.33.24-.84,1.24-1.52s2.53-.84,3.23-1.2.94.16.37.73-1,1.8-2.08,2.57a3.82,3.82,0,0,1-2.47.58Z" style="fill:#37474f"></path><path d="M330.52,329c0-.34-.21-.86-1.17-1.58s-2.49-.95-3.18-1.34-.94.12-.4.72.92,1.84,2,2.66a3.83,3.83,0,0,0,2.44.68Z" style="fill:#37474f"></path><path d="M340.12,316c0,.11.3,3.93.3,3.93l-1.89,2-.69,3-2.94,3.42-1-.39,3.25-3.52.81-2.54-.72-1.41.4-1.88.09,1.91.7.76,1.5-1.59Z" style="fill:#263238"></path><polygon points="330.49 328.79 329.9 325.95 327.21 323.09 326.11 321.63 326.15 318.43 327.32 316.72 326.48 318.56 326.67 321.37 327.31 322.1 328.41 321.04 328.29 319.98 328.71 321.34 327.8 322.54 330.68 325.34 331.54 328.22 330.49 328.79" style="fill:#263238"></polygon><path d="M357.9,356.77a2.78,2.78,0,0,1,.08.93,1.57,1.57,0,0,1-1.56.85l-.08-.31-.3.19a4,4,0,0,1,.33-1.59Z" style="fill:#263238"></path><path d="M346.33,361a2.92,2.92,0,0,1,.18,1,1.67,1.67,0,0,1-1.54,1l-.12-.32-.3.23a4.26,4.26,0,0,1,.19-1.69Z" style="fill:#263238"></path><path d="M333,336.22c1.32,1.58,1.15,3.16,2.35,4.8a18.79,18.79,0,0,0,3.14,3.05c1.74,1.56,5.36,1.18,5.36,1.18.51,1.36.56,6.11.73,7.93a36.46,36.46,0,0,1,.35,5.08,13.33,13.33,0,0,1-.44,3.39,1.42,1.42,0,0,0,1.91-.69c-.08-.83-.69-6.09-.7-7.42a16.41,16.41,0,0,1,.49-3.85c.38-1.93.83-5.16.83-5.16,3.33-1.1,3.73-3.72,5-4.22a4.24,4.24,0,0,0,1.39-.06c.49,4,3.34,5.15,3.68,6.15s.17,4.45,0,6.33a31.63,31.63,0,0,1-.91,4.47,1.67,1.67,0,0,0,1.91-.34,18.71,18.71,0,0,1-.12-3.39c.06-2.61.84-7.39.86-8.25s-.7-.82-1.16-2.27,1.05-4.78,1.58-6.56a7.79,7.79,0,0,0,.23-3.38,1,1,0,0,0,1.12-.32c.35-.59-2.5-2.62-5-3.27s-6.25.89-8.84,2.28-3.19.61-5.47,1.45c-1.66.61-2.87,2.7-4.32,1.12a4.07,4.07,0,0,1-1-2.56c.12-.91.42-2.11-.29-3-.92-1.16-4.26-1.4-5.38-.08-.72.84-.3,2.35-.06,3.59s-.42,3.9,1.55,4.13A2.22,2.22,0,0,0,333,336.22Z" style="fill:#455a64"></path><path d="M342.69,339.39a8.94,8.94,0,0,1-5.13-.62,7.79,7.79,0,0,1-3.57-3.61,3.52,3.52,0,0,1-1,1.06h0c1.32,1.58,1.15,3.16,2.35,4.8a18.79,18.79,0,0,0,3.14,3.05c1.2,1.08,3.28,1.23,4.47,1.22h0a8.67,8.67,0,0,0,.89,0,13.9,13.9,0,0,1-.52-3.18C343.37,340.84,344,339.22,342.69,339.39Z" style="fill:#e0e0e0"></path><path d="M333,335.16l-1.27,1.1v.06l.1,0a2.22,2.22,0,0,0,1.23-.12,4.48,4.48,0,0,1,.39.53,2.33,2.33,0,0,0,1.29-2c.13-.52.37-1.44.37-1.44a11.66,11.66,0,0,0-.57,1.19Z" style="fill:#37474f"></path><path d="M352.76,340.34a7.32,7.32,0,0,1,.7-3.49,9,9,0,0,0-.07,3.4A5.66,5.66,0,0,1,352.76,340.34Z" style="fill:#37474f"></path><path d="M330.3,334a2.11,2.11,0,0,0,1.4-1.43c.25-.76.5-.77.73,0a2,2,0,0,0,1.59,1.39c.78.2.44.89.07,1.43a2.89,2.89,0,0,1-1.08.85h0a2.22,2.22,0,0,1-1.23.12C330.53,336.2,330.34,335.08,330.3,334Z" style="fill:#ebebeb"></path><path d="M331.94,335.2c-.38,0-.58-.37-.76-.45a.31.31,0,0,1-.15-.47c.14-.19.46-.12.94-.11s.8-.05.93.16a.3.3,0,0,1-.17.45C332.54,334.86,332.33,335.21,331.94,335.2Z" style="fill:#263238"></path><path d="M334,330.78a1.06,1.06,0,0,1,1-.17,1.14,1.14,0,0,1-.17.92,1,1,0,0,1-1,.2A1,1,0,0,1,334,330.78Z" style="fill:#263238"></path><path d="M331.18,330.71a1.09,1.09,0,0,0-1-.21,1.12,1.12,0,0,0,.13.93,1,1,0,0,0,1,.24A1,1,0,0,0,331.18,330.71Z" style="fill:#263238"></path></g></g></g><g id="freepik--Fawn--inject-8"><g id="freepik--fawn--inject-8"><path id="freepik--shadow--inject-8" d="M342.5,279.09l-.73.2a29.35,29.35,0,0,0-2.94.73c-.95.38-1.79,1-2.71,1.4a8.09,8.09,0,0,1-3.48.89c-1.57,0-3.8-.14-4.83-1.52-2-2.63,4.53-3.93,5.77-4.29a15.93,15.93,0,0,1,5.51-.91,11.11,11.11,0,0,1,2.75.37c.8.26,3,1.41,1.94,2.54A3.11,3.11,0,0,1,342.5,279.09Z" style="fill:#BA68C8;opacity:0.2"></path><g id="freepik--fawn--inject-8"><path d="M324.54,258.84a2.22,2.22,0,0,1-.66-.74,5,5,0,0,1-.34-1.72c0-.32.19-.49.47-.37a3.15,3.15,0,0,1,1.39,1.1,2.83,2.83,0,0,1,.28,1.24Z" style="fill:#37474f"></path><path d="M338.84,275.89a1.58,1.58,0,0,1-.08.58,1,1,0,0,1-1.06.29v-.2l-.21.08a2.57,2.57,0,0,1,.42-.91Z" style="fill:#263238"></path><path d="M338.55,267.9a12.16,12.16,0,0,0,.27,1.48c.26.72.8.8.8,1.1s-.31.69-.46,1.59a36.77,36.77,0,0,0-.27,4.06c-.16.21-.92.08-1.16-.2a7.06,7.06,0,0,0,.7-2,30.06,30.06,0,0,0,.33-3.15,5.81,5.81,0,0,1-2.13-2.1C336.16,267.58,338.47,267.22,338.55,267.9Z" style="fill:#37474f"></path><path d="M330.08,278.49a1.67,1.67,0,0,1,0,.58,1,1,0,0,1-1,.47l0-.2-.19.11a2.54,2.54,0,0,1,.26-1Z" style="fill:#263238"></path><path d="M328.06,267.43a11.4,11.4,0,0,0,.52,2.95,12.76,12.76,0,0,1,.67,2.69,42.21,42.21,0,0,1,0,4.5c-.12.58-.26,1.09-.26,1.09a1.47,1.47,0,0,0,1.17,0s-.13-1.44-.2-2.26a25.92,25.92,0,0,1,0-3.38c.09-.53.55-2.58.55-2.58Z" style="fill:#37474f"></path><path d="M333.18,279.86a1.67,1.67,0,0,1,0,.58,1,1,0,0,1-1,.47l0-.2-.19.11a2.54,2.54,0,0,1,.26-1Z" style="fill:#263238"></path><path d="M341.84,276.9a1.79,1.79,0,0,1-.07.58,1,1,0,0,1-1.06.29v-.2l-.2.08a2.45,2.45,0,0,1,.41-.91Z" style="fill:#263238"></path><path d="M341.94,263.25s1,0,.29-.76-3.46-1.41-5.62-.4-2.42,1.37-4,1.16a6.25,6.25,0,0,1-2.38-.51A4.28,4.28,0,0,1,328.6,261c-.14-.62.35-1.47-.6-2.35a2.76,2.76,0,0,0-3.41.09c-.71.7-.58,1.81-1.23,2.38s-.91.57-1.08,1,.38,1.54,1.23,1.44c.37,0,.77-.18,1.16-.24s.71,0,1.37-.1c0,0,.36,1.18.72,2s1.12,1.33,1.27,2,.28,3.32,3.38,3.28c0,0,.73,2.44.87,3a23.67,23.67,0,0,1,.15,4.79c-.15,1.18-.28,1.29-.32,1.71a1.27,1.27,0,0,0,1.11,0s.07-2.41.07-3.66a42.07,42.07,0,0,1,.32-4.32c.11-.62.18-1.94.18-1.94.87-.07,3.61-2,4.76-2.16a7.49,7.49,0,0,0,1.55,2.29,10.41,10.41,0,0,0,1.81,1.27,13.08,13.08,0,0,1-.33,2.24c-.25.89-.66,2.62-.86,3.23.06.26.88.43,1.19.12,0-.18.26-3,.39-3.79a14.18,14.18,0,0,1,.51-2.09c.13-.48-.51-.47-.83-1.27a5.29,5.29,0,0,1-.22-3C342,266,342.57,264.54,341.94,263.25Z" style="fill:#455a64"></path><path d="M330.89,266.15c-.5-.53-2-1.71-2.5-2.18a4.75,4.75,0,0,1-1.12-1.68,1.88,1.88,0,0,1-1.23.86s.36,1.18.72,2,1.12,1.33,1.27,2,.28,3.32,3.38,3.28C331,269,331.92,267.21,330.89,266.15Z" style="fill:#e0e0e0"></path><path d="M338.37,266.09a2.54,2.54,0,0,0-.18,1.9,2.1,2.1,0,0,1,.36-.09A3.06,3.06,0,0,1,338.37,266.09Z" style="fill:#37474f"></path><path d="M327.27,262.29a1.85,1.85,0,0,0,.18-.44,1.25,1.25,0,0,1-.27,1,2,2,0,0,1-1,.63l-.11-.37A2.07,2.07,0,0,0,327.27,262.29Z" style="fill:#37474f"></path><path d="M325.7,260.18c.35-.23.71.14.71.14a.53.53,0,0,1-.18.57.78.78,0,0,1-.78,0A.77.77,0,0,1,325.7,260.18Z" style="fill:#263238"></path><path d="M322.38,262.7a.73.73,0,0,0,.28.14c.26,0,.41-.23.65-.39a.3.3,0,0,0,.09-.5c-.13-.12-.53-.07-.75-.07s-.4-.1-.46,0A1.06,1.06,0,0,0,322.38,262.7Z" style="fill:#263238"></path><path d="M339.18,262.35l.22-.06a1.07,1.07,0,0,1,.47.09c.06,0,.18.1.14.19s-.32.08-.42.07h-.33c-.06,0-.15,0-.18-.07S339.1,262.4,339.18,262.35Z" style="fill:#e0e0e0"></path><path d="M337.68,262.75v0a.93.93,0,0,1,.19-.11c.12-.07.32-.25.46-.13s-.15.3-.28.35a.7.7,0,0,1-.35.06C337.64,262.87,337.64,262.8,337.68,262.75Z" style="fill:#e0e0e0"></path><path d="M336.42,262.91a.43.43,0,0,1,.36-.23c.09,0,.41,0,.29.13s-.16.09-.22.15a.76.76,0,0,1-.17.13c-.1.05-.28.09-.28-.08A.3.3,0,0,1,336.42,262.91Z" style="fill:#e0e0e0"></path><path d="M335,263.35h.21a.31.31,0,0,0,.17,0,.31.31,0,0,1,.23,0c.1.05,0,.14,0,.18a.7.7,0,0,1-.27.14c-.08,0-.38.07-.42,0a.2.2,0,0,1,0-.11A.2.2,0,0,1,335,263.35Z" style="fill:#e0e0e0"></path><path d="M338.93,263.23Z" style="fill:#e0e0e0"></path><path d="M338.51,263.25v0s0,0,0,0v0h0l0-.05a.5.5,0,0,1,.19-.1l.11,0H339l0,0a.08.08,0,0,1,0,.07l0,.05a.15.15,0,0,1-.06.05h-.06l-.07,0h0l-.1,0,0,0h0l0,0s-.09,0-.12,0A.09.09,0,0,1,338.51,263.25Z" style="fill:#e0e0e0"></path><path d="M337,263.67a.42.42,0,0,1,.14-.09l.12-.08c.09-.05.36-.14.37.05s-.22.21-.3.26-.21.17-.34.12-.07-.14,0-.2A.1.1,0,0,1,337,263.67Z" style="fill:#e0e0e0"></path><path d="M340.49,263.09a.18.18,0,0,1,.15-.06.7.7,0,0,1,.2.08l.08.05.15.12a.79.79,0,0,1,.14.17l0,.07,0,.08h0a.23.23,0,0,1,0,.14c-.05.09-.21.16-.29.06l0,0,0,0a.08.08,0,0,0,0-.05l0-.08a.81.81,0,0,0-.16-.16l-.09-.07a.32.32,0,0,1-.1-.13A.18.18,0,0,1,340.49,263.09Z" style="fill:#e0e0e0"></path><path d="M339.79,263.38Z" style="fill:#e0e0e0"></path><polygon points="339.79 263.38 339.79 263.38 339.79 263.38 339.79 263.38" style="fill:#e0e0e0"></polygon><path d="M339.63,263.45a.09.09,0,0,1,.06,0,.5.5,0,0,1,.39.11.32.32,0,0,1,.13.23s0,.15,0,.18-.17-.09-.22-.11a1.77,1.77,0,0,1-.34-.16A.15.15,0,0,1,339.63,263.45Z" style="fill:#e0e0e0"></path><path d="M327.32,258.74a2.29,2.29,0,0,1,.61-.8,5,5,0,0,1,1.7-.75c.33-.09.55.09.49.41a3.43,3.43,0,0,1-.84,1.73,2.08,2.08,0,0,1-1.16.47A1.25,1.25,0,0,0,327.32,258.74Z" style="fill:#37474f"></path></g></g></g><g id="freepik--Bear--inject-8"><g id="freepik--bear--inject-8"><path id="freepik--shadow--inject-8" d="M168.87,298.89a35.23,35.23,0,0,0-6.94,2.09c-1.82.71-5.18,1.84-6,3.9-1.84,4.67,6.07,5.46,8.68,5.68a21.26,21.26,0,0,1,9.63,2.76c2.51,1.41,5.53,3.53,8.44,3.88a19.07,19.07,0,0,0,9.82-1.39c2.4-1.09,5.5-3.95,4.76-6.94s-4.59-5-7.21-6a56.94,56.94,0,0,0-15.93-4.12A20.57,20.57,0,0,0,168.87,298.89Z" style="fill:#BA68C8;opacity:0.2"></path><g id="freepik--bear--inject-8"><path d="M175.83,300.71a3.49,3.49,0,0,1-1.34-1.91,6.82,6.82,0,0,1,1-4.32L166.77,293c.27,2.68,1.29,7.62,3,8.91,2.42,1.87,3.74,1.74,4.21,1.07.8.31,1.73-.1,1.47-.6A.91.91,0,0,0,175.83,300.71Z" style="fill:#37474f"></path><path d="M175.83,300.71a3.49,3.49,0,0,1-1.34-1.91,6.82,6.82,0,0,1,1-4.32L166.77,293c.27,2.68,1.29,7.62,3,8.91a6.71,6.71,0,0,0,2.9,1.5h0a4.26,4.26,0,0,1-2-1.32c-.43-.54-.89-1.43.79-1a7.38,7.38,0,0,0,3.68,0l.86.15.13-.2A1.93,1.93,0,0,0,175.83,300.71Z" style="fill:#263238"></path><path d="M175.83,300.71a3.49,3.49,0,0,1-1.34-1.91,6.82,6.82,0,0,1,1-4.32L166.77,293c.27,2.68,1.29,7.62,3,8.91a6.71,6.71,0,0,0,2.9,1.5h0a4.26,4.26,0,0,1-2-1.32c-.43-.54-.89-1.43.79-1a7.38,7.38,0,0,0,3.68,0l.86.15.13-.2A1.93,1.93,0,0,0,175.83,300.71Z" style="fill:#263238"></path><path d="M187.49,301.1a12.76,12.76,0,0,0,.88,2.82c.51,1.34.87,2.06.34,2.32s-1.35.39-1.75,1.31c-.59,1.36.75,2.45,2.46,2.52a5.49,5.49,0,0,0,5-3.89c1-2.75,1.26-8,.74-9.28Z" style="fill:#37474f"></path><path d="M194.14,297.46l-6.65,3.64a12.76,12.76,0,0,0,.88,2.82c.51,1.34.87,2.06.34,2.32s-1.35.39-1.75,1.31a1.63,1.63,0,0,0,1,2.19,1.44,1.44,0,0,1-.42-2.2c.75-.86,1.93-.25,2.65-.72s.19-2-.06-3.34a2.32,2.32,0,0,1,1-2.7,8,8,0,0,0,2.95-3.32Z" style="fill:#263238"></path><path d="M189.85,279.26c-3-.78-4.46-.3-6.3-1.36-1.26-.73-2.63-1.8-4.36-2.67A19.45,19.45,0,0,0,169,273.15a11.44,11.44,0,0,0-4.76,1.22,3.61,3.61,0,0,0-3.8.82c-1.36,1.39-.57,2.27-.57,2.27-2.2,1.52-3.69,5-3.51,8.24a31.46,31.46,0,0,1-.32,6.49,33.24,33.24,0,0,0-.23,4c.26,2.67,1.28,8.14,3,9.44,2.43,1.87,3.75,1.74,4.21,1.06.8.32,1.74-.09,1.48-.59a.91.91,0,0,0,.41-1.63,3.46,3.46,0,0,1-1.35-1.91c-.11-.74,0-3.49,1-4.86.73-.15,2.07.55,3.19,1.24s4.81,2.24,7.67,1.7a69,69,0,0,0,2.12,6.79,61.73,61.73,0,0,1,3.22,6,6.33,6.33,0,0,0,3.56,2.67c1.55.43,2.35,0,2.35-.32.8.19,1.28-.43,1.12-.75.77-.44.54-1.47-.29-2.11a3.66,3.66,0,0,1-1.75-2.31,18.25,18.25,0,0,1-.38-3.8,54.25,54.25,0,0,1,.26-5.43,15.08,15.08,0,0,0,5.84-1.52c2.87-1.47,4.86-5.93,5.73-8.61C198.94,285.66,194.75,281,189.85,279.26Z" style="fill:#455a64"></path><path d="M164,286.07a7.45,7.45,0,0,0,1.28,4.29,5.94,5.94,0,0,1,.93,2.6,4.74,4.74,0,0,0-.22-2.68c.37.07.68.74.68.74a2.12,2.12,0,0,0-.84-1.89A4.68,4.68,0,0,1,164,286.07Z" style="fill:#37474f"></path><path d="M160.27,276.7c-.46-.11-.25-.93,0-1.3h0c-1.09,1.27-.38,2.06-.38,2.06a5.46,5.46,0,0,0,1.62-1.2S160.69,276.8,160.27,276.7Z" style="fill:#37474f"></path><path d="M186,282.68a7.73,7.73,0,0,0-3.69,6.59c.08,2.57,1.27,3.31,1.3,2.94a3.1,3.1,0,0,1,.2-.81,6.35,6.35,0,0,0,1.18,3.05c1.12,1.65,3,2.86,3.32,3.76a1.83,1.83,0,0,1,0,1.44s1.48-.22,1.76-1a2.25,2.25,0,0,1-.32.92,3.65,3.65,0,0,0,2.68-1c.12.83,1.77.71,4-1.09a6,6,0,0,0,2.05-4.07c.25.81,1,.94,1.43-.42a8,8,0,0,0-1.59-8.12C195.44,282,189,281,186,282.68Z" style="fill:#37474f"></path><path d="M183,290.94c-.49-.56-.59-3.06-.21-4.42a7,7,0,0,0-.51,2.75c.08,2.57,1.27,3.31,1.3,2.94a3.1,3.1,0,0,1,.2-.81v-.14S183.52,291.49,183,290.94Zm6,8.07a2,2,0,0,0-.64-1.79,15.38,15.38,0,0,1-2.74-1.93c1.09,1.23,2.41,2.18,2.67,2.92a1.83,1.83,0,0,1,0,1.44,3.34,3.34,0,0,0,1.57-.68l.19-.29S188.93,299.5,189,299Zm5.19-.62c-1.49.5-1.78.26-1.78.26.12.83,1.77.71,4-1.09a5.66,5.66,0,0,0,1.85-2.91h0C197.92,296.08,195.68,297.9,194.2,298.39Z" style="fill:#263238"></path><path d="M189.16,281a2.31,2.31,0,0,0-3.32-1.54,1.68,1.68,0,0,0-.25,2.66,1.28,1.28,0,0,1,.47.89S188.71,282.81,189.16,281Z" style="fill:#37474f"></path><path d="M188.57,281.37a1.68,1.68,0,0,0-.26-.81,1.75,1.75,0,0,0-1.41-.84,1.38,1.38,0,0,0-1,.26,1,1,0,0,0-.2.28.78.78,0,0,0-.08.4h0a.78.78,0,0,1,.21-.35.88.88,0,0,1,.42-.24,1.44,1.44,0,0,1,1,.18,1.62,1.62,0,0,1,.58.49,1.93,1.93,0,0,1,.19.38c.05.15.06.3.11.45a.26.26,0,0,0,.25.22C188.56,281.78,188.57,281.5,188.57,281.37Z" style="fill:#263238"></path><path d="M196.72,282.32a2.35,2.35,0,0,1,3.65-.63,1.71,1.71,0,0,1-.47,2.67,1.3,1.3,0,0,0-.69.74S196.68,284.21,196.72,282.32Z" style="fill:#37474f"></path><path d="M197.2,282.85a1.57,1.57,0,0,1,.46-.72,1.8,1.8,0,0,1,1.6-.45,1.37,1.37,0,0,1,.9.52,1.17,1.17,0,0,1,.12.31.86.86,0,0,1,0,.42h0a.73.73,0,0,0-.11-.38.88.88,0,0,0-.34-.35,1.52,1.52,0,0,0-1-.09,1.54,1.54,0,0,0-.68.33,2.15,2.15,0,0,0-.29.32c-.09.13-.14.28-.22.41s-.19.2-.31.15S197.16,283,197.2,282.85Z" style="fill:#263238"></path><path d="M189,280.92c-3.15,1-4.4,3-4.82,5a4.07,4.07,0,0,0,1.21,3.9,3.36,3.36,0,0,1,.81,2.15,3.78,3.78,0,0,0,2.06,3.29,6.83,6.83,0,0,0,6.44,0,10.4,10.4,0,0,0,4.17-4.59c.68-1.91,1.3-5.71-1-7.74A9.26,9.26,0,0,0,189,280.92Z" style="fill:#37474f"></path><path d="M198.33,283.4c1.1,1.32,2,3.61,1.62,7.23a1.87,1.87,0,0,0-.4-.91,3.09,3.09,0,0,1-.63,2.29,2.63,2.63,0,0,0,0-.85,7.09,7.09,0,0,1-1.61,2.2C196.76,293.9,198.33,283.4,198.33,283.4Z" style="fill:#37474f"></path><path d="M185.3,289.89a3.55,3.55,0,0,1,.8,2.1,4.13,4.13,0,0,0,2.17,3.29,6.83,6.83,0,0,0,6.44,0,7.46,7.46,0,0,0,3.38-3.09c1-2.23.77-3.66.33-4.59a3,3,0,0,0-2.32-1.66c-1.58-.28-2.78.36-3,1.25a2.35,2.35,0,0,0,.08,1.51,15.35,15.35,0,0,1,.73,2.26c.53,2.23-.57,3.32-1.84,3.63a6.82,6.82,0,0,1-2.08-.14,3.16,3.16,0,0,1-1.7-.35,2.31,2.31,0,0,1-.74-2.53c.3-1.32,1-1.7,2.13-3.27a1.88,1.88,0,0,0-.19-2.82c-1.15-1.09-4-1.55-5.3.46A4.17,4.17,0,0,0,185.3,289.89Z" style="fill:#455a64"></path><path d="M185.39,289.79l-1.2-3.85a3.67,3.67,0,0,0,.12,3.52v-.38a1.76,1.76,0,0,0,.88,1,1.37,1.37,0,0,1-.19-.56C185.1,289.55,185.29,289.77,185.39,289.79Z" style="fill:#455a64"></path><path d="M189.69,292.86a1.48,1.48,0,0,1-1.21-.49c-.26-.34-.73-1.31-.32-1.88s3.2-.41,3.46.2a1.88,1.88,0,0,1-.54,1.8A1.7,1.7,0,0,1,189.69,292.86Z" style="fill:#263238"></path><circle cx="194.22" cy="287.66" r="0.64" style="fill:#263238"></circle><path d="M194.64,287.44a.22.22,0,1,1-.22-.22A.22.22,0,0,1,194.64,287.44Z" style="fill:#455a64"></path><path d="M189.65,286.93a.64.64,0,0,1-.64.64.64.64,0,0,1,0-1.28A.64.64,0,0,1,189.65,286.93Z" style="fill:#263238"></path><path d="M189.42,286.71a.22.22,0,0,1-.44,0,.22.22,0,1,1,.44,0Z" style="fill:#455a64"></path><path d="M194,292.21l0,.36h0a2.43,2.43,0,0,1-1.93,2,6.82,6.82,0,0,1-2.08-.14,3.18,3.18,0,0,1-1.7-.35,1.85,1.85,0,0,1-.8-1.42,1.21,1.21,0,0,0,1.69.45,1.87,1.87,0,0,1,1.73.27A2.27,2.27,0,0,0,194,292.21Z" style="opacity:0.15"></path><path d="M191.19,296.07c.65.13,1,.34,1.12.77a1.17,1.17,0,0,1,0,.62,1.17,1.17,0,0,0,.4-1c.48.24.48.59.48.59a1,1,0,0,0-.11-1.11C192.63,295.36,191.47,295.8,191.19,296.07Z" style="fill:#455a64"></path><path d="M185.85,282.76a5.88,5.88,0,0,0-1,1.47,6.44,6.44,0,0,0-.57,1.72h0v0a4,4,0,0,0-.37,1.76,3.12,3.12,0,0,0,.51,1.71l-.11,0v-.88l.12.48a1.26,1.26,0,0,0,.32.56,2.29,2.29,0,0,0,.52.41l-.1.1a2.55,2.55,0,0,1-.13-.29,1.33,1.33,0,0,1-.06-.3v-.11l.1,0h.05l.38.49a3.33,3.33,0,0,1,.35.54,4.62,4.62,0,0,1,.33,1.21,7.62,7.62,0,0,0,.26,1.19,3.77,3.77,0,0,0,.54,1.08,4.28,4.28,0,0,0,1.9,1.45,6.91,6.91,0,0,0,2.37.52h0a2.42,2.42,0,0,1,.51.14,1.11,1.11,0,0,1,.46.3.78.78,0,0,1,.16.24,1.57,1.57,0,0,1,.06.28,2.13,2.13,0,0,1,0,.27.8.8,0,0,1,0,.29l-.16-.12a.81.81,0,0,0,.18-.19,1.12,1.12,0,0,0,.13-.24.72.72,0,0,0,.07-.25.77.77,0,0,0,0-.26l0-.18.16.08a1.1,1.1,0,0,1,.35.26.76.76,0,0,1,.12.19.56.56,0,0,1,.07.23l-.18,0a.92.92,0,0,0,.09-.25.75.75,0,0,0,0-.26.77.77,0,0,0-.07-.26A.79.79,0,0,0,193,296l-.08-.12.13,0,.42-.11.41-.14a2.83,2.83,0,0,0,.4-.17l.38-.2v0h0l0,0c.43-.25.87-.49,1.28-.77a7,7,0,0,0,1.16-.93l.12-.13.14-.14.27-.26a6.57,6.57,0,0,0,.48-.57,6.3,6.3,0,0,0,.78-1.26L199,291l.05.17a1.31,1.31,0,0,1,0,.44L199,292l-.1,0a4.33,4.33,0,0,0,.31-.51,3.71,3.71,0,0,0,.22-.55,3.09,3.09,0,0,0,.12-.59,2.32,2.32,0,0,0,0-.59l0-.14.1.1c.06.07.1.14.15.21a2.56,2.56,0,0,1,.11.24,2.53,2.53,0,0,1,.14.49h-.06a13.61,13.61,0,0,0,.05-3.06,13.7,13.7,0,0,1,0,3.07l0,.19,0-.19a1.92,1.92,0,0,0-.15-.48,2.26,2.26,0,0,0-.11-.22,1.43,1.43,0,0,0-.14-.2l.07,0a2.15,2.15,0,0,1,0,.62,2.44,2.44,0,0,1-.11.6,3.66,3.66,0,0,1-.22.58,3.55,3.55,0,0,1-.32.53l-.13.2,0-.24,0-.42a1.32,1.32,0,0,0,0-.4H199a6.79,6.79,0,0,1-.78,1.3c-.16.2-.32.4-.49.58a3.44,3.44,0,0,1-.27.27l-.13.13-.13.14a6.78,6.78,0,0,1-1.17,1c-.42.28-.86.52-1.29.78v0h0v0l-.4.21-.41.17-.42.15-.44.11,0-.15a1.11,1.11,0,0,1,.17.27.9.9,0,0,1,.09.32,1.13,1.13,0,0,1,0,.32.89.89,0,0,1-.11.31l-.15.29,0-.34a.33.33,0,0,0,0-.15.67.67,0,0,0-.09-.14,1.06,1.06,0,0,0-.29-.22l.13-.1a.86.86,0,0,1,0,.32,1.11,1.11,0,0,1-.08.3,1.17,1.17,0,0,1-.15.27,1.15,1.15,0,0,1-.21.23l-.28.24.13-.35a1.27,1.27,0,0,0,0-.22,1,1,0,0,0,0-.24.71.71,0,0,0-.16-.41,1.07,1.07,0,0,0-.4-.24,3.64,3.64,0,0,0-.47-.14h0a6.82,6.82,0,0,1-2.43-.55,4.41,4.41,0,0,1-2-1.51,4.26,4.26,0,0,1-.56-1.13,7.59,7.59,0,0,1-.26-1.22,4.48,4.48,0,0,0-.31-1.17,6.2,6.2,0,0,0-.7-1l0,0h0l.09-.08a1.28,1.28,0,0,0,0,.27,1.15,1.15,0,0,0,.12.25l.15.24-.25-.14a2.55,2.55,0,0,1-.55-.43,1.51,1.51,0,0,1-.35-.63h.13v.57l-.11-.15a2.73,2.73,0,0,1-.39-.85,3.65,3.65,0,0,1-.12-.93,4.7,4.7,0,0,1,.09-.92,3.58,3.58,0,0,1,.32-.88v0a6.31,6.31,0,0,1,.61-1.72A5.71,5.71,0,0,1,185.85,282.76Z" style="fill:#263238"></path><path d="M196.12,302.77s-.11.15-.4.05-.45-.65-.41-1a1.44,1.44,0,0,0-.54.86,2.14,2.14,0,0,0,.27,1.12s.08-.26.24-.18.15.18.1.39a.63.63,0,0,0,.19-.78C196.14,303.24,196.12,302.77,196.12,302.77Z" style="fill:#37474f"></path><path d="M177.2,306.58c.08.32.12.55-.14.79s-.49,0-.49,0a.47.47,0,0,0,.63.36.78.78,0,0,0,.24.65s-.05-.22.14-.27.61.35.8.68C178.58,308.47,178.33,306.72,177.2,306.58Z" style="fill:#455a64"></path><path d="M175.38,300.62a16.53,16.53,0,0,1-.68-4.21,8.05,8.05,0,0,0-.5,2.35c-.07.79-.55,1-2.3.67s-4.26-1.21-4.79-2.36-.24-2.31-.86-3.54c.13,1.22,0,2.91-.62,3.54a1.92,1.92,0,0,0,0-1.05,5.87,5.87,0,0,1-1.11,1.66c.73-.15,2.07.55,3.19,1.24S172.52,301.16,175.38,300.62Z" style="fill:#37474f"></path><path d="M175.77,290.75a2.57,2.57,0,0,1-1.22,2.32,1,1,0,0,0,.92-.44c-.06.63-.83,1.14-.92,1.39.61-.34.29,1,.37,1.41.25-1,.47-1.35.85-2.47A3.76,3.76,0,0,0,175.77,290.75Z" style="fill:#37474f"></path><path d="M155.86,294.55c-.13.4-.58,1-.72,1.47a1.17,1.17,0,0,0,.05.91c0-.32.18-.42.39-.33s.4.81.4.81S156.53,294.91,155.86,294.55Z" style="fill:#455a64"></path><path d="M185.59,301.32a12.62,12.62,0,0,1,.65-3.14,3.58,3.58,0,0,0,.24,2.23c.52.77,1.89.5,1.89.5A10.1,10.1,0,0,1,185.59,301.32Z" style="fill:#263238"></path></g></g></g><g id="freepik--Birds--inject-8"><path id="freepik--Bird--inject-8" d="M137.17,106.55c-1.53-2.14-5.66-4.37-10.6-3.32-2.85.61-4,1.58-1.55,1.67,5.1.18,8.81,2.37,10.36,4.64a2.38,2.38,0,0,0,4.28-.66,9.36,9.36,0,0,1,3.79-5.59c1.53-1,4.64-1.65,5.78-1.34s.7-1.12-2.43-1.65S138.14,101.88,137.17,106.55Z" style="fill:#455a64"></path><path id="freepik--bird--inject-8" d="M422.49,175.1c-.62-2.56-3.62-6.17-8.59-7-2.87-.5-4.28,0-2.07,1,4.67,2.08,7.29,5.5,7.88,8.19a2.38,2.38,0,0,0,4.22,1,9.39,9.39,0,0,1,5.61-3.77c1.79-.35,4.91.2,5.85.92s1.08-.78-1.63-2.43S425.14,171.14,422.49,175.1Z" style="fill:#455a64"></path><path id="freepik--bird--inject-8" d="M56.94,177.54c.56-2.57,3.48-6.24,8.43-7.21,2.87-.57,4.28-.12,2.09.91-4.62,2.18-7.17,5.65-7.71,8.35a2.38,2.38,0,0,1-4.2,1.07A9.36,9.36,0,0,0,49.87,177c-1.8-.31-4.91.31-5.83,1s-1.09-.75,1.58-2.47S54.2,173.63,56.94,177.54Z" style="fill:#455a64"></path></g><g id="freepik--Text--inject-8"><g id="freepik--text--inject-8"><g id="freepik--text--inject-8"><path d="M341.78,73.12a.59.59,0,0,1,.44.19.6.6,0,0,1,.18.44V75.4a.6.6,0,0,1-.18.44.59.59,0,0,1-.44.19H331.56a.65.65,0,0,1-.63-.63v-15a.65.65,0,0,1,.63-.63h10a.65.65,0,0,1,.63.63V62a.65.65,0,0,1-.63.63h-7.52v3.7h7a.58.58,0,0,1,.44.19.61.61,0,0,1,.19.44v1.65a.61.61,0,0,1-.19.44.58.58,0,0,1-.44.19h-7v3.86Z" style="fill:#455a64"></path><path d="M352.94,59.74a.73.73,0,0,1,.56.2,1.55,1.55,0,0,1,.33.59l5.7,14.71a.7.7,0,0,1,0,.16.6.6,0,0,1-.18.44.61.61,0,0,1-.45.19h-1.67a.87.87,0,0,1-.65-.2,1.17,1.17,0,0,1-.26-.38l-1-2.59H348l-1,2.59a1.17,1.17,0,0,1-.26.38.87.87,0,0,1-.65.2H344.4a.59.59,0,0,1-.44-.19.6.6,0,0,1-.18-.44.39.39,0,0,1,0-.16l5.7-14.71a1.55,1.55,0,0,1,.33-.59.73.73,0,0,1,.55-.2ZM354.22,70l-2.56-6.64L349.11,70Z" style="fill:#455a64"></path><path d="M368.3,59.74a6.44,6.44,0,0,1,4.42,1.35,4.76,4.76,0,0,1,1.51,3.75,5.18,5.18,0,0,1-.78,2.89,4.55,4.55,0,0,1-2.29,1.78l3.21,5.75a.54.54,0,0,1,.07.26.51.51,0,0,1-.51.51h-2a.9.9,0,0,1-.68-.22,2,2,0,0,1-.32-.41L367.9,70h-3.09V75.4a.65.65,0,0,1-.63.63H362.3a.65.65,0,0,1-.63-.63v-15a.65.65,0,0,1,.63-.63Zm-3.49,7.33h3.37a4.06,4.06,0,0,0,2.12-.47,2.34,2.34,0,0,0,0-3.51,4.4,4.4,0,0,0-2.12-.44h-3.37Z" style="fill:#455a64"></path><path d="M387.94,59.74a.65.65,0,0,1,.63.63V62a.65.65,0,0,1-.63.63h-4.19V75.4a.6.6,0,0,1-.18.44.61.61,0,0,1-.45.19h-1.88a.65.65,0,0,1-.63-.63V62.65h-4.19a.58.58,0,0,1-.44-.19.61.61,0,0,1-.19-.44V60.37a.61.61,0,0,1,.19-.44.58.58,0,0,1,.44-.19Z" style="fill:#455a64"></path><path d="M403.57,59.74a.6.6,0,0,1,.45.19.6.6,0,0,1,.18.44v15a.6.6,0,0,1-.18.44.6.6,0,0,1-.45.19h-1.88a.65.65,0,0,1-.63-.63V69.26h-7V75.4a.6.6,0,0,1-.18.44.59.59,0,0,1-.44.19h-1.89a.6.6,0,0,1-.44-.18.59.59,0,0,1-.19-.45v-15a.61.61,0,0,1,.19-.44.58.58,0,0,1,.44-.19h1.89a.59.59,0,0,1,.44.19.6.6,0,0,1,.18.44v6h7v-6a.65.65,0,0,1,.63-.63Z" style="fill:#455a64"></path><path d="M419.51,59.74a8.92,8.92,0,0,1,3,.45,5.8,5.8,0,0,1,2.12,1.3,5.45,5.45,0,0,1,1.3,2,8.72,8.72,0,0,1,.55,2.65,33.08,33.08,0,0,1,0,3.45,8.72,8.72,0,0,1-.55,2.65,5.65,5.65,0,0,1-1.29,2,5.56,5.56,0,0,1-2.08,1.29,8.33,8.33,0,0,1-2.92.46h-5.86a.61.61,0,0,1-.45-.19.6.6,0,0,1-.18-.44v-15a.6.6,0,0,1,.18-.44.61.61,0,0,1,.45-.19Zm3.82,6.42a4.77,4.77,0,0,0-.29-1.38,3.22,3.22,0,0,0-.72-1.12,3.3,3.3,0,0,0-1.2-.74,4.93,4.93,0,0,0-1.72-.27h-3.12V73.12h3.23a4.62,4.62,0,0,0,1.66-.27,3.33,3.33,0,0,0,1.16-.73A3,3,0,0,0,423,71a4.84,4.84,0,0,0,.29-1.39A33.09,33.09,0,0,0,423.33,66.16Z" style="fill:#455a64"></path><path d="M436.82,59.74a.73.73,0,0,1,.56.2,1.55,1.55,0,0,1,.33.59l5.7,14.71a.39.39,0,0,1,0,.16.6.6,0,0,1-.18.44.59.59,0,0,1-.44.19h-1.68a.87.87,0,0,1-.65-.2,1.17,1.17,0,0,1-.26-.38l-1-2.59h-7.35l-1,2.59a1.17,1.17,0,0,1-.26.38.87.87,0,0,1-.65.2h-1.67a.6.6,0,0,1-.45-.19.6.6,0,0,1-.18-.44.7.7,0,0,1,0-.16l5.7-14.71a1.55,1.55,0,0,1,.33-.59.73.73,0,0,1,.56-.2ZM438.11,70l-2.56-6.64L433,70Z" style="fill:#455a64"></path><path d="M456.14,59.74a.58.58,0,0,1,.44.19.61.61,0,0,1,.19.44.46.46,0,0,1,0,.21l-5.52,9.7V75.4a.6.6,0,0,1-.18.44.59.59,0,0,1-.44.19h-1.86a.6.6,0,0,1-.45-.19.6.6,0,0,1-.18-.44V70.28l-5.52-9.7a.46.46,0,0,1,0-.21.6.6,0,0,1,.18-.44.59.59,0,0,1,.44-.19h1.75a1,1,0,0,1,.7.23,1.69,1.69,0,0,1,.28.35l3.77,6.59,3.76-6.59a2.14,2.14,0,0,1,.28-.35,1,1,0,0,1,.7-.23Z" style="fill:#455a64"></path></g><g id="freepik--text--inject-8"><path d="M365.58,51.68h-3.11l-2.06-4.76c-.22-.55-1.21-3.11-1.78-4.67,0,1.69,0,4.84-.05,6.06l-.13,3.37h-3.77l1-16.8h3.53l3.87,9.68c.22.6.64,1.76,1,3,.37-1.21.79-2.38,1-3L369,34.88h3.45l1,16.8H369.6l-.15-3.37c-.05-1.24-.05-4.4,0-6.06-.5,1.42-1.4,3.65-1.74,4.44Z" style="fill:#BA68C8"></path><path d="M386.81,45.33c0,3.75-1.94,6.6-5.86,6.6s-5.69-2.41-5.69-6.33S377.2,39,381.15,39,386.81,41.36,386.81,45.33Zm-7.38,0c0,2,.33,3.65,1.74,3.65,1.22,0,1.49-1.54,1.49-3.4,0-2-.32-3.65-1.74-3.65C379.71,41.93,379.43,43.42,379.43,45.33Z" style="fill:#BA68C8"></path><path d="M387.75,39.32h2l.42-2.56,3.4-.74v3.3h2.93l-.47,2.88h-2.46v5.54a1,1,0,0,0,1.14,1.09,8.2,8.2,0,0,0,1.79-.27l.67,2.63a10.71,10.71,0,0,1-3.53.59c-2.48,0-4-.91-4-3.37V42.2h-2Z" style="fill:#BA68C8"></path><path d="M402.57,40.17a4.85,4.85,0,0,1,3.25-1.12c2.59,0,3.58,1.69,3.58,4.32v8.31h-3.95V43.94c0-1.17-.22-1.94-1-1.94s-1.89,1.19-1.89,3.13v6.55h-3.92V34.36l3.92-.67Z" style="fill:#BA68C8"></path><path d="M417.67,39c3.1,0,4.34,1.62,4.34,3.75,0,2.41-2.45,4.3-6.4,4.62a1.89,1.89,0,0,0,2,1.66,12.76,12.76,0,0,0,3.53-.79l.74,2.58A12.34,12.34,0,0,1,417,51.91c-4,0-5.66-2.46-5.66-6.11C411.36,41.36,414.12,39,417.67,39Zm-2.26,5.86c2,0,2.7-1.21,2.7-2a1,1,0,0,0-.94-1C415.91,41.78,415.46,43.42,415.41,44.83Z" style="fill:#BA68C8"></path><path d="M428.29,45.35v6.33h-3.92V45.23C424.37,41.31,423,40,423,40l3.15-1a5,5,0,0,1,1.12,2.23,3.64,3.64,0,0,1,3.5-2.23,5.12,5.12,0,0,1,1.61.27l-1,3.75a2.45,2.45,0,0,0-1.16-.27A2.3,2.3,0,0,0,428.29,45.35Z" style="fill:#BA68C8"></path></g></g></g></svg>