<svg xmlns="http://www.w3.org/2000/svg" viewBox="0 0 500 500"><g id="freepik--background-complete--inject-13"><path d="M372.31,154l87.61-.14s-4.37-5.66-9.17-6.37c0,0-9.38-27.79-25-28-14.54-.16-20.34,17.13-20.34,17.13s-6.75-7.74-13.18-4.19-10,13.71-10,13.71S374.93,150,372.31,154Z" style="fill:#ebebeb"></path><path d="M150.87,232l-110.79.17s0-7.08,15.25-8.49c0,0,13.89-31,35.17-26.84,13.26,2.57,20.06,20.75,20.06,20.75s10-14.33,18-11.57,12.79,18,12.79,18S149.61,228,150.87,232Z" style="fill:#ebebeb"></path><path d="M383.6,446.74l-110.79.17s0-7.08,15.25-8.49c0,0,13.89-31,35.17-26.84,13.26,2.57,20.06,20.75,20.06,20.75s10-14.33,18-11.57,12.79,18,12.79,18S382.34,442.74,383.6,446.74Z" style="fill:#ebebeb"></path><path d="M382,77.27l-75.33.11s7.1-6.63,10.26-6.63,12.34-22.23,24.13-21.31S359.11,66.9,359.11,66.9,373.43,62.39,382,77.27Z" style="fill:#ebebeb"></path><path d="M145.08,417.87,69.74,418s7.1-6.62,10.26-6.63,12.35-22.23,24.13-21.3,18.07,17.46,18.07,17.46S136.51,403,145.08,417.87Z" style="fill:#ebebeb"></path><path d="M133.6,99.36l-64.42.1s3.2-4.18,6.73-4.71c0,0,6.83-20.45,18.33-20.62,10.69-.15,15,12.55,15,12.55s4.94-5.7,9.68-3.1,7.42,10,7.42,10S131.67,96.49,133.6,99.36Z" style="fill:#ebebeb"></path><path d="M455.25,382.86l-64.42.1s3.2-4.18,6.73-4.7c0,0,6.83-20.46,18.33-20.62,10.69-.16,15,12.55,15,12.55s4.94-5.71,9.68-3.11S448,377.14,448,377.14,453.32,380,455.25,382.86Z" style="fill:#ebebeb"></path></g><g id="freepik--Character--inject-13"><path d="M440.36,415.53s-15.69-.43-18.17-7.21c-.18-.48-.33-1-.49-1.47,0,0,.05,0,0-.06-2.17-11-2.26-22.24-3.68-33.29-1.09-8.4-2.84-16.78-6.41-24.51a55.46,55.46,0,0,0-14.52-18.89A71,71,0,0,0,369,315.82a106.34,106.34,0,0,0-17.24-4.32c0-10.53-5-21.58-14.37-25.83A47.2,47.2,0,0,0,333,250.22a46.31,46.31,0,0,0-15.12-15.72c-.26-.18-.53-.34-.8-.51l.58.29c7.68,4,14.91,9.2,19.14,16.94,4.1,7.53,5.51,16.62,5.25,25.11,0,0,0,0,0,0,.38-8.26-.24-16.49-3.85-24.08-3.44-7.24-9.37-12.59-16.18-16.64a134.66,134.66,0,0,0-14.16-7c-4-2.18-8.05-4.33-11.87-6.85-7-4.62-14.55-10.5-16.16-19-5-26.41,25-90.52-15.35-106.57a.15.15,0,0,0,.09-.25c-11.79-11.92-34.39-17.22-50.31-10.08-34.32,15.4-46.47,67.55-53.81,71.75-10.3,5.89-21.83,9.32-32.35,14.72-8.09,3.23-15.91,7-22.42,12.93a39.19,39.19,0,0,0-12.2,36.36c0,.25.42.14.38-.1a39.4,39.4,0,0,1,4-24.46c4.86-9.19,13-15.24,22-19.81l-.69.48c-30.63,21.15-18.77,54.09-16.88,60.71a88.64,88.64,0,0,0-18.42,5.63c-13.58,6.07-22.31,17.24-24,32.15-1.77,15.63,9.82,23.8,10,24.56a19.7,19.7,0,0,0-9.59,16.75,24.87,24.87,0,0,0,4.67,14.31c5.59,33.82,40.84,53.06,81.16,46.14,0,0,18.13,41.48,70.94,22.12,0,0,65.23,59.79,150.66,19.36C367.7,419.5,409.57,447.14,440.36,415.53Zm-56.46-93c13.42,6.87,24.17,18.1,29.13,32.55,5.66,16.48,5.12,34.39,8.54,51.36-2-6.22-2.71-12.78-3.68-19.21a174.9,174.9,0,0,0-5.45-24.38c-3.93-13.09-9.74-26.5-20.79-35.14A67,67,0,0,0,383.9,322.54Zm-314-21.21c-6.06,7.54-8.36,18.39-5.34,27.62a22.54,22.54,0,0,1-3.18-10.35A19.65,19.65,0,0,1,69.9,301.33Z" style="fill:#263238"></path><path d="M145.4,375.56a39.57,39.57,0,0,0,5,12.88,34.94,34.94,0,0,0,9.19,10,40.42,40.42,0,0,0,12.27,6A73.39,73.39,0,0,0,185.6,407a45.72,45.72,0,0,1-14.12-1,38.67,38.67,0,0,1-6.82-2.26,37.87,37.87,0,0,1-6.26-3.6A31.87,31.87,0,0,1,149,389.24,30.53,30.53,0,0,1,145.4,375.56Z" style="fill:#263238"></path><path d="M215.53,409.18a13.91,13.91,0,0,0,2.74-9.69c0-.24-.31-.29-.46-.16l-.06,0c-4.07.14-8.09.64-10.95,3.83s-4.05,8.13-3.9,12.38a.3.3,0,0,0,.36.31.28.28,0,0,0,.25,0C207.65,414,212.49,412.84,215.53,409.18ZM203.77,415c.79-3.72,1.09-7.56,3.59-10.67s5.81-4,9.54-4.38c-4.74,3.37-8.08,8.35-11.23,13.14a0,0,0,1,0,0,0,85.5,85.5,0,0,1,11.93-12.86c-.38,3.41-1.33,6.58-3.92,9S207.2,413.5,203.77,415Z" style="fill:#263238"></path><path d="M282.66,154.15c1.34,3.21,4.33,5.25,7.36,6.68a.18.18,0,0,0,.24-.1.13.13,0,0,0,.09-.07c1.31-3.51,2.6-7.21,1.11-10.89-1.32-3.26-4.41-5.51-7.51-6.91a.45.45,0,0,0-.41,0,.35.35,0,0,0-.37.29C282.43,146.91,281.1,150.39,282.66,154.15Zm1-9.69c2,4.5,3.92,9,5.83,13.55a.06.06,0,0,0,.11,0,87.62,87.62,0,0,0-5.23-13.82c2.73,1.76,5.44,3.65,6.47,6.94,1,3.08.1,6.4-.68,9.41-2.4-2-5.06-3.85-6.3-6.8S282.88,147.45,283.66,144.46Z" style="fill:#263238"></path><path d="M416.5,361.83c3.34,1,6.81,0,9.84-1.47a.17.17,0,0,0,.06-.25.11.11,0,0,0,0-.11c-1.89-3.24-3.94-6.58-7.73-7.76-3.36-1-7.06-.07-10.11,1.44a.44.44,0,0,0-.24.33.34.34,0,0,0,0,.47C410.75,357.43,412.6,360.65,416.5,361.83Zm-6.87-6.91c4.74,1.31,9.47,2.68,14.19,4.06a.05.05,0,1,0,0-.1,87.68,87.68,0,0,0-14-4.7c3.09-1,6.27-1.9,9.47-.61,3,1.2,5,4,6.85,6.48-3.05.6-6.18,1.48-9.25.57S411.45,357.41,409.63,354.92Z" style="fill:#263238"></path><path d="M93.37,233.16c-.14-3.48-2.25-6.42-4.59-8.81a.18.18,0,0,0-.26,0,.12.12,0,0,0-.11,0c-2.45,2.84-4.93,5.87-4.81,9.83.11,3.52,2.23,6.7,4.66,9.08a.45.45,0,0,0,.39.13.35.35,0,0,0,.45-.14C91.09,240,93.53,237.23,93.37,233.16Zm-4.28,8.75c-.31-4.91-.56-9.82-.79-14.73,0-.08-.11-.09-.11,0A86.85,86.85,0,0,0,88.32,242c-1.95-2.6-3.85-5.31-3.67-8.76.16-3.21,2.11-6,3.89-8.59,1.56,2.69,3.42,5.36,3.56,8.57S90.85,239.37,89.09,241.91Z" style="fill:#263238"></path><path d="M78.23,358.74c-3.36-.92-6.81.2-9.8,1.72a.17.17,0,0,0-.06.25.14.14,0,0,0,0,.11c2,3.2,4.11,6.48,7.92,7.56,3.39,1,7.06-.11,10.07-1.7a.45.45,0,0,0,.24-.33.36.36,0,0,0,0-.47C84.09,363,82.15,359.82,78.23,358.74Zm7,6.73c-4.77-1.19-9.53-2.44-14.28-3.7a.06.06,0,0,0,0,.11,87.71,87.71,0,0,0,14.13,4.33c-3.07,1.08-6.23,2.07-9.46.86-3-1.12-5.11-3.84-7-6.3,3-.68,6.14-1.64,9.23-.81S83.39,363,85.27,365.47Z" style="fill:#263238"></path><path d="M153.34,151.93c-3.42.6-6.06,3.09-8.11,5.74a.18.18,0,0,0,.05.26.1.1,0,0,0,.05.09c3.15,2,6.48,4.1,10.39,3.44,3.47-.58,6.34-3.11,8.37-5.84a.44.44,0,0,0,.08-.4.36.36,0,0,0-.21-.43C160.46,153.26,157.35,151.22,153.34,151.93Zm9.25,3.06c-4.82,1-9.65,1.88-14.49,2.77a.06.06,0,0,0,0,.12,88,88,0,0,0,14.62-2.13c-2.31,2.28-4.74,4.53-8.18,4.82-3.2.27-6.26-1.29-9-2.69,2.45-1.92,4.84-4.12,8-4.69S159.84,153.59,162.59,155Z" style="fill:#263238"></path><path d="M395.71,397.29c2.06,2.8,5.46,4,8.75,4.72a.19.19,0,0,0,.21-.17.09.09,0,0,0,.06-.08c.43-3.73.79-7.63-1.54-10.84-2.06-2.85-5.6-4.29-9-4.9a.44.44,0,0,0-.39.11.35.35,0,0,0-.29.37C393.74,390.32,393.29,394,395.71,397.29Zm-1.37-9.65c3,3.89,6,7.82,8.93,11.75,0,.06.13,0,.09-.05a87.37,87.37,0,0,0-8.4-12.16c3.07,1.06,6.16,2.23,8,5.19,1.67,2.75,1.64,6.18,1.6,9.29-2.8-1.35-5.83-2.52-7.75-5.09S394.31,390.73,394.34,387.64Z" style="fill:#263238"></path><path d="M353.08,427.26c-1.7,3-1.44,6.65-.69,9.91a.19.19,0,0,0,.23.13.1.1,0,0,0,.11,0c3.57-1.14,7.27-2.42,9.24-5.86,1.75-3.06,1.6-6.88.78-10.19a.43.43,0,0,0-.27-.3.34.34,0,0,0-.45-.12C358.62,422.59,355.07,423.7,353.08,427.26Zm8.23-5.22c-2.3,4.35-4.66,8.66-7,13,0,.07.05.13.09.07A87.94,87.94,0,0,0,362,422.41c.3,3.24.5,6.54-1.45,9.39-1.82,2.65-5,4-7.81,5.28.07-3.11-.11-6.35,1.44-9.16A14.89,14.89,0,0,1,361.31,422Z" style="fill:#263238"></path><path d="M418.58,350c2.36-2.56,3-6.13,3-9.48a.18.18,0,0,0-.2-.17.09.09,0,0,0-.1-.05c-3.74.27-7.63.66-10.35,3.54-2.41,2.57-3.16,6.31-3.13,9.72a.4.4,0,0,0,.18.36.35.35,0,0,0,.42.22C412.1,353.21,415.81,353,418.58,350Zm-9.22,3.15c3.26-3.69,6.55-7.33,9.87-11,0,0,0-.14-.08-.09a88.16,88.16,0,0,0-10.36,10.54c.46-3.21,1-6.47,3.6-8.78,2.39-2.16,5.77-2.77,8.82-3.32-.79,3-1.37,6.21-3.53,8.57A14.88,14.88,0,0,1,409.36,353.12Z" style="fill:#263238"></path><path d="M136.75,384.28c-1.54,3.12-1.1,6.72-.18,9.94a.18.18,0,0,0,.24.11.11.11,0,0,0,.11,0c3.51-1.32,7.14-2.8,8.92-6.34,1.59-3.14,1.24-6.95.25-10.21a.43.43,0,0,0-.28-.29.36.36,0,0,0-.47-.09C142,379.34,138.55,380.63,136.75,384.28Zm7.94-5.64c-2.07,4.46-4.2,8.9-6.34,13.32,0,.07.05.13.09.07a87.76,87.76,0,0,0,6.95-13c.47,3.21.84,6.5-1,9.45-1.68,2.74-4.75,4.28-7.52,5.68-.09-3.11-.45-6.34,1-9.22S141.93,380,144.69,378.64Z" style="fill:#263238"></path><path d="M218.14,399.23c-.08,0-.11.08-.07.14a.12.12,0,0,0-.12.08c-2.43,7.6,2.45,12.95,9.46,14.94a.2.2,0,0,0,.13,0c.09.22.45.15.48-.1C229,406.56,226.25,400.38,218.14,399.23Zm9.3,14.34c-2.68-1.3-5.43-2.38-7.28-4.85s-2-5.5-2-8.56c2.57,3.64,4.63,7.5,7.59,10.88.06.07.19,0,.14-.1-1.37-2-2.75-3.95-4-6a48.17,48.17,0,0,0-3.26-5.27c2.57,1.31,4.54,1.65,7,5.29C227.34,407.51,227.25,410.7,227.44,413.57Z" style="fill:#263238"></path><path d="M362.22,420.79c-.06,0,0,.12,0,.15a.13.13,0,0,0-.06.13C364,428.84,371,430.9,378,429a.45.45,0,0,0,.12-.06c.19.14.46-.11.36-.33C375.3,421.47,369.77,417.58,362.22,420.79Zm15.37,7.48c-3,.26-5.88.77-8.73-.4-3-1.21-4.6-3.65-6.1-6.32,4.08,1.79,7.83,4,12.11,5.4.09,0,.16-.11.07-.15-2.19-1-4.39-2-6.54-3.06a48.47,48.47,0,0,0-5.51-2.82c2.87-.21,4.74-.93,8.72.92C374.38,423.13,376,425.91,377.59,428.27Z" style="fill:#263238"></path><path d="M88.76,243.76a.08.08,0,0,0,0-.15.12.12,0,0,0,0-.14c-2.44-7.59-9.52-9.11-16.38-6.65a.41.41,0,0,0-.11.07c-.21-.12-.45.14-.34.36C75.67,244.11,81.49,247.54,88.76,243.76Zm-15.9-6.25c2.93-.5,5.79-1.23,8.73-.3,3.09,1,4.87,3.28,6.58,5.83-4.21-1.46-8.12-3.41-12.5-4.43-.09,0-.15.13-.06.16,2.27.81,4.53,1.61,6.76,2.53a49,49,0,0,0,5.72,2.38c-2.85.44-4.65,1.3-8.77-.23C76.46,242.38,74.68,239.73,72.86,237.51Z" style="fill:#263238"></path><path d="M177.73,198.2a22.08,22.08,0,0,1-6.74,6.9c-5.71,3.74-13.07,3.5-18.77,7.1-.5.63-1,1.29-1.45,2a.08.08,0,0,0,0,0h0a.1.1,0,0,1-.09,0,2.36,2.36,0,0,1,.12-.28c.07-.17.14-.34.22-.5s.22-.46.35-.69c0,0,0-.11.07-.13,3.44-6.39,10.61-9.73,16.54-13.47,3.4-2.14,6.2-5,9.53-7.19.8-.52,2.13-1.71,2.76-.46C180.93,192.94,178.42,197.07,177.73,198.2Z" style="fill:#37474f"></path><path d="M175.33,196.82c-.4-.9-2.12.62-2.62.93-4.08,2.49-8.24,4.61-12.34,7a27.36,27.36,0,0,0-6.92,5.49l0,0a14.68,14.68,0,0,0-1.36,1.68h0a13.26,13.26,0,0,0-1.07,1.52c-.13.22-.26.45-.38.68a.1.1,0,0,0,0,.08l0,0s.07,0,.09,0h0a.08.08,0,0,1,0,0l.1-.18h0a3.78,3.78,0,0,1,.26-.43c.12-.19.26-.38.39-.57a12.7,12.7,0,0,1,1-1.18h0c5.25-5.5,14.73-5.07,20.21-10.49C173.4,200.65,175.82,198,175.33,196.82Zm-2,3.39c-4.77,5.85-13.92,5.6-19.57,10.06a35.18,35.18,0,0,1,8-5.89l7.15-4,3.38-1.92c.29-.16,2.07-1.68,2.51-1.47C175.57,197.35,173.66,199.85,173.37,200.21Z" style="fill:#263238"></path><path d="M120.2,252.08c-.08.07-.25.1-.28-.07-1.14-7.3-8.74-10.93-10.35-18.11a33.15,33.15,0,0,1-.47-8.84,26.2,26.2,0,0,1,.94-6.47c.08-.28.32-1.54.78-1.78,3.52-1.82,5.3,9.93,5.72,11.79,1.68,7.22,3.23,13.83,3.62,21.11,0,.76.08,1.53.09,2.3C120.26,252,120.23,252.06,120.2,252.08Z" style="fill:#37474f"></path><path d="M120.22,251c0-.34,0-.68,0-1v-.07c0-.06,0-.12,0-.18-.66-3.34-1.68-6.63-2.66-9.88-1.55-5.08-2.59-10.21-3.73-15.38-.15-.7-.36-3.92-1.57-3.74s-1.37,3.61-1.41,4.46a25.52,25.52,0,0,0,3.16,13.3c2.19,4.22,4.81,8.25,6.12,12.81a.32.32,0,0,0,0,.09v0c0,.21.07.45.1.67,0,0,.06,0,.06-.06C120.25,251.68,120.23,251.33,120.22,251ZM115,239.67c-4.59-7.78-4.28-17.62-2.79-17.95.55-.13.8,1.07.88,1.43.18.72.33,1.43.49,2.16.31,1.45.59,2.89.88,4.34.54,2.64,1.2,5.24,2,7.82,1.09,3.76,2.29,7.49,3.13,11.28A55,55,0,0,0,115,239.67Z" style="fill:#263238"></path><path d="M122.12,236.52s0,.06-.07,0a.07.07,0,0,1-.06-.07c0-.18,0-.36,0-.54,0-.66.09-1.31.15-2l0-.35a.24.24,0,0,1,0-.08c.48-7.08-3.36-13.73-1.78-20.81a28.35,28.35,0,0,1,3.87-8.79c.74-1.18,2.5-5.31,4.4-4.76,1.48.43,1.51,3.14,1.51,4.28,0,3.61-1.23,7.28-2.25,10.71s-2.17,6.66-3.26,10a58.47,58.47,0,0,0-2.11,9.31C122.4,234.5,122.26,235.51,122.12,236.52Z" style="fill:#37474f"></path><path d="M127.32,204.46c-1.21.23-4.3,7.32-5.15,10.86a16.91,16.91,0,0,0-.31,5.8,78.58,78.58,0,0,1,.46,10.84,0,0,0,0,0,0,0l0,1c0,.34-.09.67-.13,1-.06.65-.12,1.31-.15,2,.06-.38.12-.76.17-1.15,0,.59-.08,1.17-.14,1.76,0,0,.08,0,.08,0,.14-1,.29-2,.44-3,.06-.74.1-1.49.14-2.23.24-1.7.5-3.4.76-5.1v0c.23-1.55.47-3.12.71-4.67.76-4.83,2.4-9.45,3.43-14.22C127.71,206.67,128.6,204.19,127.32,204.46Zm-.31,3.85c-.3,1.28-.64,2.54-1,3.81-.69,2.52-1.42,5-1.9,7.63-.57,3.11-1,6.26-1.36,9.41a59.28,59.28,0,0,0-.39-6.84,17.11,17.11,0,0,1,.49-7.89,78.84,78.84,0,0,1,3-7.34c.23-.49,1.08-2.36,1.62-2.11S127.09,208,127,208.31Z" style="fill:#263238"></path><path d="M120,289a1,1,0,0,1-.19-.47c-2.42-6.37-7-11.63-9.4-18a18.53,18.53,0,0,1-1.28-8.8c.15-1.28.67-5.71,2.26-6.25,4.77-1.64,8.11,24.13,8.87,32.9a1.59,1.59,0,0,1,.05.39C120.25,289,120.09,289.13,120,289Z" style="fill:#37474f"></path><path d="M120.14,288.29c-.23-1-.44-1.94-.68-2.91v-.05c-1.72-7.76-3.47-15.55-5.69-23.16-.17-.61-.48-2.48-1.51-2.08s-1,3-1.05,3.87a24.45,24.45,0,0,0,2.86,11.81c1.22,2.34,2.59,4.59,3.67,7,.61,1.35,1.15,2.72,1.66,4.11.06.18.13.35.19.53.12.53.24,1,.37,1.59.14.12.29,0,.3-.26Zm-4.71-10.89c-2.49-4.46-4.15-9.21-3.78-14.39,0-.34.15-2.14.71-2.42s1.13,1.68,1.27,2.19c.36,1.31.67,2.62,1,3.93.66,2.65,1.3,5.29,2,8q1.23,5.07,2.41,10.17A58.17,58.17,0,0,0,115.43,277.4Z" style="fill:#263238"></path><path d="M139.81,230.5a.29.29,0,0,1-.5.11.35.35,0,0,1-.11-.15.12.12,0,0,1,0-.1c.19-4.2-.82-9.44-.77-13.62a33.15,33.15,0,0,1,1.65-9.45,44,44,0,0,1,4.38-9.78c.89-1.44,2.83-5,4.9-5.12,4.27-.17-1,11.9-1.51,13.38Q143.87,218.15,139.81,230.5Z" style="fill:#37474f"></path><path d="M148.22,197.94c-2.15-.57-7,12.39-7.62,17.51-.35,2.94-.18,5.91-.42,8.86-.11,1.37-.29,2.7-.47,4.05l-.18,1.35c-.07.3-.14.6-.22.9a.29.29,0,0,0,.33.07,3,3,0,0,0,.06-.32c.28-1.05.54-2.1.81-3.14h0c.84-3.25,1.64-6.48,2.44-9.72.71-2.79,1.39-5.59,2.26-8.32s2-5.1,2.82-7.71C148.25,200.81,149.34,198.24,148.22,197.94Zm-.51,3.38c-.22.7-.5,1.39-.78,2.08-.56,1.4-1.12,2.81-1.6,4.25-.86,2.56-1.56,5.2-2.23,7.82-1,3.8-1.94,7.59-2.88,11.4.1-.75.18-1.48.26-2.23.29-2.94.14-5.91.45-8.85a35.28,35.28,0,0,1,2.21-8.58c.54-1.41,1.13-2.78,1.73-4.16.37-.85,2-4.46,3-4.61S147.9,200.71,147.71,201.32Z" style="fill:#263238"></path><path d="M159.29,261.36c-8.15-.13-15.33-5.68-25.34-1.11,0,0-.07,0-.07-.05a.05.05,0,0,1,0,0c.93-.55,1.87-1.08,2.85-1.56a45.88,45.88,0,0,1,16.85-4.79,34.4,34.4,0,0,1,10.42.71c1.74.4,5.8,1,6.7,2.63C172.68,260.66,160.78,261.39,159.29,261.36Z" style="fill:#37474f"></path><path d="M165.13,256.68c-.25-1.18-3.35-1.1-4.16-1.18a50.3,50.3,0,0,0-14.13.37,48.44,48.44,0,0,0-9.9,2.69l-.08,0h0l-.11,0c-1,.48-1.91,1-2.84,1.56,0,0,0,0,0,0l1.51-.61c.67-.27,1.34-.54,2-.79a39.93,39.93,0,0,1,9.83-.59c4.78.27,9.83,1.68,14.57.44C162.5,258.48,165.35,257.81,165.13,256.68Zm-2.73,1.47a14.46,14.46,0,0,1-3.44.62c-4.45.27-9-.84-13.41-.94a41.28,41.28,0,0,0-6.39.34,48.33,48.33,0,0,1,5.36-1.52,50.18,50.18,0,0,1,12.82-1.11c2,.07,7,.38,7.27,1.13S162.84,258,162.4,258.15Z" style="fill:#263238"></path><path d="M179.19,234.46a38,38,0,0,1-6.55,5.92,36.94,36.94,0,0,1-15.73,6.27l-.31,0c-.24.15-.48.3-.73.43l-.17.1h0a.07.07,0,0,1,0-.13l.77-.7c5.23-4.81,9.55-10.43,15.5-14.45,1.31-.87,9.58-6.89,10.64-3.08C183,230.66,180.18,233.33,179.19,234.46Z" style="fill:#37474f"></path><path d="M179,231.38c-.34-1.31-2-.62-2.8-.26a28.69,28.69,0,0,0-5.2,3.43c-1.69,1.26-3.28,2.64-4.86,4.06a95.47,95.47,0,0,1-7.73,6.54s-.1.06-.14.1l-1.13.8c-.25.12-.5.23-.73.36l-.77.7a.07.07,0,0,0,0,.13h0l.2-.12.28-.13.77-.34.88-.41h0c2.81-1.31,5.54-2.84,8.2-4.35,3.79-2.18,8.07-4.44,11.17-7.54C177.83,233.69,179.24,232.48,179,231.38Zm-.82,1.36c-.27.36-.59.71-.9,1a19.68,19.68,0,0,1-3,2.49c-2.07,1.44-4.2,2.79-6.36,4.09-2.52,1.52-5.11,2.85-7.72,4.16h0l-.72.35q.87-.64,1.71-1.35c1.35-1.1,2.64-2.28,3.92-3.43,1.71-1.55,3.42-3.11,5.25-4.53a31.17,31.17,0,0,1,6.22-4.17C177.55,231,179,231.55,178.15,232.74Z" style="fill:#263238"></path><path d="M163.94,189.58l-.2.27a.21.21,0,0,1-.36,0,.22.22,0,0,1,0-.22l.37-.52h0l.3-.42c.1-.3.19-.6.27-.91.88-3.3.5-7.35.85-10.62a44.87,44.87,0,0,1,1.67-8.82,22.17,22.17,0,0,1,4.22-8c.54-.62,1.83-2.27,2.89-1.85,1.34.53.8,3.64.78,4.58a36.45,36.45,0,0,1-1.61,9.67C171.25,179,167.86,184.37,163.94,189.58Z" style="fill:#37474f"></path><path d="M173.11,162.42c-2.42-1.34-5.17,10-5.53,11.46-.71,2.94-1.2,5.92-1.8,8.88a29.18,29.18,0,0,1-1,3.79s0,0,0,0c-.13.39-.28.78-.43,1.17s-.37.88-.57,1.32l-.26.53-.12.21a.2.2,0,0,0,.35,0c.06-.09.14-.18.2-.28a5.19,5.19,0,0,0,.25-.47l.06-.13c.13-.25.26-.5.37-.76a84.46,84.46,0,0,0,5.11-11.65q1.56-4.35,2.82-8.81a20,20,0,0,0,.81-3.91C173.39,163.47,173.56,162.68,173.11,162.42Zm-.53,4.16c-.32,1.29-.72,2.55-1.1,3.81-.81,2.59-1.67,5.15-2.63,7.69s-2,5-3.18,7.41l0,.09c-.09.23-.2.44-.31.66.24-.78.43-1.59.6-2.39a0,0,0,0,0,0,0c.35-1.66.62-3.35.92-4.89.5-2.6,1.06-5.2,1.79-7.74.36-1.27.76-2.52,1.22-3.75.39-1.08,2-4.93,2.9-4.68C173.32,162.93,172.74,165.94,172.58,166.58Z" style="fill:#263238"></path><path d="M160.94,243.52a163.57,163.57,0,0,1-16.12,9.35c-4.31,2.15-8.68,4.34-12.41,7.43a36.3,36.3,0,0,0-10.34,15.09q.44-3.79,1-7.6a68.13,68.13,0,0,1,3.4-15.28c.19-.48.39-1,.6-1.43a.18.18,0,0,0,.1-.06,62.86,62.86,0,0,1,13.18-13.37,51.59,51.59,0,0,1,9.71-3.18,42,42,0,0,0,9.91-3.18.16.16,0,0,0-.11-.3c-4.53,1.73-10.19,2-15.09,3.57.65-.42,1.32-.84,2-1.25,6.46-3.94,13.75-7,17.49-14,.13-.23-.23-.38-.37-.16-4.48,7.42-14,10.48-20.92,15.06-5.16,3.41-10.28,7.57-13.85,12.74A96.65,96.65,0,0,1,135,238.1c12.48-17.39,24.38-35.24,31.8-55.44.07-.2-.23-.34-.3-.14C158,204,144,221.94,131,240.74l-.44.65a41.4,41.4,0,0,0,1.55-10.12.13.13,0,1,0-.26,0c-.87,4.75-2.47,9.23-3.66,13.88a43.8,43.8,0,0,0-4.09,8.84,71,71,0,0,0-2.46,11.45c-.16-5.53-.39-11.06-.15-16.61a188.13,188.13,0,0,1,2.65-25.06.1.1,0,0,0-.19,0,159.28,159.28,0,0,0-3.81,26c-.41,7.43-.64,15.21.57,22.62-1.18,9.16-2.1,18.65-.82,27.76a.34.34,0,0,0,.67-.07c0-1.88,0-3.75.08-5.62,1.33-2.95,2.13-6.12,3.63-9a48.39,48.39,0,0,1,6.43-9.48c.18-.22-.14-.47-.33-.28-3.68,3.69-7.68,8.82-9.54,14.2.15-2.72.33-5.43.57-8.14,2.37-8.77,6.95-17.19,14.46-22.42,3.86-2.69,8.12-4.69,12.25-6.91a100.37,100.37,0,0,0,13-8.5A.18.18,0,0,0,160.94,243.52Z" style="fill:#37474f"></path><path d="M166,216c-2.85-1.28-4.86,3.14-2,4.43S168.83,217.25,166,216Z" style="fill:#FFC727"></path><path d="M161.9,229.14c-2.85-1.29-4.86,3.13-2,4.42S164.75,230.43,161.9,229.14Z" style="fill:#FFC727"></path><path d="M132.75,273.12c-2.85-1.29-4.86,3.14-2,4.43S135.6,274.41,132.75,273.12Z" style="fill:#FFC727"></path><path d="M132.69,228.41c-2.85-1.29-4.85,3.13-2,4.42S135.55,229.7,132.69,228.41Z" style="fill:#FFC727"></path><path d="M349.54,334a22.26,22.26,0,0,1,5.14,8.17c2.3,6.42.35,13.53,2.52,19.9.49.64,1,1.27,1.59,1.88l0,0h0a.1.1,0,0,1,0,.09l-.24-.18-.44-.33-.59-.5s-.1-.07-.11-.1c-5.41-4.84-7-12.59-9.24-19.23-1.28-3.8-3.42-7.19-4.76-10.95-.32-.89-1.17-2.46.2-2.79C345.17,329.67,348.6,333.07,349.54,334Z" style="fill:#37474f"></path><path d="M358.83,364h0s0,0,0,0h0l-.07-.08a.28.28,0,0,0-.08-.06h0l-.35-.35-.47-.52a12.75,12.75,0,0,1-.9-1.22l0,0c-4.12-6.37-1.49-15.49-5.47-22.07-.5-.82-2.56-3.8-3.78-3.59-1,.17.12,2.19.3,2.75,1.47,4.56,2.56,9.11,3.93,13.65a27.76,27.76,0,0,0,3.67,7.94l0,0v0c.42.61.87,1.19,1.36,1.77h0a10,10,0,0,0,1.22,1.4,7.29,7.29,0,0,0,.58.53,0,0,0,0,0,.07,0h0s0,0,0-.06v0Zm-7-13c-.76-2.63-1.49-5.27-2.23-7.89-.36-1.25-.71-2.49-1.09-3.73-.08-.33-1.14-2.42-.82-2.8.52-.65,2.5,1.79,2.79,2.17,4.57,6,2.18,14.84,5.21,21.38A35.52,35.52,0,0,1,351.83,351Z" style="fill:#263238"></path><path d="M388.5,402.52c.05.09,0,.27-.13.25-7.37-.59-12.67,6-20,5.84a33.06,33.06,0,0,1-8.7-1.6,26.43,26.43,0,0,1-6.08-2.42c-.25-.15-1.42-.68-1.55-1.18-.94-3.85,10.9-2.83,12.8-2.82,7.42.06,14.2.1,21.38,1.42.75.13,1.5.28,2.26.44A.1.1,0,0,1,388.5,402.52Z" style="fill:#37474f"></path><path d="M388.45,402.46c-.66-.15-1.33-.29-2-.4h-.07l-.2,0c-3.4-.13-6.83.08-10.21.27-5.31.32-10.54.14-15.85.05-.7,0-3.88-.58-4,.65s3.19,2.17,4,2.42a25.66,25.66,0,0,0,13.69,0c4.6-1.14,9.13-2.75,13.87-2.95h.18l.62,0S388.48,402.46,388.45,402.46Zm-13.22,2.2c-8.65,2.63-18.14,0-18.13-1.48,0-.56,1.24-.52,1.61-.51.74,0,1.49,0,2.22,0,1.48,0,2.95.11,4.42.15,2.69.1,5.39.08,8.06-.06,3.92-.2,7.81-.49,11.71-.42A54.77,54.77,0,0,0,375.23,404.66Z" style="fill:#263238"></path><path d="M373.82,397s.05.05,0,.07a.05.05,0,0,1-.08,0c-.18-.05-.35-.09-.52-.15-.63-.18-1.26-.38-1.87-.59l-.34-.12H371c-6.77-2.13-14.14.06-20.65-3.13a28.72,28.72,0,0,1-7.65-5.82c-1-1-4.57-3.67-3.59-5.39.76-1.34,3.4-.73,4.51-.47,3.52.84,6.79,2.9,9.89,4.69s6,3.66,8.95,5.5A58.26,58.26,0,0,0,371,395.9Z" style="fill:#37474f"></path><path d="M373.85,397.06l0,0h0l-2-.8-.81-.32c-.69-.24-1.4-.46-2.12-.66l-4.59-1.85h0l-.14-.05-4.44-1.82c-4.52-1.87-8.61-4.54-13-6.64-.55-.26-2.75-1.71-2.79-.4s6.11,5.9,9.36,7.54a16.84,16.84,0,0,0,5.56,1.66,79.67,79.67,0,0,1,10.74,2.12h0l.89.24c.32.1.63.23.94.35.62.2,1.24.41,1.87.6-.35-.15-.72-.3-1.07-.43.56.16,1.1.35,1.67.54h0v-.05Zm-13.78-3.59a17.38,17.38,0,0,1-7.57-2.31,77.88,77.88,0,0,1-6.43-4.62c-.44-.33-2.05-1.6-1.68-2.05s2.83,1,3.14,1.19c1.16.59,2.32,1.23,3.46,1.86,2.3,1.27,4.58,2.56,7,3.64,2.89,1.27,5.86,2.41,8.84,3.51A60.11,60.11,0,0,0,360.07,393.47Z" style="fill:#263238"></path><path d="M424.42,411.22s0,.12-.09.16a.92.92,0,0,1-.5.08l-1,.15c-6.36,1-12.25,3.94-18.68,4.78a18.47,18.47,0,0,1-8.85-.81c-1.21-.45-5.39-2-5.54-3.66-.41-4.19,17.54-2.95,28.54-1.66,2.17.25,4.08.51,5.51.72a1.09,1.09,0,0,1,.39,0h0Z" style="fill:#37474f"></path><path d="M424.19,411h-.49l-3.09-.06h0l-4.28-.05c-6.52-.1-13-.1-19.51.19-.63,0-2.51-.11-2.38,1s2.66,1.7,3.51,1.91a24.35,24.35,0,0,0,12.17,0c2.56-.64,5.06-1.44,7.66-1.94.21,0,.42-.08.63-.1,1.23-.23,2.47-.41,3.71-.55h0l.55-.05h1.63c.07,0,.11-.11.09-.16Zm-6.4.67c-2,.35-3.87.84-5.79,1.37-4.91,1.37-9.92,1.87-14.87.3-.32-.1-2-.64-2.18-1.25s1.9-.71,2.43-.73c1.35,0,2.69,0,4.05,0,2.72,0,5.45-.05,8.18-.05,2.47,0,4.93,0,7.4,0l3.06,0C419.31,411.44,418.55,411.57,417.79,411.71Z" style="fill:#263238"></path><path d="M372.1,378.42a.27.27,0,0,1,.14.2.31.31,0,0,1-.15.3.38.38,0,0,1-.17.08.16.16,0,0,1-.12,0c-4-1.17-9.36-1.42-13.42-2.44a32.74,32.74,0,0,1-8.8-3.81,44.11,44.11,0,0,1-8.49-6.53c-1.19-1.21-4.24-3.94-3.83-6,.83-4.19,11.33,3.78,12.65,4.59C357.33,369.35,364.73,373.85,372.1,378.42Z" style="fill:#37474f"></path><path d="M372.23,378.62l-.3-.13L369.1,377h0c-3-1.57-5.94-3.1-8.92-4.65-2.53-1.34-5.09-2.66-7.55-4.14s-4.49-3.12-6.83-4.54c-.6-.37-2.83-2-3.39-1-1,1.95,10.41,9.72,15.26,11.49,2.77,1,5.7,1.55,8.52,2.49,1.29.42,2.55.9,3.83,1.4l1.26.49.82.41.07-.05a.21.21,0,0,0,.07-.13.24.24,0,0,0,0-.08S372.23,378.64,372.23,378.62Zm-5.68-2.22c-2.8-1-5.72-1.51-8.5-2.51a35.64,35.64,0,0,1-7.83-4.16c-1.24-.85-2.45-1.74-3.64-2.65-.74-.55-3.86-3-3.78-3.95s2.21.46,2.76.79,1.24.82,1.84,1.25c1.24.87,2.48,1.74,3.75,2.55,2.3,1.43,4.7,2.72,7.1,4,3.48,1.8,6.93,3.64,10.42,5.44Z" style="fill:#263238"></path><path d="M406.65,366.67c-2,7.9-9.1,13.58-7,24.39,0,0,0,.06-.06.05a0,0,0,0,1,0,0c-.33-1-.62-2.07-.86-3.13a45.92,45.92,0,0,1-.72-17.51,34.47,34.47,0,0,1,3.12-10c.8-1.6,2.33-5.4,4.12-5.9C409.09,353.5,407,365.24,406.65,366.67Z" style="fill:#37474f"></path><path d="M403.45,359.9h-.06a1.18,1.18,0,0,0-.81.58,12.23,12.23,0,0,0-1.24,3.2,5.66,5.66,0,0,0-.27.79,49.25,49.25,0,0,0-2.65,13,47.59,47.59,0,0,0,.28,10.25.27.27,0,0,1,0,.09h0a.33.33,0,0,1,0,.1c.13.53.26,1.06.4,1.58s.29,1,.45,1.55h0l0,0c-.07-.51-.15-1.05-.23-1.57v0c-.11-.72-.2-1.46-.29-2.17a40.25,40.25,0,0,1,1.73-9.71c.69-2.28,1.66-4.57,2.45-6.89a28.24,28.24,0,0,0,1.16-4.35,16.87,16.87,0,0,0,.21-2.67v-.15C404.6,362.89,404.61,360,403.45,359.9Zm.73,5.71c-.05.25-.08.52-.13.79a27.83,27.83,0,0,1-1,3.82c-1,3-2.25,5.95-3.06,9a39.56,39.56,0,0,0-1.16,6.29,46.73,46.73,0,0,1-.23-5.57,51,51,0,0,1,1.9-12.72c.17-.58.41-1.41.71-2.3a22.48,22.48,0,0,1,1.53-3.9c.21-.37.41-.58.58-.6a.26.26,0,0,1,.24.06c.39.25.56,1.25.62,1.92a3.31,3.31,0,0,1,.06.51A14.32,14.32,0,0,1,404.18,365.61Z" style="fill:#263238"></path><path d="M385.13,341.05a37.34,37.34,0,0,1,4.23,7.75,36.78,36.78,0,0,1,2.43,16.76c0,.1,0,.2,0,.31.09.27.17.54.24.82l.06.18v0h0a.07.07,0,0,1-.14,0l-.5-.91c-3.46-6.21-7.9-11.73-10.43-18.45-.54-1.47-4.46-10.92-.51-11.07C382.34,336.44,384.27,339.82,385.13,341.05Z" style="fill:#37474f"></path><path d="M392.05,366.81v0a.32.32,0,0,1,0-.09c0-.11,0-.21-.08-.3,0-.27-.09-.56-.14-.83,0,0,0,0,0,0h0c-.06-.32-.12-.62-.19-.94v0c-.61-3-1.47-6-2.32-9-1.22-4.18-2.43-8.87-4.72-12.61-.48-.8-1.34-2.44-2.47-2.42-1.35,0-1.06,1.76-.9,2.64a28,28,0,0,0,2.11,5.85c.83,1.95,1.8,3.82,2.82,5.68a95.77,95.77,0,0,1,4.58,9.11.42.42,0,0,1,0,.12c.17.42.35.84.51,1.27l.18.79.51.91s0,0,0,0h0a.06.06,0,0,0,.08,0l0,0h0S392.06,366.85,392.05,366.81Zm-7.9-16.89a32.11,32.11,0,0,1-2.59-7c-.2-1.08.71-2.36,1.65-1.25a8.83,8.83,0,0,1,.82,1.11,19.55,19.55,0,0,1,1.73,3.49c.92,2.34,1.73,4.73,2.49,7.13.88,2.78,1.57,5.62,2.23,8.45v0a0,0,0,0,1,0,0c.07.26.13.54.2.8-.29-.67-.59-1.32-.9-2v0c-.77-1.56-1.62-3.09-2.45-4.61C386.23,354.07,385.1,352,384.15,349.92Z" style="fill:#263238"></path><path d="M337.94,345.4l.22.26a.21.21,0,0,1-.12.33.21.21,0,0,1-.22-.07l-.42-.47h0l-.34-.38a9.29,9.29,0,0,0-.82-.48c-3-1.62-7-2.21-10.13-3.3a45.54,45.54,0,0,1-8.18-3.69,22,22,0,0,1-6.81-6c-.48-.67-1.79-2.3-1.13-3.23.82-1.19,3.73.06,4.64.3a37.06,37.06,0,0,1,9,3.83C329.35,335.82,333.79,340.37,337.94,345.4Z" style="fill:#37474f"></path><path d="M338.15,345.66a1.47,1.47,0,0,1-.1-.13,1.49,1.49,0,0,0-.12-.14l-.37-.33-.11-.09a7.23,7.23,0,0,0-.69-.55,86.23,86.23,0,0,0-10.13-7.69c-2.58-1.68-5.21-3.3-7.92-4.8a20,20,0,0,0-3.59-1.7c-.37-.12-1.1-.47-1.45-.08-1.86,2,8.5,7.35,9.85,8,2.69,1.38,5.48,2.55,8.21,3.82a35.69,35.69,0,0,1,3.32,1.78l.1.06c.36.23.73.47,1.09.73h0l0,0h0c.37.26.73.54,1.07.79,0,0,0,0,0,0l0,0h0c.15.12.28.24.44.36a1.07,1.07,0,0,0,.19.18A.2.2,0,0,0,338.15,345.66Zm-5.31-3.5c-1.55-.75-3.14-1.4-4.57-2.06-2.42-1.08-4.81-2.24-7.12-3.54-1.13-.65-2.27-1.33-3.36-2.07s-4.31-3.13-3.87-3.89c.3-.54,3.09.73,3.67,1,1.17.6,2.31,1.3,3.44,2,2.33,1.38,4.63,2.83,6.88,4.35a73.6,73.6,0,0,1,6.36,4.76l.13.08s0,0,0,.05c.19.15.39.3.57.46-.71-.4-1.42-.78-2.16-1.13Z" style="fill:#263238"></path><path d="M413.74,398.08c-.15-.23.18-.48.34-.26.27.37.53.73.81,1.09a46.73,46.73,0,0,0,6.53,7l.06.07.13.1.13.68s0,0,0,.06c.16.48.32,1,.48,1.45a44.08,44.08,0,0,1-7.8-9.2C414.15,398.75,413.94,398.41,413.74,398.08Z" style="fill:#37474f"></path><path d="M426.56,412.57c-1.27-.29-2.52-.61-3.77-1-.22-.05-.44-.11-.65-.18h0c-.5-.14-1-.28-1.5-.44h0c-.79-.22-1.56-.47-2.34-.72-3.37-1.07-6.7-2.29-10-3.55a97.06,97.06,0,0,1-19.77-4l-.64-.19h0c-.48-.14-.95-.27-1.41-.42h-.06l-.24-.07a143.48,143.48,0,0,1-16.1-5.93h0c-.17-.07-.33-.14-.5-.23h0c-1.81-.79-3.61-1.6-5.4-2.46-.78-.36-1.55-.74-2.33-1.12-.11-.06,0-.23.06-.19q2.73,1.2,5.51,2.28c6,2.37,12.08,4.39,18.25,6.16,5.35,1.53,10.77,2.6,16.19,3.72a71.61,71.61,0,0,1-10.56-5.06,43.09,43.09,0,0,1-7.64-6.05c-3.71-2-7.19-4.18-11-6-.56-.28-1.12-.54-1.69-.79-.16-.07-.05-.29.11-.24.55.16,1.12.33,1.69.52a39.17,39.17,0,0,1,7.79,3.34c-.19-.19-.36-.37-.53-.56-3.17-3.53-6.29-7.1-9.41-10.64h0c-.22-.23-.41-.45-.6-.67l-.92-1-.83-.93c-9.47-10.7-19.11-21.15-30.34-30.07l-.09-.06c-.65-.52-1.3-1-2-1.53h0l-.67-.53-.1-.06c-.73-.56-1.45-1.09-2.2-1.63h0c-.39-.29-.78-.56-1.18-.84-.18-.13,0-.38.2-.27.82.53,1.62,1.09,2.41,1.65l.13.08c1,.72,2,1.45,3.05,2.19l.35.26h0A174.67,174.67,0,0,1,354.13,359c.47.43.93.88,1.4,1.33l1.35,1.32,0,0,.25.24h0c7.41,7.29,14.37,15.07,21.18,23a98.86,98.86,0,0,0,7.27,7.78c-4.2-4.68-7.05-10.63-9.16-16.45-2.73-7.53-3.53-17-9.1-23.16-.21-.24-.42-.47-.66-.7s0-.49.25-.32.51.47.76.72c5.26,5.24,6.52,12.68,8.73,19.56.24.75.49,1.49.76,2.23-.36-4.64.48-9.65.18-14.13,0-.47-.08-.93-.13-1.38a.16.16,0,1,1,.31,0c.12.5.23,1,.3,1.49a47,47,0,0,1,.47,8.88,52.84,52.84,0,0,0,.84,10.19,63,63,0,0,0,9.91,15.94.11.11,0,0,1,0,.11c.41.31.82.62,1.25.91a68.45,68.45,0,0,0,14.07,6.88q3.57,1.4,7.16,2.7a36.29,36.29,0,0,1-12.26-13.57c-2.13-4.36-3.24-9.12-4.33-13.8-1-4.34-2.21-8.55-3.58-12.75-.23-.68-.45-1.38-.69-2.06a.42.42,0,0,0,0-.12c-.32-1-.66-2-1-2.93a.18.18,0,0,1,.09-.22.17.17,0,0,1,.24.09c.16.36.31.72.46,1.08a0,0,0,0,1,0,0c.38.89.76,1.78,1.12,2.68v0c.07.18.15.36.21.54h0a86.55,86.55,0,0,1,3.44,10.27c1.07,4.08,1.93,8.21,3.37,12.19,0,0,0,0,0,.05a.8.8,0,0,0,.07.2h0c.12.35.26.72.4,1.07.09.2.16.41.25.61s.07.17.1.26c3.48,8.1,10.39,14.23,18.09,18.42,1.88.63,3.76,1.24,5.67,1.81a1.44,1.44,0,0,0,.3.36,8,8,0,0,0,.65.65h0l.23.18a3.65,3.65,0,0,0,.37.29c.21.15.44.3.66.44s.51.3.76.43Z" style="fill:#37474f"></path><path d="M364.07,349.58c-1.92,2.47,1.92,5.45,3.84,3S366,347.1,364.07,349.58Z" style="fill:#FFC727"></path><path d="M375.92,356.62c-1.91,2.47,1.92,5.46,3.84,3S377.84,354.15,375.92,356.62Z" style="fill:#FFC727"></path><path d="M411.89,395.23c-1.92,2.47,1.91,5.46,3.83,3S413.81,392.76,411.89,395.23Z" style="fill:#FFC727"></path><path d="M368.4,384.85c-1.92,2.47,1.91,5.45,3.84,3S370.32,382.37,368.4,384.85Z" style="fill:#FFC727"></path><path d="M142.3,292.72c1.08,3.11.8,6.93.61,10.15a79.65,79.65,0,0,1-1.44,11c-.67,3.38-1.49,6.73-2.38,10.05l0,.09-.18.66c0,.27-.07.54-.12.82a.18.18,0,0,1-.15.14c-.09,0-.18,0-.16-.16s0-.3,0-.45c.64-6.25-2.89-12-3-18.22-.07-3.4.8-6.79,1.48-10.11.38-1.83.5-4.21,1.24-5.93.2-.45.25-.95.76-1.18C140.55,288.84,141.93,291.63,142.3,292.72Z" style="fill:#37474f"></path><path d="M141.82,300.38c-.08-1.11-.2-2.22-.38-3.33-.08-.54-.18-1.63-.65-2-1-.82-1.59,1.41-1.79,2a29.77,29.77,0,0,0-1.46,13.32,75.14,75.14,0,0,1,1.22,11.36c0,.94,0,1.89-.12,2.83,0,.15-.1.31-.14.46s0,.3-.05.45.07.17.17.16,0-.19,0-.29c.15-.44.28-.88.4-1.32l0-.1c.1-.4.21-.79.31-1.2.41-1.76.71-3.57,1-5.37,0,0,0-.09,0-.12.16-1,.31-2,.47-3A62.66,62.66,0,0,0,141.82,300.38Zm-1.1,13.06c-.06.4-.11.8-.17,1.19a76.14,76.14,0,0,1-1.7,9.19,31.32,31.32,0,0,0,.13-3.21,41.16,41.16,0,0,0-.35-4.94c-.26-2-.66-4-.93-6.08a22.67,22.67,0,0,1,.34-6.82,28.92,28.92,0,0,1,1.46-6.31c.17-.4.64-1.28,1-1.22.61.12.75,2.11.81,2.57.16,1.17.26,2.35.31,3.52A64.61,64.61,0,0,1,140.72,313.44Z" style="fill:#263238"></path><path d="M113.5,340.13l0,0" style="fill:none"></path><path d="M133.31,379.35l-.26,0-.92,0h-2.78a11.56,11.56,0,0,0-3.46-.8c-3.46-.24-6.46.15-9.73-1.32a26.12,26.12,0,0,1-8.73-6.45,27.75,27.75,0,0,1-3-4c-.4-.69-1.75-2.4-1.54-3.27,1-4.05,12.93,3.36,14.52,4.36a132,132,0,0,1,14.83,10.56C132.64,378.76,133,379.06,133.31,379.35Z" style="fill:#37474f"></path><path d="M125.36,374.87a121.25,121.25,0,0,0-13.81-8c-.66-.31-3.38-2-4-.94s2.22,3.54,2.82,4.09c3.54,3.26,8.2,4.8,12.69,6.18a34.57,34.57,0,0,1,8.06,3.23h.46a20.76,20.76,0,0,0-3.49-1.85c-4.37-1.79-9.07-2.6-13.28-4.84a18.67,18.67,0,0,1-5.41-4.13c-.29-.33-1.7-1.79-1.37-2.35.22-.39,1.36,0,1.52,0a35.21,35.21,0,0,1,3.64,1.68c4.1,2.17,8.08,4.62,12,7.13,2.17,1.39,4.28,2.84,6.39,4.31h.52C129.91,377.84,127.64,376.34,125.36,374.87Z" style="fill:#263238"></path><path d="M121.68,299.2a27.93,27.93,0,0,1-1.42,11c-2.44,8.14-7,15.67-8.58,24.09-.06.33-.12.66-.17,1s0,.33-.12-.19h0c-.58-2.25-2.57-12.17-1.49-19.25a62,62,0,0,1,3.85-12.73c.91-2.36,1.8-4.74,2.72-7.1.3-.76.74-2.93,1.89-3.08C120.59,292.65,121.51,297.76,121.68,299.2Z" style="fill:#37474f"></path><path d="M118.64,302c-.06-.61-.19-1.81-.83-2.15a.75.75,0,0,0-1,.24,4,4,0,0,0-.5,1.45c-.24.86-.47,1.72-.71,2.59-1.64,6-3.81,12-4.47,18.22a50.12,50.12,0,0,0,0,10.39c.08.64.15,1.29.24,1.93v.41h0c.12.52.18.62.11.18s.11-.65.16-1a.25.25,0,0,1,0-.12c0-.42,0-.84,0-1.26a38.45,38.45,0,0,1,2.22-9.27,94.09,94.09,0,0,0,4.49-17.58A18.26,18.26,0,0,0,118.64,302Zm-.32,2.6a44.2,44.2,0,0,1-.69,4.57A125.32,125.32,0,0,1,113.22,325a33.12,33.12,0,0,0-1.76,7.92,67.89,67.89,0,0,1-.25-6.83c.11-5.83,1.82-11.33,3.34-16.92.38-1.38.75-2.77,1.14-4.14.18-.69.37-1.39.55-2.07l.28-1c.19-.69.1-1,.87-1.2,1-.24.81.3.93,1.11a8.66,8.66,0,0,1,.07.89A15.41,15.41,0,0,1,118.32,304.63Z" style="fill:#263238"></path><path d="M127,333.46a46,46,0,0,1,2.11,8.43c.87,5.75-.11,12.36,1.31,18.1.13.37.25.76.35,1.14,0,.15.07.29.1.43s-.1.12-.14.05c-.11-.24-.23-.49-.35-.73v0l-.19-.38c-2.76-5.61-6.34-10.74-7.46-17-.69-3.86-1.72-14.47.83-15.24C124.7,327.89,126.41,331.81,127,333.46Z" style="fill:#37474f"></path><path d="M130.77,361.13c-.16-.44-.31-.87-.45-1.32a70.18,70.18,0,0,1-2.63-14c-.12-1.16-.9-12.77-3-11.82-.61.28-.61,1.46-.66,2a23.72,23.72,0,0,0,.09,4,38.57,38.57,0,0,0,1.33,7.22,75.54,75.54,0,0,0,4.75,13.35c0,.08.06.12.09.19v0a1.51,1.51,0,0,1,.09.18h0c.13.24.23.49.35.72a.07.07,0,0,0,.14,0A3.39,3.39,0,0,0,130.77,361.13Zm-4.65-12.59a53.57,53.57,0,0,1-1.48-6.47,29,29,0,0,1-.31-3.6c0-.58-.21-3.9.48-4.17.86-.34,1.64,3.95,1.71,4.43.17,1.09.31,2.19.43,3.29.3,2.57.56,5.15.89,7.72a60.57,60.57,0,0,0,1.63,8.3C128.23,354.93,127.05,351.78,126.12,348.54Z" style="fill:#263238"></path><path d="M151.41,322.5c1.38,1.74.67,5.17-.12,7a16.39,16.39,0,0,1-5.33,6.27c-3.2,2.45-6.75,4.33-9.46,7.37s-1.82,2.11-3.73,6c0,.07-.11.07-.16,0a.76.76,0,0,1-.11-.63.36.36,0,0,1,0-.1c1.79-6.42,5.17-11.44,9.62-16.4,2.53-2.81,4.08-6.4,6.7-9.1C149.82,321.88,150.47,321.29,151.41,322.5Z" style="fill:#37474f"></path><path d="M149.87,325.86c-.94-.46-2.15,1.44-2.65,2.13a40.74,40.74,0,0,1-4.6,5.69,49.37,49.37,0,0,0-4.5,4.65,32.72,32.72,0,0,0-4,6.36c-.34.71-.65,1.45-.94,2.19a16.69,16.69,0,0,0-.71,1.61.77.77,0,0,0,.1.63c0-.08.06-.14.08-.22a21.23,21.23,0,0,1,1-2.21,23.06,23.06,0,0,1,6.94-7.73c3.65-2.68,7.08-5.67,9.07-9.83C150.05,328.39,150.75,326.3,149.87,325.86Zm-.18,2.74a17.33,17.33,0,0,1-1.11,2.08,22.94,22.94,0,0,1-2.59,3.38,40,40,0,0,1-5.77,4.86,24.29,24.29,0,0,0-6,6.24,33.09,33.09,0,0,1,4.58-7.25c1.65-2,3.67-3.55,5.37-5.46.78-.88,1.47-1.83,2.17-2.78l1.11-1.55c.33-.46,1.39-2.08,2.08-1.93C150.39,326.36,149.82,328.31,149.69,328.6Z" style="fill:#263238"></path><path d="M92.68,305.39c5.59,6.51,10.79,13.34,15.72,20.36a.21.21,0,0,1,0,.27.08.08,0,0,1,0,.05l.09.13a.11.11,0,0,1,0,.14h0a.1.1,0,0,1-.1,0c-3.5-3.53-6.79-6.83-11.22-9.2-4.06-2.16-8.06-4-11.56-7-3-2.61-11.4-15.35-10-18.34C76.52,289.76,88.22,300.22,92.68,305.39Z" style="fill:#37474f"></path><path d="M108.46,326.2l-.08-.13a.08.08,0,0,0,0,0c-.77-1-1.55-2-2.35-3-6.22-7.82-13.32-14.94-20.36-22-.73-.73-2.87-3.58-4.26-3s.77,3.45,1.17,4.06a41.61,41.61,0,0,0,5,6.33A41.52,41.52,0,0,0,93.92,313a74.25,74.25,0,0,1,12.62,11.28c.63.68,1.25,1.36,1.85,2.05h0A.09.09,0,0,0,108.46,326.2Zm-2-2.1a90.26,90.26,0,0,0-8.08-7.93c-4-3.41-8.78-5.65-12.19-9.69a30.93,30.93,0,0,1-4.46-6.39c-.15-.3-.71-1.34-.31-1.73s1.31.11,2.52,1.24c1,.95,2,2,2.92,2.93,3.83,3.85,7.63,7.72,11.3,11.72q4.26,4.62,8.18,9.51c.53.65,1,1.32,1.58,2C107.45,325.19,107,324.65,106.46,324.1Z" style="fill:#263238"></path><path d="M115.67,352.84a.1.1,0,0,1,0,.09.15.15,0,0,1-.19.1c-.17-.07-.36-.12-.54-.18h0c-4.06-.58-7.37.06-11.3,1a17.88,17.88,0,0,1-8.81-.14,29.55,29.55,0,0,1-8.82-4.14c-1.11-.73-4.67-2.39-4-4.34,1-3.21,11.79,1.15,13.66,1.78a82.7,82.7,0,0,0,10.12,2.87c3.39.71,6.79,1.32,9.94,2.84A.09.09,0,0,1,115.67,352.84Z" style="fill:#37474f"></path><path d="M113.53,352.32h0l-.46-.12c-1.81-.44-3.62-.95-5.44-1.3-2.21-.41-4.48-.4-6.71-.81-4.16-.79-8.11-2.36-12.22-3.34-.53-.13-1.59-.35-1.32.57.11.41.68.74,1,.95A18.74,18.74,0,0,0,91.24,350a24.54,24.54,0,0,0,11.23,2.83c3.71-.12,7.32-.67,11-.28a21.64,21.64,0,0,1,2.23.38.36.36,0,0,0,0-.1A13.73,13.73,0,0,0,113.53,352.32Zm-9.66.12a24.5,24.5,0,0,1-14-3.49,19.3,19.3,0,0,1-1.77-1.23c-.35-.29-.83-.91.48-.73a7.58,7.58,0,0,1,.91.23c1.06.28,2.11.59,3.16.91,2.25.68,4.5,1.38,6.79,1.91a42.73,42.73,0,0,0,6.17.82,49.34,49.34,0,0,1,7.43,1.38C110.06,351.82,106.91,352.25,103.87,352.44Z" style="fill:#263238"></path><path d="M104.07,343.85a.31.31,0,0,1,0,.19.32.32,0,0,1,0,.09.39.39,0,0,1-.08.1l0,0a.27.27,0,0,1-.28,0,12.44,12.44,0,0,1-1.73-.81c-6.7-2.67-13.57-5.49-19-10.33a44.29,44.29,0,0,1-7.21-8.42c-1-1.51-3.81-4.69-2.84-6.77s2.79-.71,4,.17a93.73,93.73,0,0,1,9.34,7.26,52.63,52.63,0,0,1,7.77,8.7c2.71,3.81,5.3,7.75,9.82,9.52A.32.32,0,0,1,104.07,343.85Z" style="fill:#37474f"></path><path d="M104.07,343.85l-.81-.38-.1-.06-.88-.46-.1-.05a42.07,42.07,0,0,1-10.43-8.76A112.34,112.34,0,0,0,79.6,322.8c-.56-.46-2.16-1.64-2.44-.35-.31,1.52,1.91,3.35,2.76,4.27a86.35,86.35,0,0,0,10.41,9.73,49.61,49.61,0,0,0,11,6.62c.88.4,1.77.74,2.67,1.06a.16.16,0,0,0,0-.09,50.17,50.17,0,0,1-7.18-3.5,70.76,70.76,0,0,1-14-11.2c-1.47-1.48-3-3-4.29-4.58-.21-.25-1.43-2-.94-2.43s2.17,1,2.37,1.19c1,.84,1.94,1.66,2.9,2.51A131.63,131.63,0,0,1,93.15,336.1a33.91,33.91,0,0,0,6.86,5.75,30.4,30.4,0,0,0,4.06,2.19.3.3,0,0,0,0-.13A.13.13,0,0,0,104.07,343.85Z" style="fill:#263238"></path><path d="M92.69,273.53a32.61,32.61,0,0,1,5.18,10.19c1.56,5.71,1.38,11.67,2.11,17.51,0,0,0,0,0,.06a39.94,39.94,0,0,0,.86,4.72c.08.33.16.66.26,1a.2.2,0,0,1,0,.2.27.27,0,0,1-.13.07.23.23,0,0,1-.14,0h0a.24.24,0,0,1-.15-.16c-.16-.46-.3-.94-.43-1.41a.1.1,0,0,1-.07-.07c-3.38-7.32-7.22-14.73-11.07-22a58.06,58.06,0,0,1-4.35-10c-.64-2.06-1.4-5.23.12-7.11a.46.46,0,0,1,.4-.21C88.52,266.92,90.93,271.05,92.69,273.53Z" style="fill:#37474f"></path><path d="M101,306.91c-.07-.3-.12-.6-.17-.9-.29-1.57-.57-3.15-.86-4.72,0,0,0,0,0-.06-1.38-7.57-2.91-15.07-6.77-22.06-.9-1.61-2.23-4.58-4.15-5.23-1.58-.52-1.28,1.34-1,2.28a64.47,64.47,0,0,0,2.67,7.39c1.06,2.73,2.16,5.45,3.31,8.14.6,1.41,1.26,2.82,2,4.23a78.05,78.05,0,0,1,4.83,11.26,0,0,0,0,0,0,0h.15a.18.18,0,0,0,.13-.06C101.05,307.11,101,307,101,306.91Zm-1-2.42c-1-2.54-2.27-5-3.38-7.48q-3.15-7-5.94-14.26c-.45-1.16-.89-2.31-1.32-3.48s-1.21-2.64-1.19-3.77c0-2.16,1.81-.66,2.39,0a12.32,12.32,0,0,1,1.3,1.88c.66,1.05,1.27,2.14,1.84,3.24a55.06,55.06,0,0,1,4.8,13.9c.77,3.69,1.3,7.43,2,11.13,0,.14.06.27.08.41C100.37,305.53,100.17,305,100,304.49Z" style="fill:#263238"></path><path d="M117.57,350a102.77,102.77,0,0,0,17,29.34l-1.23.05-.26,0c-.26-.29-.52-.59-.77-.89a87.34,87.34,0,0,1-10.39-15.12,103.86,103.86,0,0,0-8.32-10.65l-.14-.15-.36-.37-.71-.72-.44-.42a58.66,58.66,0,0,0-9.16-7.14.12.12,0,0,1-.07-.05l-1.32-.79a50.9,50.9,0,0,0-4.63-2.42c-.1,0-.06-.2.05-.16a.24.24,0,0,1,.1.05c1,.39,2.08.83,3.12,1.31.73.33,1.46.68,2.17,1l.1.05.88.46.1.06c.28.14.55.29.82.44a47,47,0,0,1,14.07,11.7c-.43-1-.84-2-1.23-3-3.61-9.23-6.79-18.62-10.22-27.91a2.6,2.6,0,0,0-.1-.25l-.06-.17a1,1,0,0,0-.08-.2l-.12-.34c-.1-.26-.2-.52-.29-.78l-.42-1.11c-3.22-8.47-6.79-16.8-9.87-25.32,0-.07-.05-.15-.08-.22A.26.26,0,0,1,96,296a.27.27,0,0,1,.16.13q2,4.14,3.85,8.38c.17.38.34.77.5,1.15s.37.84.55,1.27a1.31,1.31,0,0,1,.08.21c3.42,7.95,6.5,16.05,9.5,24.17.2.49.38,1,.55,1.48l.54,1.42s0,0,0,0C113.64,339.49,115.58,344.74,117.57,350Z" style="fill:#37474f"></path><path d="M140.56,313.49c0,.38,0,.77,0,1.14,0,.87-.07,1.73-.15,2.59,0,0,0,.08,0,.12-.08,1-.21,1.91-.35,2.88-.6,3.95-1.63,7.87-2.6,11.69-.93,3.65-1.93,7.28-2.84,10.93l-.45,1.85c-.16.66-.31,1.34-.46,2-.07.3-.13.61-.2.91-.15.67-.29,1.36-.43,2-2,9.91-2.13,20.72,2.46,29.62l-1,.05c-3.13-5.54-4.33-12.1-4.25-18.61,0-.3,0-.58,0-.88a.58.58,0,0,1,0-.26,50.06,50.06,0,0,1,.53-6c.95-6.52,2.89-12.82,4.74-19.12,1.16-3.91,2.13-7.79,2.94-11.72.08-.33.14-.65.21-1s.15-.74.22-1.11c.46-2.36.88-4.74,1.24-7.14A.17.17,0,0,1,140.56,313.49Z" style="fill:#37474f"></path><path d="M300.65,346.44c2.72,1.85,4.77,5.08,6.54,7.78a80.54,80.54,0,0,1,5.4,9.69c1.48,3.11,2.81,6.29,4.08,9.48l0,.09.25.63c.14.24.27.48.39.74a.15.15,0,0,1,0,.19.14.14,0,0,1-.23,0l-.23-.39c-3.22-5.39-9.49-7.92-13.29-12.82-2.09-2.69-3.41-5.93-4.84-9-.79-1.69-2.11-3.68-2.54-5.5-.12-.48-.37-.91-.1-1.41C296.93,344.37,299.7,345.79,300.65,346.44Z" style="fill:#37474f"></path><path d="M317.17,374.8c-.15-.44-.31-.88-.47-1.31l0-.09a56.14,56.14,0,0,0-2.86-6h0l-.09-.18c-.46-.9-.95-1.79-1.42-2.68a63.38,63.38,0,0,0-7.46-11.63c-.73-.84-1.48-1.68-2.28-2.45-.41-.38-1.13-1.21-1.75-1.24-1.27-.08-.43,2.08-.22,2.69a29.7,29.7,0,0,0,6.76,11.56,76.64,76.64,0,0,1,7.75,8.38l0,0c.55.75,1.08,1.51,1.57,2.32l.16.46.23.38a.12.12,0,0,0,.05.05.15.15,0,0,0,.13,0l0,0A2,2,0,0,0,317.17,374.8Zm-2.55-4,0,0a43.19,43.19,0,0,0-3.21-3.72c-1.42-1.49-2.93-2.86-4.36-4.32a22.73,22.73,0,0,1-3.8-5.69,29.71,29.71,0,0,1-2.59-5.93c-.11-.43-.26-1.41.06-1.57.57-.27,1.87,1.25,2.19,1.58q1.23,1.26,2.34,2.64A65.64,65.64,0,0,1,311.75,364c.19.37.38.71.58,1.07a.47.47,0,0,1,.07.12,78.75,78.75,0,0,1,4,8.26A26.27,26.27,0,0,0,314.62,370.82Z" style="fill:#263238"></path><path d="M305.8,401.67h0" style="fill:none"></path><path d="M351.42,422.1a.17.17,0,0,1,.17.11h0a.17.17,0,0,1,0,.17.26.26,0,0,1-.11.07c-4.24.66-9,.3-12.75,2.72-2.92,1.88-5.09,4-8.6,4.74a26.15,26.15,0,0,1-10.86,0,27.57,27.57,0,0,1-4.76-1.47c-.74-.3-2.84-.87-3.19-1.7-1.66-3.82,12.38-5,14.26-5.15,8.29-.65,17-.94,25.24.36,0,0,0,0,.06.05a.11.11,0,0,1,0,.08Z" style="fill:#37474f"></path><path d="M351.58,422.22c-.84,0-1.7.07-2.54.07h-1.45l1.22,0h.09l2.68,0a.14.14,0,0,0-.14-.11h-.6a0,0,0,0,0,0,0,.11.11,0,0,0,0,0c-1.12,0-2.25,0-3.39,0h-.07c-1,0-2,0-3.06.07-2.77.07-5.53.22-8.28.42a122.66,122.66,0,0,0-15.88,1.78c-.71.15-3.9.42-3.75,1.62.09.65,1.31,1.05,2.51,1.28.94.18,1.86.27,2.2.31,4.78.52,9.44-1,13.88-2.6,1.31-.46,2.62-.93,3.94-1.3.55-.17,1.12-.32,1.7-.45a19.16,19.16,0,0,1,3.15-.51c2.09-.14,4.19-.1,6.28-.17h.08c.47,0,.94,0,1.4-.06h0a.17.17,0,0,0,0-.12S351.59,422.23,351.58,422.22Zm-8.51.23H343a20,20,0,0,0-3.14.53c-1.69.44-3.33,1-5,1.58A47.06,47.06,0,0,1,326.3,427a18.52,18.52,0,0,1-6.17,0l-.64-.11c-.42-.09-2.42-.42-2.5-1.07-.05-.44,1.08-.83,1.25-.87a35.11,35.11,0,0,1,3.93-.81c4.59-.71,9.24-1.12,13.88-1.44,2.37-.17,4.74-.26,7.11-.33l.61,0Z" style="fill:#263238"></path><path d="M288,363.94a27.8,27.8,0,0,1,5.43,9.7c2.9,8,3.7,16.77,7.48,24.44.15.31.3.6.46.9.31.31.2.26-.21-.08,0,0,0,0,0,0-1.81-1.46-9.31-8.23-12.67-14.56a62.25,62.25,0,0,1-4.5-12.51c-.68-2.45-1.39-4.89-2.05-7.33-.21-.79-1.16-2.79-.32-3.6C283.18,359.33,287,362.88,288,363.94Z" style="fill:#37474f"></path><path d="M301.33,399c-.16-.29-.31-.59-.46-.89h0a.27.27,0,0,1-.07-.08h0v0c-.23-.33-.46-.68-.68-1a37.94,37.94,0,0,1-3.75-8.76,93.23,93.23,0,0,0-6.89-16.78A18.12,18.12,0,0,0,287.2,368c-.4-.45-1.23-1.33-1.94-1.23a.76.76,0,0,0-.66.8,3.84,3.84,0,0,0,.45,1.45c.33.85.65,1.67,1,2.5,2.24,5.77,4.13,11.94,7.27,17.29a49.81,49.81,0,0,0,6.24,8.34h0c.43.47.86.93,1.31,1.39l.24.32C301.53,399.23,301.64,399.29,301.33,399Zm-5.74-7.21c-3.4-4.75-5.31-10.19-7.41-15.57-.53-1.34-1.05-2.68-1.57-4l-.78-2-.39-1c-.27-.66-.53-.85,0-1.48s.82-.24,1.4.35a7.59,7.59,0,0,1,.6.66c.39.5.74,1,1.08,1.58a45.52,45.52,0,0,1,2.17,4.08,126.47,126.47,0,0,1,5.87,15.31,34.36,34.36,0,0,0,3.31,7.4A67.49,67.49,0,0,1,295.59,391.77Z" style="fill:#263238"></path><path d="M312.67,388.27a45.44,45.44,0,0,1,6.72,5.5c4.12,4.09,7.29,10,11.85,13.74.32.23.65.47,1,.72l.34.28c.06.05,0,.16-.09.12l-.72-.38h0l-.37-.2c-5.56-2.85-11.5-4.85-16.14-9.21-2.85-2.68-10-10.59-8.43-12.72C307.49,385.16,311.2,387.29,312.67,388.27Z" style="fill:#37474f"></path><path d="M332.54,408.51l-.35-.28c-.39-.25-.78-.52-1.16-.81a69,69,0,0,1-10.44-9.65c-.81-.87-8.35-9.72-9.46-7.69-.33.58.38,1.53.64,1.95a22.82,22.82,0,0,0,2.43,3.13,38.59,38.59,0,0,0,5.37,5A79,79,0,0,0,331.24,408l.1.05.21.11.17.08h0l.72.38C332.52,408.67,332.59,408.56,332.54,408.51ZM321,400.89a52,52,0,0,1-5.05-4.31,25.71,25.71,0,0,1-2.4-2.7c-.35-.44-2.49-3-2.09-3.63s3.67,2.19,4,2.53c.79.78,1.55,1.59,2.32,2.4,1.77,1.87,3.51,3.79,5.32,5.65a57.26,57.26,0,0,0,6.25,5.7A98.52,98.52,0,0,1,321,400.89Z" style="fill:#263238"></path><path d="M325.72,364.91c2.14.58,3.62,3.75,4.06,5.66a16.39,16.39,0,0,1-.54,8.22c-1.1,3.88-2.84,7.5-3.19,11.56s-.21,2.77.58,7c0,.09,0,.13-.13.11s-.31-.15-.46-.44A.73.73,0,0,1,326,397c-2.38-6.22-2.66-12.26-2.05-18.9.35-3.76-.54-7.57-.05-11.31C324.08,365.37,324.24,364.51,325.72,364.91Z" style="fill:#37474f"></path><path d="M328.3,371.25c-.16-.8-.86-2.89-1.81-2.72s-.88,2.45-.86,3.29a41.53,41.53,0,0,1-.3,7.31,48,48,0,0,0-.83,6.41,32.1,32.1,0,0,0,.6,7.45v0c.15.78.33,1.55.55,2.31A14.66,14.66,0,0,0,326,397h0a.36.36,0,0,0,.07.1.22.22,0,0,0,0,.08.6.6,0,0,0,.13.14.34.34,0,0,0,.12.09l.09,0h0l-.06-.2a17.29,17.29,0,0,1-.51-2.39h0a0,0,0,0,1,0,0,22.91,22.91,0,0,1,1-10.32C328.2,380.23,329.19,375.78,328.3,371.25Zm-2.9,22.13a33.12,33.12,0,0,1-.64-8.56c.16-2.56.82-5,1.05-7.57.1-1.18.09-2.36.08-3.53,0-.65,0-1.28,0-1.91s-.13-2.5.5-2.8c.83-.39,1.52,1.52,1.6,1.83a16.36,16.36,0,0,1,.35,2.33,22.58,22.58,0,0,1-.06,4.27,40.46,40.46,0,0,1-1.73,7.33A24.25,24.25,0,0,0,325.4,393.38Z" style="fill:#263238"></path><path d="M268.37,386.2c8.38,1.89,16.62,4.28,24.77,7a.23.23,0,0,1,.16.22.09.09,0,0,1,0,.05l.15.05a.09.09,0,0,1,.05.13l0,0h0a.11.11,0,0,1-.1,0c-4.91-.74-9.53-1.43-14.5-.69-4.54.68-8.83,1.62-13.46,1.27-3.95-.3-18.3-5.52-18.93-8.78C246.08,383.29,261.71,384.71,268.37,386.2Z" style="fill:#37474f"></path><path d="M293.5,393.53l0,0h0l-.15-.05v0a0,0,0,0,0,0,0c-1.23-.37-2.46-.71-3.71-1.05h0c-9.64-2.56-19.58-4-29.43-5.5-1-.15-4.44-1.16-5.23.12s2.68,2.3,3.36,2.55a41.74,41.74,0,0,0,7.77,2.12,41.39,41.39,0,0,0,7.87-.05,75.48,75.48,0,0,1,16.87,1.53l2.7.55a0,0,0,0,0,0,0v0s0,0,0,0S293.52,393.55,293.5,393.53Zm-2.91-.53a88.21,88.21,0,0,0-11.22-1.53c-5.22-.39-10.42.69-15.57-.52a30.79,30.79,0,0,1-7.38-2.46c-.3-.16-1.36-.66-1.29-1.22s1.12-.69,2.77-.5c1.37.16,2.74.41,4.09.61,5.38.81,10.74,1.65,16.06,2.66q6.18,1.2,12.26,2.77l2.42.64C292,393.29,291.31,393.14,290.59,393Z" style="fill:#263238"></path><path d="M315.13,410.58a.19.19,0,0,1,0,.09.15.15,0,0,1-.1.19l-.54.17s0,0,0,0c-3.61,2-5.89,4.45-8.48,7.55a18,18,0,0,1-7.16,5.14,29.92,29.92,0,0,1-9.55,1.94c-1.32.07-5.16.86-5.84-1.07-1.1-3.18,10.16-6.12,12-6.72a85.62,85.62,0,0,0,9.83-3.73c3.15-1.46,6.24-3,9.67-3.65A.11.11,0,0,1,315.13,410.58Z" style="fill:#37474f"></path><path d="M315.15,410.62l0,0a13.09,13.09,0,0,0-2,.85h0l-.45.18h0c-1.72.73-3.46,1.41-5.12,2.21-2,1-3.84,2.34-5.87,3.34-3.81,1.85-7.92,2.95-11.81,4.61-.5.22-1.48.67-.71,1.25.32.26,1,.18,1.35.17a20.09,20.09,0,0,0,3.36-.31,24.44,24.44,0,0,0,10.7-4.43c2.89-2.29,5.47-4.9,8.62-6.75a22.33,22.33,0,0,1,2-1A.07.07,0,0,0,315.15,410.62Zm-9.73,6.68a24.58,24.58,0,0,1-13.3,5.52c-.44,0-1.68.1-2.15.07s-1.21-.24-.05-.88a9.29,9.29,0,0,1,.87-.35c1-.41,2-.78,3.09-1.15,2.2-.81,4.43-1.58,6.58-2.53a40.92,40.92,0,0,0,5.45-3,48.3,48.3,0,0,1,6.78-3.31C310,413.12,307.74,415.34,305.42,417.3Z" style="fill:#263238"></path><path d="M300.45,410.28a.44.44,0,0,1,.12.15.3.3,0,0,1,0,.1.24.24,0,0,1,0,.12s0,0,0,0a.27.27,0,0,1-.21.19,12.66,12.66,0,0,1-1.87.38c-7,1.85-14.17,3.69-21.4,3a44.22,44.22,0,0,1-10.82-2.46c-1.71-.6-5.85-1.49-6.31-3.74s1.82-2.23,3.34-2.28a95.28,95.28,0,0,1,11.83.27,52.86,52.86,0,0,1,11.43,2.34c4.44,1.45,8.87,3.07,13.56,1.79A.35.35,0,0,1,300.45,410.28Z" style="fill:#37474f"></path><path d="M300.58,410.48l0,0a49.21,49.21,0,0,1-7.77,1.45h-.08a68.7,68.7,0,0,1-17.94-.61c-2.07-.31-4.14-.63-6.17-1.11-.33-.08-2.34-.73-2.22-1.39s2.36-.47,2.63-.45c1.28.08,2.54.17,3.82.27a131.23,131.23,0,0,1,14.23,2,34.15,34.15,0,0,0,8.88.53h0a31.56,31.56,0,0,0,4.59-.67.19.19,0,0,0-.06-.1h0a.08.08,0,0,0,0,0l-.65.13c-.36.05-.7.1-1.05.17a41,41,0,0,1-14-.76A114.7,114.7,0,0,0,268.24,408c-.71,0-2.7,0-2.16,1.17.65,1.42,3.53,1.55,4.76,1.79A87.72,87.72,0,0,0,285,412.55a50.09,50.09,0,0,0,12.89-1.29h0c.9-.2,1.78-.45,2.67-.73A.09.09,0,0,0,300.58,410.48Z" style="fill:#263238"></path><path d="M249.38,360.62a32.69,32.69,0,0,1,10.23,5.09c4.67,3.65,8.07,8.54,12.14,12.79l.05.05a38.79,38.79,0,0,0,3.5,3.28c.26.22.53.43.8.64a.24.24,0,0,1,.1.19.42.42,0,0,1-.07.13.36.36,0,0,1-.12.08h0a.26.26,0,0,1-.22,0c-.4-.28-.8-.58-1.19-.88a.1.1,0,0,1-.09,0c-7.08-3.86-14.58-7.52-22-11a58.57,58.57,0,0,1-9.47-5.45c-1.74-1.27-4.24-3.36-4.14-5.77a.45.45,0,0,1,.2-.41C242.1,357.8,246.49,359.68,249.38,360.62Z" style="fill:#37474f"></path><path d="M276,382.45l0,0-.65-.59-.12-.12,0,0-3.23-3-.11-.11-.05-.05c-5.63-5.25-11.33-10.36-18.59-13.66-1.69-.76-4.52-2.35-6.46-1.73-1.57.52-.22,1.83.54,2.45a63.5,63.5,0,0,0,6.55,4.34q3.72,2.34,7.51,4.55c1.31.78,2.68,1.51,4.09,2.24A77.39,77.39,0,0,1,276,382.85h0a.32.32,0,0,0,.12-.08.38.38,0,0,0,.06-.13Zm-2.31-1.33a.45.45,0,0,0-.12-.06,4.5,4.5,0,0,0-.41-.25c-2.15-1.31-4.42-2.43-6.61-3.66q-6.74-3.78-13.28-7.91c-1-.66-2.09-1.32-3.12-2s-2.55-1.4-3.2-2.3c-1.29-1.76,1.05-1.62,1.9-1.44a12.45,12.45,0,0,1,2.16.72c1.16.46,2.3,1,3.41,1.51a54.89,54.89,0,0,1,12.15,8.3c2.81,2.49,5.46,5.17,8.23,7.72l0,0,.3.28C274.61,381.72,274.14,381.41,273.65,381.12Z" style="fill:#263238"></path><path d="M360.29,422.77l-1.31.54c-2.78-.12-5.51-.38-8.22-.76-.2,0-.41-.05-.61-.09-.38,0-.75-.1-1.11-.17l-.14,0c-.48-.07-1-.16-1.45-.26-1.25-.22-2.48-.47-3.71-.76a86,86,0,0,1-17.34-5.94,102.62,102.62,0,0,0-13-3.58l-.2,0-.51-.09h0l-1-.15-.59-.07a58.61,58.61,0,0,0-11.77-.26c-.45,0-.91.08-1.36.13h0a49.18,49.18,0,0,0-5.24.82.08.08,0,1,1-.05-.16l.1,0c1.06-.29,2.14-.55,3.23-.78h0c.92-.2,1.84-.37,2.78-.52.35-.07.69-.12,1.05-.17l.69-.09h0a46.81,46.81,0,0,1,18.27,1c-.93-.55-1.85-1.1-2.77-1.67-8.39-5.27-16.56-10.91-24.86-16.32l-.21-.14-.15-.1-.19-.11-.28-.19-.73-.47h0l-1-.65c-7.61-4.86-15.42-9.4-22.94-14.39l-.24-.16a.25.25,0,0,1,0-.44.23.23,0,0,1,.21,0q3.79,2,7.52,4.1l1.64.93,0,0,1.16.67,0,0,.22.11c7.47,4.36,14.77,9,22,13.74.45.28.89.57,1.34.87h0l1.23.79.05,0c4.7,3.06,9.39,6.14,14.1,9.13a102,102,0,0,0,31.15,13.44c-5.84-2.58-10.72-7.14-14.53-12.41-.18-.24-.35-.48-.52-.74,0-.08-.11-.15-.15-.22a54.49,54.49,0,0,1-3.14-5.12c-3.12-5.8-5.32-12-7.59-18.19-1.4-3.82-2.95-7.51-4.64-11.16-.12-.29-.26-.58-.39-.87s-.33-.7-.5-1c-1-2.18-2.12-4.34-3.27-6.49a.17.17,0,0,1,.29-.18c.24.31.46.62.69.94a.47.47,0,0,1,.07.12c.46.64.9,1.31,1.31,2,.53.86,1,1.73,1.5,2.62a116.6,116.6,0,0,1,4.9,11c1.44,3.48,2.81,7,4.25,10.46.25.58.48,1.15.74,1.73v0c.27.62.54,1.24.82,1.86a0,0,0,0,0,0,0c.12.28.25.56.38.82.29.65.58,1.29.88,1.92,4.95,10.5,12.56,20.5,23.84,24A86.93,86.93,0,0,0,360.29,422.77Z" style="fill:#37474f"></path><path d="M199.73,382.49c-3.81,2.5-8,5.36-12.77,4.79-4.39-.52-9.16-2.38-11.19-6.6-.57-1.21-.74-2.07.77-2.32,2.31-.39,5,.78,7.14,1.44a46.13,46.13,0,0,0,8.51,1.84c2,.22,4.08.23,6.12.4l.77.07.29,0,.11-.06a.27.27,0,0,1,.21,0l.07.05A.24.24,0,0,1,199.73,382.49Z" style="fill:#37474f"></path><path d="M199.76,382.11c-3.45,2-7,4.42-11.2,3.76a18.51,18.51,0,0,1-5.52-1.93c-.79-.4-3.14-1.6-3.11-2.66,0-1.92,7.55,1.23,8.44,1.43a19.5,19.5,0,0,0,9.94-.67l.77.07a21.7,21.7,0,0,1-7,1.27c-3.31,0-6-1.29-9.07-2.14-.68-.18-2.8-.88-2.72.31.06.78,2.35,2,2.84,2.22a18.41,18.41,0,0,0,5.23,1.84c4.18.72,7.8-1.59,11.33-3.55Z" style="fill:#263238"></path><path d="M203.32,383.56c.05.17.12.33.18.5v0a.1.1,0,0,1,0,.12.19.19,0,0,1-.25.05.15.15,0,0,1-.06-.09l0-.08,0-.16h0l0,0c-2.25-2.15-4.15-4.67-6.44-6.81s-4.52-3.92-6.54-6.13c-1.28-1.39-7.2-8.66-3.1-9.8,1.81-.5,4.24,1.1,5.64,2.09a18.88,18.88,0,0,1,4.76,4.92C200.58,372.83,201.48,378.32,203.32,383.56Z" style="fill:#37474f"></path><path d="M203.5,384.06c-.05-.14-.1-.28-.15-.4a.62.62,0,0,0,0-.1c-.12-.2-.25-.4-.38-.59a92.28,92.28,0,0,0-4.51-10,22.5,22.5,0,0,0-3.83-5.05c-.53-.52-3.06-3-4-2.29-.61.43,0,1.75.25,2.2.85,1.91,2.52,3.36,3.91,4.87a86,86,0,0,1,7.73,9.82c.11.25.21.5.32.73s.17.41.27.61a1.76,1.76,0,0,0,.09.2.53.53,0,0,1,.06.14h0a.19.19,0,0,0,.26,0c-.08-.15-.14-.31-.21-.47l.23.35Zm-5.76-8.19c-1.25-1.52-2.55-3-3.9-4.41a19.34,19.34,0,0,1-2.16-2.54c-.47-.7-2-3.44.39-2.63,1.74.61,3.53,3,4.55,4.43a31.68,31.68,0,0,1,2.9,5c.94,2,1.75,4,2.6,6C200.76,379.7,199.29,377.75,197.74,375.87Z" style="fill:#263238"></path><path d="M211.9,393h0l-.13.11c-3.67,2-8.21,5.19-12.6,4.64-3.24-.41-7.48-2.54-8.56-5.88-1.21-3.76,5.63-2.52,7.38-2.28a126.29,126.29,0,0,1,13.87,3.19l.09,0h0C212,392.82,212,392.89,211.9,393Z" style="fill:#37474f"></path><path d="M212,392.78h-.84c-3.24,0-6.48-.23-9.7-.59-.8-.08-7-1.22-6.8.42.11,1,2.37,1.77,3.12,2a12.65,12.65,0,0,0,4.16.77c3.28.05,6.35-1.39,9.46-2.31l.44-.13h.1C212,392.89,212,392.81,212,392.78ZM203.69,395a12.87,12.87,0,0,1-4.33-.2c-.94-.21-4.35-1.06-4.31-2.27,0-.65.4-.55,1.14-.62a8.72,8.72,0,0,1,1,0c.83,0,1.67.15,2.49.25,1.46.2,2.9.35,4.36.46,2.38.21,4.78.31,7.16.33C208.7,393.61,206.28,394.72,203.69,395Z" style="fill:#263238"></path><path d="M214,381.68a24.58,24.58,0,0,1,.37,14.36.18.18,0,0,1-.26.12.17.17,0,0,1-.11-.22c0-.09,0-.19.07-.29-2.35-5.19-4.62-10.4-7.07-15.55-.58-1.21-4.11-9-1.15-9.21,1.82-.1,3.73,2.82,4.66,4.09A24.87,24.87,0,0,1,214,381.68Z" style="fill:#37474f"></path><path d="M213.64,386.43a27.76,27.76,0,0,0-1.86-5.42c-.74-1.6-1.72-3.84-3.07-5-.36-.33-.82-.62-1.1-.06-.55,1.07,1.19,4.7,1.62,5.74,1.78,4.26,3.13,8.58,4.51,13,.12.38.23.74.36,1.12,0,.14,0,.28,0,.42a.16.16,0,0,0,.21,0s0-.08,0-.12a5.29,5.29,0,0,0,.05-.56h0A28.89,28.89,0,0,0,213.64,386.43Zm.47,9c0-.16-.07-.31-.11-.46a82.83,82.83,0,0,0-3.22-10.21c-.67-1.68-1.45-3.32-2.05-5-.26-.72-1.06-2.74-.7-3.35s.77.1,1.08.47.53.82.71,1.09a28.65,28.65,0,0,1,4.3,17.22C214.12,395.27,214.11,395.36,214.11,395.45Z" style="fill:#263238"></path><path d="M217.82,400.82c-.52-.44-.77-.68-.77-.68l-.57.21c-.68-1-1.37-2-2.07-3-1-1.39-1.93-2.76-2.94-4.09a.85.85,0,0,1-.11-.14,3.81,3.81,0,0,1-.24-.32c-.09-.12-.18-.23-.28-.34h0a35.65,35.65,0,0,0-8.08-7.8c-1.05-.71-2.12-1.37-3.22-2h0c-.1-.07-.21-.12-.31-.18a.16.16,0,0,0-.09-.05h0l-.31-.18h0a1.49,1.49,0,0,1-.24-.14c-3.42-1.89-7-3.52-10.46-5.22-1-.48-2-1-3-1.47h0l-.19-.08-.21-.11c-4.4-2.17-8.77-4.41-13.21-6.46-.17-.08,0-.32.12-.25,3,1.35,6,2.63,9,3.93l1.2.52,2.37,1h0c1.58.69,3.13,1.38,4.69,2.11a119.09,119.09,0,0,1,13,6.62h0l.92.59c.19.13.38.25.56.39l.65.43a38.56,38.56,0,0,1,9.2,9.75,0,0,0,0,0,0,0l.53.77.26.37.12.19.18.25h0a1,1,0,0,1,.12.19c.15.21.3.44.45.67Q216.37,398.55,217.82,400.82Z" style="fill:#37474f"></path><path d="M172.19,373.23c-3.54-1.44-9.33-5.32-8.16-9.88a3.57,3.57,0,0,1,3.88-2.77c2.19.17,4.13,1.83,5.66,3.25,4.1,3.78,7.81,7.92,12.19,11.42,0,0,.37.3.47.37s0,.2-.13.13l-.42-.34C181.2,375.05,176.38,374.93,172.19,373.23Z" style="fill:#37474f"></path><path d="M185.83,375.3a.05.05,0,0,0,0-.05l-.09-.06a36,36,0,0,1-3.89-2.28,75.71,75.71,0,0,1-7.36-5.81c-.91-.79-5.23-4.75-5.79-1.78-.23,1.24.74,2.61,1.46,3.53a14.35,14.35,0,0,0,4.23,3.6,25.92,25.92,0,0,0,10.57,2.83l.51.05.15.08h0l.06,0s0,0,.06,0h0a.11.11,0,0,0,.1-.15Zm-1.12-.13a29.77,29.77,0,0,1-8.83-2.17,15.75,15.75,0,0,1-4-2.56,13.24,13.24,0,0,1-1.46-1.53,9.1,9.1,0,0,1-.9-1.3c-.57-1-.82-2.34-.29-2.8s1.13-.3,2.12.25a9.7,9.7,0,0,1,1,.61,27.09,27.09,0,0,1,2.19,1.79c1.18,1,2.36,2,3.58,3,.82.67,1.67,1.31,2.53,1.92a40.94,40.94,0,0,0,4.66,2.86Z" style="fill:#263238"></path><path d="M189.54,146.89c.8,2.92,1.39,5.89,2,8.86.32,1.68.61,3.37.94,5.06.35,1.86.55,3.81,1.73,5.35h0a1.58,1.58,0,0,1,.11.23v0a.23.23,0,0,1-.39.09l-.08-.11,0,0a7.85,7.85,0,0,1-1.19-1.2,39.66,39.66,0,0,1-3-3.45,37.42,37.42,0,0,1-4.85-8,31.68,31.68,0,0,1-2.35-8.05c-.33-2.22-.85-5.51,0-7.67.79-1.95,2.84-.18,3.7.79C188,141,188.79,144.13,189.54,146.89Z" style="fill:#37474f"></path><path d="M193.94,165.88l-.18-.32,0-.09a2.39,2.39,0,0,1-.12-.22c-.13-.21-.23-.43-.35-.66a52,52,0,0,1-3.48-10.27c-1.09-4.08-3.77-12.85-5.11-12.31-1,.42-.41,4-.2,5.56a30.77,30.77,0,0,0,1.92,7.17,39.6,39.6,0,0,0,7,11.24l.35.41,0,0,.07.1a.23.23,0,0,0,.39-.09A6.26,6.26,0,0,1,193.94,165.88Zm-.56-.15a43.77,43.77,0,0,1-6.28-9.9,30.65,30.65,0,0,1-2-6.29,30.33,30.33,0,0,1-.52-3.51c0-.51-.42-3.54.27-3.66.47-.08,1.58,2.34,1.61,2.39.23.48.43,1,.62,1.48.41,1,.75,2.07,1.08,3.11.71,2.28,1.29,4.62,1.92,6.92a40.84,40.84,0,0,0,3.29,9c.24.44.49.84.75,1.25C193.84,166.29,193.6,166,193.38,165.73Z" style="fill:#263238"></path><path d="M208.63,148.05c-.37,4.39-2.37,8.44-4.63,12.15-1.22,2-2.52,3.91-3.78,5.86a30.39,30.39,0,0,0-3.13,5.38,2,2,0,0,0-.1.26,7.8,7.8,0,0,0-.41,1.7.13.13,0,0,1-.07.09,1.09,1.09,0,0,1,0,.18c0,.05-.07.06-.08,0s0-.13-.05-.19v0a.12.12,0,0,1-.06-.13v-.07c0-.07,0-.13,0-.19-1.21-4.46,0-10,1.18-14.25a24.44,24.44,0,0,1,6.35-11.52c.82-.77,2.61-2.7,3.93-2.32S208.72,147.12,208.63,148.05Z" style="fill:#37474f"></path><path d="M205.77,149.24c-1.25-.53-3,2.73-3.4,3.5a47.12,47.12,0,0,0-3.25,7.43,42.2,42.2,0,0,0-2.8,12.76h0a.54.54,0,0,0,0,.15c0,.06,0,.13,0,.19s0,0,0,.06v0a.15.15,0,0,0,0,.08s0,0,0,0,.05-.14.08-.2c.15-.53.34-1.05.53-1.57h0l.1-.26a88,88,0,0,1,5.15-10.39,43.72,43.72,0,0,0,3.22-7.4C205.67,153,206.82,149.68,205.77,149.24Zm0,2.28c-.71,4.53-3.43,8.75-5.57,12.72a47.61,47.61,0,0,0-3.74,8.31A44.67,44.67,0,0,1,199.13,161a61.06,61.06,0,0,1,2.54-6.28,22.43,22.43,0,0,1,1.79-3.21,9.38,9.38,0,0,1,1.39-1.71C205.94,149,205.86,150.74,205.75,151.52Z" style="fill:#263238"></path><path d="M199.52,182.28a.26.26,0,0,1-.15.18l.08,0a.06.06,0,0,1,0,.09.07.07,0,0,1-.09,0c-4.87-2.1-9.91-5-13.52-8.93a20.64,20.64,0,0,1-3.72-5.6c-.62-1.41-1.87-4.25-1.08-5.79,1.61-3.09,7.47,4.86,8.35,6.06,1.6,2.19,3,4.51,4.58,6.73,1.71,2.43,3.6,4.72,5.48,7A.23.23,0,0,1,199.52,182.28Z" style="fill:#37474f"></path><path d="M199.38,182.46a.28.28,0,0,0,.14-.18c-.23-.17-.45-.34-.66-.53a44.4,44.4,0,0,1-9.3-10.11,41.57,41.57,0,0,0-4.18-5.53c-.39-.41-1.78-2.05-2.2-.76-.21.66,1.59,4.11,2.14,5a28,28,0,0,0,4.48,5.29,47.23,47.23,0,0,0,9.38,6.85,2.85,2.85,0,0,0,.3.16.08.08,0,0,0,0-.1Zm-8-5.77a32.37,32.37,0,0,1-4.78-4.94,21.6,21.6,0,0,1-1.53-2.28,13.93,13.93,0,0,1-1-1.92c-.64-1.62-.68-2.09-.44-2.26s.46,0,1.33.76a10.42,10.42,0,0,1,1.5,1.68c.64.85,1.25,1.72,1.86,2.61,1.21,1.75,2.4,3.54,3.72,5.2a34.71,34.71,0,0,0,6.58,6.35A53.3,53.3,0,0,1,191.42,176.69Z" style="fill:#263238"></path><path d="M207.07,169.27a13.15,13.15,0,0,1-.34,5.61c-.89,3.65-2.54,7.06-3.68,10.63-.17.54-.33,1.07-.47,1.62,0,.06,0,.75-.05.7s-.06-.25-.14-.66h0c-.4-2-1.53-8.13-1.25-11.61a27,27,0,0,1,1.18-6.43c.34-1,1.19-3.12,2.44-3.24S206.88,168.3,207.07,169.27Z" style="fill:#37474f"></path><path d="M204.78,168.87c-1.49-.26-2.32,6.5-2.45,7.38a38,38,0,0,0-.08,9.82c0,.37.09.73.15,1.1s.13.65.13.66,0-.64.05-.71,0-.18.07-.27c.12-.45.26-.9.4-1.33a0,0,0,0,1,0,0v0c.5-2.53,1.07-5.06,1.54-7.61a36,36,0,0,0,.62-5.59C205.22,171.86,205.45,169,204.78,168.87Zm-2.28,17.68c0,.08,0,.17-.05.25,0-.14,0-.27,0-.41a43.4,43.4,0,0,1,0-8.14,41.12,41.12,0,0,1,.74-4.9,22.1,22.1,0,0,1,.65-2.64c.12-.37.54-1.38.83-1.36s.47.85.49,1.21C205.34,176,203.41,181.22,202.5,186.55Z" style="fill:#263238"></path><path d="M202.93,124.89c-.22,9.6-8,17.21-8.8,26.71v.05c0,.29,0,.58-.05.88a.18.18,0,0,1-.25.15.13.13,0,0,1-.07-.13,1.48,1.48,0,0,1,0-.21,45.88,45.88,0,0,1-.85-16.31c.5-4.59,1.86-9.24,4.92-12.8.75-.88,2.18-2.67,3.58-2.3S203,123.71,202.93,124.89Z" style="fill:#37474f"></path><path d="M199.87,126.55c-.59-.15-1.1.54-1.41.89a15.91,15.91,0,0,0-1.94,2.94,24.34,24.34,0,0,0-2.2,6.86,49.8,49.8,0,0,0-.87,12.33c.07.93.16,1.85.31,2.77,0,.11.05.22.06.33a.17.17,0,0,0,.25-.15,8,8,0,0,1,.05-.84s0-.05,0-.08a28.73,28.73,0,0,1,.63-5.68,67.84,67.84,0,0,1,2.74-8.46C197.89,136.35,201.9,127.06,199.87,126.55Zm.21,2.12a32.86,32.86,0,0,1-2.12,6.82c-.81,2.24-1.63,4.48-2.39,6.74a33.65,33.65,0,0,0-1.38,5.51,26.64,26.64,0,0,0-.33,4.72,36.05,36.05,0,0,1-.28-4.65s0,0,0-.05a66.65,66.65,0,0,1,.64-8.26s0-.07,0-.11a30.81,30.81,0,0,1,1.68-7.08,18.37,18.37,0,0,1,1.83-3.52c.86-1.23,1.68-2.14,2.12-1.88S200.17,128,200.08,128.67Z" style="fill:#263238"></path><path d="M194.44,139.51c-.13,2.74-.19,5.48-.25,8.23,0,1.29-.05,2.58-.07,3.86v.08l0,1.4a78.29,78.29,0,0,0,.35,12.72,34.52,34.52,0,0,0,1.65,6.47l.23.66h0c.05.12.09.24.13.35a1.67,1.67,0,0,0,.08.2c.66,1.81,1.42,3.6,2.17,5.33,1,2.41,2.23,4.74,3.45,7.05a1,1,0,0,0,.1.21c.05.1.11.21.16.32l.09.16.15.3c.4.74.78,1.48,1.17,2.24l-.75.3a52.68,52.68,0,0,1-3.83-6.81l-.06-.14q-.18-.34-.33-.69c-.14-.28-.27-.56-.39-.85l-.91-2.05a55.22,55.22,0,0,1-4.05-12.36l-.06-.36a.77.77,0,0,1,0-.15c0-.08,0-.17,0-.25l-.05-.41c0-.24-.06-.49-.08-.73l0-.21a84.27,84.27,0,0,1,.06-11.57c0-.7.06-1.39.1-2.09,0-.38.05-.77.07-1.15,0-.59.09-1.18.13-1.76,0,0,0,0,0-.05.2-2.76.46-5.51.64-8.26C194.23,139.37,194.45,139.38,194.44,139.51Z" style="fill:#37474f"></path><path d="M100.49,319.21c-.79-.15-1.22-1.49-1.44-2.12a13.49,13.49,0,0,1-.88-5.11,14.23,14.23,0,0,1,.28-3.51,20.88,20.88,0,0,0,.52-2.8,45.13,45.13,0,0,1-2,6.69,25.66,25.66,0,0,1-1.41,2.7,10.69,10.69,0,0,1-1.53,2.18c-.28.28-1,1.06-1.37.59-.52-.66-.22-1.8-.08-2.52a11.27,11.27,0,0,1,.92-2.9A17.74,17.74,0,0,1,95.19,310a39.44,39.44,0,0,1,3.21-4.08,52.08,52.08,0,0,1-4.48,3.2,16.31,16.31,0,0,1-5.56,2.54c-.52.1-1.14.12-1.3-.51s.46-1.43.91-1.91a10.16,10.16,0,0,1,2-1.75,8.83,8.83,0,0,1,2.72-1c1.78-.41,3.59-.69,5.36-1.13-1.84,0-3.69-.19-5.53-.14a9.53,9.53,0,0,1-5.27-.89c-.48-.28-1.38-.89-1.4-1.52s1.1-.71,1.56-.75a14.26,14.26,0,0,1,5.88.95,41.67,41.67,0,0,1,5.64,1.93,1.56,1.56,0,0,1-.17-.25,26.94,26.94,0,0,1-2.5-1.3c-1-.47-2-.71-3-1.19a10.29,10.29,0,0,1-3.91-3.38c-.28-.41-.81-1.38-.27-1.81s1.55,0,2,.21a12.61,12.61,0,0,1,4.42,3.21,32.59,32.59,0,0,1,2.59,3c-.52-1-1-1.93-1.47-2.93a11.23,11.23,0,0,1-1.21-5.74c.07-.7.87-4,2.08-2.51a7.52,7.52,0,0,1,1.05,2.66,18.81,18.81,0,0,1,.52,3.25c.18,2.08.15,4.19.17,6.28a2.11,2.11,0,0,1,.21-.31,53.65,53.65,0,0,1,1.61-5.91,9.4,9.4,0,0,1,3-4.42c.43-.36,1.27-1.17,1.89-.83s.42,1.24.34,1.73c-.31,1.94-1.63,3.48-2.83,4.95l-2.12,2.58c-.58.71-1.26,1.4-1.79,2.15,0,.14-.09.27-.13.4h0l0,0a.11.11,0,0,1,.17,0c.41-.49.82-1,1.24-1.45a18.49,18.49,0,0,1,3.51-3.45,12.48,12.48,0,0,1,2.56-1.4,12.07,12.07,0,0,1,2.88-.85,2.08,2.08,0,0,1,1.94.57,1.59,1.59,0,0,1-.39,1.86,5.27,5.27,0,0,1-2,1.26c-1,.42-2.06.8-3.09,1.19l-6.51,2.5.1,0a27.56,27.56,0,0,1,6.59-.6,12.93,12.93,0,0,1,5.54,1.28c.49.25,1.46.72,1.3,1.42s-1.29.9-1.93.94a17.91,17.91,0,0,1-5.92-1c-1.92-.55-3.79-1.23-5.67-1.9l.07.1c.92.56,1.79,1.23,2.65,1.86a29.26,29.26,0,0,1,3,2.32,16.26,16.26,0,0,1,3.27,5.09c.25.52.5,1.45-.4,1.44a4.62,4.62,0,0,1-2.47-1.12,12.16,12.16,0,0,1-3.65-4.49,31.18,31.18,0,0,0-2.64-5l-.2-.17h0c.49,1.16.83,2.4,1.22,3.58s.63,1.69,1,3a11.14,11.14,0,0,1,.14,6C101.54,318.4,101.26,319.36,100.49,319.21Z" style="fill:#fff"></path><path d="M101.05,305a1.88,1.88,0,0,0-1.89-1.8,1.75,1.75,0,0,0-1.78,2,1.85,1.85,0,0,0,3.67-.23Z" style="fill:#FFC727"></path><path d="M297.77,407.46c-.09-.5.61-1.07.93-1.35a8.68,8.68,0,0,1,2.86-1.71,8.53,8.53,0,0,1,2.16-.64,15.28,15.28,0,0,0,1.79-.34,28.92,28.92,0,0,1-4.45.36,14,14,0,0,1-1.94-.22,7.31,7.31,0,0,1-1.66-.4c-.23-.11-.86-.35-.67-.69s1-.55,1.49-.63a7.43,7.43,0,0,1,1.94-.12,11.68,11.68,0,0,1,1.86.43,25.34,25.34,0,0,1,3.18,1,30,30,0,0,1-2.95-1.94,10.51,10.51,0,0,1-2.8-2.72c-.18-.3-.34-.66,0-.9s1-.06,1.35.1a6.26,6.26,0,0,1,1.5.77,5.79,5.79,0,0,1,1.21,1.4c.65,1,1.24,2,1.91,2.94-.44-1.09-.74-2.25-1.2-3.34a6.12,6.12,0,0,1-.68-3.35c.06-.35.21-1,.58-1.19s.68.5.81.76a9.18,9.18,0,0,1,.79,3.73,27.13,27.13,0,0,1,.16,3.82.7.7,0,0,1,.1-.16c0-.61.16-1.19.2-1.8s-.05-1.38,0-2.08a6.53,6.53,0,0,1,1.11-3.12c.18-.26.64-.8,1-.58s.35.93.36,1.27a8.18,8.18,0,0,1-.9,3.38,19.49,19.49,0,0,1-1.21,2.25c.45-.53.92-1.06,1.41-1.55a7.22,7.22,0,0,1,3.15-2.06c.43-.12,2.58-.4,2,.67a5,5,0,0,1-1.35,1.24,11.83,11.83,0,0,1-1.82,1.06c-1.2.59-2.47,1.06-3.71,1.55l.23.06a34.39,34.39,0,0,1,3.9-.41,6.11,6.11,0,0,1,3.33.76c.32.17,1,.49.94.94s-.65.53-1,.6a6.91,6.91,0,0,1-3.61-.55l-2-.66c-.56-.18-1.13-.43-1.7-.57h-.25a.07.07,0,0,1,0,.11l1.15.4a12,12,0,0,1,2.87,1.3,7.9,7.9,0,0,1,1.43,1.21,7.43,7.43,0,0,1,1.17,1.52,1.3,1.3,0,0,1,.11,1.29c-.26.39-.81.34-1.2.2a3.15,3.15,0,0,1-1.21-.9c-.49-.51-1-1-1.43-1.57l-3-3.31v.07a17.46,17.46,0,0,1,1.88,3.8,8.37,8.37,0,0,1,.52,3.6c0,.35-.09,1-.55,1.11s-.83-.57-1-.93a11.54,11.54,0,0,1-.79-3.77c-.12-1.27-.14-2.55-.18-3.83a.43.43,0,0,1,0,.07c-.13.68-.32,1.35-.5,2a19,19,0,0,1-.69,2.34,10.63,10.63,0,0,1-2.28,3.13c-.26.27-.75.63-1,.09a3,3,0,0,1,.1-1.74,7.87,7.87,0,0,1,1.83-3.21,20.75,20.75,0,0,0,2.4-2.74.75.75,0,0,1,0-.16h0c-.57.56-1.23,1.05-1.85,1.56a19.08,19.08,0,0,1-1.58,1.27,7.13,7.13,0,0,1-3.54,1.47C298.5,407.9,297.87,408,297.77,407.46Z" style="fill:#fff"></path><path d="M306.42,404.5a1.2,1.2,0,0,0,.63-1.55,1.11,1.11,0,0,0-1.62-.59,1.18,1.18,0,0,0,1,2.14Z" style="fill:#FFC727"></path><path d="M118.46,251.12c-.09-.51.61-1.07.93-1.35a8.68,8.68,0,0,1,2.86-1.71,8.58,8.58,0,0,1,2.15-.64,15.44,15.44,0,0,0,1.8-.34,29.05,29.05,0,0,1-4.46.36,14.23,14.23,0,0,1-1.94-.22,7.1,7.1,0,0,1-1.65-.4c-.23-.11-.87-.35-.67-.69s1-.55,1.49-.63a7.43,7.43,0,0,1,1.94-.12,11.94,11.94,0,0,1,1.86.43,24.7,24.7,0,0,1,3.17,1,29.84,29.84,0,0,1-2.94-1.94,10.54,10.54,0,0,1-2.81-2.72c-.18-.3-.33-.66,0-.9s1-.06,1.35.1a6.45,6.45,0,0,1,1.5.77,5.57,5.57,0,0,1,1.2,1.4c.66,1,1.25,2,1.92,2.94-.45-1.09-.75-2.25-1.2-3.34a6.22,6.22,0,0,1-.69-3.35c.06-.35.22-1,.59-1.19s.68.5.81.76a9.18,9.18,0,0,1,.79,3.73,25.7,25.7,0,0,1,.15,3.82l.11-.16c0-.61.15-1.19.2-1.8s-.05-1.38,0-2.08a6.64,6.64,0,0,1,1.11-3.12c.19-.26.64-.8,1-.58s.35.93.35,1.27a8.17,8.17,0,0,1-.89,3.38,24.35,24.35,0,0,1-1.21,2.25c.45-.53.91-1.06,1.4-1.55a7.33,7.33,0,0,1,3.15-2.06c.44-.12,2.59-.4,2,.67a4.81,4.81,0,0,1-1.34,1.24,11.83,11.83,0,0,1-1.82,1.06c-1.21.59-2.47,1.06-3.72,1.55l.24.06a34.39,34.39,0,0,1,3.9-.41,6.11,6.11,0,0,1,3.33.76c.31.17,1,.49.94.94s-.65.53-1,.6a6.91,6.91,0,0,1-3.61-.55l-2-.66c-.55-.18-1.12-.43-1.7-.57h-.24a.07.07,0,0,1,0,.11l1.16.4a12.17,12.17,0,0,1,2.87,1.3,8.26,8.26,0,0,1,1.43,1.21,7.8,7.8,0,0,1,1.17,1.52,1.33,1.33,0,0,1,.11,1.29c-.26.39-.82.34-1.2.2a3.15,3.15,0,0,1-1.21-.9c-.49-.51-1-1-1.43-1.57l-3-3.31v.07a17.5,17.5,0,0,1,1.89,3.8,8.37,8.37,0,0,1,.52,3.6c0,.35-.09,1-.55,1.11s-.83-.57-1-.93a11.54,11.54,0,0,1-.79-3.77c-.12-1.27-.15-2.55-.18-3.83a.43.43,0,0,1,0,.07c-.13.68-.33,1.35-.5,2a20.94,20.94,0,0,1-.69,2.34A10.66,10.66,0,0,1,123.1,255c-.25.27-.75.63-.95.09a2.88,2.88,0,0,1,.1-1.74,7.76,7.76,0,0,1,1.83-3.21,20,20,0,0,0,2.39-2.74,1.42,1.42,0,0,0,0-.16h0c-.57.56-1.23,1-1.85,1.56s-.87.77-1.58,1.27a7.17,7.17,0,0,1-3.54,1.47C119.19,251.56,118.55,251.62,118.46,251.12Z" style="fill:#fff"></path><path d="M127.1,248.16a1.21,1.21,0,0,0,.64-1.55,1.12,1.12,0,0,0-1.63-.59,1.17,1.17,0,0,0-.48,1.52A1.15,1.15,0,0,0,127.1,248.16Z" style="fill:#FFC727"></path><path d="M124.18,367.51c-.09-.51.61-1.07.93-1.35a8.71,8.71,0,0,1,2.86-1.72,9,9,0,0,1,2.15-.63,13.32,13.32,0,0,0,1.8-.35,27.86,27.86,0,0,1-4.46.37,14.23,14.23,0,0,1-1.94-.22,6.76,6.76,0,0,1-1.65-.41c-.23-.1-.87-.34-.67-.68s1-.55,1.49-.63a7,7,0,0,1,1.94-.12,11.94,11.94,0,0,1,1.86.43,24.7,24.7,0,0,1,3.17,1,29.84,29.84,0,0,1-2.94-1.94,10.69,10.69,0,0,1-2.81-2.72c-.18-.3-.33-.66,0-.9s1-.06,1.35.1a6.45,6.45,0,0,1,1.5.77,5.61,5.61,0,0,1,1.21,1.4c.65,1,1.24,2,1.91,2.94-.45-1.09-.75-2.25-1.2-3.34a6.22,6.22,0,0,1-.69-3.35c.06-.35.22-1,.59-1.19s.68.49.81.76a9.18,9.18,0,0,1,.79,3.73,25.7,25.7,0,0,1,.15,3.82.91.91,0,0,1,.11-.16c0-.61.15-1.19.2-1.8s-.05-1.39,0-2.08a6.71,6.71,0,0,1,1.11-3.12c.19-.26.64-.8,1-.58s.35.93.35,1.27a8.21,8.21,0,0,1-.89,3.38,24.35,24.35,0,0,1-1.21,2.25c.45-.53.91-1.06,1.4-1.55a7.24,7.24,0,0,1,3.15-2.06c.44-.12,2.59-.4,2,.66a4.67,4.67,0,0,1-1.34,1.24,11.89,11.89,0,0,1-1.82,1.07c-1.21.59-2.47,1.06-3.72,1.55l.24.05a34.36,34.36,0,0,1,3.9-.4,6.11,6.11,0,0,1,3.33.76c.31.17,1,.49.94.94s-.65.53-1,.6a6.91,6.91,0,0,1-3.61-.55l-2-.66c-.55-.19-1.12-.43-1.7-.58l-.26,0h0l0,0s0,.08,0,.11l1.15.4a12,12,0,0,1,2.87,1.3,8.26,8.26,0,0,1,1.43,1.21,7.51,7.51,0,0,1,1.17,1.52,1.33,1.33,0,0,1,.11,1.29c-.26.39-.82.34-1.2.2a3.37,3.37,0,0,1-1.21-.9c-.49-.51-1-1-1.43-1.57l-3-3.31v.07a17.5,17.5,0,0,1,1.89,3.8,8.33,8.33,0,0,1,.52,3.6c0,.35-.09,1-.55,1.1s-.83-.56-1-.93a11.43,11.43,0,0,1-.79-3.76c-.12-1.27-.15-2.55-.18-3.83a.43.43,0,0,1,0,.07c-.13.68-.32,1.35-.5,2a20.94,20.94,0,0,1-.69,2.34,10.49,10.49,0,0,1-2.29,3.12c-.25.27-.75.64-.95.1a2.88,2.88,0,0,1,.1-1.74,7.76,7.76,0,0,1,1.83-3.21,19.48,19.48,0,0,0,2.39-2.75.88.88,0,0,0,.05-.15h0c-.57.56-1.23,1-1.85,1.56s-.87.77-1.58,1.27a7.26,7.26,0,0,1-3.54,1.47C124.91,367.94,124.27,368,124.18,367.51Z" style="fill:#fff"></path><path d="M132.82,364.54a1.19,1.19,0,0,0,.64-1.54,1.13,1.13,0,0,0-1.63-.6,1.18,1.18,0,0,0-.48,1.53A1.15,1.15,0,0,0,132.82,364.54Z" style="fill:#FFC727"></path><path d="M365.43,364.49c-.15-.79.95-1.68,1.46-2.12a13.55,13.55,0,0,1,4.45-2.67,14,14,0,0,1,3.37-1,22,22,0,0,0,2.8-.54,44,44,0,0,1-6.95.57,22,22,0,0,1-3-.34,11,11,0,0,1-2.59-.63c-.36-.16-1.34-.55-1-1.07.43-.72,1.6-.86,2.32-1a11.07,11.07,0,0,1,3-.19,17.05,17.05,0,0,1,2.89.67,36.91,36.91,0,0,1,5,1.52,51.38,51.38,0,0,1-4.6-3,16.55,16.55,0,0,1-4.37-4.26c-.29-.46-.52-1,0-1.4s1.5-.09,2.1.16a10,10,0,0,1,2.34,1.2,8.63,8.63,0,0,1,1.89,2.19c1,1.51,1.93,3.09,3,4.59-.69-1.71-1.16-3.52-1.87-5.22a9.56,9.56,0,0,1-1.07-5.23c.09-.55.33-1.61.91-1.86s1.06.78,1.27,1.19a14.38,14.38,0,0,1,1.23,5.83,40.85,40.85,0,0,1,.24,5.95,2.79,2.79,0,0,1,.17-.25c0-.94.24-1.85.31-2.8s-.08-2.17,0-3.25a10.23,10.23,0,0,1,1.74-4.86c.28-.41,1-1.26,1.58-.92s.54,1.46.55,2a12.5,12.5,0,0,1-1.4,5.28,31.19,31.19,0,0,1-1.89,3.51c.71-.83,1.44-1.64,2.2-2.42a11.28,11.28,0,0,1,4.92-3.21c.67-.18,4-.63,3.09,1a7.23,7.23,0,0,1-2.11,1.93,18.29,18.29,0,0,1-2.83,1.67c-1.88.92-3.85,1.65-5.8,2.42l.37.08a54.41,54.41,0,0,1,6.09-.63,9.52,9.52,0,0,1,5.2,1.18c.48.28,1.55.77,1.46,1.47s-1,.83-1.5.94c-1.92.42-3.84-.26-5.64-.86l-3.17-1c-.87-.29-1.76-.67-2.65-.9l-.42,0h0l0,0a.11.11,0,0,1,0,.17c.6.21,1.2.41,1.8.63a18.3,18.3,0,0,1,4.48,2A12.15,12.15,0,0,1,387,363a11.92,11.92,0,0,1,1.83,2.37,2.06,2.06,0,0,1,.17,2,1.58,1.58,0,0,1-1.87.31,5.14,5.14,0,0,1-1.9-1.4c-.76-.8-1.48-1.63-2.22-2.45l-4.68-5.17v.1a27.42,27.42,0,0,1,2.95,5.94,13,13,0,0,1,.81,5.62c-.07.55-.15,1.62-.86,1.72s-1.3-.87-1.58-1.45a17.79,17.79,0,0,1-1.23-5.87c-.19-2-.23-4-.28-6l-.07.11c-.2,1.06-.5,2.11-.78,3.14a28.7,28.7,0,0,1-1.08,3.64,16.31,16.31,0,0,1-3.56,4.89c-.4.42-1.17,1-1.49.14a4.57,4.57,0,0,1,.15-2.71,12.14,12.14,0,0,1,2.87-5,32.23,32.23,0,0,0,3.73-4.28c0-.08.05-.16.08-.25h0c-.89.88-1.93,1.65-2.89,2.44s-1.35,1.19-2.47,2a11.16,11.16,0,0,1-5.52,2.29C366.56,365.17,365.58,365.26,365.43,364.49Z" style="fill:#fff"></path><path d="M378.92,359.86a1.87,1.87,0,0,0,1-2.41,1.75,1.75,0,0,0-2.54-.93,1.85,1.85,0,0,0,1.54,3.34Z" style="fill:#FFC727"></path><path d="M260,93.35a77.64,77.64,0,0,0-14.82-3.24,62.27,62.27,0,0,0-15.13,0,39,39,0,0,0-14.31,4.52,62.65,62.65,0,0,0-12.46,8.5c-7.66,6.61-13.42,15.09-18.09,24-2.37,4.46-4.49,9.06-6.73,13.62a77.55,77.55,0,0,1-7.74,13.17l-1.23,1.49-1.32,1.41a17.09,17.09,0,0,1-3.14,2.34,62.6,62.6,0,0,1-6.87,3.4c-4.67,2-9.41,3.8-14.12,5.66-9.4,3.73-18.83,7.58-27.29,13.11-4.17,2.79-8.12,6.07-10.79,10.34a48.69,48.69,0,0,0-6,13.83,77.72,77.72,0,0,0-2.43,15,91.62,91.62,0,0,0,.18,15.18,91.85,91.85,0,0,1-.42-15.2,77.43,77.43,0,0,1,2.2-15,49,49,0,0,1,5.89-14.05c2.69-4.4,6.7-7.78,10.89-10.64a94.48,94.48,0,0,1,13.36-7.37c4.61-2.15,9.31-4.07,14-6s9.45-3.68,14.08-5.69a61.33,61.33,0,0,0,6.74-3.36,16.65,16.65,0,0,0,2.95-2.2l1.27-1.37,1.2-1.44a78.41,78.41,0,0,0,7.67-13c2.24-4.54,4.38-9.14,6.77-13.63,4.73-9,10.57-17.57,18.4-24.17A63.48,63.48,0,0,1,215.49,94,39.59,39.59,0,0,1,230,89.57a62.93,62.93,0,0,1,15.21.3A78.14,78.14,0,0,1,260,93.35Z" style="fill:#37474f"></path><path d="M266.3,96.58a42.26,42.26,0,0,1,3.83,5.72,52.21,52.21,0,0,1,3,6.21,49.9,49.9,0,0,1,3.39,13.35,48.4,48.4,0,0,1-.61,13.8c-.87,4.51-1.84,9-2.76,13.5-1.83,9-3.61,18-4.64,27.11a123,123,0,0,0-.84,13.69,57.53,57.53,0,0,0,1.46,13.55,29,29,0,0,0,2.33,6.34,17.66,17.66,0,0,0,4,5.31c3.39,3,7.51,5.09,11.6,7.1,8.24,4,16.83,7.48,24.49,12.69A53.43,53.43,0,0,1,322,244a42.89,42.89,0,0,1,7.37,11.67A47.67,47.67,0,0,1,332.78,269a74.53,74.53,0,0,1,.13,13.77,75.06,75.06,0,0,0-.37-13.74,47.49,47.49,0,0,0-3.58-13.2,42.47,42.47,0,0,0-7.39-11.45,53,53,0,0,0-10.42-8.82,105.19,105.19,0,0,0-12-6.67c-4.12-2-8.32-3.84-12.47-5.84s-8.3-4.12-11.85-7.2a18.71,18.71,0,0,1-4.26-5.58,28.85,28.85,0,0,1-2.42-6.55A58.35,58.35,0,0,1,266.72,190a122,122,0,0,1,.89-13.79C268.69,167,270.45,158,272.4,149c1-4.49,2-9,2.89-13.46a48,48,0,0,0,.74-13.63,49.26,49.26,0,0,0-3.13-13.31,51.06,51.06,0,0,0-2.88-6.24A41.22,41.22,0,0,0,266.3,96.58Z" style="fill:#37474f"></path><path d="M106.4,243.69a59.81,59.81,0,0,0-9.67,1.95,58.7,58.7,0,0,0-9.19,3.44A41.52,41.52,0,0,0,72.25,261a34.49,34.49,0,0,0-4.84,8.43A41.92,41.92,0,0,0,65.86,274c-.2.79-.34,1.6-.52,2.39l-.26,1.2-.16,1.21a64,64,0,0,0,.54,19.62c-.32-1.62-.66-3.24-.94-4.86s-.46-3.28-.57-4.93-.23-3.31-.13-5l.07-2.49.26-2.48.14-1.24.23-1.23c.16-.81.31-1.63.5-2.44a41.16,41.16,0,0,1,1.55-4.75,34.73,34.73,0,0,1,4.89-8.71,41.4,41.4,0,0,1,15.76-12A55.13,55.13,0,0,1,106.4,243.69Z" style="fill:#37474f"></path><path d="M134.75,308.52a124.61,124.61,0,0,0,.86,16.83,127.53,127.53,0,0,0,3,16.57c2.71,10.86,6.94,21.49,13.72,30.44a51.38,51.38,0,0,0,12.08,11.51c.58.39,1.14.81,1.73,1.18l1.83,1a30.21,30.21,0,0,0,3.72,1.89c1.29.53,2.55,1.14,3.87,1.6l4,1.23a14.28,14.28,0,0,0,2,.49l2.06.41,2,.41c.69.1,1.39.15,2.08.23l4.17.41,4.2,0,2.09,0c.7,0,1.4-.1,2.09-.15l4.19-.32a20.73,20.73,0,0,0,2.08-.26l2.07-.33,4.15-.65.23,0,.17.15a141.12,141.12,0,0,0,16.24,11.44A169,169,0,0,0,247,412a162.25,162.25,0,0,0,37.86,12.09,158.36,158.36,0,0,0,19.78,2.23,146,146,0,0,0,58.63-9.72,140.68,140.68,0,0,1-58.65,10.32,158.28,158.28,0,0,1-19.89-2.15,162.41,162.41,0,0,1-38.1-12,169.7,169.7,0,0,1-17.69-9.35,129.25,129.25,0,0,1-16.36-11.57l.4.11-4.19.64-2.1.32a18.24,18.24,0,0,1-2.1.25l-4.23.31c-.7.05-1.4.12-2.11.14l-2.12,0-4.24-.06-4.23-.43c-.7-.08-1.41-.14-2.1-.24l-2.08-.43-2.08-.42a14.55,14.55,0,0,1-2.07-.51l-4-1.27c-1.33-.47-2.61-1.09-3.92-1.64a29.82,29.82,0,0,1-3.77-1.94l-1.85-1c-.6-.38-1.17-.81-1.75-1.21a52.14,52.14,0,0,1-12.19-11.71c-6.79-9.08-11-19.78-13.65-30.72a130.19,130.19,0,0,1-2.75-16.65A124.81,124.81,0,0,1,134.75,308.52Z" style="fill:#37474f"></path><path d="M193.87,122c-3.18,5-5,10.6-6.8,16.16s-3.48,11.22-5.81,16.65A38.45,38.45,0,0,1,177,162.6a18.26,18.26,0,0,1-1.42,1.74,13.44,13.44,0,0,1-1.61,1.59,23.27,23.27,0,0,1-3.8,2.39c-5.37,2.59-11.1,4.09-16.77,5.59s-11.42,2.73-17.08,4.25A86.71,86.71,0,0,0,119.81,184a29.79,29.79,0,0,0-3.71,2.25,35.61,35.61,0,0,0-8.58,9.79,38.59,38.59,0,0,0-5.5,16.5,38,38,0,0,1,5.08-16.75,39.8,39.8,0,0,1,5.31-7.08,37.48,37.48,0,0,1,3.27-3,30.17,30.17,0,0,1,3.77-2.37,56,56,0,0,1,8.15-3.46c2.79-1,5.62-1.79,8.45-2.57,5.68-1.55,11.4-2.88,17.07-4.34s11.37-2.94,16.61-5.44a22.27,22.27,0,0,0,3.65-2.26,10.69,10.69,0,0,0,1.52-1.49,19.9,19.9,0,0,0,1.38-1.66,41,41,0,0,0,4.28-7.56c2.39-5.33,4.14-10.95,6.05-16.5,1-2.76,1.94-5.54,3.1-8.24A41.37,41.37,0,0,1,193.87,122Z" style="fill:#37474f"></path><path d="M212.88,367.65a130.91,130.91,0,0,0,13.16,13,163.85,163.85,0,0,0,47,28.67,153.71,153.71,0,0,0,17.54,5.64,156.52,156.52,0,0,0,18.12,3.34,141.56,141.56,0,0,0,18.41.94c3.08.05,6.15-.19,9.23-.36,1.54,0,3.07-.27,4.6-.42l4.6-.49A141.38,141.38,0,0,1,308.63,419c-3.06-.39-6.14-.7-9.18-1.32s-6.06-1.21-9.07-1.89a153.76,153.76,0,0,1-17.68-5.6,155.88,155.88,0,0,1-32.53-17.66A159.37,159.37,0,0,1,225.71,381,123.22,123.22,0,0,1,212.88,367.65Z" style="fill:#37474f"></path><path d="M316.17,313.22c1.79,0,3.58.31,5.37.54s3.56.51,5.34.81q5.33.9,10.6,2.12A159.1,159.1,0,0,1,358.16,323a100.73,100.73,0,0,1,19.32,9.78,57.4,57.4,0,0,1,15.73,14.87c4.05,6.08,6.64,12.92,8.74,19.82s3.64,14,5.45,20.91a90.35,90.35,0,0,0,3.27,10.24,29,29,0,0,0,5.42,9.16,16.3,16.3,0,0,0,9.13,5.15,28.14,28.14,0,0,0,10.7-.29,28.14,28.14,0,0,1-10.74.53,16.72,16.72,0,0,1-9.45-5.06,29.64,29.64,0,0,1-5.65-9.25,88.46,88.46,0,0,1-3.42-10.28c-1.94-6.95-3.47-14-5.58-20.85s-4.72-13.61-8.7-19.52A56.42,56.42,0,0,0,377,333.54a104.34,104.34,0,0,0-19.09-9.82,161.13,161.13,0,0,0-20.52-6.56q-5.22-1.32-10.52-2.35-2.65-.51-5.32-.93A53.88,53.88,0,0,0,316.17,313.22Z" style="fill:#37474f"></path><path d="M136.89,360.7a57.23,57.23,0,0,1-7.48-8.22,77.67,77.67,0,0,1-6.07-9.33,81,81,0,0,1-7.86-20.82,94.33,94.33,0,0,1,1.1-44.25,105.7,105.7,0,0,1,8.11-20.76c1.66-3.33,3.57-6.53,5.5-9.7s4.09-6.22,6.34-9.18A157.87,157.87,0,0,1,167.87,207,150.86,150.86,0,0,0,151.45,222a165.16,165.16,0,0,0-14.31,16.94c-8.74,11.9-15.79,25.17-19.59,39.44a94.41,94.41,0,0,0-1.32,43.83,80.89,80.89,0,0,0,7.54,20.75,75,75,0,0,0,5.84,9.42A57.35,57.35,0,0,0,136.89,360.7Z" style="fill:#37474f"></path><path d="M230.56,212.15c24,41.23,56.18,88,72.16,91.27,17.06,3.5,78.07-14.79,98.82-23.76,6.79-2.94-22.57-49.12-30.21-51.17s-52.05,19.34-56.88,18.92c-2.57-.23-40.55-36.16-65.73-50.83C225.23,182.91,222.92,199,230.56,212.15Z" style="fill:#d3766a"></path><path d="M171.51,325.89h99.24l-8.17-36s12.58-15.65,8.5-31.43c-5.73-22.16-37.26-60.84-40.06-63.24-11.24-9.61-28.42-9.33-37.19-2C153.87,226.75,171.51,325.89,171.51,325.89Z" style="fill:#d3766a"></path><path d="M201.16,189.76c0,2.64,7.86,22.09,22.16,23.44,8.31.79,5.26-16.5,5.26-16.5l10.63-21.34-23.89-25S201.19,188.64,201.16,189.76Z" style="fill:#d3766a"></path><path d="M210.1,164.68a45.44,45.44,0,0,0,19.08,30.83l10-20.14-23.9-25Z" style="fill:#263238"></path><path d="M276.52,155.15c-11.71,37.25-35.34,34.44-43.37,31.9-7.29-2.3-31.82-11.06-24-49.31S238,93.14,254.9,97.52,288.23,117.9,276.52,155.15Z" style="fill:#d3766a"></path><path d="M273.53,147.39a25.84,25.84,0,0,1-2.53-1,4.29,4.29,0,0,1-2.39-1.48,1.37,1.37,0,0,1,.27-1.68,3.45,3.45,0,0,1,3.49-.27,5.1,5.1,0,0,1,2.87,2.28A1.49,1.49,0,0,1,273.53,147.39Z" style="fill:#263238"></path><path d="M246.34,140a24.46,24.46,0,0,0,2.68.42,4.39,4.39,0,0,0,2.82-.09,1.39,1.39,0,0,0,.6-1.59,3.45,3.45,0,0,0-2.9-2,5,5,0,0,0-3.62.54A1.49,1.49,0,0,0,246.34,140Z" style="fill:#263238"></path><path d="M241.49,170.78c.32.83.55,1.88,1.4,2.35a7,7,0,0,0,2.89.58.09.09,0,0,1,.05.17,3.59,3.59,0,0,1-3.69-.08,2.85,2.85,0,0,1-.94-3C241.23,170.62,241.44,170.66,241.49,170.78Z" style="fill:#263238"></path><path d="M255.39,165.78s-.92,3.93-1.6,5.68a8.65,8.65,0,0,1-8.11-6.38c-.06-.22.24-.32.36-.15a11.94,11.94,0,0,0,6.78,5.13c.31-.44,1.35-6.77,1.64-6.68a16.2,16.2,0,0,1,3.64,2.44c2.16-8.12,3-16.51,5.26-24.56a.26.26,0,0,1,.51.06c-.26,8.86-2.53,18.26-4.55,26.69C259.08,169.07,256,166.35,255.39,165.78Z" style="fill:#263238"></path><path d="M250,150.87c0-.1-.23.06-.25.17-.62,2.47-1.74,5.2-4.19,5.38-.08,0-.11.13,0,.14C248.32,157,249.78,153.31,250,150.87Z" style="fill:#263238"></path><path d="M244.73,150.65a2.66,2.66,0,0,1-.82.42,1.66,1.66,0,0,1-1.42-.12c-1.35-.76-1.32-2.48-.79-3.95,0-.11.11-.15.14-.05.28,1,.63,2,1.51,2.26a3.21,3.21,0,0,0,1.84-.39A9.26,9.26,0,0,0,244.73,150.65Z" style="fill:#263238"></path><path d="M249.12,154.13a4,4,0,0,1-1.39,1.59,2.88,2.88,0,0,1-2.28.28,2.57,2.57,0,0,1-1.66-1.63,4.48,4.48,0,0,1-.16-2.07,10,10,0,0,1,.28-1.23,5.72,5.72,0,0,1,1.28-2.25,9.26,9.26,0,0,0-.46,1.83,12.36,12.36,0,0,0-.12,1.7c0,1.17.36,2.24,1.23,2.45s1.76-.23,2.44-1.19a18.31,18.31,0,0,0,1.71-3.2A8.09,8.09,0,0,1,249.12,154.13Z" style="fill:#263238"></path><path d="M264.13,155c.05-.09.15.18.11.27-.88,2.39-1.48,5.28.44,6.81.06,0,0,.17-.07.13C262.07,161,262.91,157.12,264.13,155Z" style="fill:#263238"></path><path d="M268.58,157.76a2.86,2.86,0,0,0,.44.81,1.72,1.72,0,0,0,1.25.7c1.54.13,2.49-1.31,2.88-2.82,0-.11,0-.19-.1-.12-.78.66-1.66,1.32-2.51,1-.57-.21-.94-.82-1.31-1.36A8.14,8.14,0,0,1,268.58,157.76Z" style="fill:#263238"></path><path d="M263,158.16a4,4,0,0,0,.25,2.1,2.89,2.89,0,0,0,1.73,1.52,2.6,2.6,0,0,0,2.28-.41,4.57,4.57,0,0,0,1.31-1.63,8.3,8.3,0,0,0,.45-1.17,5.54,5.54,0,0,0,.21-2.58,8.14,8.14,0,0,1-.65,1.77,11.19,11.19,0,0,1-.85,1.48c-.67.95-1.56,1.64-2.39,1.33s-1.34-1.18-1.36-2.36a19.23,19.23,0,0,1,.39-3.61A8.11,8.11,0,0,0,263,158.16Z" style="fill:#263238"></path><path d="M208.32,138.67a16.06,16.06,0,0,0,14-7.46,42,42,0,0,0,21.55-4.33c-.61.6-5,4.88-7.25,7,24.11,7.33,39.66-6,39.66-6,3.43,10.83,2.48,16.12,2.33,18.92,0,0,7.18-13.4,5-26-2.73-15.47-15.4-19.4-15.4-19.4A35,35,0,0,0,233,95C210.64,103.08,208.32,138.67,208.32,138.67Z" style="fill:#263238"></path><path d="M255.25,138.93a45.6,45.6,0,0,1-13.42-1.73,0,0,0,1,1,0,0,38.88,38.88,0,0,0,21.21-1.36,36.92,36.92,0,0,0,8.19-4.16,25.49,25.49,0,0,0,7.28-6.86.19.19,0,0,1,.33.2,29.72,29.72,0,0,1-6.25,7.76,27.14,27.14,0,0,1-8.67,4.73,31.21,31.21,0,0,1-8.68,1.47Z" style="fill:#263238"></path><path d="M215.34,140.05s-3.23-14.52-9.5-13.82-7.08,19.48-2,24.19a6.6,6.6,0,0,0,9.53.09Z" style="fill:#d3766a"></path><path d="M205.74,131.62c-.09-.05-.17.08-.1.15,3.51,3.44,4.11,8.25,4,12.94-.61-2.07-2-3.63-4.67-3-.14,0-.1.25,0,.27a4.06,4.06,0,0,1,3.6,3,19.88,19.88,0,0,1,.6,4.15c0,.46.8.54.84,0v-.11C212.35,143.76,211.28,134.54,205.74,131.62Z" style="fill:#263238"></path><path d="M210,149c-.63-.5-.37-1.89-.28-2.55a13.49,13.49,0,0,1,1.64-4.93,13.27,13.27,0,0,1,1.9-2.95,22.32,22.32,0,0,0,1.77-2.24,45,45,0,0,1-4.89,5,23.84,23.84,0,0,1-2.52,1.72,11,11,0,0,1-2.37,1.21c-.38.11-1.38.47-1.49-.13-.15-.82.65-1.7,1.12-2.26a10.89,10.89,0,0,1,2.17-2.12,18.88,18.88,0,0,1,2.63-1.39,38.41,38.41,0,0,1,4.75-2.08,52.22,52.22,0,0,1-5.46.7,16.42,16.42,0,0,1-6.09-.36c-.52-.17-1.06-.44-.91-1.07s1.08-1.05,1.7-1.26a10.29,10.29,0,0,1,2.56-.62,9,9,0,0,1,2.85.43c1.76.48,3.49,1.08,5.26,1.53-1.64-.84-3.18-1.9-4.82-2.73a9.62,9.62,0,0,1-4.23-3.26c-.29-.48-.8-1.44-.52-2s1.31-.1,1.73.07a14.34,14.34,0,0,1,4.74,3.62,41.83,41.83,0,0,1,4.07,4.35,2.43,2.43,0,0,1,0-.3c-.62-.7-1-1.56-1.59-2.32s-1.47-1.59-2.1-2.48a10.07,10.07,0,0,1-1.86-4.82c-.06-.49-.07-1.6.6-1.72s1.36.75,1.71,1.14a12.62,12.62,0,0,1,2.38,4.91,32.59,32.59,0,0,1,.87,3.89c0-1.08,0-2.18.08-3.27a11.3,11.3,0,0,1,1.63-5.64c.39-.58,2.65-3.11,3-1.23a7.41,7.41,0,0,1-.33,2.84,20.11,20.11,0,0,1-1.06,3.12c-.83,1.92-1.85,3.76-2.82,5.61a3.59,3.59,0,0,1,.34-.17,53.73,53.73,0,0,1,4.2-4.46,9.53,9.53,0,0,1,4.71-2.5c.54-.11,1.67-.43,2.06.16s-.22,1.29-.52,1.69c-1.18,1.57-3.08,2.31-4.83,3l-3.08,1.29c-.84.35-1.77.64-2.59,1.05l-.3.29h0a.12.12,0,0,1,.13.12c.59-.24,1.19-.48,1.78-.7a18.56,18.56,0,0,1,4.72-1.39,12.4,12.4,0,0,1,2.92,0,11.67,11.67,0,0,1,2.93.61c.61.24,1.36.69,1.45,1.41s-.62,1.23-1.22,1.46a5.19,5.19,0,0,1-2.35.17c-1.1-.11-2.19-.26-3.29-.4l-6.92-.86a.46.46,0,0,1,.07.07,27.88,27.88,0,0,1,6.11,2.58,12.9,12.9,0,0,1,4.28,3.73c.31.46.95,1.32.48,1.86s-1.56.19-2.14-.06a17.86,17.86,0,0,1-4.78-3.65c-1.43-1.38-2.76-2.87-4.1-4.34,0,0,0,.08,0,.12.55.93,1,1.93,1.46,2.89a28.19,28.19,0,0,1,1.56,3.46,16.32,16.32,0,0,1,.49,6c0,.58-.24,1.51-1,1.08a4.6,4.6,0,0,1-1.66-2.15,12.18,12.18,0,0,1-1.1-5.68,31.59,31.59,0,0,0,0-5.67l-.1-.24h0c-.1,1.25-.39,2.51-.6,3.74s-.24,1.78-.58,3.11a11.21,11.21,0,0,1-2.69,5.34C211.33,148.81,210.64,149.53,210,149Z" style="fill:#fff"></path><path d="M217.23,136.73a1.88,1.88,0,0,0-.82-2.48,1.75,1.75,0,0,0-2.53.95,1.82,1.82,0,0,0,1,2.3A1.8,1.8,0,0,0,217.23,136.73Z" style="fill:#FFC727"></path><path d="M401.84,286.47A109.24,109.24,0,0,1,380.89,351h0a109.75,109.75,0,1,1-88.77-174.26q4.51,0,8.94.36a109,109,0,0,1,48,15.56,110.32,110.32,0,0,1,29.31,26,112.1,112.1,0,0,1,6.85,9.74A109.26,109.26,0,0,1,401.84,286.47Z" style="fill:#FFC727"></path><g style="opacity:0.1"><path d="M315.8,338.26c-1.38,3.69.92,3.84,1.08,5.38s0,4.46-4.46,8.92-11.83,3.53-13.37,5.37-4.15,9.69-7.84,12.3-4.3,1.08-9.53,2.15-9.22,7.84-10.76,11.07.31,8.6-3.38,8.76-5.38-7.84-8.76-12.14-4.45-8.15-5.53-13.22.61-15.68,0-19.83-11.68-11.52-15.68-16.6-9.53-15.21-9.22-18.59a13.8,13.8,0,0,1,4.61-8.46c1.85-1.38,1.08-2.15,1.38-3.38s1.85-1.54,2.16-3.07-.93-6.15-2.46-6.92-2.62,1.85-3.54,1.38-3.69-3.68-4.76-4-.77,2-2.31-.92-2.3-10.3-3.53-11.53-2.15,2.15-5.07,0-4.15-6.3-5.38-6.92-2.92.16-4.19-2.3,1.11-6.92,0-6.46-3.5,4-4.11.62,3.07-14.76,2.46-20.9a24.51,24.51,0,0,1,5.84-17.83s.61-3.38,1.23-5.54,13.83-10.75,15.37-13.21a12.14,12.14,0,0,0,1.08-4.38,109.29,109.29,0,0,1,65-21.29q4.51,0,8.94.36c.1.14.2.28.31.41,1.33,1.69,2.76,2.76,6.66,4.2s4.81,3.28,4,4.81-2.15,1.85-3.69,2-3-.72-4.61.31-3.28,6.56-5.43,6.86-5.94-4.91-6.76-6.45,1.84-4.82.59-6.36-3.46-1.23-6.94-1.53-11.58,1-11.27,2.36,11.88-.21,12.19,2.45-8.5,7.18-10,6.77-3.59-3.08-5.84-3.38-4.1,1.53-5.52,1.74-3.09-1.54-5.24-1.13-2.67,2.25-3.79,3-3.79.72-4.1,2.36,3.38,2.56,4.3,3.58-1.13,4.51-.2,5.23,6.66-4.3,8.09-5.53,2.66-6.56,5.74-6.46,4.1,5.33,5.12,5.84,3.28-1.23,6.66-.51,5.74,8.1,6.35,10.35,2.05,4.51.83,5.43-6.77-.61-7.48-2.05,3.69-3.59,3.38-4.1-2.87-1.23-4.2-.42-1.95,2.47-3.39,2.88-5.22-3.89-6.25-2.66,1,5.12,2.05,6,4.82,1.44,5.13,2.46-2.56,3.28-6.05,3.08-6.35-2.87-7.68-1.75-.62,4.1-1.54,5.13-5.94.3-8.4,3-3.59,6.66-6.05,8.91-3.58-.61-6.86,2.56-3.79,10.25-3.9,12.71,0,4.4-.81,4.1-2-2.46-2.26-3.79.72-3.59.72-4.41-4.72-5-7.48-5.43-5.23,1.84-7.28,3.48-5.74,1.34-7.07,2.67-2.35,13.11-1.33,15.88,2.36,2.77,5.64,1.33,1.43-4.2,3.38-3.59a4.6,4.6,0,0,1,3,4.31c0,1.64-3.89,5.53-3.38,6.66s3.89-.21,5.53.31,2.46,1.53,1.95,5.74-.21,7.47,2.25,8.86,3.84-2,4.92-1.54,2.61,2.92,4.15,2.77.77-1.54,3.69-2.46,1.84-1.54,2.46-3.38,2.46-3.38,4.45-2.46.62,2.3.77,3.84,3.69,1.69,6.46,2.61,4.3,0,9.83,1.85,5.84,7.37,8.15,8.3,10-.62,15.52,3.38,4,11.37,6.77,13.52,13.06,5.07,17.06,5.84,4.61-2,7.83-1.23,5.08,1.69,6.15,6.15C329.2,326.35,317.19,334.57,315.8,338.26Z"></path><path d="M233.22,259.67c.1.87,2.66,1.23,5.74,3s4.2,6.87,5.84,6.77,1.12-2.46,1.74-3.08,1.64-1.94,0-3.28-3.24-4.2-6.23-4.61-3.51-1.64-4.84-1.53A2.31,2.31,0,0,0,233.22,259.67Z"></path><path d="M250.12,268.28c-.45,1.26,0,2.15,3.28,3s6.36-.82,5.33-1.48-2.56-.36-2-1.49.41-2.77-2.25-2.46S250.53,267.15,250.12,268.28Z"></path><path d="M261.6,268.63c-1.12.16-1.74,2.11-.61,3.34s1.12,1,2.45,0,3.39-1.54,2.87-2.56S262.73,268.47,261.6,268.63Z"></path><path d="M270.51,272.82c.51-1.54,3.08,0,4.21,1.61s.61,4,0,5.74-1,3.79-2.46,3,.1-3.28-.11-4.72S270.1,274.07,270.51,272.82Z"></path><path d="M314.68,187.33c-.54,1.29,1.94,1.75,3.38,2.57s2.56,1.33,3.38,0a2.26,2.26,0,0,0-1.44-3.18C318.88,186.41,315.19,186.1,314.68,187.33Z"></path><path d="M334,199.32c.95,1,2.56.82,3.69,2.26s.72,3.89,2.15,4.61,2.46,0,2.56-1-2.05-3.58-1.84-4.1,3,.72,3.58,2.26-.61,3.69.82,4.1,1.13-1.44,1.75-1.85,1.94-.2,1.84-1.43a9.24,9.24,0,0,0-3.07-4.82,11.71,11.71,0,0,0-4.61-2.46,6.82,6.82,0,0,0-5.54.82C334.25,198.6,333.46,198.71,334,199.32Z"></path><path d="M378.37,218.63a1.79,1.79,0,0,1-.58,1.08c-2.15,1.54-4.71-3.79-7.68-4.81s-4.3-4.82-4.92-4-.41,1.95-1.33,3.28-2.26,1-2.87,3.59,2.87,7.27,2.05,8.81-1.85,1-3.49.92-1.33,1.33-3.48.72-.31-3.28-3.69-6.46-4.51-3.79-3.79-5.22-.31-3.49,1.23-3.69,2.77,2.05,3.79,2.66,2.36-1.23,2.46-2.87-3.59-3.89-4.92-5.16-1.43-5.9-.92-6.83,2-.61,2.46-2.86c.24-1.33-1.86-3.54-3.63-5.14A110.32,110.32,0,0,1,378.37,218.63Z"></path><path d="M393.67,310.5c.31-3.28-1.33-3.49.31-9.53s-1.74-12.51-3-13.84-3.89-.92-6,.41-.62,2.36-2.06,2.87-2.86-.31-4.19-.2-2.57,3.48-5.44,3.38-4.71-4.2-6.86-7.12-6.56-4.77-8-8.36,1.33-9.11.71-13.31-3.38-3.28-3.89-5.64.41-1.23,1.13-3.48-.82-3.49.61-7.38,4-5.84,3.38-7.58-2.56-4.61-2.66-6.66,2-1.95,5.84-4.82,4.92-2.66,7.89-1.64a42.2,42.2,0,0,0,6.56,1.85c1.74.3,4.1,4.81,4.81,4.61s.82-1.54,1.13-3.49a4.31,4.31,0,0,1,1.28-2.2A109.83,109.83,0,0,1,380.89,351C391.34,335,393.37,313.77,393.67,310.5Z"></path></g><path d="M377.12,355.86a109.74,109.74,0,1,1-85-179.13q4.51,0,8.94.36c.82.06,1.63.14,2.44.23a100.56,100.56,0,1,0,73.63,178.54Z" style="opacity:0.1"></path><path d="M401.84,286.47A109.24,109.24,0,0,1,380.89,351v0a110.36,110.36,0,0,1-39.42,33.5,110.91,110.91,0,0,0,34.61-31l0,0a110.41,110.41,0,0,0,4.35-123.32,107.82,107.82,0,0,0-6.89-9.8,110.89,110.89,0,0,0-29.47-26.13,109.65,109.65,0,0,0-48.3-15.65q-4.44-.36-9-.36a110.77,110.77,0,0,0-26.5,3.2,109.59,109.59,0,0,1,31.82-4.69q4.51,0,8.94.36a109,109,0,0,1,48,15.56,110.17,110.17,0,0,1,29.31,26,109.39,109.39,0,0,1,23.47,67.84Z" style="fill:#fff;opacity:0.30000000000000004"></path><path d="M180.13,204c-39.89,43.14-82.83,121.7-72.59,139.22,11.42,19.51,67-40.94,66.63-44.36-.25-2.58,12.12-45.6,26.2-85S190,193.34,180.13,204Z" style="fill:#d3766a"></path><path d="M107.55,342.33c8,14.09,34.8,22.71,96.44,40.86,8.53,2.52,40.61-56.65,31.64-59.81-11.3-4-56-16.92-59.4-17.45C147.65,301.42,102.12,332.78,107.55,342.33Z" style="fill:#d3766a"></path><path d="M198.92,379.3c22.35,14.12,48.34,26.14,75.9,24.39a13.66,13.66,0,0,0,8.34-3.25c12.36-.56,15.81-6.57,15.81-6.57,11.35-4.05,14-10.68,14-10.68s14.51-.82,15.47-9.67c1.11-9.93-19.49-6.83-31.85-12-28.33-12-65.25-36.9-73.08-41.17Z" style="fill:#d3766a"></path><path d="M258.12,369.79c8.4,3.36,16.58,6.87,25.39,9.07,9.68,2.41,19.39,3.11,29.27,4.07a.24.24,0,0,1,0,.48c-18.15,1.1-39-4.28-54.81-13.24C257.58,370,257.7,369.62,258.12,369.79Z" style="fill:#263238"></path><path d="M248.41,385.84c8.36,2.81,23.09,7.66,50.56,7.74.09,0,.12.15,0,.16-17.84,2.32-34.34-.42-50.71-7.5C247.77,386,247.85,385.65,248.41,385.84Z" style="fill:#263238"></path><path d="M243.35,394.56c14.4,4.24,24,5.09,39.75,5.82.09,0,.11.16,0,.16-18,1-24.6-.6-40-5.5C242.61,394.87,242.79,394.4,243.35,394.56Z" style="fill:#263238"></path><path d="M263.4,344.89c-3.08-3-1.51-4.66,6.1-3.81s37,10.64,39.57.1S269.93,317.4,257.15,317s-33.61,3.34-33.61,3.34C231.14,324.5,248.6,336.45,263.4,344.89Z" style="fill:#d3766a"></path><path d="M143.59,311.39c5.88-2.9,22.13-9.22,40.51-3.65.16.05.12.31,0,.28-14.09-2.82-34.47,1.32-40.37,3.63C143.52,311.71,143.45,311.46,143.59,311.39Z" style="fill:#263238"></path><path d="M396.24,211.48a9,9,0,0,1,1.43,10.63s8.57-1.34,12.47,4.71c2,3.12-1.19,9.07-1.19,9.07s6.91-.77,10.05,4.82c2.51,4.46-1.08,9.76-1.08,9.76s7,2.35,8.07,7.71c2.22,10.87-33.57,36.28-48.47,27-6.94-4.31,2.14-10.05,2.14-10.05s-15.05,5.09-20.47-2.15S366,259,366,259s-14.63,4.8-19.5-3.28c-5.07-8.41,8.33-13.05,8.33-13.05s-11.79.25-14.1-6.79c-3.82-11.62,23.45-13.13,30-20.58l-8.55-13.26S391,205.68,396.24,211.48Z" style="fill:#d3766a"></path><path d="M417.47,251.38c.12-.09.27.05.17.16-9.74,11.23-23.88,20.58-38.44,24-.47.11-.86-.62-.36-.84C393.18,268.31,405.39,261.51,417.47,251.38Z" style="fill:#263238"></path><path d="M409.17,235.84c.14-.11.32.11.2.24-10.1,11.52-26.31,21.61-43.56,23.56-.59.07-1.19-.47-.51-.6C376.67,256.88,398.34,245,409.17,235.84Z" style="fill:#263238"></path><path d="M353.54,242.44c16.46-2.51,30.47-10,43.74-19.84.17-.13.33.13.22.28-5.19,6.56-14.3,11.93-21.74,15.5A43.86,43.86,0,0,1,353.63,243C353.32,243,353.19,242.49,353.54,242.44Z" style="fill:#263238"></path></g><g id="freepik--Clouds--inject-13"><path d="M444.45,342.51H371.3s7.25-19.81,18.41-19.81,14.66,13.67,14.66,13.67,7.53-7.43,13.72-7.43,11.56,9.82,11.56,9.82S438.4,333.48,444.45,342.51Z" style="fill:#ebebeb"></path><path d="M232.93,391H171.28s6.11-16.7,15.52-16.7,12.35,11.53,12.35,11.53,6.35-6.26,11.57-6.26,9.74,8.27,9.74,8.27S227.83,383.41,232.93,391Z" style="fill:#ebebeb"></path><path d="M193.3,148H159.11s7.64-11.06,13.66-11.06,7.8,7.37,7.8,7.37,4.25-3.44,8.18-2.82S193.3,148,193.3,148Z" style="fill:#ebebeb"></path><path d="M368.14,286.8H334s7.63-11.07,13.65-11.07,7.8,7.38,7.8,7.38,4.25-3.45,8.18-2.83S368.14,286.8,368.14,286.8Z" style="fill:#ebebeb"></path><path d="M197,298.67H162.84s7.63-11.06,13.65-11.06,7.8,7.37,7.8,7.37,4.25-3.44,8.18-2.82S197,298.67,197,298.67Z" style="fill:#ebebeb"></path><path d="M122.14,269.66H55.55S64.67,249.3,74.43,248s14.42,15.13,14.42,15.13,6.29-5.8,11.24-5.8,8.76,7.64,8.76,7.64S118.75,259.77,122.14,269.66Z" style="fill:#ebebeb"></path><path d="M308.83,222H242.24s9.12-20.36,18.87-21.63,14.42,15.12,14.42,15.12,6.29-5.79,11.24-5.79,8.77,7.63,8.77,7.63S305.43,212.07,308.83,222Z" style="fill:#ebebeb"></path></g><g id="freepik--Sparkles--inject-13"><polygon points="189.36 358.02 195.1 359.09 196.38 365.14 197.66 359.09 203.4 358.02 197.69 356.63 196.38 350.91 195.07 356.63 189.36 358.02" style="fill:#FFC727"></polygon><polygon points="232.71 108.68 238.45 109.74 239.73 115.79 241.02 109.74 246.76 108.67 241.04 107.28 239.73 101.56 238.43 107.28 232.71 108.68" style="fill:#FFC727"></polygon><polygon points="397.69 301.44 403.43 302.5 404.71 308.55 405.99 302.5 411.73 301.44 406.02 300.04 404.71 294.33 403.4 300.04 397.69 301.44" style="fill:#FFC727"></polygon><polygon points="203.28 301.09 209.02 302.15 210.31 308.21 211.59 302.15 217.33 301.09 211.61 299.69 210.31 293.98 209 299.69 203.28 301.09" style="fill:#FFC727"></polygon><polygon points="105.23 236.28 108.44 236.88 109.16 240.26 109.88 236.88 113.09 236.28 109.89 235.5 109.16 232.31 108.43 235.5 105.23 236.28" style="fill:#FFC727"></polygon><polygon points="419.54 217.49 422.75 218.09 423.47 221.47 424.18 218.09 427.39 217.49 424.2 216.71 423.47 213.52 422.74 216.71 419.54 217.49" style="fill:#FFC727"></polygon><polygon points="190.77 125.07 193.98 125.67 194.7 129.05 195.41 125.67 198.62 125.07 195.43 124.29 194.7 121.1 193.97 124.29 190.77 125.07" style="fill:#FFC727"></polygon><polygon points="123.75 297.12 126.95 297.71 127.67 301.09 128.39 297.71 131.6 297.12 128.4 296.33 127.67 293.14 126.94 296.33 123.75 297.12" style="fill:#FFC727"></polygon><polygon points="72.61 319.79 75.82 320.38 76.53 323.76 77.25 320.38 80.46 319.79 77.26 319.01 76.53 315.81 75.8 319.01 72.61 319.79" style="fill:#FFC727"></polygon><polygon points="162.2 168.92 165.41 169.51 166.13 172.89 166.84 169.51 170.05 168.91 166.86 168.13 166.13 164.94 165.4 168.13 162.2 168.92" style="fill:#FFC727"></polygon><polygon points="292.93 176.34 296.14 176.94 296.86 180.32 297.57 176.94 300.78 176.34 297.59 175.56 296.86 172.37 296.13 175.56 292.93 176.34" style="fill:#FFC727"></polygon><polygon points="371.25 152.84 374.46 153.44 375.18 156.82 375.89 153.44 379.1 152.84 375.91 152.06 375.18 148.87 374.45 152.06 371.25 152.84" style="fill:#FFC727"></polygon><polygon points="322.07 322.58 325.28 323.17 325.99 326.56 326.71 323.17 329.92 322.58 326.72 321.8 325.99 318.6 325.26 321.8 322.07 322.58" style="fill:#FFC727"></polygon><path d="M182.78,310.35a.93.93,0,0,1,0,1.86A.93.93,0,0,1,182.78,310.35Z" style="fill:#FFC727"></path><path d="M168.75,186a.93.93,0,0,1,0,1.86A.93.93,0,0,1,168.75,186Z" style="fill:#FFC727"></path><path d="M297.59,117.76a.93.93,0,0,1,0,1.85A.93.93,0,0,1,297.59,117.76Z" style="fill:#FFC727"></path><path d="M383.61,167.06a.93.93,0,0,1,0,1.86A.93.93,0,0,1,383.61,167.06Z" style="fill:#FFC727"></path><path d="M379.67,270a.93.93,0,0,1,0,1.86A.93.93,0,0,1,379.67,270Z" style="fill:#FFC727"></path><path d="M412.92,259.73a.66.66,0,0,1,0,1.32A.66.66,0,0,1,412.92,259.73Z" style="fill:#FFC727"></path><path d="M309.12,143.48a.66.66,0,0,1,0,1.32A.66.66,0,0,1,309.12,143.48Z" style="fill:#FFC727"></path><path d="M263.08,212.3a.66.66,0,0,1,0,1.31A.66.66,0,0,1,263.08,212.3Z" style="fill:#FFC727"></path><path d="M346.5,342.8a.66.66,0,0,1,0,1.32A.66.66,0,0,1,346.5,342.8Z" style="fill:#FFC727"></path><path d="M242.52,330.56a1.79,1.79,0,0,1,0,3.57A1.79,1.79,0,0,1,242.52,330.56Z" style="fill:#FFC727"></path><path d="M74.81,204.7a1.78,1.78,0,0,1,0,3.56A1.78,1.78,0,0,1,74.81,204.7Z" style="fill:#FFC727"></path><path d="M220.88,96.1a1.78,1.78,0,0,1,0,3.56A1.78,1.78,0,0,1,220.88,96.1Z" style="fill:#FFC727"></path><path d="M282.8,167.14a1.79,1.79,0,0,1,0,3.57A1.79,1.79,0,0,1,282.8,167.14Z" style="fill:#FFC727"></path><path d="M289,343.91a1.79,1.79,0,0,1,0,3.57A1.79,1.79,0,0,1,289,343.91Z" style="fill:#FFC727"></path></g></svg>