<svg xmlns="http://www.w3.org/2000/svg" viewBox="0 0 500 500"><g id="freepik--background-complete--inject-9"><path d="M448,181.05a13.93,13.93,0,0,1-5.06,9.68,24.59,24.59,0,0,1-10,4.86c-7,1.82-15.27.59-22.22-1.46,2.78-7.56,10.9-12.16,15.17-14.24,6.74-3.28,20.93-5.12,22.13,1.16" style="fill:#f5f5f5"></path><path d="M402.14,205a11.9,11.9,0,0,1,11.95-.45,15.76,15.76,0,0,1,7.57,9.58c.55,1.86.77,4-.31,5.61a5.14,5.14,0,0,1-4.8,1.92,10.37,10.37,0,0,1-4.88-2.23c-4.95-3.72-9.07-8.24-9.53-14.43" style="fill:#f5f5f5"></path><path d="M384,204.22a23.32,23.32,0,0,1,4.7-.93,22.6,22.6,0,0,1,5.24,0,49.55,49.55,0,0,1,6.32.93,23.83,23.83,0,0,1,10.38,5.13,17.27,17.27,0,0,1,2.38,2.61,4,4,0,0,1,.65,1.12c-.12.09-1.14-1.45-3.4-3.29A25.47,25.47,0,0,0,400.1,205a54.41,54.41,0,0,0-6.22-1,24.18,24.18,0,0,0-5.1-.13A35.28,35.28,0,0,1,384,204.22Z" style="fill:#e0e0e0"></path><path d="M437.35,183.4a14.93,14.93,0,0,1-2.17,1.09c-1.42.65-3.48,1.56-6,2.67-5.11,2.22-12.21,5.2-20.13,8.3s-15.17,5.71-20.46,7.48c-2.64.89-4.78,1.58-6.28,2a12.93,12.93,0,0,1-2.34.62,15.05,15.05,0,0,1,2.24-.92l6.19-2.27c5.23-1.91,12.44-4.6,20.35-7.69l20.21-8.08,6.13-2.44A13.68,13.68,0,0,1,437.35,183.4Z" style="fill:#e0e0e0"></path><path d="M396.29,197.4a27.85,27.85,0,0,0,10.53-23.16c-.13-2.24-.85-4.87-3-5.6s-4.32.9-5.76,2.63a23.78,23.78,0,0,0-2.38,26.29" style="fill:#f5f5f5"></path><path d="M401.88,178.59a3.72,3.72,0,0,1,0,1.28c0,.82-.13,2-.3,3.45a31.62,31.62,0,0,1-3.31,11,19.87,19.87,0,0,1-3.94,5,19.09,19.09,0,0,1-4.31,2.89,18.81,18.81,0,0,1-3.25,1.25,3.94,3.94,0,0,1-1.25.26c-.05-.16,1.7-.65,4.24-2a19.18,19.18,0,0,0,7.8-7.78,35.28,35.28,0,0,0,3.45-10.66A42,42,0,0,1,401.88,178.59Z" style="fill:#e0e0e0"></path><path d="M469.21,266.76s-4.14-5.1-14.45,5.4a170.31,170.31,0,0,0-15,17s-2.51,2.09-3.77-.19-2.2-7.92-5.53-8-5.62,3.12-6.66,8.52-3.73,17.13-4,18.19-1.29,2.36-2.4.94-6.39-13-11.75-10.19-5.77,18.33-5.85,20-.59,2.26-1.46,2.42-2.27-3.92-3.9-7.16-4.11-6.72-7.06-4.82-7,12.35-2.31,32.88l2.8,9.37,9.52,2.42c20.69,4,31-.47,32.78-3.49s-1.78-5.36-5.08-6.88-7.42-2.78-7.29-3.65.67-1.4,2.36-1.54,17.17-1.11,19.81-6.57-9.16-10.32-10.62-11.37-.18-2.16.86-2.44,12.68-3.41,18-4.64,8.49-3.5,8.27-7-5.88-4.06-8.2-5.23S448,297,448,297s6.28-4.91,16.4-15.6,4.72-14.71,4.72-14.71" style="fill:#ebebeb"></path><path d="M385.87,352.31c7.47-7.82,21-21.5,32.49-33.3s21.95-22.49,29.45-30.27l8.88-9.22L459.1,277l.64-.64.22-.22a2.14,2.14,0,0,1-.2.24l-.61.67-2.38,2.54c-2.06,2.21-5.07,5.38-8.8,9.29-7.47,7.82-17.87,18.54-29.39,30.33S393.53,344.67,386,352.46" style="fill:#e0e0e0"></path><path d="M431.45,288.86a3.28,3.28,0,0,1,0,.71c0,.45,0,1.11,0,1.92,0,1.63-.17,3.87-.35,6.34s-.36,4.64-.49,6.32l-.13,1.92a3.12,3.12,0,0,1-.08.7,3.55,3.55,0,0,1,0-.7c0-.46,0-1.12,0-1.93.06-1.62.21-3.86.39-6.33s.32-4.64.44-6.33c.05-.76.09-1.4.13-1.92A3.12,3.12,0,0,1,431.45,288.86Z" style="fill:#e0e0e0"></path><path d="M431.22,307.21c0-.08,4.63,0,10.35.11s10.34.32,10.34.41-4.64,0-10.35-.11S431.22,307.29,431.22,307.21Z" style="fill:#e0e0e0"></path><path d="M412.7,324.53a3.27,3.27,0,0,1,.7.19l1.87.59c1.58.5,3.76,1.18,6.2,1.85s4.66,1.2,6.28,1.57l1.91.44a3.16,3.16,0,0,1,.69.2,3.37,3.37,0,0,1-.71-.08c-.46-.08-1.12-.19-1.94-.35-1.63-.32-3.87-.82-6.31-1.49s-4.63-1.38-6.19-1.94c-.78-.28-1.41-.51-1.84-.68A3.7,3.7,0,0,1,412.7,324.53Z" style="fill:#e0e0e0"></path><path d="M409.26,307.89a2.71,2.71,0,0,1,.2.63c.12.48.26,1.07.43,1.77.36,1.49.83,3.55,1.34,5.83s.94,4.35,1.24,5.86c.14.7.25,1.29.34,1.78a2.69,2.69,0,0,1,.09.66,3,3,0,0,1-.2-.64c-.12-.48-.27-1.06-.44-1.76-.36-1.49-.83-3.55-1.33-5.83s-.94-4.36-1.25-5.86c-.13-.7-.25-1.3-.34-1.78A2.33,2.33,0,0,1,409.26,307.89Z" style="fill:#e0e0e0"></path><path d="M391,321.1a3.87,3.87,0,0,1,.25.82l.57,2.25c.47,1.91,1.1,4.55,1.77,7.47s1.26,5.57,1.68,7.48l.47,2.28a4.57,4.57,0,0,1,.14.85,4.79,4.79,0,0,1-.25-.82l-.57-2.26c-.47-1.9-1.09-4.54-1.77-7.46s-1.26-5.57-1.68-7.49c-.19-.92-.35-1.68-.47-2.27A4.57,4.57,0,0,1,391,321.1Z" style="fill:#e0e0e0"></path><path d="M395.86,341.71a4.44,4.44,0,0,1,.89.21l2.4.67c2,.56,4.83,1.33,7.94,2.09s6,1.38,8,1.82l2.44.51a4.82,4.82,0,0,1,.88.22,5.91,5.91,0,0,1-.9-.1c-.59-.09-1.43-.23-2.46-.42-2.07-.38-4.92-1-8-1.74s-5.92-1.56-7.93-2.17c-1-.32-1.82-.58-2.37-.77A6,6,0,0,1,395.86,341.71Z" style="fill:#e0e0e0"></path><path d="M43.18,146a1.1,1.1,0,0,1,0,.24v.7c0,.65,0,1.55,0,2.68,0,.58,0,1.23,0,1.94s0,1.47.06,2.3c.06,1.65.06,3.53.23,5.61.07,1,.14,2.13.22,3.26s.23,2.3.35,3.52c.22,2.44.63,5,1,7.74A161.51,161.51,0,0,0,49,191.44a161.72,161.72,0,0,0,6,16.85c1.12,2.51,2.15,4.91,3.27,7.09.55,1.09,1,2.17,1.58,3.17l1.55,2.87c1,1.85,2,3.44,2.79,4.87l1.18,2c.38.6.73,1.14,1,1.63l1.43,2.27c.15.24.27.43.36.6s.12.2.11.21a.94.94,0,0,1-.15-.18l-.41-.57L66.22,230l-1.09-1.6c-.39-.6-.78-1.26-1.22-2-.85-1.41-1.88-3-2.86-4.84l-1.59-2.86c-.55-1-1.05-2.08-1.61-3.17-1.14-2.17-2.18-4.58-3.32-7.09a155.67,155.67,0,0,1-6.06-16.9,154.62,154.62,0,0,1-3.87-17.51c-.38-2.74-.78-5.33-1-7.78-.11-1.22-.25-2.39-.32-3.53s-.13-2.23-.19-3.27c-.15-2.08-.12-4-.15-5.63,0-.83,0-1.6,0-2.31s0-1.35.06-1.94c0-1.13.08-2,.11-2.68,0-.28,0-.51,0-.7A.72.72,0,0,1,43.18,146Z" style="fill:#e0e0e0"></path><path d="M52.27,190.92c-.1-5.14,1-10.44,4.11-14.55a24.14,24.14,0,0,1,2.8,13.72c-.53,5.58-3,10.78-5.41,15.84A67.37,67.37,0,0,1,52.27,190.92Z" style="fill:#e0e0e0"></path><path d="M47.2,158.32c1.26-5,3.74-9.81,7.79-12.95a24.11,24.11,0,0,1-.9,14c-2,5.26-5.72,9.62-9.38,13.87A67.39,67.39,0,0,1,47.2,158.32Z" style="fill:#e0e0e0"></path><path d="M37.73,173.25c4.27,3.62,6.72,8.26,9.29,12.56-5.86-.83-11.08-2.68-15.49-6.26a30.23,30.23,0,0,1-9.16-13C26.8,166.84,33.46,169.63,37.73,173.25Z" style="fill:#e0e0e0"></path><path d="M47.2,137.05c-.28,5.59-.63,10.83-4.35,15C40,146.9,38.27,141.62,38.44,136a30.16,30.16,0,0,1,4.76-15.17C45.67,124.47,47.49,131.46,47.2,137.05Z" style="fill:#e0e0e0"></path><path d="M50.17,206.92a36.74,36.74,0,0,1,9.72,11.74c-5.86-.84-11.08-2.69-15.48-6.27a30.17,30.17,0,0,1-9.17-13C39.67,199.68,45.9,203.3,50.17,206.92Z" style="fill:#e0e0e0"></path><path d="M146,452.57c.65-4.71-6-8.59-11-9-2.38-.2-4.86.17-7.12-.62-4.89-1.7-6.85-8-11.62-10-3.57-1.51-7.68-.17-11.14,1.58s-6.88,3.93-10.75,4.18c-3.36.21-7-1-10,.61-2.19,1.22-3.34,3.75-5.36,5.24s-4.56,1.77-7,1.9-5,.16-7.23,1.18-4.08,3.39-3.62,5.8Z" style="fill:#ebebeb"></path><path d="M475.56,244.18c.43-3.06-3.89-5.58-7.14-5.84-1.55-.12-3.16.11-4.62-.4-3.18-1.11-4.45-5.21-7.55-6.52-2.32-1-5-.11-7.23,1s-4.47,2.55-7,2.71c-2.18.14-4.55-.67-6.46.4-1.43.79-2.17,2.43-3.49,3.4a8.19,8.19,0,0,1-4.55,1.23,13,13,0,0,0-4.69.77,3.71,3.71,0,0,0-2.35,3.76Z" style="fill:#ebebeb"></path><path d="M192.92,86.74c.6-4.4-5.61-8-10.27-8.4-2.23-.18-4.54.16-6.65-.57-4.57-1.6-6.39-7.5-10.85-9.38-3.33-1.4-7.17-.15-10.4,1.47s-6.42,3.68-10,3.91c-3.13.2-6.54-1-9.29.57-2.05,1.14-3.12,3.5-5,4.89s-4.26,1.65-6.55,1.77-4.66.15-6.74,1.11-3.81,3.15-3.38,5.41Z" style="fill:#f5f5f5"></path></g><g id="freepik--Plant--inject-9"><path d="M422.7,121.57l-.12.29-.39.86c-.36.78-.88,1.87-1.53,3.26l-1.12,2.36c-.43.85-.93,1.76-1.44,2.74-1.06,2-2.19,4.23-3.65,6.63l-2.23,3.79c-.78,1.32-1.67,2.63-2.56,4-1.73,2.8-3.8,5.65-5.93,8.68a209.44,209.44,0,0,1-15.37,18.57,206.93,206.93,0,0,1-17.59,16.48c-2.9,2.31-5.62,4.55-8.31,6.46-1.33,1-2.59,1.94-3.86,2.8L355,201c-2.3,1.6-4.49,2.87-6.38,4-1,.58-1.83,1.13-2.66,1.61l-2.28,1.26-3.16,1.73-.83.44-.29.14a1.64,1.64,0,0,1,.27-.18l.8-.49,3.11-1.81,2.26-1.3c.81-.49,1.68-1.06,2.62-1.65,1.88-1.19,4.06-2.48,6.34-4.1l3.62-2.48c1.26-.87,2.51-1.85,3.84-2.82,2.67-1.91,5.37-4.16,8.25-6.48A212.79,212.79,0,0,0,388,172.42a212,212,0,0,0,15.36-18.49c2.14-3,4.21-5.85,6-8.64.89-1.38,1.79-2.69,2.58-4l2.25-3.77c1.48-2.37,2.63-4.63,3.71-6.57.53-1,1-1.88,1.48-2.72l1.16-2.34,1.62-3.22.43-.83C422.63,121.66,422.69,121.56,422.7,121.57Z" style="fill:#263238"></path><path d="M384.29,169.71c3.26-6.08,5.17-13.12,4-19.91a32.36,32.36,0,0,0-11.76,14.69c-2.79,7-3,14.72-3.24,22.26C377.81,181.54,381,175.79,384.29,169.71Z" style="fill:#455a64"></path><path d="M410.33,133.83c1.55-6.71,1.55-14-1.37-20.26a32.47,32.47,0,0,0-7.49,17.26c-.85,7.49.94,15,2.72,22.33C407.18,147,408.78,140.55,410.33,133.83Z" style="fill:#455a64"></path><path d="M412.51,157.5c-7.33,1.7-13.1,5.76-18.82,9.33,7.52,2.59,14.9,3.57,22.37,2A40.58,40.58,0,0,0,435,158.91C429.51,156.53,419.83,155.79,412.51,157.5Z" style="fill:#455a64"></path><path d="M423.37,108.4c-3.09,6.86-5.88,13.34-4,20.62,6.62-4.41,11.88-9.68,15.16-16.57a40.64,40.64,0,0,0,3.59-21.06C432.91,94.29,426.45,101.54,423.37,108.4Z" style="fill:#455a64"></path><path d="M377,190.13c-7.32,1.71-13.26,4-18.82,8.08,7.52,2.6,14.9,3.58,22.37,2a40.67,40.67,0,0,0,18.92-9.92C394,187.91,384.32,188.43,377,190.13Z" style="fill:#455a64"></path></g><g id="freepik--Owl--inject-9"><path d="M365.79,35.42S386,37.16,385.26,62.58s1.84,36.5-6.61,52.3c-5.46,10.24-35.76,18.77-47.56,20s-24.89,3.71-24.89,3.71-27.51,11.07-30.82,9S284,132.91,284,132.91s30.33-48,50.38-57.44a7,7,0,0,0,4-5.83C339.07,59.19,343.19,34.26,365.79,35.42Z" style="fill:#e0e0e0"></path><path d="M351.8,41.38a11.9,11.9,0,0,1,12.88,6.1c.57-2.59,3.69-5.23,6.32-5.7a9.36,9.36,0,0,1,7.46,2.16,13.86,13.86,0,0,1,4.22,6.63,18.9,18.9,0,0,1-2.07,15.57,19.07,19.07,0,0,1-28.48,4.15,29.57,29.57,0,0,1-6.52-8.82A16.55,16.55,0,0,1,343.72,53C343.77,47.86,346.79,42.51,351.8,41.38Z" style="fill:#fff"></path><path d="M351.8,41.38a6.57,6.57,0,0,0-1.23.32,8.75,8.75,0,0,0-3.09,1.9c-2.37,2-4.65,6.67-3.83,12.36.23,2.87,1.66,5.75,3.39,8.55a22.74,22.74,0,0,0,7.23,7.69,19.72,19.72,0,0,0,11.25,3,19.32,19.32,0,0,0,11.59-4.59,18.72,18.72,0,0,0,6.51-11.88,18.1,18.1,0,0,0-2.55-12.24c-2.18-3.42-6.08-5.45-9.64-5a8.49,8.49,0,0,0-4.49,2.18,7.43,7.43,0,0,0-2.45,3.78l.37,0a12,12,0,0,0-9-6.24,8.94,8.94,0,0,0-4,.23,14,14,0,0,1,4,0,11.88,11.88,0,0,1,8.7,6.21l.24.46.14-.51A8.36,8.36,0,0,1,371.49,42c3.34-.41,7,1.52,9.11,4.81A17.6,17.6,0,0,1,383,58.62a18.24,18.24,0,0,1-6.32,11.49,18.82,18.82,0,0,1-11.21,4.46,19.28,19.28,0,0,1-10.93-2.85,22.3,22.3,0,0,1-7.09-7.48c-1.74-2.78-3.14-5.54-3.4-8.33-.85-5.57,1.3-10.06,3.57-12.14A10.15,10.15,0,0,1,351.8,41.38Z" style="fill:#263238"></path><path d="M349.21,49.83c.09.12.79-.38,2.07-.59A6.47,6.47,0,0,1,356,50.33a7.1,7.1,0,0,1,2.62,4.14c.31,1.27.25,2.12.39,2.14s.41-.83.26-2.26a6.92,6.92,0,0,0-2.72-4.77,6.4,6.4,0,0,0-5.42-1C349.73,49,349.14,49.76,349.21,49.83Z" style="fill:#263238"></path><path d="M352,49.63a4.16,4.16,0,0,1,3.35-.31,7,7,0,0,1,2.85,1.86l.43,1.42a2.16,2.16,0,0,1-.91,2.5,5,5,0,0,1-4.1,1,4,4,0,0,1-3.05-2.76A3.4,3.4,0,0,1,352,49.63Z" style="fill:#263238"></path><path d="M378.61,50.67c.07-.06-.51-.81-1.91-1.25a6.42,6.42,0,0,0-5.42.91,6.89,6.89,0,0,0-2.78,4.74c-.18,1.43.12,2.28.22,2.26s.1-.86.42-2.14a7.11,7.11,0,0,1,2.68-4.1,6.44,6.44,0,0,1,4.73-1C377.83,50.29,378.52,50.8,378.61,50.67Z" style="fill:#263238"></path><path d="M375.8,50.45a4.1,4.1,0,0,0-3.34-.36,6.87,6.87,0,0,0-2.87,1.83l-.46,1.41a2.17,2.17,0,0,0,.88,2.51,5,5,0,0,0,4.1,1.06,4.06,4.06,0,0,0,3.08-2.72A3.39,3.39,0,0,0,375.8,50.45Z" style="fill:#263238"></path><path d="M361.25,60.62a1.5,1.5,0,0,1,1-.79,3.38,3.38,0,0,1,2.24,0A2,2,0,0,1,366,61.3a10.35,10.35,0,0,1-2.7,5.6,34.18,34.18,0,0,1-1.94-5.29A1.68,1.68,0,0,1,361.25,60.62Z" style="fill:#263238"></path><path d="M284.6,132.44a14.39,14.39,0,0,0,3.45.85,24.6,24.6,0,0,0,9.62-.77,54.87,54.87,0,0,0,13.11-5.8c4.7-2.65,9.77-5.74,15.66-7.69s11.65-3.6,16.33-6.44A29.9,29.9,0,0,0,356.46,93.5a20.4,20.4,0,0,0,.47-3.52,5.77,5.77,0,0,0-.18.9c-.09.59-.27,1.46-.52,2.56a31.08,31.08,0,0,1-3.73,8.8,29.72,29.72,0,0,1-10,9.86c-4.6,2.76-10.36,4.31-16.24,6.35s-11.08,5.11-15.74,7.77a55.56,55.56,0,0,1-12.94,5.87,25.51,25.51,0,0,1-9.49,1C285.82,132.8,284.62,132.37,284.6,132.44Z" style="fill:#263238"></path><path d="M284,132.91a2.1,2.1,0,0,0,.39.9,7,7,0,0,0,1.85,1.93c1.82,1.4,4.82,2.42,8.16,3.06a33.53,33.53,0,0,0,8.7.52,23.35,23.35,0,0,0,2.63-.31,3.21,3.21,0,0,0,.94-.24c0-.1-1.38.07-3.59.12a40.81,40.81,0,0,1-8.56-.7,22.41,22.41,0,0,1-8-2.8A10.25,10.25,0,0,1,284,132.91Z" style="fill:#263238"></path><path d="M354.21,118.73a2.5,2.5,0,0,0,.83.18,14.36,14.36,0,0,0,2.28.1,20.34,20.34,0,0,0,13.62-5.89,14,14,0,0,0,1.5-1.74c.31-.44.47-.69.43-.72s-3,3.84-8.43,6.13S354.18,118.51,354.21,118.73Z" style="fill:#263238"></path><path d="M350.48,117.45a11.44,11.44,0,0,0,3-.93,34.55,34.55,0,0,0,12.35-8.6,11.37,11.37,0,0,0,1.91-2.47,24.47,24.47,0,0,0-2.23,2.17,44.8,44.8,0,0,1-5.74,4.77,44.16,44.16,0,0,1-6.46,3.72A25.59,25.59,0,0,0,350.48,117.45Z" style="fill:#263238"></path><path d="M336.73,128.18l9.84.23a28.54,28.54,0,0,0-3.44,21.29l-4.13.88A30.27,30.27,0,0,1,336.73,128.18Z" style="fill:#e0e0e0"></path><path d="M322.58,128.09l9.84.23c-3.88,6.28-2.66,15.58-1,22.76-1.38.29-2.93,2.67-4.3,3C323.56,147.24,320.42,135.47,322.58,128.09Z" style="fill:#e0e0e0"></path><g style="opacity:0.30000000000000004"><path d="M307.31,128.51c4.3-2.5,7.86-5,12.39-7,6.81-3.07,14.27-4.67,20.91-8.09a29.27,29.27,0,0,0,15.33-18.28c-1.13,7.28-3.67,14.51-9.09,19.5-3.43,3.17-7.72,5.23-12,7.08-4.8,2.07-9.69,3.92-14.57,5.77L308.21,132a36.41,36.41,0,0,1-7.72,2.3c-2.66.39-10,.29-12.31-1A33.74,33.74,0,0,0,307.31,128.51Z"></path></g></g><g id="freepik--Birds--inject-9"><path d="M106.06,95.15s-.66-.23-1.87-.5a15.11,15.11,0,0,0-5.23-.2,14.14,14.14,0,0,0-7,3,14.58,14.58,0,0,0-5,7.89l0,.09-.15.56-.21-.53a15.76,15.76,0,0,0-5.95-7.19,15.3,15.3,0,0,0-7.27-2.42,15.91,15.91,0,0,0-5.19.48c-1.2.31-1.83.59-1.85.55a3.46,3.46,0,0,1,.45-.21,10.63,10.63,0,0,1,1.36-.49A15.51,15.51,0,0,1,80.81,98a15.92,15.92,0,0,1,6.11,7.34l-.36,0,0-.09a14.83,14.83,0,0,1,5.12-8.07,14.14,14.14,0,0,1,7.23-3,14.44,14.44,0,0,1,5.29.32,9.5,9.5,0,0,1,1.38.44A2.81,2.81,0,0,1,106.06,95.15Z" style="fill:#263238"></path><path d="M158.3,66.48s-.37-.1-1-.24a8.57,8.57,0,0,0-2.86-.08,7.7,7.7,0,0,0-3.83,1.67,8,8,0,0,0-2.7,4.3l0,.05-.14.56-.22-.53a8.61,8.61,0,0,0-3.23-3.92,8.34,8.34,0,0,0-4-1.34,9.17,9.17,0,0,0-2.85.23c-.65.17-1,.31-1,.28a1,1,0,0,1,.24-.14,5.62,5.62,0,0,1,.75-.28,8.19,8.19,0,0,1,2.89-.36A8.45,8.45,0,0,1,144.46,68a8.82,8.82,0,0,1,3.39,4.07l-.36,0,0,0a8.16,8.16,0,0,1,2.85-4.48,7.89,7.89,0,0,1,6.94-1.46,5.84,5.84,0,0,1,.75.25C158.22,66.43,158.31,66.47,158.3,66.48Z" style="fill:#263238"></path><path d="M124.14,54.75a13.63,13.63,0,0,1-1,1.14,24.44,24.44,0,0,0-6.09,16.19v.16l-.38,0a21.21,21.21,0,0,0-2.36-7,21.73,21.73,0,0,0-6.69-7.48,14.57,14.57,0,0,1-1.24-.86,1.56,1.56,0,0,1,.35.17c.22.13.57.29,1,.56a20.52,20.52,0,0,1,3.22,2.57,21.52,21.52,0,0,1,3.7,4.87A21.06,21.06,0,0,1,117,72.22l-.37,0v-.16a23.65,23.65,0,0,1,3.79-13A21.63,21.63,0,0,1,123,55.79c.33-.36.63-.61.81-.79A2.29,2.29,0,0,1,124.14,54.75Z" style="fill:#263238"></path></g><g id="freepik--Fishes--inject-9"><path d="M234,96a41.8,41.8,0,0,0,5.36,7.86,3.51,3.51,0,0,0,2.62,1.43,3.6,3.6,0,0,0,2-1.1,7.61,7.61,0,0,0,1.84-2.16,2.93,2.93,0,0,0,0-2.73A4.09,4.09,0,0,0,244,97.82a25.24,25.24,0,0,0-4.37-1.63,11,11,0,0,0-5.22-.34" style="fill:#FF725E"></path><path d="M231.79,96.24c4.34,1.87,16,3.36,22.55,3a60.44,60.44,0,0,1,13.11.88s7.06,5,10.95,5.38,1.3-3.76,1.09-7.72,1.77-5.55-1.32-8.4-11,2.5-11,2.5l-4.64-1.21c-5-3.23-19.7-12.31-30.07-13.23s-10.44,8-10.44,8S220.86,91.52,231.79,96.24Z" style="fill:#FF725E"></path><path d="M230.07,83.22a1.59,1.59,0,1,1-1.35-1.8A1.58,1.58,0,0,1,230.07,83.22Z" style="fill:#fff"></path><path d="M229.48,83.14a1,1,0,0,1-2-.28,1,1,0,0,1,1.11-.84A1,1,0,0,1,229.48,83.14Z" style="fill:#263238"></path><path d="M229.59,87.69a29.72,29.72,0,0,1-3.83-1.23A29.69,29.69,0,0,1,222,85a30.45,30.45,0,0,1,3.82,1.23A33.21,33.21,0,0,1,229.59,87.69Z" style="fill:#263238"></path><path d="M236.16,78a40.74,40.74,0,0,1,8.61-2,4.2,4.2,0,0,1,3.42.84c.84.88.84,2.25.8,3.47a2.9,2.9,0,0,1-.69,2.14l-6.45-.52Z" style="fill:#FF725E"></path><path d="M249.64,83.27a34.83,34.83,0,0,1,10.88.06,3.1,3.1,0,0,1,1.81.74c.82.87.42,2.34-.38,3.23s-1.9,1.46-2.69,2.36l-7.1-3.28c-1.31-.6-2.79-1.42-3-2.84" style="fill:#FF725E"></path><path d="M247.27,99c1.92,1.36,3.85,2.73,5.89,3.9a11.11,11.11,0,0,0,3.35,1.41,4.71,4.71,0,0,0,3.51-.55,3,3,0,0,0,1.34-3.15,3.32,3.32,0,0,0-2.05-2.1,8.71,8.71,0,0,0-3-.45c-3.07,0-6.14.21-9.2.46" style="fill:#FF725E"></path><path d="M228.52,94.59s3.95-4.6,3.8-9.44a19.25,19.25,0,0,0-1.72-7.8,18.57,18.57,0,0,1,6.31.78s1.12,2.74-.75,8.85a30.22,30.22,0,0,1-4.37,9.26A12.27,12.27,0,0,1,228.52,94.59Z" style="fill:#fff"></path><path d="M244.62,80.89c-.06,0,.6.76-.78,2.82s-4.14,3.53-4.62,7.15,3.28,7.75,3.28,7.75l7.75.64a31.22,31.22,0,0,0,2-6.8,68.14,68.14,0,0,0,0-8.24A41.41,41.41,0,0,0,244.62,80.89Z" style="fill:#fff"></path><path d="M262.56,90.64a2.63,2.63,0,0,1-.35,2.48c-.89,1.33-2.3,2.41-1.45,4.31l.84,1.91,5.85.75-.25-8.24Z" style="fill:#fff"></path><path d="M267.45,100.09a1.64,1.64,0,0,1-.36,0l-1-.13c-.89-.12-2.18-.28-3.78-.43s-3.5-.27-5.62-.28-4.45.11-6.91.1c-1.23,0-2.43-.08-3.58-.19s-2.26-.22-3.32-.35c-2.11-.24-4-.55-5.58-.87s-2.83-.66-3.7-.91c-.43-.12-.76-.23-1-.31l-.34-.13a1.9,1.9,0,0,1,.35.08l1,.26c.87.22,2.13.53,3.71.82s3.46.59,5.57.82c1.06.12,2.16.23,3.31.33s2.34.18,3.56.18c2.45,0,4.78-.12,6.91-.08s4,.17,5.64.34,2.89.37,3.77.52l1,.18A1.33,1.33,0,0,1,267.45,100.09Z" style="fill:#263238"></path><path d="M262.56,90.64a1.08,1.08,0,0,1-.29-.14l-.8-.45c-.69-.39-1.68-1-2.89-1.72A105.62,105.62,0,0,0,249,82.75a57.27,57.27,0,0,0-5.62-2.36l-1.28-.47-1.23-.41c-.79-.28-1.53-.51-2.21-.72-1.35-.43-2.46-.75-3.22-1l-.88-.27a2.07,2.07,0,0,1-.3-.11,1.31,1.31,0,0,1,.32.06l.89.22c.77.19,1.88.48,3.24.89.69.2,1.43.42,2.23.69l1.23.4,1.3.46a55.12,55.12,0,0,1,5.65,2.35,93.17,93.17,0,0,1,9.57,5.66l2.84,1.8.78.48A2.34,2.34,0,0,1,262.56,90.64Z" style="fill:#263238"></path><path d="M277.71,92.88a13,13,0,0,1-1.35.06,15.52,15.52,0,0,0-3.19.46,15.68,15.68,0,0,0-3,1.11c-.74.36-1.19.62-1.21.59a4.49,4.49,0,0,1,1.13-.76,13,13,0,0,1,3.05-1.2,13.27,13.27,0,0,1,3.26-.39A4.84,4.84,0,0,1,277.71,92.88Z" style="fill:#263238"></path><path d="M277.36,100.91a5.93,5.93,0,0,1-1.37-.41,21.85,21.85,0,0,1-3.12-1.45A22.26,22.26,0,0,1,270,97.13a6.57,6.57,0,0,1-1.05-1,10.39,10.39,0,0,1,1.17.81A32.91,32.91,0,0,0,273,98.82a32.39,32.39,0,0,0,3.06,1.51A8.88,8.88,0,0,1,277.36,100.91Z" style="fill:#263238"></path><path d="M267.43,99.57a5.91,5.91,0,0,1-.08-1.15c0-.81,0-1.73-.07-2.76s0-2-.06-2.76a4.81,4.81,0,0,1,0-1.15,4.44,4.44,0,0,1,.16,1.14c.06.71.12,1.68.15,2.77s0,2.06,0,2.77A4.51,4.51,0,0,1,267.43,99.57Z" style="fill:#263238"></path><path d="M261.62,99.41s-.1-.1-.23-.31-.3-.52-.49-.92a5,5,0,0,1-.45-1.49,3,3,0,0,1,.33-1.89,13.19,13.19,0,0,1,1.14-1.51A4.06,4.06,0,0,0,262.6,92a1.92,1.92,0,0,0,.07-1c-.05-.22-.13-.33-.11-.35a.61.61,0,0,1,.21.32,1.86,1.86,0,0,1,0,1.06,4.09,4.09,0,0,1-.66,1.42,14.74,14.74,0,0,0-1.1,1.49,2.86,2.86,0,0,0-.33,1.74,5.48,5.48,0,0,0,.38,1.44C261.4,98.91,261.66,99.39,261.62,99.41Z" style="fill:#263238"></path><path d="M252.26,84.21a2.58,2.58,0,0,1,.12.59c.06.37.12.93.17,1.61a28,28,0,0,1-.09,5.35A21.91,21.91,0,0,1,251.19,97a15.49,15.49,0,0,1-.65,1.49,3,3,0,0,1-.3.52s.33-.79.77-2.07a24.71,24.71,0,0,0,1.18-5.18,32.61,32.61,0,0,0,.18-5.31c0-.68-.07-1.23-.1-1.61A2.77,2.77,0,0,1,252.26,84.21Z" style="fill:#263238"></path><path d="M244.6,80.68a.51.51,0,0,1,.05.2,3.28,3.28,0,0,1,0,.6,4.65,4.65,0,0,1-.67,2A14.26,14.26,0,0,1,242,86a12.39,12.39,0,0,0-1.18,1.45,7,7,0,0,0-.85,1.78,8.92,8.92,0,0,0-.38,3.81A7.37,7.37,0,0,0,240.68,96c.46.78.88,1.39,1.13,1.83a3.54,3.54,0,0,1,.36.71,5.21,5.21,0,0,1-.45-.65c-.28-.43-.71-1-1.2-1.79a7.5,7.5,0,0,1-1.19-3,8.93,8.93,0,0,1,.37-3.92,6.88,6.88,0,0,1,.89-1.85,11.88,11.88,0,0,1,1.21-1.46,15.36,15.36,0,0,0,2-2.42,5,5,0,0,0,.73-2C244.63,81,244.57,80.69,244.6,80.68Z" style="fill:#263238"></path><path d="M237.61,88.86l6.08-1.42a2.93,2.93,0,0,1,1.63-.06c1,.39,1.24,1.8,1,2.88a10.51,10.51,0,0,0-.8,3.21,5.54,5.54,0,0,1,.14,2.13,1.91,1.91,0,0,1-2,1.13,5.66,5.66,0,0,1-2.26-.82l-5.49-3" style="fill:#FF725E"></path><path d="M235.92,93l.26.11.72.36,2.64,1.37,1.82,1a6.45,6.45,0,0,0,2.14.83,2.09,2.09,0,0,0,1.18-.18,1.42,1.42,0,0,0,.82-.86c.26-.8-.31-1.74-.12-2.75s.61-1.83.8-2.68a2.57,2.57,0,0,0-.46-2.34,1.43,1.43,0,0,0-1-.38,5.05,5.05,0,0,0-1.1.18l-2,.45-2.91.63-.79.16a1.44,1.44,0,0,1-.28,0,1.1,1.1,0,0,1,.27-.09l.78-.21,2.89-.72,2-.48a5.63,5.63,0,0,1,1.15-.19,1.61,1.61,0,0,1,1.19.44,2.14,2.14,0,0,1,.59,1.19,3.72,3.72,0,0,1,0,1.37c-.21.91-.66,1.75-.8,2.67a3.74,3.74,0,0,0,.09,1.37,2.84,2.84,0,0,1,0,1.42,1.71,1.71,0,0,1-1,1,2.34,2.34,0,0,1-1.32.19,6.25,6.25,0,0,1-2.21-.88l-1.81-1-2.6-1.44-.7-.41A1,1,0,0,1,235.92,93Z" style="fill:#263238"></path><path d="M243.46,91.75a14.88,14.88,0,0,1-3.27-.11,15.24,15.24,0,0,1-3.21-.56,27.76,27.76,0,0,1,3.24.3A31.4,31.4,0,0,1,243.46,91.75Z" style="fill:#263238"></path><path d="M236.91,78.13s0,.06.08.18a5.08,5.08,0,0,1,.16.55,9,9,0,0,1,.26,2.08,20.71,20.71,0,0,1-1.22,6.76A32,32,0,0,1,233.3,94c-.44.77-.81,1.37-1.07,1.79a3.67,3.67,0,0,1-.44.63,5,5,0,0,1,.35-.68c.26-.48.59-1.09,1-1.83a36.6,36.6,0,0,0,2.8-6.24,22.42,22.42,0,0,0,1.29-6.68A14.32,14.32,0,0,0,236.91,78.13Z" style="fill:#263238"></path><path d="M230.6,77.35a5.77,5.77,0,0,1,.25.67c.18.48.4,1.1.66,1.84a17.45,17.45,0,0,1,.74,2.83,16.51,16.51,0,0,1,.17,3.57,10.51,10.51,0,0,1-.81,3.49,16.15,16.15,0,0,1-1.48,2.52c-.48.68-.91,1.2-1.2,1.55a3.48,3.48,0,0,1-.49.53,3.42,3.42,0,0,1,.4-.59c.28-.38.68-.91,1.13-1.6a17.52,17.52,0,0,0,1.42-2.5,10.59,10.59,0,0,0,.76-3.42,17.41,17.41,0,0,0-.14-3.51,19.11,19.11,0,0,0-.67-2.81c-.25-.78-.46-1.42-.58-1.87A2.75,2.75,0,0,1,230.6,77.35Z" style="fill:#263238"></path><path d="M230.08,86.46s.25.17.51.58a1.32,1.32,0,0,1,.19.87,1.17,1.17,0,0,1-.72.83,1.61,1.61,0,0,1-1.08,0,2.69,2.69,0,0,1-.76-.39c-.39-.29-.58-.51-.56-.53s.26.13.66.37a2.91,2.91,0,0,0,.73.31,1.5,1.5,0,0,0,.91,0,1,1,0,0,0,.58-.64,1.18,1.18,0,0,0-.11-.73C230.23,86.72,230,86.49,230.08,86.46Z" style="fill:#263238"></path><path d="M261.74,85.45c0,.08-1.75-.18-3.89-.23s-3.89.12-3.9,0a4.51,4.51,0,0,1,1.13-.2,24.27,24.27,0,0,1,2.77-.11,22.33,22.33,0,0,1,2.76.24A4.38,4.38,0,0,1,261.74,85.45Z" style="fill:#263238"></path><path d="M229.73,78.33a11.72,11.72,0,0,1-1.24.26A7.88,7.88,0,0,0,223.68,82,10.11,10.11,0,0,1,223,83a2.73,2.73,0,0,1,.43-1.22,6.85,6.85,0,0,1,2.09-2.32,6.93,6.93,0,0,1,2.9-1.18A2.83,2.83,0,0,1,229.73,78.33Z" style="fill:#fff"></path><path d="M243.46,81.16a18.34,18.34,0,0,1-5-1.54,18.34,18.34,0,0,1,5,1.54Z" style="fill:#fff"></path><path d="M247.31,77.09a42.18,42.18,0,0,1-4.43.29,42.54,42.54,0,0,1-4.44.24,18.13,18.13,0,0,1,4.42-.62A18.34,18.34,0,0,1,247.31,77.09Z" style="fill:#fff"></path><path d="M261,90.5a20.77,20.77,0,0,1-3.57-1.68,20.49,20.49,0,0,1-3.39-2,19.4,19.4,0,0,1,3.57,1.67A20.63,20.63,0,0,1,261,90.5Z" style="fill:#fff"></path><path d="M244.34,88.15a18.07,18.07,0,0,1-3.6.7,17.68,17.68,0,0,1-3.65.31,17.26,17.26,0,0,1,3.6-.7A17.68,17.68,0,0,1,244.34,88.15Z" style="fill:#fff"></path><path d="M260.78,83.74a18.71,18.71,0,0,1-3.79,0,18.48,18.48,0,0,1-3.78-.43,19.28,19.28,0,0,1,3.8,0A19.67,19.67,0,0,1,260.78,83.74Z" style="fill:#fff"></path><path d="M277.57,90.43a28.16,28.16,0,0,0-5,.35,27,27,0,0,0-4.74,1.66,4.54,4.54,0,0,1,1.25-.83,13.05,13.05,0,0,1,3.42-1.2,12.84,12.84,0,0,1,3.61-.24A4.36,4.36,0,0,1,277.57,90.43Z" style="fill:#fff"></path><path d="M219.65,463.31a39.46,39.46,0,0,0,6.7,5.89,3.32,3.32,0,0,0,2.72.69,3.45,3.45,0,0,0,1.58-1.47,7.26,7.26,0,0,0,1.16-2.39,2.75,2.75,0,0,0-.6-2.49,3.72,3.72,0,0,0-2-.88,23.73,23.73,0,0,0-4.36-.46,10.33,10.33,0,0,0-4.83.9" style="fill:#FF725E"></path><path d="M217.7,464.07c4.38.7,15.37-.68,21.2-2.56A57.07,57.07,0,0,1,251,459.25s7.59,2.94,11.2,2.33.31-3.71-.81-7.27.32-5.46-3.16-7.33-9.39,4.83-9.39,4.83h-4.5c-5.31-1.76-20.79-6.59-30.43-5s-7.61,9.75-7.61,9.75S206.66,462.33,217.7,464.07Z" style="fill:#FF725E"></path><path d="M213.1,452.64a1.49,1.49,0,1,1-1.65-1.32A1.49,1.49,0,0,1,213.1,452.64Z" style="fill:#fff"></path><path d="M212.54,452.7a.93.93,0,1,1-1-.82A.93.93,0,0,1,212.54,452.7Z" style="fill:#263238"></path><path d="M213.71,456.82a27.46,27.46,0,0,1-3.77-.23,28,28,0,0,1-3.74-.47,27.41,27.41,0,0,1,3.76.23A28.34,28.34,0,0,1,213.71,456.82Z" style="fill:#263238"></path><path d="M217.4,446.43a38.5,38.5,0,0,1,7.37-3.83,3.93,3.93,0,0,1,3.3,0,4.39,4.39,0,0,1,1.54,3,2.67,2.67,0,0,1-.13,2.1l-6,1Z" style="fill:#FF725E"></path><path d="M230.9,448.12a32.3,32.3,0,0,1,9.91-2.49,2.9,2.9,0,0,1,1.82.25c1,.6.92,2,.4,3s-1.38,1.77-1.89,2.77l-7.22-1.32c-1.33-.25-2.86-.64-3.4-1.88" style="fill:#FF725E"></path><path d="M232.42,463c2.07.79,4.13,1.58,6.26,2.18a10.52,10.52,0,0,0,3.38.49,4.43,4.43,0,0,0,3.07-1.32,2.86,2.86,0,0,0,.48-3.18,3.1,3.1,0,0,0-2.36-1.42,8,8,0,0,0-2.83.29,85.74,85.74,0,0,0-8.26,2.57" style="fill:#FF725E"></path><path d="M214.35,463.34s2.51-5.1,1.24-9.47a18.12,18.12,0,0,0-3.38-6.69,17.81,17.81,0,0,1,5.92-.77s1.66,2.24,1.39,8.23a28.31,28.31,0,0,1-1.82,9.43A11,11,0,0,1,214.35,463.34Z" style="fill:#fff"></path><path d="M225.79,447.12c-.06,0,.72.56-.06,2.75s-2.93,4.18-2.53,7.58,4.79,6.28,4.79,6.28l7.2-1.23a28.82,28.82,0,0,0,.21-6.64,63.79,63.79,0,0,0-1.89-7.5A39.21,39.21,0,0,0,225.79,447.12Z" style="fill:#fff"></path><path d="M244.37,451.8a2.47,2.47,0,0,1,.26,2.34c-.5,1.42-1.52,2.72-.31,4.26l1.21,1.53,5.5-.68-2.16-7.44Z" style="fill:#fff"></path><path d="M251,459.25l-.34.06-1,.12c-.84.1-2,.25-3.53.49S243,460.49,241,461s-4,1.15-6.26,1.71c-1.12.28-2.23.49-3.3.66s-2.11.33-3.1.46c-2,.27-3.77.44-5.27.51s-2.74.07-3.58,0c-.42,0-.75,0-1-.05l-.34,0h1.31c.85,0,2.06,0,3.57-.12s3.28-.27,5.25-.55q1.48-.21,3.09-.48c1.07-.17,2.17-.38,3.28-.66,2.23-.56,4.32-1.23,6.26-1.69s3.72-.79,5.21-1,2.71-.34,3.55-.41l1-.07A1.26,1.26,0,0,1,251,459.25Z" style="fill:#263238"></path><path d="M244.37,451.8a1.11,1.11,0,0,1-.3-.06l-.83-.22c-.72-.19-1.76-.5-3-.89a99.22,99.22,0,0,0-10-2.83,54.12,54.12,0,0,0-5.67-.84l-1.28-.13-1.21-.09c-.78-.06-1.51-.1-2.18-.13-1.33-.07-2.41-.1-3.15-.13l-.86,0-.3,0a1,1,0,0,1,.3,0h.86c.75,0,1.83,0,3.16.06.67,0,1.4,0,2.18.1l1.22.07,1.28.12a51.8,51.8,0,0,1,5.7.82,87.44,87.44,0,0,1,10,2.91c1.27.42,2.3.75,3,1l.82.26Z" style="fill:#263238"></path><path d="M258.67,450.3a11.22,11.22,0,0,1-1.21.37,15,15,0,0,0-2.8,1.16,14.82,14.82,0,0,0-2.5,1.72c-.6.5-.94.84-1,.82a4.8,4.8,0,0,1,.85-1,12.38,12.38,0,0,1,2.5-1.8,12.11,12.11,0,0,1,2.87-1.11A4.38,4.38,0,0,1,258.67,450.3Z" style="fill:#263238"></path><path d="M260.23,457.68a6,6,0,0,1-1.34-.05,19.8,19.8,0,0,1-3.18-.59,21.23,21.23,0,0,1-3.05-1.08,5.61,5.61,0,0,1-1.18-.63,10.45,10.45,0,0,1,1.25.47,31,31,0,0,0,3,1c1.21.32,2.33.53,3.14.66A8.74,8.74,0,0,1,260.23,457.68Z" style="fill:#263238"></path><path d="M250.89,458.78a4.44,4.44,0,0,1-.35-1c-.2-.73-.44-1.57-.7-2.5l-.71-2.49a4.13,4.13,0,0,1-.24-1,4.63,4.63,0,0,1,.41,1c.22.63.5,1.51.78,2.48s.49,1.87.64,2.53A4.57,4.57,0,0,1,250.89,458.78Z" style="fill:#263238"></path><path d="M245.56,460s-.11-.07-.27-.23a8.4,8.4,0,0,1-.67-.71,4.87,4.87,0,0,1-.76-1.25,2.88,2.88,0,0,1-.13-1.8,11.59,11.59,0,0,1,.68-1.64,4.18,4.18,0,0,0,.31-1.36,2,2,0,0,0-.16-.91c-.1-.19-.21-.27-.19-.29s.13.05.27.25a1.66,1.66,0,0,1,.25.95,3.68,3.68,0,0,1-.27,1.45,13.86,13.86,0,0,0-.65,1.61,2.7,2.7,0,0,0,.11,1.65,4.89,4.89,0,0,0,.68,1.23A12.11,12.11,0,0,1,245.56,460Z" style="fill:#263238"></path><path d="M233.51,448.36a2.61,2.61,0,0,1,.24.5c.14.34.33.82.54,1.43a26.56,26.56,0,0,1,1.16,4.89,20.35,20.35,0,0,1,.06,5,14.22,14.22,0,0,1-.24,1.51,2.28,2.28,0,0,1-.15.54s.11-.79.22-2.07a23.39,23.39,0,0,0-.14-5,31.77,31.77,0,0,0-1.08-4.87c-.19-.61-.35-1.1-.46-1.44A1.75,1.75,0,0,1,233.51,448.36Z" style="fill:#263238"></path><path d="M225.72,446.94a1.32,1.32,0,0,1,.09.17,4.2,4.2,0,0,1,.17.53,4.36,4.36,0,0,1-.14,2,13.28,13.28,0,0,1-1.26,2.74,11.62,11.62,0,0,0-.73,1.59,6.33,6.33,0,0,0-.36,1.82,8.48,8.48,0,0,0,.54,3.55,7.32,7.32,0,0,0,1.69,2.4c.61.59,1.12,1.05,1.46,1.4a4.06,4.06,0,0,1,.49.55,6.07,6.07,0,0,1-.56-.48c-.35-.32-.88-.76-1.51-1.35a7,7,0,0,1-1.78-2.44,8.43,8.43,0,0,1-.58-3.65,6.61,6.61,0,0,1,.38-1.89,11.41,11.41,0,0,1,.76-1.61,13.41,13.41,0,0,0,1.29-2.68,4.4,4.4,0,0,0,.21-2C225.81,447.19,225.69,447,225.72,446.94Z" style="fill:#263238"></path><path d="M221.27,456l5.2-2.71a2.61,2.61,0,0,1,1.46-.43c1,.11,1.56,1.34,1.55,2.38a10.12,10.12,0,0,0,0,3.11c.21.64.68,1.23.63,1.91a1.8,1.8,0,0,1-1.51,1.48,5.39,5.39,0,0,1-2.25-.22l-5.68-1.4" style="fill:#FF725E"></path><path d="M220.69,460.13a.74.74,0,0,1,.26,0l.74.15,2.72.63,1.88.45a5.86,5.86,0,0,0,2.14.26,2,2,0,0,0,1-.44,1.39,1.39,0,0,0,.54-1c.05-.79-.69-1.51-.76-2.47s.13-1.81.11-2.63a2.47,2.47,0,0,0-1-2,1.35,1.35,0,0,0-1-.1,5.53,5.53,0,0,0-1,.41l-1.71.88-2.5,1.26-.68.33-.25.1a1,1,0,0,1,.22-.15l.67-.37,2.45-1.33,1.71-.9a5.12,5.12,0,0,1,1-.45,1.56,1.56,0,0,1,1.19.12,2,2,0,0,1,.81,1,3.26,3.26,0,0,1,.28,1.25c0,.87-.19,1.74-.1,2.61a3.31,3.31,0,0,0,.4,1.22,2.74,2.74,0,0,1,.35,1.3,1.61,1.61,0,0,1-.63,1.14,2.33,2.33,0,0,1-1.16.48,6.1,6.1,0,0,1-2.22-.29l-1.87-.47-2.7-.71-.73-.21Z" style="fill:#263238"></path><path d="M227.26,457.27a13.6,13.6,0,0,1-3,.66,13.87,13.87,0,0,1-3.06.24c0-.07,1.36-.23,3-.48A29,29,0,0,1,227.26,457.27Z" style="fill:#263238"></path><path d="M218.13,446.41a.63.63,0,0,1,.12.15c.06.11.17.25.27.46a8.88,8.88,0,0,1,.72,1.83,19.37,19.37,0,0,1,.47,6.44,30.39,30.39,0,0,1-1.17,6.36c-.22.79-.42,1.43-.56,1.87a5.62,5.62,0,0,1-.24.68,3.77,3.77,0,0,1,.15-.71l.48-1.89a34,34,0,0,0,1.09-6.33,20.63,20.63,0,0,0-.39-6.37A14,14,0,0,0,218.13,446.41Z" style="fill:#263238"></path><path d="M212.21,447.18a6.32,6.32,0,0,1,.39.55l1,1.52a15.38,15.38,0,0,1,1.32,2.4,15.11,15.11,0,0,1,1,3.21,9.56,9.56,0,0,1,.08,3.36,13.68,13.68,0,0,1-.76,2.63c-.28.73-.54,1.3-.73,1.7a2.33,2.33,0,0,1-.32.59,4,4,0,0,1,.24-.63c.16-.41.39-1,.65-1.72a16.2,16.2,0,0,0,.7-2.61,9.89,9.89,0,0,0-.1-3.28,15.61,15.61,0,0,0-1-3.16,16.37,16.37,0,0,0-1.26-2.39c-.41-.66-.75-1.19-1-1.57A2.46,2.46,0,0,1,212.21,447.18Z" style="fill:#263238"></path><path d="M213.86,455.58s.27.1.61.42a1.19,1.19,0,0,1,.37.74,1.1,1.1,0,0,1-.46.92,1.51,1.51,0,0,1-1,.28,2.71,2.71,0,0,1-.79-.18,1.7,1.7,0,0,1-.64-.35s.28.06.7.18a2.53,2.53,0,0,0,.73.12,1.32,1.32,0,0,0,.82-.25.9.9,0,0,0,.38-.71,1.13,1.13,0,0,0-.27-.64C214.06,455.79,213.84,455.62,213.86,455.58Z" style="fill:#263238"></path><path d="M242.41,447.27c0,.08-1.63.24-3.59.7s-3.51,1-3.54.95a4,4,0,0,1,1-.44,19.21,19.21,0,0,1,2.49-.75,21.69,21.69,0,0,1,2.57-.43A4.3,4.3,0,0,1,242.41,447.27Z" style="fill:#263238"></path><path d="M211.65,448.27a10.16,10.16,0,0,1-1.07.53,7.38,7.38,0,0,0-2.19,1.75A7.47,7.47,0,0,0,207,453a8.28,8.28,0,0,1-.35,1.13,2.59,2.59,0,0,1,.1-1.2,6.64,6.64,0,0,1,1.36-2.61,6.42,6.42,0,0,1,2.36-1.74A2.82,2.82,0,0,1,211.65,448.27Z" style="fill:#fff"></path><path d="M224.79,447.64a8.52,8.52,0,0,1-2.46.07,8.64,8.64,0,0,1-2.45-.3,8.33,8.33,0,0,1,2.46-.06A8.44,8.44,0,0,1,224.79,447.64Z" style="fill:#fff"></path><path d="M227.34,443a36.47,36.47,0,0,1-4,1.3,40.5,40.5,0,0,1-4,1.25,18.36,18.36,0,0,1,3.87-1.59A17.45,17.45,0,0,1,227.34,443Z" style="fill:#fff"></path><path d="M242.91,452a18.74,18.74,0,0,1-3.64-.69,19.55,19.55,0,0,1-3.55-1,18.74,18.74,0,0,1,3.64.69A19.24,19.24,0,0,1,242.91,452Z" style="fill:#fff"></path><path d="M227.22,453.79a16.52,16.52,0,0,1-3.1,1.47,16.89,16.89,0,0,1-3.25,1.14,16.43,16.43,0,0,1,3.11-1.47A16.68,16.68,0,0,1,227.22,453.79Z" style="fill:#fff"></path><path d="M241.14,445.94a17.76,17.76,0,0,1-3.46.86,17.38,17.38,0,0,1-3.53.49,19.45,19.45,0,0,1,3.46-.85A18.81,18.81,0,0,1,241.14,445.94Z" style="fill:#fff"></path><path d="M258,448.11a24.19,24.19,0,0,0-4.47,1.48,24.7,24.7,0,0,0-3.92,2.62,3.72,3.72,0,0,1,.94-1,12.47,12.47,0,0,1,6-3A3.76,3.76,0,0,1,258,448.11Z" style="fill:#fff"></path></g><g id="freepik--Character--inject-9"><path d="M415.79,265.91c-.17-1.71-.36-3.39-.59-5.07s-.5-3.55-.79-5.3c.29,1.75.56,3.52.79,5.3S415.62,264.2,415.79,265.91Z" style="fill:#263238"></path><path d="M402.19,286.91c-1.46-3.31-1.8-7-2.77-10.47-.52-1.87-1.39-3.86-3.15-4.68-1.16-.55-2.53-.48-3.76-.86-4.43-1.32-5.64-7.5-9.83-9.42a14.18,14.18,0,0,0-4.22-.88c-5.61-.66-11.41-2.6-14.94-7-1.16-1.42-2-3.1-3.46-4.26s-3.67-1.66-5.07-.48c1.19,2.37,2.35,4.74,3.51,7.08a18.36,18.36,0,0,0,3.93,5.9c1.8,1.59,4.45,2.42,6.61,1.42a4.41,4.41,0,0,1,2.22-.78,2.38,2.38,0,0,1,1.45.93c3.05,3.38,2.06,9-.93,12.45s-7.36,5.24-11.6,6.92a9,9,0,0,1-4.74.92c-2.93-.54-4.5-3.74-5.35-6.61-1.92-6.34-2.84-13.24-6.77-18.59-1.26-1.68-2.82-3.22-3.58-5.18-.81-2.14-.62-4.62-1.9-6.49s-4.14-3.11-4.33-5.48c-.12-1.65,1.26-3.12,2.77-3.83s3.22-.95,4.79-1.59c.61-.26,1.3-.71,1.32-1.37,0-1-1.37-1.4-1.73-2.32s.69-2,1.14-3c1-2.33-1.44-4.67-3.79-5.62s-5.14-1.63-6.23-3.91a13.71,13.71,0,0,1-.76-3.38c-.54-2.87-2.65-5.64-5.54-6.11s-6.13,2.1-5.66,5c.29,1.59,1.47,2.82,2.11,4.29s.47,3.65-1,4.12c-2.49.76-4.88-3.79-7-2.22.86,2.91,1.69,5.82,2.54,8.76-3.27,1.66-7.18-1.35-8.58-4.76s-1.44-7.27-3.1-10.54-6.13-5.73-9-3.41c-.15,4.21,5.42,5.92,7.88,9.33,1.78,2.46,1.52,6.47-1.11,8s-6.75-1.16-5.76-4c.36-1,1.19-1.82,1.28-2.89.1-1.32-1-2.39-2-3.24q-2.38-2-4.76-4a9.94,9.94,0,0,0-3.39-2.14c-3.27-.94-6.54,1.71-8.27,4.62s-2.7,6.37-5.09,8.81c-3.43,3.56-9.95,3.77-13.17,0s-1.58-10.68,3.18-12c1.8-.5,4.07-.45,5-2,1.66-2.82-3.08-6.42-1.45-9.26,1.26-2.18,4.57-1.18,7-1.92s3.74-3.15,5.16-5.23,3.6-4.15,6.07-3.6a7.58,7.58,0,0,1,.26-4.31c.64-1.33,2.44-2.18,3.62-1.33-1.21,2,.24,4.76,2.34,5.76s4.58.76,6.9.49,5.23-1.13,5.42-3.45a8.24,8.24,0,0,1,.07-2.28c1-2.77,6.14,1.05,8.1-1.18,1.14-1.16-.12-3.22-1.7-3.6s-3.2.19-4.81.24-3.58-.79-3.65-2.4,1.71-2.72,1.9-4.28c.3-2.66-4.2-3.34-5.78-1.19s-1,5.12-.55,7.75.74,5.73-1.21,7.58c-.82,1.25-3,.59-3.69-.74s-.57-2.94-.69-4.43-.78-3.22-2.25-3.62c-1-.28-2.11.21-3.15.35-4.12.5-7-4.83-5.68-8.76s5-6.49,8.64-8.5c2.66-1.47,5.95-2.84,8.58-1.35,1.23.69,2.08,1.87,3.29,2.58,2.08,1.23,4.66.78,7.06.83a16.44,16.44,0,0,1,10.3,4c1.07,1,2.06,2.58,1.23,3.74s-3.48,1.5-3,2.94a5.14,5.14,0,0,0,6.44-4.14,4.31,4.31,0,0,1,2.49,3.5,7.67,7.67,0,0,1,11.25.93,9.79,9.79,0,0,0,2.08,2.67c.95.62,2.61.31,2.73-.8a2.39,2.39,0,0,0-.19-1.05c-.57-1.61-1.16-3.19-1.73-4.78,2.2-1.18,4.81.66,6.3,2.65,5.54,7.42,9.5,3,17.31,4.17,5.28.81,7.6,4.19,10.59,8.29,9.14,12.6,21.22,22.93,29.53,36.09.88,1.38,1.68,2.78,2.44,4.2-.14-.36-.26-.71-.4-1.07a146.16,146.16,0,0,0-12.08-24.56q-1.53-2.49-3.13-4.9c-.66-1-1.35-2-2-3-.88-1.27-1.8-2.51-2.73-3.74q-1.1-1.49-2.22-2.91c-.52-.66-1.07-1.33-1.61-2s-1.19-1.49-1.85-2.23l-2-2.29a7,7,0,0,0-.64-.71c-.69-.81-1.42-1.59-2.16-2.37a.53.53,0,0,0-.21-.24c-.19-.21-.4-.43-.61-.64-.6-.66-1.24-1.3-1.85-1.94-1-1-2.06-2.09-3.13-3.08-.87-.88-1.77-1.71-2.7-2.53s-1.61-1.47-2.44-2.18-1.61-1.4-2.44-2.09c-1-.85-2-1.68-3-2.51h0C357,161.17,354,159,351,157l-2.25-1.52c-.76-.52-1.54-1-2.3-1.47s-1.54-1-2.32-1.42-1.57-.94-2.35-1.39-1.25-.74-1.89-1.07a9.41,9.41,0,0,0-1-.54c-1.35-.76-2.73-1.5-4.1-2.18-.69-.36-1.37-.71-2.08-1.05-.88-.45-1.78-.87-2.68-1.27a1.47,1.47,0,0,0-.4-.19c-.81-.38-1.61-.76-2.44-1.12-1.16-.49-2.32-1-3.48-1.47-1.33-.54-2.66-1.09-4-1.58s-3-1.12-4.5-1.61-3.05-1-4.59-1.5-3.08-.9-4.64-1.32c-3.08-.83-6.21-1.56-9.36-2.2a1.42,1.42,0,0,0-.16-.05c-1.21-.24-2.42-.48-3.63-.66a.74.74,0,0,0-.24,0c-.52-.1-1.06-.19-1.61-.26-2.25-.38-4.52-.69-6.82-.95a7,7,0,0,0-.83-.09c-.66-.1-1.32-.15-2-.22-1.51-.14-3-.26-4.57-.35s-3.2-.19-4.81-.24-3.36-.09-5-.09c-4.45,0-8.86.18-13.22.59-1,.07-2.06.16-3.08.28s-2.13.24-3.19.38-2.14.28-3.18.45-2.11.33-3.17.52c-.9.14-1.83.31-2.73.5q-3.33.65-6.6,1.42-1.53.36-3.06.78c-1,.26-2,.55-3,.83-1.68.47-3.32,1-4.95,1.52h0l-4,1.35a.21.21,0,0,0-.1,0c-1.35.48-2.65,1-4,1.5l-.21.07c-1.21.47-2.42,1-3.6,1.47-1.49.61-3,1.27-4.41,1.94-1.23.57-2.43,1.13-3.62,1.73s-2.56,1.28-3.81,1.94l-.14.07c-1.21.64-2.42,1.3-3.6,2s-2.44,1.4-3.65,2.15h0c-1.14.69-2.25,1.38-3.37,2.09-.42.26-.83.54-1.25.83-1.19.76-2.32,1.54-3.48,2.34-1.43,1-2.8,2-4.17,3q-1.82,1.35-3.56,2.75a149.34,149.34,0,0,0-18.61,17.64c-2,2.23-3.91,4.5-5.76,6.82-1.56,2-3.08,4-4.52,6.09q-1.95,2.72-3.77,5.54,1.81-2.82,3.77-5.54.57-.08,1.14-.12c2.13-.16,4.38-.09,6.3-1s3-2.46,4.64-3.6c4.12-2.93,10.87-3.48,12-8.4.38-1.66-.07-3.46.55-5.05,1.16-3,5.11-3.39,8.29-3.34,1.35,0,2.93.19,3.55,1.37a3.4,3.4,0,0,1-.14,2.75,25.77,25.77,0,0,1-10.87,13.36c-4.12,2.51-9.5,4.45-10.64,9.14.57,1.59,3.46,1.47,3.7,3.13.16,1.32-1.54,2-2.16,3.2-.9,1.72,1.16,3.83,3.13,3.74s3.6-1.52,5-2.84c4.31-4,8.84-8.32,10.4-14,.66-2.35.9-5.09,2.79-6.66a4.64,4.64,0,0,1,7,2.25c1.87-1,4.78-1.82,5.75.12a9.76,9.76,0,0,1,.41,2.23c.61,3,4.76,4.4,5.18,7.46.5,3.53-4,5.35-7.55,5.9q-4.8.74-9.59,1.51a8.78,8.78,0,0,0-4,1.28,3.11,3.11,0,0,0-1.19,3.72,9.2,9.2,0,0,0,1.66,1.7c2.65,2.66.47,8.13-3.27,8.25-1.28,0-2.53-.43-3.81-.48-3.79-.16-6.8,3.18-8.6,6.52s-3.15,7.15-6.18,9.42c-4.88,3.67-13.29,2.82-15.65,8.46-1,2.27-.45,4.83-.08,7.27s.55,5.11-.87,7.13-5,2.41-6.09.19a5.44,5.44,0,0,1-.14-3.15c.57-3.51,1.11-7,1.66-10.52.4-2.6.75-5.52-.78-7.65-2.16-3-7-2.7-9.79-.31s-3.93,6.14-4.71,9.71c-.57,2.66-1.23,6.4-2.7,9.43h0q-.75,4.41-1.21,8.93c-.31,3.08-.52,6.13-.64,9.26a13.59,13.59,0,0,0,1.21-1.14c1.49-1.54,4.5-8,7.2-4.85a2.42,2.42,0,0,1,0,3c-.83,1.06-2.49,1.3-3.13,2.46-.78,1.37.31,3.08,1.59,4s2.84,1.49,3.74,2.79c1.73,2.49.07,6.26,1.75,8.79,1.45,2.18,4.53,2.32,7.16,2.61l.9.14c.73-5.21,3.17-9.45,10.28-11.06,9.8-2.23,22.68,5.9,28.2,13.28,6.16,8.27,9.07,20,18.5,24.12,6.75,3,16.34,1.89,19.63,8.5,2.94,5.92-2.17,12.57-3,19.13-.49,4.34.93,8.65,1.26,13s-1,9.43-4.93,11.25c-2.2,1-5,.88-6.75,2.54-3.15,3-.57,9.14-3.72,12.12-1.11,1.05-2.65,1.42-4,2.11-7.08,3.58-6.89,14-3.6,21.22l.36.76a149.63,149.63,0,0,0,76.76,21.2,149,149,0,0,0,70.22-17.48h0A152.08,152.08,0,0,0,369,390.13a144.69,144.69,0,0,0,11.36-11.87c2.52-2.89,4.88-5.89,7.16-9,1.16-1.59,2.29-3.18,3.36-4.81a148.56,148.56,0,0,0,24.32-63.66c.45-3.37.81-6.78,1.05-10.21a8.65,8.65,0,0,1-6,2.67C406.6,293.24,403.64,290.23,402.19,286.91Z" style="fill:#FF725E"></path><g style="opacity:0.30000000000000004"><path d="M231.15,170.26c-3,1.77-4.54,5.12-6.83,7.71s-6.39,4.43-9.09,2.28a6.27,6.27,0,0,1-2-4.41,11.27,11.27,0,0,1,1.61-6.85c1.29-2.11,3.26-3.76,4.35-6s.87-5.44-1.37-6.48c-1.21-.56-2.73-.34-3.8-1.13-1.93-1.42-.55-4.78,1.69-5.63s4.73-.19,7.12,0c8.68.55,15-5.13,21.58-9.85,5.07-3.66,15.87-8,21.74-4.25,2.34,1.5,3.26,5.34,1.05,7-1,.76-2.35.93-3.27,1.76-1.1,1-1.25,2.66-1.89,4-1.64,3.51-6.37,4.78-7.9,8.35-.91,2.14-.5,4.81-1.92,6.67-1.12,1.47-3.06,2-4.86,2.42L236,168.57A16.61,16.61,0,0,0,231.15,170.26Z"></path></g><path d="M136.79,320.07c-.47-4.29,1-8.57,1-12.91.05-3-.17-6.13-.21-9.14A41.5,41.5,0,0,1,130,297a2.24,2.24,0,0,1-1.39-.72,2.67,2.67,0,0,1-.31-1.58c-.19-3.37-3.44-5.59-6.35-7.27a25.41,25.41,0,0,0-4.62-2.28c0,.36,0,.69,0,1.05a148.85,148.85,0,0,0,9.52,47.48A142.74,142.74,0,0,0,136,353.25c1.47,2.73,3.08,5.4,4.76,8,2.08,3.25,4.26,6.42,6.61,9.47,2.18,2.94,4.5,5.81,6.94,8.55a149.09,149.09,0,0,0,10.58,10.9q4.95,4.62,10.31,8.76C167,377,159.34,354.65,145.36,336,141.69,331.11,137.48,326.13,136.79,320.07Z" style="fill:#FF725E"></path><path d="M117.3,278c0,.9,0,1.8,0,2.7,0,.74,0,1.46,0,2.19,0-.73,0-1.45,0-2.19C117.25,279.83,117.28,278.93,117.3,278Z" style="fill:#263238"></path><g style="opacity:0.6000000000000001"><path d="M183.58,405q1.89,1.28,3.82,2.48c.9.57,1.8,1.12,2.73,1.66-.93-.54-1.83-1.09-2.73-1.66Q185.47,406.31,183.58,405Z" style="fill:#263238"></path></g><g style="opacity:0.6000000000000001"><path d="M117.39,274.5v0h0v0c0,.29,0,.55,0,.83,0,.89,0,1.8,0,2.7,0-.9,0-1.81,0-2.7C117.35,275.05,117.37,274.79,117.39,274.5Z" style="fill:#263238"></path></g><g style="opacity:0.6000000000000001"><path d="M117.29,282.92c0,.73,0,1.47,0,2.19h0C117.3,284.39,117.3,283.65,117.29,282.92Z" style="fill:#263238"></path></g><path d="M137.86,292.22l-.9-.14c-2.63-.29-5.71-.43-7.16-2.61-1.68-2.53,0-6.3-1.75-8.79-.9-1.3-2.46-1.87-3.74-2.79s-2.37-2.61-1.59-4c.64-1.16,2.3-1.4,3.13-2.46a2.42,2.42,0,0,0,0-3c-2.7-3.2-5.71,3.31-7.2,4.85a12.35,12.35,0,0,1-1.21,1.14v0c0,.29,0,.55,0,.83,0,.89,0,1.8,0,2.7s0,1.8,0,2.7c0,.74,0,1.46,0,2.19s0,1.47,0,2.19a25.41,25.41,0,0,1,4.62,2.28c2.91,1.68,6.16,3.9,6.35,7.27a2.67,2.67,0,0,0,.31,1.58A2.24,2.24,0,0,0,130,297,41.5,41.5,0,0,0,137.6,298" style="fill:#FF725E"></path><path d="M137.6,298c0,3,.26,6.16.21,9.14-.07,4.34-1.49,8.62-1,12.91.69,6.06,4.9,11,8.57,15.92,14,18.66,21.68,41,29.85,63h0c1.52,1.21,3.06,2.35,4.62,3.46q1.85,1.33,3.73,2.61t3.82,2.48c.9.57,1.8,1.12,2.73,1.66l-.36-.76c-3.29-7.22-3.48-17.64,3.6-21.22,1.35-.69,2.89-1.06,4-2.11,3.15-3,.57-9.14,3.72-12.12,1.78-1.66,4.55-1.54,6.75-2.54,4-1.82,5.24-6.89,4.93-11.25s-1.75-8.64-1.26-13c.79-6.56,5.9-13.21,3-19.13-3.29-6.61-12.88-5.54-19.63-8.5-9.43-4.15-12.34-15.85-18.5-24.12-5.52-7.38-18.4-15.51-28.2-13.28-7.11,1.61-9.55,5.85-10.28,11.06" style="fill:#FF725E"></path><path d="M126.65,237.15c2.8-2.39,7.63-2.67,9.79.31,1.53,2.13,1.18,5,.78,7.65-.55,3.51-1.09,7-1.66,10.52a5.44,5.44,0,0,0,.14,3.15c1,2.22,4.69,1.8,6.09-.19s1.25-4.72.87-7.13-.87-5,.08-7.27c2.36-5.64,10.77-4.79,15.65-8.46,3-2.27,4.38-6.09,6.18-9.42s4.81-6.68,8.6-6.52c1.28.05,2.53.52,3.81.48,3.74-.12,5.92-5.59,3.27-8.25a9.2,9.2,0,0,1-1.66-1.7,3.11,3.11,0,0,1,1.19-3.72,8.78,8.78,0,0,1,4-1.28q4.78-.78,9.59-1.51c3.53-.55,8.05-2.37,7.55-5.9-.42-3.06-4.57-4.43-5.18-7.46a9.76,9.76,0,0,0-.41-2.23c-1-1.94-3.88-1.16-5.75-.12a4.64,4.64,0,0,0-7-2.25c-1.89,1.57-2.13,4.31-2.79,6.66-1.56,5.68-6.09,10-10.4,14-1.44,1.32-3.08,2.74-5,2.84s-4-2-3.13-3.74c.62-1.19,2.32-1.88,2.16-3.2-.24-1.66-3.13-1.54-3.7-3.13,1.14-4.69,6.52-6.63,10.64-9.14a25.77,25.77,0,0,0,10.87-13.36,3.4,3.4,0,0,0,.14-2.75c-.62-1.18-2.2-1.37-3.55-1.37-3.18,0-7.13.38-8.29,3.34-.62,1.59-.17,3.39-.55,5.05-1.11,4.92-7.86,5.47-12,8.4-1.61,1.14-2.87,2.73-4.64,3.6s-4.17.86-6.3,1q-.57,0-1.14.12-1.95,2.72-3.77,5.54c-1.21,1.87-2.38,3.78-3.5,5.71a148.15,148.15,0,0,0-13,28.94q-1.74,5.31-3.07,10.8t-2.26,11.11c1.47-3,2.13-6.77,2.7-9.43C122.72,243.29,123.88,239.55,126.65,237.15Z" style="fill:#FF725E"></path><g style="opacity:0.6000000000000001"><path d="M416.48,278.67c0-2.15-.08-4.29-.2-6.42.12,2.13.18,4.27.2,6.42,0,.69,0,1.37,0,2.06,0,3.32-.11,6.59-.3,9.85.19-3.26.3-6.53.3-9.85C416.52,280,416.52,279.36,416.48,278.67Z" style="fill:#263238"></path></g><g style="opacity:0.6000000000000001"><path d="M407.12,228.46c.71,1.9,1.38,3.8,2,5.72-.63-1.92-1.3-3.82-2-5.72,0,0,0,0,0,0h0Z" style="fill:#263238"></path></g><path d="M416.48,278.67c0-2.15-.08-4.29-.2-6.42s-.28-4.24-.49-6.34c-.17-1.71-.36-3.39-.59-5.07s-.5-3.55-.79-5.3a146.54,146.54,0,0,0-3.5-15.55q-.84-2.93-1.78-5.81c-.63-1.92-1.3-3.82-2-5.72v0h0c-.76-1.42-1.56-2.82-2.44-4.2-8.31-13.16-20.39-23.49-29.53-36.09-3-4.1-5.31-7.48-10.59-8.29-7.81-1.21-11.77,3.25-17.31-4.17-1.49-2-4.1-3.83-6.3-2.65.57,1.59,1.16,3.17,1.73,4.78a2.39,2.39,0,0,1,.19,1.05c-.12,1.11-1.78,1.42-2.73.8a9.79,9.79,0,0,1-2.08-2.67,7.67,7.67,0,0,0-11.25-.93,4.31,4.31,0,0,0-2.49-3.5,5.14,5.14,0,0,1-6.44,4.14c-.45-1.44,2.13-1.7,3-2.94s-.16-2.77-1.23-3.74a16.44,16.44,0,0,0-10.3-4c-2.4-.05-5,.4-7.06-.83-1.21-.71-2.06-1.89-3.29-2.58-2.63-1.49-5.92-.12-8.58,1.35-3.62,2-7.36,4.55-8.64,8.5s1.56,9.26,5.68,8.76c1-.14,2.13-.63,3.15-.35,1.47.4,2.13,2.11,2.25,3.62s0,3.11.69,4.43,2.87,2,3.69.74c2-1.85,1.71-4.95,1.21-7.58s-1-5.59.55-7.75,6.08-1.47,5.78,1.19c-.19,1.56-2,2.7-1.9,4.28s2,2.47,3.65,2.4,3.24-.64,4.81-.24,2.84,2.44,1.7,3.6c-2,2.23-7.08-1.59-8.1,1.18a8.24,8.24,0,0,0-.07,2.28c-.19,2.32-3.1,3.17-5.42,3.45s-4.79.5-6.9-.49-3.55-3.77-2.34-5.76c-1.18-.85-3,0-3.62,1.33a7.58,7.58,0,0,0-.26,4.31c-2.47-.55-4.67,1.54-6.07,3.6s-2.77,4.5-5.16,5.23-5.73-.26-7,1.92c-1.63,2.84,3.11,6.44,1.45,9.26-.95,1.59-3.22,1.54-5,2-4.76,1.35-6.42,8.31-3.18,12s9.74,3.51,13.17,0c2.39-2.44,3.36-5.87,5.09-8.81s5-5.56,8.27-4.62a9.94,9.94,0,0,1,3.39,2.14q2.37,2,4.76,4c1,.85,2.13,1.92,2,3.24-.09,1.07-.92,1.9-1.28,2.89-1,2.87,3.15,5.59,5.76,4s2.89-5.57,1.11-8c-2.46-3.41-8-5.12-7.88-9.33,2.84-2.32,7.31.12,9,3.41s1.71,7.15,3.1,10.54,5.31,6.42,8.58,4.76c-.85-2.94-1.68-5.85-2.54-8.76,2.09-1.57,4.48,3,7,2.22,1.51-.47,1.7-2.65,1-4.12s-1.82-2.7-2.11-4.29c-.47-2.89,2.75-5.47,5.66-5s5,3.24,5.54,6.11a13.71,13.71,0,0,0,.76,3.38c1.09,2.28,3.91,3,6.23,3.91s4.76,3.29,3.79,5.62c-.45,1-1.52,2-1.14,3s1.73,1.32,1.73,2.32c0,.66-.71,1.11-1.32,1.37-1.57.64-3.27.85-4.79,1.59s-2.89,2.18-2.77,3.83c.19,2.37,3,3.51,4.33,5.48s1.09,4.35,1.9,6.49c.76,2,2.32,3.5,3.58,5.18,3.93,5.35,4.85,12.25,6.77,18.59.85,2.87,2.42,6.07,5.35,6.61a9,9,0,0,0,4.74-.92c4.24-1.68,8.64-3.48,11.6-6.92s4-9.07.93-12.45a2.38,2.38,0,0,0-1.45-.93,4.41,4.41,0,0,0-2.22.78c-2.16,1-4.81.17-6.61-1.42a18.36,18.36,0,0,1-3.93-5.9c-1.16-2.34-2.32-4.71-3.51-7.08,1.4-1.18,3.63-.68,5.07.48s2.3,2.84,3.46,4.26c3.53,4.41,9.33,6.35,14.94,7a14.18,14.18,0,0,1,4.22.88c4.19,1.92,5.4,8.1,9.83,9.42,1.23.38,2.6.31,3.76.86,1.76.82,2.63,2.81,3.15,4.68,1,3.49,1.31,7.16,2.77,10.47s4.41,6.33,8,6.37a8.65,8.65,0,0,0,6-2.67v0c.19-3.26.3-6.53.3-9.85C416.52,280,416.52,279.36,416.48,278.67Z" style="fill:#FF725E"></path><path d="M252.13,385.14a2.7,2.7,0,0,0-1.18.27,3.89,3.89,0,0,0-1.09.91c-.38.41-.71,1-1.19,1.54a3.09,3.09,0,0,1-2.12,1.25A3.88,3.88,0,0,1,244,388a16.35,16.35,0,0,0-2.34-1.8,2.54,2.54,0,0,0-1.39-.34,2.66,2.66,0,0,0-1.37.55c-.85.62-1.52,1.5-2.41,2.14a3.11,3.11,0,0,1-1.52.63,2.63,2.63,0,0,1-1.55-.34,15.24,15.24,0,0,1-2.13-1.76,3.35,3.35,0,0,0-2-.93,3.67,3.67,0,0,0-3,1.2,7.09,7.09,0,0,0-.68,1,1.17,1.17,0,0,1,.07-.33,2.77,2.77,0,0,1,.45-.83,3.78,3.78,0,0,1,3.13-1.44,3.75,3.75,0,0,1,2.25,1,16.28,16.28,0,0,0,2.09,1.67,2.26,2.26,0,0,0,2.55-.28c.8-.59,1.46-1.46,2.4-2.16a3.22,3.22,0,0,1,1.64-.64,3.1,3.1,0,0,1,1.66.41,16.52,16.52,0,0,1,2.4,1.87,3.48,3.48,0,0,0,2.27,1,2.71,2.71,0,0,0,1.87-1.06c.47-.52.84-1.08,1.25-1.5a4.09,4.09,0,0,1,1.23-.9A1.52,1.52,0,0,1,252.13,385.14Z" style="fill:#263238"></path><path d="M252.13,389.43a2.7,2.7,0,0,0-1.18.27,3.89,3.89,0,0,0-1.09.91c-.38.41-.71,1-1.19,1.54a3.09,3.09,0,0,1-2.12,1.25,3.88,3.88,0,0,1-2.6-1.09,16.35,16.35,0,0,0-2.34-1.8,2.54,2.54,0,0,0-1.39-.34,2.66,2.66,0,0,0-1.37.55c-.85.62-1.52,1.49-2.41,2.14a3.11,3.11,0,0,1-1.52.63,2.71,2.71,0,0,1-1.55-.34,15.24,15.24,0,0,1-2.13-1.76,3.35,3.35,0,0,0-2-.93,3.64,3.64,0,0,0-3,1.19,6.8,6.8,0,0,0-.68,1,1.11,1.11,0,0,1,.07-.33,2.8,2.8,0,0,1,.45-.84,3.81,3.81,0,0,1,3.13-1.43,3.75,3.75,0,0,1,2.25,1,16.28,16.28,0,0,0,2.09,1.67,2.26,2.26,0,0,0,2.55-.28c.8-.59,1.46-1.47,2.4-2.16a3.22,3.22,0,0,1,1.64-.64,3,3,0,0,1,1.66.41,16.52,16.52,0,0,1,2.4,1.87,3.48,3.48,0,0,0,2.27,1,2.71,2.71,0,0,0,1.87-1.06c.47-.52.84-1.08,1.25-1.5a3.92,3.92,0,0,1,1.23-.9A1.47,1.47,0,0,1,252.13,389.43Z" style="fill:#263238"></path><path d="M232,229.47a2.66,2.66,0,0,0-1.18.27,3.78,3.78,0,0,0-1.1.91c-.37.41-.71,1-1.19,1.54a3,3,0,0,1-2.12,1.25,3.9,3.9,0,0,1-2.6-1.09,16.35,16.35,0,0,0-2.34-1.8,2.51,2.51,0,0,0-1.38-.34,2.59,2.59,0,0,0-1.37.55c-.86.62-1.52,1.49-2.41,2.14a3.15,3.15,0,0,1-1.52.63,2.74,2.74,0,0,1-1.56-.34,15.24,15.24,0,0,1-2.13-1.76,3.35,3.35,0,0,0-2-.93,3.64,3.64,0,0,0-3,1.19,5.46,5.46,0,0,0-.67,1s0-.12.06-.33a3.05,3.05,0,0,1,.45-.84,3.82,3.82,0,0,1,3.13-1.43,3.72,3.72,0,0,1,2.25,1,16.28,16.28,0,0,0,2.09,1.67,2.26,2.26,0,0,0,2.55-.28c.8-.59,1.46-1.47,2.4-2.16a3.22,3.22,0,0,1,1.64-.64,3,3,0,0,1,1.66.41,16.63,16.63,0,0,1,2.41,1.87,3.45,3.45,0,0,0,2.26,1A2.69,2.69,0,0,0,228.2,232c.48-.52.84-1.08,1.26-1.5a3.89,3.89,0,0,1,1.22-.9A1.5,1.5,0,0,1,232,229.47Z" style="fill:#263238"></path><path d="M232,233.76a2.72,2.72,0,0,0-1.18.26,4,4,0,0,0-1.1.91c-.37.42-.71,1-1.19,1.55a3,3,0,0,1-2.12,1.25,3.86,3.86,0,0,1-2.6-1.1,16.28,16.28,0,0,0-2.34-1.79,2.61,2.61,0,0,0-1.38-.35,2.77,2.77,0,0,0-1.37.55c-.86.62-1.52,1.5-2.41,2.15a3.14,3.14,0,0,1-1.52.62,2.66,2.66,0,0,1-1.56-.33,15.24,15.24,0,0,1-2.13-1.76,3.35,3.35,0,0,0-2-.93,3.64,3.64,0,0,0-3,1.19,5.46,5.46,0,0,0-.67,1s0-.12.06-.33a2.92,2.92,0,0,1,.45-.84,3.82,3.82,0,0,1,3.13-1.43,3.77,3.77,0,0,1,2.25,1,14.72,14.72,0,0,0,2.09,1.67,2.26,2.26,0,0,0,2.55-.28c.8-.58,1.46-1.46,2.4-2.15A3.14,3.14,0,0,1,220,234a3.1,3.1,0,0,1,1.66.4,16.66,16.66,0,0,1,2.41,1.88,3.5,3.5,0,0,0,2.26,1,2.69,2.69,0,0,0,1.87-1.06c.48-.53.84-1.08,1.26-1.5a3.89,3.89,0,0,1,1.22-.9A1.46,1.46,0,0,1,232,233.76Z" style="fill:#263238"></path><path d="M400.17,306.87a2.72,2.72,0,0,0-1.18.26,4,4,0,0,0-1.1.91c-.37.42-.71,1-1.19,1.55a3,3,0,0,1-2.12,1.25,3.89,3.89,0,0,1-2.6-1.1,16.28,16.28,0,0,0-2.34-1.79,2.62,2.62,0,0,0-1.39-.35,2.77,2.77,0,0,0-1.36.55c-.86.62-1.53,1.5-2.41,2.15a3.13,3.13,0,0,1-1.53.62,2.64,2.64,0,0,1-1.55-.33,15.24,15.24,0,0,1-2.13-1.76,3.35,3.35,0,0,0-2-.93,3.64,3.64,0,0,0-2.95,1.19,5.46,5.46,0,0,0-.67,1s0-.12.06-.33a2.69,2.69,0,0,1,.45-.84,3.82,3.82,0,0,1,3.13-1.43,3.77,3.77,0,0,1,2.25,1,14.72,14.72,0,0,0,2.09,1.67,2.26,2.26,0,0,0,2.55-.28c.8-.58,1.46-1.46,2.4-2.15a3.14,3.14,0,0,1,1.64-.64,3.1,3.1,0,0,1,1.66.4,17.23,17.23,0,0,1,2.41,1.88,3.5,3.5,0,0,0,2.26,1,2.69,2.69,0,0,0,1.87-1.06c.47-.53.84-1.08,1.26-1.5a3.89,3.89,0,0,1,1.22-.9A1.46,1.46,0,0,1,400.17,306.87Z" style="fill:#263238"></path><path d="M400.17,311.16a2.72,2.72,0,0,0-1.18.26,4,4,0,0,0-1.1.91c-.37.42-.71,1-1.19,1.55a3,3,0,0,1-2.12,1.25A3.89,3.89,0,0,1,392,314a17.11,17.11,0,0,0-2.34-1.8,2.36,2.36,0,0,0-2.75.21c-.86.62-1.53,1.5-2.41,2.15a3.13,3.13,0,0,1-1.53.62,2.58,2.58,0,0,1-1.55-.34,15.21,15.21,0,0,1-2.13-1.75,3.35,3.35,0,0,0-2-.93,3.64,3.64,0,0,0-2.95,1.19,6.07,6.07,0,0,0-.67,1s0-.11.06-.32a2.69,2.69,0,0,1,.45-.84,3.8,3.8,0,0,1,3.13-1.43,3.71,3.71,0,0,1,2.25,1,15.46,15.46,0,0,0,2.09,1.67,2.26,2.26,0,0,0,2.55-.28c.8-.58,1.46-1.46,2.4-2.15a3.14,3.14,0,0,1,1.64-.64,3,3,0,0,1,1.66.4,16.51,16.51,0,0,1,2.41,1.88,3.44,3.44,0,0,0,2.26,1,2.68,2.68,0,0,0,1.87-1.05c.47-.53.84-1.08,1.26-1.51a3.84,3.84,0,0,1,1.22-.89A1.46,1.46,0,0,1,400.17,311.16Z" style="fill:#263238"></path><path d="M200.9,197.91c-.42-3.06-4.57-4.43-5.18-7.46a9.76,9.76,0,0,0-.41-2.23c-1-1.94-3.88-1.16-5.75-.12a4.64,4.64,0,0,0-7-2.25c-1.89,1.57-2.13,4.31-2.79,6.66-1.56,5.68-6.09,10-10.4,14-1.44,1.32-3.08,2.74-5,2.84s-4-2-3.13-3.74c.62-1.19,2.32-1.88,2.16-3.2-.24-1.66-3.13-1.54-3.7-3.13,1.14-4.69,6.52-6.63,10.64-9.14a25.77,25.77,0,0,0,10.87-13.36,3.4,3.4,0,0,0,.14-2.75c-.62-1.18-2.2-1.37-3.55-1.37-3.18,0-7.13.38-8.29,3.34-.62,1.59-.17,3.39-.55,5.05-1.11,4.92-7.86,5.47-12,8.4-1.61,1.14-2.87,2.73-4.64,3.6s-4.17.86-6.3,1q-.57,0-1.14.12-1.95,2.72-3.77,5.54c-1.21,1.87-2.38,3.78-3.5,5.71a148.15,148.15,0,0,0-13,28.94q-1.74,5.31-3.07,10.8t-2.26,11.11c1.47-3,2.13-6.77,2.7-9.43.78-3.57,1.94-7.31,4.71-9.71s7.63-2.67,9.79.31c1.53,2.13,1.18,5,.78,7.65-.55,3.51-1.09,7-1.66,10.52a5.44,5.44,0,0,0,.14,3.15c1,2.22,4.69,1.8,6.09-.19s1.25-4.72.87-7.13-.87-5,.08-7.27c2.36-5.64,10.77-4.79,15.65-8.46,3-2.27,4.38-6.09,6.18-9.42s4.81-6.68,8.6-6.52c1.28.05,2.53.52,3.81.48,3.74-.12,5.92-5.59,3.27-8.25a9.2,9.2,0,0,1-1.66-1.7,3.11,3.11,0,0,1,1.19-3.72,8.78,8.78,0,0,1,4-1.28q4.78-.78,9.59-1.51C196.88,203.26,201.4,201.44,200.9,197.91Z" style="opacity:0.30000000000000004"></path><g style="opacity:0.30000000000000004"><path d="M416.48,278.67c0-2.15-.08-4.29-.2-6.42s-.28-4.24-.49-6.34c-.17-1.71-.36-3.39-.59-5.07s-.5-3.55-.79-5.3a146.54,146.54,0,0,0-3.5-15.55q-.84-2.93-1.78-5.81c-.63-1.92-1.3-3.82-2-5.72v0h0c-.76-1.42-1.56-2.82-2.44-4.2-8.31-13.16-20.39-23.49-29.53-36.09-3-4.1-5.31-7.48-10.59-8.29-7.81-1.21-11.77,3.25-17.31-4.17-1.49-2-4.1-3.83-6.3-2.65.57,1.59,1.16,3.17,1.73,4.78a2.39,2.39,0,0,1,.19,1.05c-.12,1.11-1.78,1.42-2.73.8a9.79,9.79,0,0,1-2.08-2.67,7.67,7.67,0,0,0-11.25-.93,4.31,4.31,0,0,0-2.49-3.5,5.14,5.14,0,0,1-6.44,4.14c-.45-1.44,2.13-1.7,3-2.94s-.16-2.77-1.23-3.74a16.44,16.44,0,0,0-10.3-4c-2.4-.05-5,.4-7.06-.83-1.21-.71-2.06-1.89-3.29-2.58-2.63-1.49-5.92-.12-8.58,1.35-3.62,2-7.36,4.55-8.64,8.5s1.56,9.26,5.68,8.76c1-.14,2.13-.63,3.15-.35,1.47.4,2.13,2.11,2.25,3.62s0,3.11.69,4.43,2.87,2,3.69.74c2-1.85,1.71-4.95,1.21-7.58s-1-5.59.55-7.75,6.08-1.47,5.78,1.19c-.19,1.56-2,2.7-1.9,4.28s2,2.47,3.65,2.4,3.24-.64,4.81-.24,2.84,2.44,1.7,3.6c-2,2.23-7.08-1.59-8.1,1.18a8.24,8.24,0,0,0-.07,2.28c-.19,2.32-3.1,3.17-5.42,3.45s-4.79.5-6.9-.49-3.55-3.77-2.34-5.76c-1.18-.85-3,0-3.62,1.33a7.58,7.58,0,0,0-.26,4.31c-2.47-.55-4.67,1.54-6.07,3.6s-2.77,4.5-5.16,5.23-5.73-.26-7,1.92c-1.63,2.84,3.11,6.44,1.45,9.26-.95,1.59-3.22,1.54-5,2-4.76,1.35-6.42,8.31-3.18,12s9.74,3.51,13.17,0c2.39-2.44,3.36-5.87,5.09-8.81s5-5.56,8.27-4.62a9.94,9.94,0,0,1,3.39,2.14q2.37,2,4.76,4c1,.85,2.13,1.92,2,3.24-.09,1.07-.92,1.9-1.28,2.89-1,2.87,3.15,5.59,5.76,4s2.89-5.57,1.11-8c-2.46-3.41-8-5.12-7.88-9.33,2.84-2.32,7.31.12,9,3.41s1.71,7.15,3.1,10.54,5.31,6.42,8.58,4.76c-.85-2.94-1.68-5.85-2.54-8.76,2.09-1.57,4.48,3,7,2.22,1.51-.47,1.7-2.65,1-4.12s-1.82-2.7-2.11-4.29c-.47-2.89,2.75-5.47,5.66-5s5,3.24,5.54,6.11a13.71,13.71,0,0,0,.76,3.38c1.09,2.28,3.91,3,6.23,3.91s4.76,3.29,3.79,5.62c-.45,1-1.52,2-1.14,3s1.73,1.32,1.73,2.32c0,.66-.71,1.11-1.32,1.37-1.57.64-3.27.85-4.79,1.59s-2.89,2.18-2.77,3.83c.19,2.37,3,3.51,4.33,5.48s1.09,4.35,1.9,6.49c.76,2,2.32,3.5,3.58,5.18,3.93,5.35,4.85,12.25,6.77,18.59.85,2.87,2.42,6.07,5.35,6.61a9,9,0,0,0,4.74-.92c4.24-1.68,8.64-3.48,11.6-6.92s4-9.07.93-12.45a2.38,2.38,0,0,0-1.45-.93,4.41,4.41,0,0,0-2.22.78c-2.16,1-4.81.17-6.61-1.42a18.36,18.36,0,0,1-3.93-5.9c-1.16-2.34-2.32-4.71-3.51-7.08,1.4-1.18,3.63-.68,5.07.48s2.3,2.84,3.46,4.26c3.53,4.41,9.33,6.35,14.94,7a14.18,14.18,0,0,1,4.22.88c4.19,1.92,5.4,8.1,9.83,9.42,1.23.38,2.6.31,3.76.86,1.76.82,2.63,2.81,3.15,4.68,1,3.49,1.31,7.16,2.77,10.47s4.41,6.33,8,6.37a8.65,8.65,0,0,0,6-2.67v0c.19-3.26.3-6.53.3-9.85C416.52,280,416.52,279.36,416.48,278.67Z"></path><path d="M332.28,354.48c-3.75,5.65-4.43,12.72-5.47,19.42s-2.83,13.84-8,18.26-14.61,4.15-17.45-2c-1.54-3.35-.75-7.3-1.59-10.89-1.09-4.67-4.81-8.28-6.58-12.74-1.51-3.81-1.51-8-1.63-12.11-.67-22.36-6.13-45.7-21.35-62.1-1.87-2-4-4-6.65-4.68a8.49,8.49,0,0,0-8.74,3c-1.22,1.61-1.85,3.68-3.35,5.05-3.26,3-8.94.84-11.11-3s-1.87-8.53-1.51-12.92l1.35-16.33c.24-2.85.56-5.91,2.43-8.07,2.66-3.07,7.42-3.22,10.68-5.65,4.26-3.2,4.83-9.29,7.52-13.89s11.1-6.54,12.34-1.36c8.91-19,28.58,9.25,40.27,7.12,3.4-.62,6.72-2.25,10.14-1.77,6,.84,9.15,7.5,11.21,13.24L345,281.65c1.3,3.63,3,7.67,6.57,9.06,2.75,1.07,5.95.25,8.73,1.26,7.34,2.67,4.95,14.22-.95,19.33s-14.2,8.34-17,15.63c-2.11,5.49-.43,11.92-2.7,17.35C338,348.16,334.61,351,332.28,354.48Z"></path></g><path d="M369.2,215.09c.54-3.93-5-7.16-9.17-7.5-2-.16-4,.15-5.94-.51-4.07-1.42-5.7-6.69-9.68-8.37-3-1.26-6.41-.14-9.29,1.31s-5.74,3.28-9,3.49c-2.8.18-5.85-.86-8.3.51-1.83,1-2.78,3.13-4.47,4.37a10.7,10.7,0,0,1-5.84,1.58,16.32,16.32,0,0,0-6,1c-1.86.85-3.4,2.82-3,4.83Z" style="fill:#fff"></path><g style="opacity:0.30000000000000004"><path d="M356.25,340.85c-2.23.44-2.68,1.75-3.89,3.4-1.58,2.15-3.84,4.3-5.27,6.42-2.44,3.6-.24,9.21-3.45,12.23-.65.62-1.49,1-2.08,1.71a3.78,3.78,0,0,0,.77,5.22,5.13,5.13,0,0,0,5.58.1,8.15,8.15,0,0,0,3.41-4.67c.43-1.35.67-2.89,1.74-3.82,1.83-1.61,4.68-.42,7.09-.75C370.41,359.25,366,338.93,356.25,340.85Z"></path></g><path d="M211.51,346.19c.79-6.56,5.9-13.21,3-19.13-3.29-6.61-12.88-5.54-19.63-8.5-9.43-4.15-12.34-15.85-18.5-24.12-5.52-7.38-18.4-15.51-28.2-13.28-7.11,1.61-9.55,5.85-10.28,11.06l-.9-.14c-2.63-.29-5.71-.43-7.16-2.61-1.68-2.53,0-6.3-1.75-8.79-.9-1.3-2.46-1.87-3.74-2.79s-2.37-2.61-1.59-4c.64-1.16,2.3-1.4,3.13-2.46a2.42,2.42,0,0,0,0-3c-2.7-3.2-5.71,3.31-7.2,4.85a12.35,12.35,0,0,1-1.21,1.14v0c0,.29,0,.55,0,.83,0,.89,0,1.8,0,2.7s0,1.8,0,2.7c0,.74,0,1.46,0,2.19s0,1.47,0,2.19a25.41,25.41,0,0,1,4.62,2.28c2.91,1.68,6.16,3.9,6.35,7.27a2.67,2.67,0,0,0,.31,1.58A2.24,2.24,0,0,0,130,297,41.5,41.5,0,0,0,137.6,298c0,3,.26,6.16.21,9.14-.07,4.34-1.49,8.62-1,12.91.69,6.06,4.9,11,8.57,15.92,14,18.66,21.68,41,29.85,63h0c1.52,1.21,3.06,2.35,4.62,3.46q1.85,1.33,3.73,2.61t3.82,2.48c.9.57,1.8,1.12,2.73,1.66l-.36-.76c-3.29-7.22-3.48-17.64,3.6-21.22,1.35-.69,2.89-1.06,4-2.11,3.15-3,.57-9.14,3.72-12.12,1.78-1.66,4.55-1.54,6.75-2.54,4-1.82,5.24-6.89,4.93-11.25S211,350.53,211.51,346.19Z" style="opacity:0.30000000000000004"></path><path d="M254.09,282.46c.43-3.19-4.06-5.81-7.44-6.08-1.62-.13-3.29.12-4.82-.42-3.3-1.15-4.63-5.42-7.85-6.78-2.42-1-5.2-.12-7.54,1.06s-4.65,2.66-7.26,2.83c-2.28.14-4.74-.7-6.73.41-1.49.83-2.26,2.54-3.63,3.54a8.62,8.62,0,0,1-4.74,1.29,13.34,13.34,0,0,0-4.88.8c-1.51.69-2.76,2.29-2.45,3.92Z" style="fill:#fff"></path><path d="M354.68,157.87c-.69-2.33-4.48-5.48-6.9-5.74.63-3.49-1.44-6-3.57-7.59-1.7-1.23-7.83-3-10.77-1a12.12,12.12,0,0,0-16.77-3.77c3.49,1.4,4.91,3.92,5.6,7.63s0,7.53-1,11.16a12.26,12.26,0,0,0-.7,4.66,3.75,3.75,0,0,0,2.83,3.39c1.43.2,2.75-.75,3.8-1.74a24,24,0,0,0,6.57-10.69,45.61,45.61,0,0,0,2.29,12c.52,1.54,1.42,3.3,3,3.47,1.38.15,2.55-1,3.42-2a27,27,0,0,0,5-10.19q-.09,5,.19,10.1c.07,1.27.23,2.69,1.21,3.51,1.31,1.1,3.46.41,4.49-1a9.61,9.61,0,0,0,1.42-4.87A18.74,18.74,0,0,0,354.68,157.87Z" style="fill:#ffbe9d"></path><path d="M332.31,141.94a4.09,4.09,0,0,1,1.22,1.66,12.55,12.55,0,0,1,1.14,4.82,16.62,16.62,0,0,1-.42,4.93,5.72,5.72,0,0,1-.7,1.92,30.33,30.33,0,0,0,.6-6.82,14.57,14.57,0,0,0-1-4.7C332.73,142.6,332.24,142,332.31,141.94Z" style="fill:#eb996e"></path><path d="M346.5,160.28a6.91,6.91,0,0,1,.35-1.6,28.49,28.49,0,0,0,.62-3.85c.3-3,.18-5.54.33-5.55a16,16,0,0,1,.19,5.6,18,18,0,0,1-.78,3.9A4.1,4.1,0,0,1,346.5,160.28Z" style="fill:#eb996e"></path><path d="M213.07,114.84c-.07-3.67,3-6.8,6.46-8s7.24-.93,10.89-.63a14.94,14.94,0,0,1-7.61,7.43c-3.34,1.42-6.31,2.4-9.74,1.21" style="fill:#263238"></path><path d="M150.81,431.45c-3.58-.8-5.89-4.53-6.24-8.18s.83-7.25,2-10.73a14.92,14.92,0,0,1,5.39,9.17c.59,3.58.83,6.7-1.15,9.74" style="fill:#263238"></path><path d="M186.47,437.52c-4.12,2.52-9.72,1.11-13.4-2s-5.87-7.61-8-12a19.58,19.58,0,0,1,13.51,3.72c3.84,2.85,6.93,5.58,7.85,10.27" style="fill:#263238"></path><path d="M228.8,131.52c-4.52-5.68-14.64-2.86-19.77-8-2.06-2.07-2.9-5.08-4.75-7.33-2.9-3.52-7.93-4.69-12.45-4.07s-8.67,2.73-12.72,4.82l-.18,1.51c-8.57,32.15-22.65,65.83-31.22,98-.93,3.51-1.86,7.22-.87,10.7,2.22,7.73,12.56,9.9,20.29,7.69,16.2-4.64,26.19-20.78,32.33-36.46S209.81,165.58,221,153c2.76-3.12,5.94-6,7.92-9.63S231.39,134.79,228.8,131.52Z" style="fill:#263238"></path><path d="M197.09,133.4a1.3,1.3,0,0,1,0-.44c0-.17,0-.34,0-.53s0-.46-.06-.73a13.34,13.34,0,0,0-1.35-4.37c-1.68-3.52-5.22-7.71-9.72-11.62a81.34,81.34,0,0,0-12.45-8.85c-1.7-1-3.1-1.71-4.09-2.19a11.48,11.48,0,0,1-1.51-.79,1.77,1.77,0,0,1,.42.13c.27.11.68.25,1.18.48,1,.42,2.45,1.11,4.18,2.05a72.22,72.22,0,0,1,12.61,8.78c4.54,3.93,8.09,8.22,9.72,11.85a12.61,12.61,0,0,1,1.21,4.52v.74l-.05.53A1.59,1.59,0,0,1,197.09,133.4Z" style="fill:#455a64"></path><path d="M220.08,148.28a12.19,12.19,0,0,1,1-1.32,22.17,22.17,0,0,0,2.52-3.74,9.39,9.39,0,0,0,.94-2.91,7.18,7.18,0,0,0-.3-3.44,5.21,5.21,0,0,0-2.43-2.82,9.69,9.69,0,0,0-4-1c-1.44-.1-2.86,0-4.25,0l-4,.12-6.74.17-4.55.08a10,10,0,0,1-1.67,0,11.36,11.36,0,0,1,1.66-.16l4.55-.23,6.74-.29,4-.15a40.87,40.87,0,0,1,4.3,0,9.89,9.89,0,0,1,4.21,1.1,5.61,5.61,0,0,1,2.63,3.1,8.38,8.38,0,0,1-.77,6.68,18.79,18.79,0,0,1-2.69,3.7A8.64,8.64,0,0,1,220.08,148.28Z" style="fill:#455a64"></path><path d="M84.68,237.3,126,128.77a9.86,9.86,0,0,1,11.94-5.89l53.33,7.62c16.15,4.72,18.62,28,13.22,43.93-6,17.7-14,39.07-21.34,51.11-14.74,24.2-35.93,19.35-35.93,19.35L141,259.66l-19.24,39.15Z" style="fill:#ffbe9d"></path><path d="M177.79,189.16c.58-.52,2.58,2.89,6.32,3.86s7.09-.92,7.34-.18c.14.34-.56,1.36-2,2.26a7.88,7.88,0,0,1-6.06.92,8.21,8.21,0,0,1-4.85-3.86C177.64,190.63,177.51,189.39,177.79,189.16Z" style="fill:#263238"></path><path d="M143.28,170.13c.76-.29,2.08,3.74,5.92,6s8,1.67,8.09,2.48c.06.38-1,1.12-2.83,1.45a9.91,9.91,0,0,1-11.18-6.79C142.73,171.51,142.91,170.26,143.28,170.13Z" style="fill:#263238"></path><path d="M162.07,201.6c.07-.21,2.45.32,6.23,1.33,1,.28,1.89.46,2.3-.1s.51-1.71.5-3q.08-3.84.16-8.05c.31-11.43.94-20.67,1.4-20.66s.58,9.3.26,20.72q-.15,4.22-.28,8.05c-.08,1.18,0,2.6-1,3.78a2.49,2.49,0,0,1-2,.72A7,7,0,0,1,168,204C164.26,202.71,162,201.81,162.07,201.6Z" style="fill:#263238"></path><path d="M147.19,244.89a71.25,71.25,0,0,1-30.88-23.48s1.11,21.23,28,29.45Z" style="fill:#eb996e"></path><path d="M158.06,209.88a9.51,9.51,0,0,0-5.67-6.81,6.17,6.17,0,0,0-5.75.62A5.68,5.68,0,0,0,149.3,214c2.22.34,4.45-.36,6.6-1.1a4.43,4.43,0,0,0,1.68-.87,2,2,0,0,0,.6-1.87" style="fill:#eb996e"></path><path d="M150.54,199.75c.6.21-1,4.09,1.2,8.2s6.5,5.39,6.3,5.94c0,.27-1.23.38-3-.29a10.45,10.45,0,0,1-5.35-4.74,9.1,9.1,0,0,1-.76-6.77C149.46,200.41,150.29,199.62,150.54,199.75Z" style="fill:#263238"></path><path d="M167.6,155.72c-.75.83-4.13-1.1-8.53-2.31s-8.26-1.47-8.45-2.57c-.08-.51.88-1.19,2.64-1.56a14.59,14.59,0,0,1,6.89.36,14.78,14.78,0,0,1,6,3.35C167.48,154.24,167.94,155.32,167.6,155.72Z" style="fill:#263238"></path><path d="M199.16,170.72c-1,.55-3.07-1.3-6-2.55s-5.69-1.7-5.91-2.79c-.09-.51.64-1.16,2.05-1.48a9.48,9.48,0,0,1,9.62,4.3C199.6,169.46,199.6,170.44,199.16,170.72Z" style="fill:#263238"></path><path d="M167.21,103.69c-9.83-2.78-20.94.47-28.6,7.23-15.67-3-32.87,5.9-39.37,20.48-2.18,4.9-3.38,10.48-7.19,14.25-4.14,4.1-10.44,5.13-15.1,8.62C70.71,159,68.41,167.22,67.54,175s-.75,15.81-3.79,23c-3.39,8-10.23,13.9-16.16,20.24s-11.4,14.21-10.85,22.88a19.09,19.09,0,0,0,12.81,16.52c-7.63,6.75-6.57,20.12.74,27.22s18.89,8.42,28.63,5.44,18-9.63,25.16-16.83c5.5-5.5,10.92-12.37,10.19-20.11-.55-5.84-4.5-10.7-7.19-15.92-5.8-11.25-5.82-24.78-2.7-37s9.15-23.57,15.13-34.74c-1.9,3.39,1.41,8,5.28,8.21s7.36-2.75,9-6.29,1.68-7.55,1.75-11.43c7.26,2.14,15-2.07,20.25-7.49s6.89-7.3,13.76-10.47c9.34-4.31,19-6.41,26.63-5.44C199.17,126,181.73,107.79,167.21,103.69Z" style="fill:#263238"></path><path d="M119.29,168.45c2.16-5.6-4-9.75-10-9.11-3.28.35-6.62,2.49-9,8.41-6.25,15.8,10.9,18.81,11.1,18.37C111.57,185.85,116.76,175,119.29,168.45Z" style="fill:#ffbe9d"></path><path d="M109,178.23c0-.08-.36.08-.9.11a2.93,2.93,0,0,1-2.08-.77c-1.42-1.27-1.78-4.48-.73-7.35a9.72,9.72,0,0,1,2.33-3.64,3.4,3.4,0,0,1,2.9-1.29,1.51,1.51,0,0,1,1.33,1.39c0,.53-.19.81-.12.87s.45-.13.58-.84a1.87,1.87,0,0,0-.23-1.23,2.24,2.24,0,0,0-1.36-1,4.19,4.19,0,0,0-3.85,1.31,10.1,10.1,0,0,0-2.69,4c-1.16,3.22-.71,6.85,1.31,8.41a3.18,3.18,0,0,0,2.68.58C108.81,178.6,109,178.28,109,178.23Z" style="fill:#eb996e"></path><path d="M133.26,158.73a10.23,10.23,0,0,0,2.19,2,10.39,10.39,0,0,0,7.67,1.18c3.31-.72,6.74-3.16,9.61-6.58s5.44-7.76,9.29-11.36a40.09,40.09,0,0,1,12.27-8.06,41.68,41.68,0,0,1,11.62-3,39,39,0,0,1,8.09,0c.95.1,1.68.25,2.17.33a3.88,3.88,0,0,1,.75.16,3.63,3.63,0,0,1-.76-.06c-.5,0-1.23-.16-2.18-.23a41.36,41.36,0,0,0-19.51,3.23,40.15,40.15,0,0,0-12.09,8c-3.79,3.54-6.29,7.89-9.29,11.3s-6.46,5.93-9.89,6.63a10.43,10.43,0,0,1-7.86-1.37,7.86,7.86,0,0,1-1.64-1.48c-.16-.2-.26-.36-.34-.47A.72.72,0,0,1,133.26,158.73Z" style="fill:#455a64"></path><path d="M143.82,151.37c.08-2-2.11-3.38-4.08-3.91a16.36,16.36,0,0,0-14.3,2.4c3.75-3.07,4.51-8.3,3-12.89-.74-2.2-3.13-4.44-5.11-3.23-1.23.75-1.49,2.38-1.56,3.81a48.88,48.88,0,0,0,.86,12,15.3,15.3,0,0,0-7.2-10.22c-2.11-1.24-5.49-1.55-6.42.71-.73,1.78.71,3.66,2.1,5,2.44,2.31,7,4.21,9.86,6-5.91,1.21-11.59,1.68-16.18,5.36a3,3,0,0,0-1.14,3c.5,1.58,2.72,1.64,4.33,1.26,6.15-1.46,9.75-3,14.14-7.54-2.76,3.46-4,8.53-4.52,12.93-.26,2,.24,4.76,2.27,5.06,1.85.28,3.16-1.73,3.78-3.48a28.55,28.55,0,0,0,.78-14.85c.63,4.6,3.43,8.65,6.94,11.7a6.77,6.77,0,0,0,4,1.93,3,3,0,0,0,3.2-2.52c.07-1.4-1.12-2.5-2.21-3.39-3.82-3.11-6.82-5.14-10.64-8.25,4,2.35,7.87,2.52,12.54,2.52C140.64,154.8,143.73,153.8,143.82,151.37Z" style="fill:#FF725E"></path><path d="M78.32,267.57s0-.07-.07-.22l-.16-.68c-.13-.65-.31-1.52-.53-2.63-.12-.57-.24-1.21-.38-1.9s-.2-1.46-.31-2.28c-.19-1.65-.5-3.51-.57-5.59-.06-1-.12-2.13-.19-3.27s0-2.32,0-3.54c-.06-2.46.18-5.07.37-7.82a93.56,93.56,0,0,1,10-34.22c1.33-2.42,2.53-4.74,3.9-6.78.66-1,1.25-2.06,1.91-3L94.19,193c1.18-1.72,2.45-3.12,3.49-4.4.54-.63,1-1.24,1.49-1.76l1.34-1.4,1.87-1.93c.2-.19.36-.36.49-.49s.18-.16.18-.15,0,.07-.14.19l-.46.53c-.44.48-1,1.15-1.79,2-.39.44-.83.91-1.3,1.43s-.93,1.14-1.45,1.78c-1,1.3-2.27,2.71-3.42,4.44l-1.88,2.65c-.65.93-1.23,2-1.89,3-1.34,2-2.53,4.36-3.83,6.77A95.23,95.23,0,0,0,77,239.69c-.2,2.73-.46,5.33-.42,7.77,0,1.22-.07,2.4,0,3.53s.11,2.22.16,3.25c0,2.08.33,3.94.49,5.58.1.82.16,1.58.26,2.28s.24,1.33.34,1.91c.18,1.11.33,2,.44,2.64,0,.27.07.5.1.69A2,2,0,0,1,78.32,267.57Z" style="fill:#455a64"></path><path d="M70.45,310.31a.65.65,0,0,1,0-.23c0-.19-.05-.41-.08-.69-.07-.64-.16-1.52-.28-2.63-.24-2.28-.51-5.6-.78-9.7-.54-8.2-.94-19.55-.66-32.09s1.22-23.87,2.14-32c.46-4.08.88-7.38,1.22-9.65.17-1.1.3-2,.4-2.62,0-.27.09-.49.12-.68a1.94,1.94,0,0,1,0-.22.68.68,0,0,1,0,.23c0,.19,0,.41-.07.69-.07.64-.17,1.52-.29,2.62-.28,2.28-.65,5.59-1.06,9.67-.83,8.17-1.7,19.48-2,32s.06,23.86.51,32.06c.22,4.1.44,7.41.61,9.7.08,1.11.14,2,.18,2.64,0,.28,0,.5,0,.69A.73.73,0,0,1,70.45,310.31Z" style="fill:#455a64"></path><path d="M91.88,232.14a1.42,1.42,0,0,1-.08-.48c0-.37-.07-.82-.12-1.37s-.11-1.32-.12-2.17-.06-1.82,0-2.89a68.35,68.35,0,0,1,.51-7.49A70.53,70.53,0,0,1,96.69,200a70.17,70.17,0,0,1,3.22-6.79c.49-1,1-1.77,1.44-2.5s.82-1.35,1.16-1.84l.78-1.14c.18-.26.28-.39.3-.38a2,2,0,0,1-.22.44c-.18.32-.41.71-.69,1.18s-.68,1.14-1.08,1.88-.9,1.57-1.36,2.53c-1,1.89-2,4.19-3.1,6.8a74,74,0,0,0-4.61,17.65c-.36,2.79-.57,5.32-.63,7.44-.06,1.07,0,2-.05,2.87s0,1.58,0,2.17,0,1,0,1.38A2.58,2.58,0,0,1,91.88,232.14Z" style="fill:#455a64"></path><circle cx="123.27" cy="151.41" r="1.83" style="fill:#fff"></circle><path d="M137.26,142.29a2.64,2.64,0,0,1,.46-.17l1.33-.38c1.16-.32,2.84-.8,4.9-1.41,4.12-1.24,9.76-3.13,15.83-5.64a166.86,166.86,0,0,0,15.16-7.24c1.9-1,3.42-1.87,4.46-2.47l1.22-.67c.28-.15.43-.22.44-.2a2.43,2.43,0,0,1-.39.29l-1.16.76c-1,.65-2.51,1.55-4.39,2.62A140.52,140.52,0,0,1,160,135.17a141.34,141.34,0,0,1-15.93,5.51c-2.08.57-3.77,1-5,1.26l-1.36.29A1.44,1.44,0,0,1,137.26,142.29Z" style="fill:#455a64"></path><path d="M133,137a21.44,21.44,0,0,1,2.63.09,40,40,0,0,0,6.3-.24,38.66,38.66,0,0,0,6.17-1.28,19.47,19.47,0,0,1,2.53-.72,9.87,9.87,0,0,1-2.42,1.07,29.76,29.76,0,0,1-12.6,1.54A10,10,0,0,1,133,137Z" style="fill:#455a64"></path><path d="M125.28,366.29C97.64,330.51,88.72,281,102.12,237.86L47.76,261.39c-12,9.07-15,28.09-6.3,40.4,6.16,8.7,17.63,15.82,16.16,26.38-1.15,8.25-10.38,14.34-7.86,23.18a13.18,13.18,0,0,0,6.93,8c6.63,3.33,14,2.26,21,1.17-4.58,9.82-9.14,21.5-3.92,31,4,7.3,12.94,10.77,21.27,10.62,9.86-.18,19.19-4.53,28.27-8a16.36,16.36,0,0,0,7.07-5.14C136.48,381,130.37,372.89,125.28,366.29Z" style="fill:#263238"></path><path d="M81.16,284.75S84.54,326.62,110.1,355s61.24,40.65,61.24,40.65-40.7-41.38-41.89-64.85S81.16,284.75,81.16,284.75Z" style="fill:#ffbe9d"></path><path d="M84.49,274.23a28.33,28.33,0,0,0,7.49,36c33.05,25.58,99.27,74.44,117.26,69.86C224.32,376.31,297,329.6,297,329.6l-7.13-34-80.47,34-82.67-64.13a28.34,28.34,0,0,0-42.23,8.76Z" style="fill:#ffbe9d"></path><path d="M94.13,306.91s.15.12.38.37.61.65,1,1.1c.87,1,2.16,2.34,3.77,4,3.22,3.36,7.84,7.83,13.25,12.43s10.53,8.49,14.28,11.24l4.46,3.24,1.21.89c.28.21.42.32.41.34a2.6,2.6,0,0,1-.46-.26l-1.27-.8c-1.1-.71-2.66-1.77-4.56-3.11-3.82-2.67-9-6.53-14.41-11.14A155.1,155.1,0,0,1,99,312.65c-1.58-1.71-2.83-3.13-3.65-4.14l-.95-1.17A1.91,1.91,0,0,1,94.13,306.91Z" style="fill:#eb996e"></path><path d="M287.06,297.36c.72-1.44,10.92-18.52,13.08-20s27.19-7.22,27.19-7.22,2.5,6.61-2.17,9.85c-2.54,1.75-6.23,2-9.07,3.61a14.28,14.28,0,0,0-4.2,4.36s11.51,1.8,18.35-.36,32-7.2,33.47,2.88c0,0,7.19-.36,7.55,4.68s-6.83,7.91-6.83,7.91,3.6,4.68-1.08,8.28-34.18,11.16-34.18,11.16,24.46-6.12,25.18-4,1.8,4.68,0,6.12-25.18,6.11-25.18,6.11S302.75,330,297,329.6l-3.06-4.33Z" style="fill:#ffbe9d"></path><path d="M363.71,290.52a9,9,0,0,1-1.4.58c-.91.35-2.25.8-3.91,1.32a98.3,98.3,0,0,1-13.26,3.11,105.71,105.71,0,0,1-13.57,1.28c-1.74,0-3.15.05-4.12,0a7.65,7.65,0,0,1-1.52-.09,8.37,8.37,0,0,1,1.51-.11l4.12-.19A131.45,131.45,0,0,0,345.05,295a121.79,121.79,0,0,0,13.24-2.95c1.67-.48,3-.87,3.95-1.16A7.17,7.17,0,0,1,363.71,290.52Z" style="fill:#eb996e"></path><path d="M364.43,303.65a6.93,6.93,0,0,1-1.18.29c-.77.15-1.88.36-3.26.6-2.75.49-6.56,1.11-10.78,1.7s-8.07,1-10.86,1.23c-1.39.11-2.52.19-3.3.22a6,6,0,0,1-1.22,0,5.24,5.24,0,0,1,1.2-.21l3.28-.39c2.78-.32,6.6-.79,10.82-1.38l10.8-1.54,3.28-.44A5.3,5.3,0,0,1,364.43,303.65Z" style="fill:#eb996e"></path><path d="M100.24,206.1l.74-3.46A10.78,10.78,0,0,0,100.24,206.1Z" style="fill:#455a64"></path><path d="M163.7,286.53c-2.75-3.24-3.42-7.71-3.7-11.94s-.33-8.63-2.14-12.46c-4.39-9.31-16.58-11.19-26.85-11.84,3.75-5.88.27-13.94-5-18.48s-12.08-7-17.65-11.18c-4.58-3.47-8.36-9-8.1-14.53L97.64,262c23.71-6.36,32.65,10.9,51.73,25.33,4,3.05,8.28,6.2,13.26,7s10.89-1.53,12.3-6.39C171.92,291,166.45,289.76,163.7,286.53Z" style="fill:#263238"></path><path d="M198.73,403.54c-7.44.48-15.17-2.42-19.94-8.2-4.24-5.13-6.18-11.93-10.76-16.75-6.48-6.81-16.61-8.21-25.83-10s-12.75,4.71-30.08-11.37l-18,9.75c0,9.56,3.22,19.27,9.75,26.25s16.55,10.87,25.93,9c5.19-1,10.07-3.68,15.36-3.79,15.09-.29,26.06,19.74,40.83,16.64A26.6,26.6,0,0,0,201.1,410,3.6,3.6,0,0,0,198.73,403.54Z" style="fill:#263238"></path><path d="M174.36,399.42l-.3-.05-.89-.19a6.65,6.65,0,0,1-1.4-.46,10.91,10.91,0,0,1-1.82-.87,19.65,19.65,0,0,1-4.29-3.47c-1.5-1.55-3-3.47-4.7-5.58a46.22,46.22,0,0,0-5.93-6.48,20.55,20.55,0,0,0-8.94-4.33,75.87,75.87,0,0,0-11.07-1.4c-1.94-.17-3.92-.32-5.9-.69-1-.17-2-.28-3-.52l-3-.73a60.28,60.28,0,0,1-20.77-10.31,62,62,0,0,1-13.16-13.65,59.45,59.45,0,0,1-6.13-11.24c-.57-1.4-.91-2.53-1.18-3.28l-.28-.86a1.33,1.33,0,0,1-.08-.29,1.14,1.14,0,0,1,.13.28l.33.84c.3.74.67,1.85,1.26,3.23A61,61,0,0,0,102.64,364a60.45,60.45,0,0,0,20.61,10.19l3,.72c1,.24,2,.34,3,.52,2,.37,3.93.52,5.86.69a74.74,74.74,0,0,1,11.14,1.45,20.89,20.89,0,0,1,9.11,4.46,45.81,45.81,0,0,1,5.93,6.58c1.66,2.13,3.16,4.06,4.63,5.61a20.47,20.47,0,0,0,4.18,3.5A17,17,0,0,0,174.36,399.42Z" style="fill:#455a64"></path></g><g id="freepik--Turtle--inject-9"><path d="M426.46,364.94a2.4,2.4,0,0,0-2.15-.47l-6.07.67-.78.35a12.28,12.28,0,0,1,3.43,6.42,13.56,13.56,0,0,0,5.18-4.38C426.62,366.77,427.07,365.67,426.46,364.94Z" style="fill:#455a64"></path><path d="M339.59,424.3s13,7.92,16.05,7.41,29.24-8.41,35.52-12.23,24.85-18.16,27.42-36-20-7.54-20-7.54Z" style="fill:#263238"></path><path d="M340.53,424.87s-2.65,11.77-.37,18.31,19.51,22.25,31.33,23.25,19.07-.6,17-3.81-16.12-7.79-20.67-12.57-6.47-9.2-9.67-10.64-5.13-2.08-3.4-5,5.38-12.82,5.38-12.82Z" style="fill:#455a64"></path><path d="M399.85,404.17s18.09,4.9,24.67,10.15,14.91,4.26,15.55,3.36-1.92-17.47-7.62-19.68-11.38,1.37-16.87-4.77S399.85,404.17,399.85,404.17Z" style="fill:#455a64"></path><path d="M414.62,363.81s.52-.13,1.31-.4c2.37-.83,7.2-3,7.95-7.47,1-5.89-5.09-9.23-5.09-9.23a10.65,10.65,0,0,1-8.13,5.82c-5.82.65-20.14,6-20.14,6l24.62,5.11" style="fill:#455a64"></path><path d="M323.81,390.33s-9.62-9.44-9.71-15.94,5.55-22.47,11.48-24.84,10.48-3.52,8.94,2.67-8.12,6.82-4.19,16.35,7.61,10.16,7.61,10.16Z" style="fill:#455a64"></path><path d="M324,403.17s-1.73,5-6.48,6.22c-5.14,1.35-14.34,3.73-16.33,6s-9.57,12.68-3.74,18.25c3.92,3.75,13.94-2.91,17.44-4.48s4.26-5.25,7.88-6.05,11.93-4.35,11.93-4.35l1.86-12.57Z" style="fill:#455a64"></path><path d="M329.39,409s-6.72-.84-8.35-4.72,2.25-18.55,12-25.31,25.23-17,32.34-18.23,36.42-10.4,49.55.86,3.65,21.92,3.65,21.92-19.5,31.31-33,33.35c0,0-5.7,1.35-7.85.32,0,0-1.41,4.58-5,5.58S357,425.37,357,425.37s-2.41,3.36-11.48,3.49-10.92-3.92-12.65-8.38A114.65,114.65,0,0,1,329.39,409Z" style="fill:#455a64"></path><path d="M329.39,409s.07.23.2.69l.55,2c.51,1.78,1.23,4.43,2.41,7.75a23,23,0,0,0,2.51,5.26,9,9,0,0,0,5.7,3.57,25.55,25.55,0,0,0,7.95.2,20.33,20.33,0,0,0,4.26-.93,9,9,0,0,0,3.84-2.29l.06-.07h.06c3.51-.48,7.25-1,11.16-1.7,1-.17,2-.35,3-.56a7.4,7.4,0,0,0,6.47-5.81l.08-.23.23.09a8.48,8.48,0,0,0,3.7.3,31.36,31.36,0,0,0,4-.64h0a15.46,15.46,0,0,0,5.06-1.92,35.77,35.77,0,0,0,4.61-3.23,74.06,74.06,0,0,0,8.33-8.21,166.68,166.68,0,0,0,14.81-19.9v0l0,0a14.62,14.62,0,0,0,2-3.26,18.16,18.16,0,0,0,.69-1.83,14,14,0,0,0,.41-1.92,13.2,13.2,0,0,0-1.27-7.79,19.32,19.32,0,0,0-4.14-5.52,18.13,18.13,0,0,0-5.55-3.94,33.44,33.44,0,0,0-13.08-2.73c-8.87-.23-17.36,1.39-25.31,3.16-2,.44-3.95.91-5.91,1.31a23.8,23.8,0,0,0-5.57,1.69,93.9,93.9,0,0,0-9.94,5.2c-6.24,3.7-11.86,7.49-16.95,11a29.64,29.64,0,0,0-10.27,12.73,32.79,32.79,0,0,0-2.17,6.44,15.11,15.11,0,0,0-.38,5.66,5.64,5.64,0,0,0,2.72,3.44,13.33,13.33,0,0,0,3.05,1.36,19.47,19.47,0,0,0,2,.53l.69.14a14,14,0,0,1-2.72-.57,13.25,13.25,0,0,1-3.1-1.33,5.77,5.77,0,0,1-2.84-3.53,15.46,15.46,0,0,1,.33-5.75,33.68,33.68,0,0,1,2.15-6.51,35,35,0,0,1,4-6.81,26.53,26.53,0,0,1,6.37-6.1c5.08-3.52,10.69-7.32,16.94-11.05a92.84,92.84,0,0,1,10-5.25,24.75,24.75,0,0,1,5.66-1.73c1.94-.4,3.91-.87,5.9-1.32,8-1.78,16.48-3.43,25.43-3.2a34,34,0,0,1,13.28,2.77,18.47,18.47,0,0,1,5.69,4,19.94,19.94,0,0,1,4.25,5.66,13.78,13.78,0,0,1,1.32,8.09,16.52,16.52,0,0,1-.43,2,17.13,17.13,0,0,1-.72,1.89,14.73,14.73,0,0,1-2.07,3.4l0,0a167,167,0,0,1-14.88,20,74.19,74.19,0,0,1-8.4,8.25,36,36,0,0,1-4.67,3.27,15.66,15.66,0,0,1-5.23,2h0a32.71,32.71,0,0,1-4.07.64,14.87,14.87,0,0,1-2,0,5.12,5.12,0,0,1-1.93-.39l.3-.13a9.63,9.63,0,0,1-3.82,5.14,9.47,9.47,0,0,1-3,.95c-1,.2-2,.39-3,.55-3.92.67-7.66,1.2-11.18,1.67l.13-.08a9.38,9.38,0,0,1-4,2.42,21.06,21.06,0,0,1-4.33.92,25.61,25.61,0,0,1-8.06-.25,9.25,9.25,0,0,1-5.84-3.71,22.78,22.78,0,0,1-2.49-5.33c-1.16-3.35-1.85-6-2.32-7.79l-.51-2.05C329.43,409.22,329.39,409,329.39,409Z" style="fill:#263238"></path><path d="M419.27,368.14l-.24.07-.72.14-2.75.5-10.17,1.78-33.92,5.72.08,0L369,377.61l-16.08,8.07.08-.06-8.79,10.18c-1.32,1.53-2.56,3-3.72,4.3a26.28,26.28,0,0,1-3.37,3.55,59.56,59.56,0,0,1-5.6,4.05c-.67.44-1.2.76-1.56,1a4.19,4.19,0,0,1-.55.31,4.14,4.14,0,0,1,.51-.38l1.51-1c1.31-.92,3.26-2.24,5.5-4.14a28,28,0,0,0,3.28-3.55l3.68-4.34,8.74-10.24,0,0,0,0,16.07-8.09,2.56-1.29,0,0h0l33.94-5.56,10.2-1.61,2.77-.41.72-.1Z" style="fill:#263238"></path><path d="M307,422.12a1.57,1.57,0,0,0-1.64.61,2.29,2.29,0,0,0-.6,2.13,2,2,0,0,0,2.43,1.24,2.37,2.37,0,0,0,1.56-2.35C308.68,422.74,307.91,422.56,307,422.12Z" style="fill:#263238"></path><path d="M318.93,422.9a13.68,13.68,0,0,0-.56-3.41,11.06,11.06,0,0,0-1.89-2.86c0-.06.42.1.93.54a5.41,5.41,0,0,1,1.45,2.14,5.81,5.81,0,0,1,.36,2.56C319.16,422.53,319,422.91,318.93,422.9Z" style="fill:#263238"></path><path d="M306.09,431.59c.09.11-.48.72-1.27,1.36s-1.5,1.06-1.59.95.47-.72,1.27-1.36S306,431.48,306.09,431.59Z" style="fill:#263238"></path><path d="M299,433.23c-.13.07-.38-.16-.56-.5s-.23-.68-.1-.74.38.15.56.5S299.09,433.16,299,433.23Z" style="fill:#263238"></path><path d="M310.15,421.49c0,.09-.58-.09-1.47,0a4.38,4.38,0,0,0-4.15,4.6c0,.9.26,1.43.18,1.46a2.25,2.25,0,0,1-.54-1.43,4.41,4.41,0,0,1,4.5-5A2.23,2.23,0,0,1,310.15,421.49Z" style="fill:#263238"></path><g style="opacity:0.30000000000000004"><path d="M344.33,410.41a14.3,14.3,0,0,1-.8-3.74,13.93,13.93,0,0,1-.29-3.81,28.39,28.39,0,0,1,1.09,7.55Z"></path><path d="M361.16,412.78a55.64,55.64,0,0,1-7.57-.48,55.33,55.33,0,0,1-7.51-1,54.42,54.42,0,0,1,7.56.47A56.22,56.22,0,0,1,361.16,412.78Z"></path><path d="M376,400.48a73.54,73.54,0,0,1-6.72,5.85,78.33,78.33,0,0,1-7.05,5.45,73.85,73.85,0,0,1,6.72-5.85A76.71,76.71,0,0,1,376,400.48Z"></path><path d="M376.08,385.9c.15,0-.07,2.6-.16,5.78s0,5.77-.18,5.78a33,33,0,0,1,.34-11.56Z"></path><path d="M363.84,381.28a21.32,21.32,0,0,1,5.58.87,21.05,21.05,0,0,1,5.34,1.84,54,54,0,0,1-5.46-1.33A53.82,53.82,0,0,1,363.84,381.28Z"></path><path d="M390.05,407c-.06.14-2.93-.95-6.53-2.14s-6.55-2-6.51-2.18a7.8,7.8,0,0,1,2,.35c1.22.28,2.88.74,4.69,1.34s3.41,1.22,4.55,1.71A7.2,7.2,0,0,1,390.05,407Z"></path><path d="M400.77,403.69a15.42,15.42,0,0,1-3.53,1.68,14.57,14.57,0,0,1-3.72,1.19,15.42,15.42,0,0,1,3.53-1.68A14.57,14.57,0,0,1,400.77,403.69Z"></path><path d="M389.2,379.29a29.62,29.62,0,0,1-5.1,2.33,30.35,30.35,0,0,1-5.29,1.85,30.18,30.18,0,0,1,5.09-2.33A31,31,0,0,1,389.2,379.29Z"></path><path d="M404.09,383.34c-.07.14-2.74-1-6.11-2.24s-6.16-2.05-6.12-2.2a26.88,26.88,0,0,1,6.3,1.71A26.41,26.41,0,0,1,404.09,383.34Z"></path><path d="M406,397a69.71,69.71,0,0,1-.58-12,35.41,35.41,0,0,1,.55,6A34.23,34.23,0,0,1,406,397Z"></path><path d="M391.22,373.79a4.86,4.86,0,0,1-.33,2.7,4.81,4.81,0,0,1-1.34,2.38,16.15,16.15,0,0,1,.85-2.54A13.83,13.83,0,0,1,391.22,373.79Z"></path><path d="M414,385a21.57,21.57,0,0,1-4.64-.44,21.34,21.34,0,0,1-4.57-1,21.57,21.57,0,0,1,4.64.44A20.64,20.64,0,0,1,414,385Z"></path><path d="M359,421.93a12.32,12.32,0,0,1,.29-3.58,12.94,12.94,0,0,1,.81-3.5,12.31,12.31,0,0,1-.29,3.58A12.68,12.68,0,0,1,359,421.93Z"></path><path d="M332.59,412a13.2,13.2,0,0,1,4.75-.45,13.53,13.53,0,0,1,4.71.73c0,.15-2.13-.14-4.73-.21S332.61,412.1,332.59,412Z"></path><path d="M331.62,394.59a11.5,11.5,0,0,1,4.48.15,11.24,11.24,0,0,1,4.26,1.36c-.05.14-1.95-.44-4.35-.85S331.62,394.74,331.62,394.59Z"></path><path d="M328.94,384.77a8.14,8.14,0,0,1,.44,2.88,8.23,8.23,0,0,1-.09,2.91,8.28,8.28,0,0,1-.43-2.88A8.38,8.38,0,0,1,328.94,384.77Z"></path><path d="M353.55,369.61a11,11,0,0,1-4.81,0,5.72,5.72,0,0,1,2.4-.25A5.88,5.88,0,0,1,353.55,369.61Z"></path><path d="M356.6,381.43a19.3,19.3,0,0,1-.06-4.43,18.79,18.79,0,0,1,.47-4.41,19.26,19.26,0,0,1,.06,4.43A18.89,18.89,0,0,1,356.6,381.43Z"></path><path d="M362.21,364a12.37,12.37,0,0,1-1.6,3.14,11.82,11.82,0,0,1-2.05,2.86,23.86,23.86,0,0,1,3.65-6Z"></path></g><g style="opacity:0.30000000000000004"><path d="M322.24,406.28a2.6,2.6,0,0,0,.47,2.3,10.37,10.37,0,0,0,1.73,1.71,18.67,18.67,0,0,1,5.12,7.49,3.24,3.24,0,0,0,.95,1.61c.51.37,1.42.23,1.55-.38a1.4,1.4,0,0,0-.07-.67c-.85-3.19-1.75-6.17-2.6-9.36a13.32,13.32,0,0,1-7-2.9"></path></g><path d="M304.16,415.2c0,.08-.87.46-2.06,1.47a14.22,14.22,0,0,0-3.55,4.84,33.16,33.16,0,0,0-1.9,5.79,13.82,13.82,0,0,1-.68,2.46,11,11,0,0,1,.33-2.54,25.19,25.19,0,0,1,1.78-5.93,13,13,0,0,1,3.79-4.91,8.4,8.4,0,0,1,1.62-1C303.9,415.23,304.14,415.17,304.16,415.2Z" style="fill:#fff"></path><path d="M406.74,360h-.26l-.76-.06-2.94-.25c-2.55-.12-6.24-.37-10.8-.18a103,103,0,0,0-15.91,1.84A100.31,100.31,0,0,0,357.32,367a95.76,95.76,0,0,0-9.16,4.37,75.54,75.54,0,0,0-8.07,4.93,46.63,46.63,0,0,0-11.44,11.05,32.55,32.55,0,0,0-4.75,9.62,28.19,28.19,0,0,0-.7,2.85c-.06.31-.1.55-.14.75a1.23,1.23,0,0,1-.07.26,19.63,19.63,0,0,1,.71-3.91,31.63,31.63,0,0,1,4.65-9.78,46,46,0,0,1,11.47-11.24,76.86,76.86,0,0,1,8.1-5,93.18,93.18,0,0,1,9.2-4.4A98.05,98.05,0,0,1,392,359.09a94.74,94.74,0,0,1,10.83.35l2.93.35.76.1A.83.83,0,0,1,406.74,360Z" style="fill:#fff"></path><path d="M352.22,389.83a32.79,32.79,0,0,1-5.67,5.94,16.51,16.51,0,0,1,2.64-3.15A16.24,16.24,0,0,1,352.22,389.83Z" style="fill:#fff"></path><g style="opacity:0.30000000000000004"><path d="M320.14,419.51a4.47,4.47,0,0,0-1.52-3.11,3.11,3.11,0,0,0-3.38-.61,10.42,10.42,0,0,1,3.16,2.74,4.91,4.91,0,0,1,.57,4.23A4.48,4.48,0,0,0,320.14,419.51Z"></path></g><g style="opacity:0.30000000000000004"><path d="M339.91,428.3h0l-.19-.13Z"></path></g><g style="opacity:0.30000000000000004"><path d="M358.68,425.46a4.59,4.59,0,0,0-3.07.92c-4.81,2.62-10.23,2.63-15.67,1.92a17.5,17.5,0,0,0,12.23,3.08,10,10,0,0,0,4.64-1.62A4.39,4.39,0,0,0,358.68,425.46Z"></path></g><g style="opacity:0.30000000000000004"><path d="M412.82,391.9l-10.35,13.24a13.22,13.22,0,0,0,7.67-4.88A12.33,12.33,0,0,0,412.82,391.9Z"></path></g><path d="M381.44,466.56a59.39,59.39,0,0,1-7.33-2.6,56.32,56.32,0,0,1-7.15-3.08,58.55,58.55,0,0,1,7.34,2.6A55,55,0,0,1,381.44,466.56Z" style="fill:#263238"></path><path d="M388,465.22c-.09.13-2.56-1.83-6-3.49s-6.53-2.39-6.49-2.55a7.13,7.13,0,0,1,2,.35,26.78,26.78,0,0,1,4.68,1.73,26.19,26.19,0,0,1,4.27,2.58A6.34,6.34,0,0,1,388,465.22Z" style="fill:#263238"></path><path d="M439.34,414a53.27,53.27,0,0,1-10.25-2.61A53.27,53.27,0,0,1,439.34,414Z" style="fill:#263238"></path><path d="M437.45,407.53c-.1.13-1.7-1.11-4-2.06s-4.27-1.26-4.24-1.42a11.89,11.89,0,0,1,8.21,3.48Z" style="fill:#263238"></path></g></svg>